M48
;DRILL file {KiCad 5.0.1} date Thu 28 Mar 2019 22:54:40 ACDT
;FORMAT={-:-/ absolute / metric / decimal}
FMAT,2
METRIC,TZ
T1C0.400
T2C0.850
T3C0.980
T4C1.000
T5C1.500
%
G90
G05
M71
T1
X91.5Y-121.5
X92.2Y-101.2
X92.2Y-114.5
X92.3Y-102.2
X92.4Y-113.3
X92.6Y-118.6
X93.Y-127.
X93.2Y-107.5
X93.2Y-114.4
X93.204Y-96.504
X93.5Y-101.321
X93.5Y-105.5
X94.275Y-103.7
X94.9Y-124.6
X95.625Y-107.4
X95.8Y-102.7
X95.913Y-99.013
X96.1Y-97.95
X96.5Y-105.5
X96.518Y-101.497
X96.7Y-99.975
X96.987Y-98.813
X97.1Y-103.625
X97.6Y-100.7
X97.948Y-97.722
X98.Y-95.8
X99.5Y-105.5
X100.5Y-102.175
X100.8Y-104.5
X102.363Y-103.537
X103.25Y-121.25
X104.2Y-101.2
X105.Y-121.
X105.23Y-103.743
X105.4Y-80.4
X105.613Y-98.725
X106.Y-94.5
X106.2Y-103.5
X106.525Y-101.4
X107.Y-105.6
X108.7Y-98.9
T2
X98.79Y-92.32
X101.22Y-92.32
T3
X98.73Y-77.8
X101.27Y-77.8
T4
X97.5Y-109.
X97.5Y-111.54
X97.5Y-114.08
X97.5Y-116.62
X100.04Y-109.
X100.04Y-111.54
X100.04Y-114.08
X100.04Y-116.62
T5
X96.19Y-84.86
X102.54Y-82.32
T0
M30
