G04 #@! TF.GenerationSoftware,KiCad,Pcbnew,5.0.1*
G04 #@! TF.CreationDate,2019-03-28T22:54:33+10:30*
G04 #@! TF.ProjectId,reflex,7265666C65782E6B696361645F706362,rev?*
G04 #@! TF.SameCoordinates,Original*
G04 #@! TF.FileFunction,Legend,Top*
G04 #@! TF.FilePolarity,Positive*
%FSLAX46Y46*%
G04 Gerber Fmt 4.6, Leading zero omitted, Abs format (unit mm)*
G04 Created by KiCad (PCBNEW 5.0.1) date Thu 28 Mar 2019 22:54:33 ACDT*
%MOMM*%
%LPD*%
G01*
G04 APERTURE LIST*
%ADD10C,0.300000*%
%ADD11C,0.200000*%
%ADD12C,0.250000*%
%ADD13C,0.350000*%
%ADD14C,0.150000*%
%ADD15C,0.120000*%
%ADD16C,0.500000*%
%ADD17C,0.160000*%
G04 APERTURE END LIST*
D10*
X102728571Y-92407142D02*
X103871428Y-92407142D01*
X96128571Y-92407142D02*
X97271428Y-92407142D01*
X96700000Y-92978571D02*
X96700000Y-91835714D01*
D11*
X95100000Y-118100000D02*
G75*
G03X95100000Y-118100000I-100000J0D01*
G01*
X99200000Y-101500000D02*
G75*
G03X99200000Y-101500000I-100000J0D01*
G01*
X95100000Y-100600000D02*
G75*
G03X95100000Y-100600000I-100000J0D01*
G01*
D12*
X109197619Y-121271428D02*
X109197619Y-121900000D01*
X109197619Y-121585714D02*
X108097619Y-121585714D01*
X108254761Y-121690476D01*
X108359523Y-121795238D01*
X108411904Y-121900000D01*
X109092857Y-120800000D02*
X109145238Y-120747619D01*
X109197619Y-120800000D01*
X109145238Y-120852380D01*
X109092857Y-120800000D01*
X109197619Y-120800000D01*
X108097619Y-120066666D02*
X108097619Y-119961904D01*
X108150000Y-119857142D01*
X108202380Y-119804761D01*
X108307142Y-119752380D01*
X108516666Y-119700000D01*
X108778571Y-119700000D01*
X108988095Y-119752380D01*
X109092857Y-119804761D01*
X109145238Y-119857142D01*
X109197619Y-119961904D01*
X109197619Y-120066666D01*
X109145238Y-120171428D01*
X109092857Y-120223809D01*
X108988095Y-120276190D01*
X108778571Y-120328571D01*
X108516666Y-120328571D01*
X108307142Y-120276190D01*
X108202380Y-120223809D01*
X108150000Y-120171428D01*
X108097619Y-120066666D01*
D13*
G04 #@! TO.C,U5*
X93900000Y-117400000D02*
X93900000Y-116700000D01*
X93900000Y-116700000D02*
X94400000Y-116700000D01*
D14*
X94500000Y-116100000D02*
X94500000Y-116900000D01*
X94100000Y-117500000D02*
X93700000Y-117500000D01*
X92500000Y-116900000D02*
X92500000Y-116100000D01*
X93700000Y-115500000D02*
X94100000Y-115500000D01*
X92900000Y-115500000D02*
X93300000Y-115500000D01*
X93300000Y-117500000D02*
X92900000Y-117500000D01*
D11*
G04 #@! TO.C,U2*
X99270000Y-100800000D02*
X99270000Y-101020000D01*
X99270000Y-100800000D02*
X98840000Y-100800000D01*
X98840000Y-100800000D02*
X98840000Y-100280000D01*
D15*
X103480000Y-100800000D02*
X104000000Y-100800000D01*
X104000000Y-100800000D02*
X104000000Y-100280000D01*
X103480000Y-95640000D02*
X104000000Y-95640000D01*
X104000000Y-95640000D02*
X104000000Y-96160000D01*
X99360000Y-95640000D02*
X98840000Y-95640000D01*
X98840000Y-95640000D02*
X98840000Y-96160000D01*
G04 #@! TO.C,J2*
X101082929Y-108620000D02*
X101480000Y-108620000D01*
X101082929Y-109380000D02*
X101480000Y-109380000D01*
X98610000Y-108620000D02*
X98997071Y-108620000D01*
X98610000Y-109380000D02*
X98997071Y-109380000D01*
X101082929Y-111160000D02*
X101480000Y-111160000D01*
X101082929Y-111920000D02*
X101480000Y-111920000D01*
X98542929Y-111160000D02*
X98997071Y-111160000D01*
X98542929Y-111920000D02*
X98997071Y-111920000D01*
X101082929Y-113700000D02*
X101480000Y-113700000D01*
X101082929Y-114460000D02*
X101480000Y-114460000D01*
X98542929Y-113700000D02*
X98997071Y-113700000D01*
X98542929Y-114460000D02*
X98997071Y-114460000D01*
X101082929Y-116240000D02*
X101480000Y-116240000D01*
X101082929Y-117000000D02*
X101480000Y-117000000D01*
X98542929Y-116240000D02*
X98997071Y-116240000D01*
X98542929Y-117000000D02*
X98997071Y-117000000D01*
X96230000Y-109000000D02*
X96230000Y-107730000D01*
X96230000Y-107730000D02*
X97500000Y-107730000D01*
G04 #@! TO.C,D3*
X100660000Y-106200000D02*
X100660000Y-104300000D01*
X98340000Y-104800000D02*
X98340000Y-106200000D01*
G04 #@! TO.C,D2*
X92340000Y-104850000D02*
X92340000Y-106250000D01*
X94660000Y-106250000D02*
X94660000Y-104350000D01*
G04 #@! TO.C,D1*
X97660000Y-106250000D02*
X97660000Y-104350000D01*
X95340000Y-104850000D02*
X95340000Y-106250000D01*
G04 #@! TO.C,J1*
X104394401Y-129966402D02*
X104210553Y-129782554D01*
X102598350Y-128170351D02*
X101247776Y-126819777D01*
X101247776Y-126819777D02*
X101608400Y-126459153D01*
X106819777Y-121247776D02*
X108170351Y-122598350D01*
X109782554Y-124210553D02*
X109966402Y-124394401D01*
X106819777Y-121247776D02*
X106459153Y-121608400D01*
G04 #@! TO.C,C1*
X105400000Y-78235000D02*
X103800000Y-78235000D01*
X105400000Y-79565000D02*
X103800000Y-79565000D01*
G04 #@! TO.C,C2*
X106835000Y-100500000D02*
X106835000Y-98900000D01*
X108165000Y-100500000D02*
X108165000Y-98900000D01*
G04 #@! TO.C,C3*
X95800000Y-96565000D02*
X94200000Y-96565000D01*
X95800000Y-95235000D02*
X94200000Y-95235000D01*
G04 #@! TO.C,C4*
X96915000Y-126000000D02*
X96915000Y-128000000D01*
X95085000Y-126000000D02*
X95085000Y-128000000D01*
G04 #@! TO.C,C5*
X93950000Y-122335000D02*
X91950000Y-122335000D01*
X93950000Y-124165000D02*
X91950000Y-124165000D01*
G04 #@! TO.C,F1*
X97615000Y-125390000D02*
X97615000Y-128610000D01*
X100785000Y-125390000D02*
X100785000Y-128610000D01*
D16*
G04 #@! TO.C,Q1*
X101833940Y-79383920D02*
G75*
G03X101833940Y-79383920I-250020J0D01*
G01*
D15*
X101182020Y-78723475D02*
G75*
G02X98818000Y-78723500I-1182020J923475D01*
G01*
X98817980Y-76876525D02*
G75*
G02X101182000Y-76876500I1182020J-923475D01*
G01*
G04 #@! TO.C,R1*
X96670000Y-121725000D02*
X96670000Y-123325000D01*
X95330000Y-121725000D02*
X95330000Y-123325000D01*
G04 #@! TO.C,R2*
X103800000Y-77970000D02*
X105400000Y-77970000D01*
X103800000Y-76630000D02*
X105400000Y-76630000D01*
G04 #@! TO.C,R4*
X106830000Y-97200000D02*
X106830000Y-95600000D01*
X108170000Y-97200000D02*
X108170000Y-95600000D01*
G04 #@! TO.C,R7*
X103975000Y-104030000D02*
X102375000Y-104030000D01*
X103975000Y-105370000D02*
X102375000Y-105370000D01*
D14*
G04 #@! TO.C,R8*
X95725000Y-109850000D02*
X95725000Y-110650000D01*
X92475000Y-109850000D02*
X92475000Y-110650000D01*
D15*
G04 #@! TO.C,R9*
X99200000Y-117830000D02*
X100800000Y-117830000D01*
X99200000Y-119170000D02*
X100800000Y-119170000D01*
G04 #@! TO.C,SW1*
X93015000Y-80415000D02*
X106985000Y-80415000D01*
X106985000Y-80415000D02*
X106985000Y-94385000D01*
X106985000Y-94385000D02*
X93015000Y-94385000D01*
X93015000Y-94385000D02*
X93015000Y-80415000D01*
D14*
G04 #@! TO.C,SW2*
X107500000Y-102500000D02*
X107500000Y-105500000D01*
X110000000Y-102500000D02*
X110000000Y-103250000D01*
X110000000Y-105500000D02*
X110000000Y-104750000D01*
D11*
G04 #@! TO.C,U1*
X103126920Y-122220000D02*
G75*
G03X103126920Y-122220000I-106920J0D01*
G01*
D15*
X101630000Y-119840000D02*
X101630000Y-119720000D01*
X101630000Y-119720000D02*
X99870000Y-119720000D01*
X99870000Y-119720000D02*
X99870000Y-119840000D01*
X102650000Y-122790000D02*
X99870000Y-122790000D01*
X99870000Y-122780000D02*
X99870000Y-122660000D01*
G04 #@! TO.C,U3*
X94310000Y-127850000D02*
X94460000Y-127850000D01*
X94460000Y-127850000D02*
X94460000Y-126150000D01*
X94460000Y-126150000D02*
X94310000Y-126150000D01*
X91590000Y-127850000D02*
X91440000Y-127850000D01*
X91440000Y-127850000D02*
X91440000Y-126150000D01*
X91440000Y-126150000D02*
X91590000Y-126150000D01*
D13*
G04 #@! TO.C,U4*
X93900000Y-99900000D02*
X93900000Y-99200000D01*
X93900000Y-99200000D02*
X94400000Y-99200000D01*
D14*
X94500000Y-98600000D02*
X94500000Y-99400000D01*
X94100000Y-100000000D02*
X93700000Y-100000000D01*
X92500000Y-99400000D02*
X92500000Y-98600000D01*
X93700000Y-98000000D02*
X94100000Y-98000000D01*
X92900000Y-98000000D02*
X93300000Y-98000000D01*
X93300000Y-100000000D02*
X92900000Y-100000000D01*
G04 #@! TO.C,U5*
D17*
X92738095Y-118352380D02*
X92738095Y-119161904D01*
X92785714Y-119257142D01*
X92833333Y-119304761D01*
X92928571Y-119352380D01*
X93119047Y-119352380D01*
X93214285Y-119304761D01*
X93261904Y-119257142D01*
X93309523Y-119161904D01*
X93309523Y-118352380D01*
X94261904Y-118352380D02*
X93785714Y-118352380D01*
X93738095Y-118828571D01*
X93785714Y-118780952D01*
X93880952Y-118733333D01*
X94119047Y-118733333D01*
X94214285Y-118780952D01*
X94261904Y-118828571D01*
X94309523Y-118923809D01*
X94309523Y-119161904D01*
X94261904Y-119257142D01*
X94214285Y-119304761D01*
X94119047Y-119352380D01*
X93880952Y-119352380D01*
X93785714Y-119304761D01*
X93738095Y-119257142D01*
G04 #@! TO.C,D3*
X98761904Y-103552380D02*
X98761904Y-102552380D01*
X99000000Y-102552380D01*
X99142857Y-102600000D01*
X99238095Y-102695238D01*
X99285714Y-102790476D01*
X99333333Y-102980952D01*
X99333333Y-103123809D01*
X99285714Y-103314285D01*
X99238095Y-103409523D01*
X99142857Y-103504761D01*
X99000000Y-103552380D01*
X98761904Y-103552380D01*
X99666666Y-102552380D02*
X100285714Y-102552380D01*
X99952380Y-102933333D01*
X100095238Y-102933333D01*
X100190476Y-102980952D01*
X100238095Y-103028571D01*
X100285714Y-103123809D01*
X100285714Y-103361904D01*
X100238095Y-103457142D01*
X100190476Y-103504761D01*
X100095238Y-103552380D01*
X99809523Y-103552380D01*
X99714285Y-103504761D01*
X99666666Y-103457142D01*
G04 #@! TO.C,D2*
X92761904Y-103552380D02*
X92761904Y-102552380D01*
X93000000Y-102552380D01*
X93142857Y-102600000D01*
X93238095Y-102695238D01*
X93285714Y-102790476D01*
X93333333Y-102980952D01*
X93333333Y-103123809D01*
X93285714Y-103314285D01*
X93238095Y-103409523D01*
X93142857Y-103504761D01*
X93000000Y-103552380D01*
X92761904Y-103552380D01*
X93714285Y-102647619D02*
X93761904Y-102600000D01*
X93857142Y-102552380D01*
X94095238Y-102552380D01*
X94190476Y-102600000D01*
X94238095Y-102647619D01*
X94285714Y-102742857D01*
X94285714Y-102838095D01*
X94238095Y-102980952D01*
X93666666Y-103552380D01*
X94285714Y-103552380D01*
G04 #@! TO.C,D1*
X95811904Y-103552380D02*
X95811904Y-102552380D01*
X96050000Y-102552380D01*
X96192857Y-102600000D01*
X96288095Y-102695238D01*
X96335714Y-102790476D01*
X96383333Y-102980952D01*
X96383333Y-103123809D01*
X96335714Y-103314285D01*
X96288095Y-103409523D01*
X96192857Y-103504761D01*
X96050000Y-103552380D01*
X95811904Y-103552380D01*
X97335714Y-103552380D02*
X96764285Y-103552380D01*
X97050000Y-103552380D02*
X97050000Y-102552380D01*
X96954761Y-102695238D01*
X96859523Y-102790476D01*
X96764285Y-102838095D01*
G04 #@! TO.C,C1*
X106883333Y-79307142D02*
X106835714Y-79354761D01*
X106692857Y-79402380D01*
X106597619Y-79402380D01*
X106454761Y-79354761D01*
X106359523Y-79259523D01*
X106311904Y-79164285D01*
X106264285Y-78973809D01*
X106264285Y-78830952D01*
X106311904Y-78640476D01*
X106359523Y-78545238D01*
X106454761Y-78450000D01*
X106597619Y-78402380D01*
X106692857Y-78402380D01*
X106835714Y-78450000D01*
X106883333Y-78497619D01*
X107835714Y-79402380D02*
X107264285Y-79402380D01*
X107550000Y-79402380D02*
X107550000Y-78402380D01*
X107454761Y-78545238D01*
X107359523Y-78640476D01*
X107264285Y-78688095D01*
G04 #@! TO.C,C2*
X106357142Y-99866666D02*
X106404761Y-99914285D01*
X106452380Y-100057142D01*
X106452380Y-100152380D01*
X106404761Y-100295238D01*
X106309523Y-100390476D01*
X106214285Y-100438095D01*
X106023809Y-100485714D01*
X105880952Y-100485714D01*
X105690476Y-100438095D01*
X105595238Y-100390476D01*
X105500000Y-100295238D01*
X105452380Y-100152380D01*
X105452380Y-100057142D01*
X105500000Y-99914285D01*
X105547619Y-99866666D01*
X105547619Y-99485714D02*
X105500000Y-99438095D01*
X105452380Y-99342857D01*
X105452380Y-99104761D01*
X105500000Y-99009523D01*
X105547619Y-98961904D01*
X105642857Y-98914285D01*
X105738095Y-98914285D01*
X105880952Y-98961904D01*
X106452380Y-99533333D01*
X106452380Y-98914285D01*
G04 #@! TO.C,C3*
X92333333Y-96257142D02*
X92285714Y-96304761D01*
X92142857Y-96352380D01*
X92047619Y-96352380D01*
X91904761Y-96304761D01*
X91809523Y-96209523D01*
X91761904Y-96114285D01*
X91714285Y-95923809D01*
X91714285Y-95780952D01*
X91761904Y-95590476D01*
X91809523Y-95495238D01*
X91904761Y-95400000D01*
X92047619Y-95352380D01*
X92142857Y-95352380D01*
X92285714Y-95400000D01*
X92333333Y-95447619D01*
X92666666Y-95352380D02*
X93285714Y-95352380D01*
X92952380Y-95733333D01*
X93095238Y-95733333D01*
X93190476Y-95780952D01*
X93238095Y-95828571D01*
X93285714Y-95923809D01*
X93285714Y-96161904D01*
X93238095Y-96257142D01*
X93190476Y-96304761D01*
X93095238Y-96352380D01*
X92809523Y-96352380D01*
X92714285Y-96304761D01*
X92666666Y-96257142D01*
G04 #@! TO.C,C4*
X95833333Y-125057142D02*
X95785714Y-125104761D01*
X95642857Y-125152380D01*
X95547619Y-125152380D01*
X95404761Y-125104761D01*
X95309523Y-125009523D01*
X95261904Y-124914285D01*
X95214285Y-124723809D01*
X95214285Y-124580952D01*
X95261904Y-124390476D01*
X95309523Y-124295238D01*
X95404761Y-124200000D01*
X95547619Y-124152380D01*
X95642857Y-124152380D01*
X95785714Y-124200000D01*
X95833333Y-124247619D01*
X96690476Y-124485714D02*
X96690476Y-125152380D01*
X96452380Y-124104761D02*
X96214285Y-124819047D01*
X96833333Y-124819047D01*
G04 #@! TO.C,C5*
X92783333Y-121857142D02*
X92735714Y-121904761D01*
X92592857Y-121952380D01*
X92497619Y-121952380D01*
X92354761Y-121904761D01*
X92259523Y-121809523D01*
X92211904Y-121714285D01*
X92164285Y-121523809D01*
X92164285Y-121380952D01*
X92211904Y-121190476D01*
X92259523Y-121095238D01*
X92354761Y-121000000D01*
X92497619Y-120952380D01*
X92592857Y-120952380D01*
X92735714Y-121000000D01*
X92783333Y-121047619D01*
X93688095Y-120952380D02*
X93211904Y-120952380D01*
X93164285Y-121428571D01*
X93211904Y-121380952D01*
X93307142Y-121333333D01*
X93545238Y-121333333D01*
X93640476Y-121380952D01*
X93688095Y-121428571D01*
X93735714Y-121523809D01*
X93735714Y-121761904D01*
X93688095Y-121857142D01*
X93640476Y-121904761D01*
X93545238Y-121952380D01*
X93307142Y-121952380D01*
X93211904Y-121904761D01*
X93164285Y-121857142D01*
G04 #@! TO.C,F1*
D14*
X98866666Y-123828571D02*
X98533333Y-123828571D01*
X98533333Y-124352380D02*
X98533333Y-123352380D01*
X99009523Y-123352380D01*
X99914285Y-124352380D02*
X99342857Y-124352380D01*
X99628571Y-124352380D02*
X99628571Y-123352380D01*
X99533333Y-123495238D01*
X99438095Y-123590476D01*
X99342857Y-123638095D01*
G04 #@! TO.C,Q1*
D17*
X96404761Y-78347619D02*
X96309523Y-78300000D01*
X96214285Y-78204761D01*
X96071428Y-78061904D01*
X95976190Y-78014285D01*
X95880952Y-78014285D01*
X95928571Y-78252380D02*
X95833333Y-78204761D01*
X95738095Y-78109523D01*
X95690476Y-77919047D01*
X95690476Y-77585714D01*
X95738095Y-77395238D01*
X95833333Y-77300000D01*
X95928571Y-77252380D01*
X96119047Y-77252380D01*
X96214285Y-77300000D01*
X96309523Y-77395238D01*
X96357142Y-77585714D01*
X96357142Y-77919047D01*
X96309523Y-78109523D01*
X96214285Y-78204761D01*
X96119047Y-78252380D01*
X95928571Y-78252380D01*
X97309523Y-78252380D02*
X96738095Y-78252380D01*
X97023809Y-78252380D02*
X97023809Y-77252380D01*
X96928571Y-77395238D01*
X96833333Y-77490476D01*
X96738095Y-77538095D01*
G04 #@! TO.C,R1*
X95833333Y-120752380D02*
X95500000Y-120276190D01*
X95261904Y-120752380D02*
X95261904Y-119752380D01*
X95642857Y-119752380D01*
X95738095Y-119800000D01*
X95785714Y-119847619D01*
X95833333Y-119942857D01*
X95833333Y-120085714D01*
X95785714Y-120180952D01*
X95738095Y-120228571D01*
X95642857Y-120276190D01*
X95261904Y-120276190D01*
X96785714Y-120752380D02*
X96214285Y-120752380D01*
X96500000Y-120752380D02*
X96500000Y-119752380D01*
X96404761Y-119895238D01*
X96309523Y-119990476D01*
X96214285Y-120038095D01*
G04 #@! TO.C,R2*
X106858333Y-77752380D02*
X106525000Y-77276190D01*
X106286904Y-77752380D02*
X106286904Y-76752380D01*
X106667857Y-76752380D01*
X106763095Y-76800000D01*
X106810714Y-76847619D01*
X106858333Y-76942857D01*
X106858333Y-77085714D01*
X106810714Y-77180952D01*
X106763095Y-77228571D01*
X106667857Y-77276190D01*
X106286904Y-77276190D01*
X107239285Y-76847619D02*
X107286904Y-76800000D01*
X107382142Y-76752380D01*
X107620238Y-76752380D01*
X107715476Y-76800000D01*
X107763095Y-76847619D01*
X107810714Y-76942857D01*
X107810714Y-77038095D01*
X107763095Y-77180952D01*
X107191666Y-77752380D01*
X107810714Y-77752380D01*
G04 #@! TO.C,R4*
X106352380Y-96566666D02*
X105876190Y-96900000D01*
X106352380Y-97138095D02*
X105352380Y-97138095D01*
X105352380Y-96757142D01*
X105400000Y-96661904D01*
X105447619Y-96614285D01*
X105542857Y-96566666D01*
X105685714Y-96566666D01*
X105780952Y-96614285D01*
X105828571Y-96661904D01*
X105876190Y-96757142D01*
X105876190Y-97138095D01*
X105685714Y-95709523D02*
X106352380Y-95709523D01*
X105304761Y-95947619D02*
X106019047Y-96185714D01*
X106019047Y-95566666D01*
G04 #@! TO.C,R7*
X103033333Y-103552380D02*
X102700000Y-103076190D01*
X102461904Y-103552380D02*
X102461904Y-102552380D01*
X102842857Y-102552380D01*
X102938095Y-102600000D01*
X102985714Y-102647619D01*
X103033333Y-102742857D01*
X103033333Y-102885714D01*
X102985714Y-102980952D01*
X102938095Y-103028571D01*
X102842857Y-103076190D01*
X102461904Y-103076190D01*
X103366666Y-102552380D02*
X104033333Y-102552380D01*
X103604761Y-103552380D01*
G04 #@! TO.C,R8*
X93933333Y-113252380D02*
X93600000Y-112776190D01*
X93361904Y-113252380D02*
X93361904Y-112252380D01*
X93742857Y-112252380D01*
X93838095Y-112300000D01*
X93885714Y-112347619D01*
X93933333Y-112442857D01*
X93933333Y-112585714D01*
X93885714Y-112680952D01*
X93838095Y-112728571D01*
X93742857Y-112776190D01*
X93361904Y-112776190D01*
X94504761Y-112680952D02*
X94409523Y-112633333D01*
X94361904Y-112585714D01*
X94314285Y-112490476D01*
X94314285Y-112442857D01*
X94361904Y-112347619D01*
X94409523Y-112300000D01*
X94504761Y-112252380D01*
X94695238Y-112252380D01*
X94790476Y-112300000D01*
X94838095Y-112347619D01*
X94885714Y-112442857D01*
X94885714Y-112490476D01*
X94838095Y-112585714D01*
X94790476Y-112633333D01*
X94695238Y-112680952D01*
X94504761Y-112680952D01*
X94409523Y-112728571D01*
X94361904Y-112776190D01*
X94314285Y-112871428D01*
X94314285Y-113061904D01*
X94361904Y-113157142D01*
X94409523Y-113204761D01*
X94504761Y-113252380D01*
X94695238Y-113252380D01*
X94790476Y-113204761D01*
X94838095Y-113157142D01*
X94885714Y-113061904D01*
X94885714Y-112871428D01*
X94838095Y-112776190D01*
X94790476Y-112728571D01*
X94695238Y-112680952D01*
G04 #@! TO.C,R9*
X97433333Y-118952380D02*
X97100000Y-118476190D01*
X96861904Y-118952380D02*
X96861904Y-117952380D01*
X97242857Y-117952380D01*
X97338095Y-118000000D01*
X97385714Y-118047619D01*
X97433333Y-118142857D01*
X97433333Y-118285714D01*
X97385714Y-118380952D01*
X97338095Y-118428571D01*
X97242857Y-118476190D01*
X96861904Y-118476190D01*
X97909523Y-118952380D02*
X98100000Y-118952380D01*
X98195238Y-118904761D01*
X98242857Y-118857142D01*
X98338095Y-118714285D01*
X98385714Y-118523809D01*
X98385714Y-118142857D01*
X98338095Y-118047619D01*
X98290476Y-118000000D01*
X98195238Y-117952380D01*
X98004761Y-117952380D01*
X97909523Y-118000000D01*
X97861904Y-118047619D01*
X97814285Y-118142857D01*
X97814285Y-118380952D01*
X97861904Y-118476190D01*
X97909523Y-118523809D01*
X98004761Y-118571428D01*
X98195238Y-118571428D01*
X98290476Y-118523809D01*
X98338095Y-118476190D01*
X98385714Y-118380952D01*
G04 #@! TO.C,SW1*
X94416666Y-82554761D02*
X94559523Y-82602380D01*
X94797619Y-82602380D01*
X94892857Y-82554761D01*
X94940476Y-82507142D01*
X94988095Y-82411904D01*
X94988095Y-82316666D01*
X94940476Y-82221428D01*
X94892857Y-82173809D01*
X94797619Y-82126190D01*
X94607142Y-82078571D01*
X94511904Y-82030952D01*
X94464285Y-81983333D01*
X94416666Y-81888095D01*
X94416666Y-81792857D01*
X94464285Y-81697619D01*
X94511904Y-81650000D01*
X94607142Y-81602380D01*
X94845238Y-81602380D01*
X94988095Y-81650000D01*
X95321428Y-81602380D02*
X95559523Y-82602380D01*
X95750000Y-81888095D01*
X95940476Y-82602380D01*
X96178571Y-81602380D01*
X97083333Y-82602380D02*
X96511904Y-82602380D01*
X96797619Y-82602380D02*
X96797619Y-81602380D01*
X96702380Y-81745238D01*
X96607142Y-81840476D01*
X96511904Y-81888095D01*
G04 #@! TO.C,U1*
D14*
X103152380Y-120861904D02*
X103961904Y-120861904D01*
X104057142Y-120814285D01*
X104104761Y-120766666D01*
X104152380Y-120671428D01*
X104152380Y-120480952D01*
X104104761Y-120385714D01*
X104057142Y-120338095D01*
X103961904Y-120290476D01*
X103152380Y-120290476D01*
X104152380Y-119290476D02*
X104152380Y-119861904D01*
X104152380Y-119576190D02*
X103152380Y-119576190D01*
X103295238Y-119671428D01*
X103390476Y-119766666D01*
X103438095Y-119861904D01*
G04 #@! TO.C,U4*
D17*
X92738095Y-100952380D02*
X92738095Y-101761904D01*
X92785714Y-101857142D01*
X92833333Y-101904761D01*
X92928571Y-101952380D01*
X93119047Y-101952380D01*
X93214285Y-101904761D01*
X93261904Y-101857142D01*
X93309523Y-101761904D01*
X93309523Y-100952380D01*
X94214285Y-101285714D02*
X94214285Y-101952380D01*
X93976190Y-100904761D02*
X93738095Y-101619047D01*
X94357142Y-101619047D01*
G04 #@! TD*
M02*
