G04 #@! TF.GenerationSoftware,KiCad,Pcbnew,5.0.1*
G04 #@! TF.CreationDate,2019-03-28T22:54:33+10:30*
G04 #@! TF.ProjectId,reflex,7265666C65782E6B696361645F706362,rev?*
G04 #@! TF.SameCoordinates,Original*
G04 #@! TF.FileFunction,Soldermask,Bot*
G04 #@! TF.FilePolarity,Negative*
%FSLAX46Y46*%
G04 Gerber Fmt 4.6, Leading zero omitted, Abs format (unit mm)*
G04 Created by KiCad (PCBNEW 5.0.1) date Thu 28 Mar 2019 22:54:33 ACDT*
%MOMM*%
%LPD*%
G01*
G04 APERTURE LIST*
%ADD10C,0.100000*%
G04 APERTURE END LIST*
D10*
G36*
X100150443Y-115725519D02*
X100216627Y-115732037D01*
X100329853Y-115766384D01*
X100386467Y-115783557D01*
X100525087Y-115857652D01*
X100542991Y-115867222D01*
X100578729Y-115896552D01*
X100680186Y-115979814D01*
X100763448Y-116081271D01*
X100792778Y-116117009D01*
X100792779Y-116117011D01*
X100876443Y-116273533D01*
X100876443Y-116273534D01*
X100927963Y-116443373D01*
X100945359Y-116620000D01*
X100927963Y-116796627D01*
X100893616Y-116909853D01*
X100876443Y-116966467D01*
X100802348Y-117105087D01*
X100792778Y-117122991D01*
X100763448Y-117158729D01*
X100680186Y-117260186D01*
X100578729Y-117343448D01*
X100542991Y-117372778D01*
X100542989Y-117372779D01*
X100386467Y-117456443D01*
X100329853Y-117473616D01*
X100216627Y-117507963D01*
X100150443Y-117514481D01*
X100084260Y-117521000D01*
X99995740Y-117521000D01*
X99929557Y-117514481D01*
X99863373Y-117507963D01*
X99750147Y-117473616D01*
X99693533Y-117456443D01*
X99537011Y-117372779D01*
X99537009Y-117372778D01*
X99501271Y-117343448D01*
X99399814Y-117260186D01*
X99316552Y-117158729D01*
X99287222Y-117122991D01*
X99277652Y-117105087D01*
X99203557Y-116966467D01*
X99186384Y-116909853D01*
X99152037Y-116796627D01*
X99134641Y-116620000D01*
X99152037Y-116443373D01*
X99203557Y-116273534D01*
X99203557Y-116273533D01*
X99287221Y-116117011D01*
X99287222Y-116117009D01*
X99316552Y-116081271D01*
X99399814Y-115979814D01*
X99501271Y-115896552D01*
X99537009Y-115867222D01*
X99554913Y-115857652D01*
X99693533Y-115783557D01*
X99750147Y-115766384D01*
X99863373Y-115732037D01*
X99929557Y-115725519D01*
X99995740Y-115719000D01*
X100084260Y-115719000D01*
X100150443Y-115725519D01*
X100150443Y-115725519D01*
G37*
G36*
X97610443Y-115725519D02*
X97676627Y-115732037D01*
X97789853Y-115766384D01*
X97846467Y-115783557D01*
X97985087Y-115857652D01*
X98002991Y-115867222D01*
X98038729Y-115896552D01*
X98140186Y-115979814D01*
X98223448Y-116081271D01*
X98252778Y-116117009D01*
X98252779Y-116117011D01*
X98336443Y-116273533D01*
X98336443Y-116273534D01*
X98387963Y-116443373D01*
X98405359Y-116620000D01*
X98387963Y-116796627D01*
X98353616Y-116909853D01*
X98336443Y-116966467D01*
X98262348Y-117105087D01*
X98252778Y-117122991D01*
X98223448Y-117158729D01*
X98140186Y-117260186D01*
X98038729Y-117343448D01*
X98002991Y-117372778D01*
X98002989Y-117372779D01*
X97846467Y-117456443D01*
X97789853Y-117473616D01*
X97676627Y-117507963D01*
X97610443Y-117514481D01*
X97544260Y-117521000D01*
X97455740Y-117521000D01*
X97389557Y-117514481D01*
X97323373Y-117507963D01*
X97210147Y-117473616D01*
X97153533Y-117456443D01*
X96997011Y-117372779D01*
X96997009Y-117372778D01*
X96961271Y-117343448D01*
X96859814Y-117260186D01*
X96776552Y-117158729D01*
X96747222Y-117122991D01*
X96737652Y-117105087D01*
X96663557Y-116966467D01*
X96646384Y-116909853D01*
X96612037Y-116796627D01*
X96594641Y-116620000D01*
X96612037Y-116443373D01*
X96663557Y-116273534D01*
X96663557Y-116273533D01*
X96747221Y-116117011D01*
X96747222Y-116117009D01*
X96776552Y-116081271D01*
X96859814Y-115979814D01*
X96961271Y-115896552D01*
X96997009Y-115867222D01*
X97014913Y-115857652D01*
X97153533Y-115783557D01*
X97210147Y-115766384D01*
X97323373Y-115732037D01*
X97389557Y-115725519D01*
X97455740Y-115719000D01*
X97544260Y-115719000D01*
X97610443Y-115725519D01*
X97610443Y-115725519D01*
G37*
G36*
X100150442Y-113185518D02*
X100216627Y-113192037D01*
X100329853Y-113226384D01*
X100386467Y-113243557D01*
X100525087Y-113317652D01*
X100542991Y-113327222D01*
X100578729Y-113356552D01*
X100680186Y-113439814D01*
X100763448Y-113541271D01*
X100792778Y-113577009D01*
X100792779Y-113577011D01*
X100876443Y-113733533D01*
X100876443Y-113733534D01*
X100927963Y-113903373D01*
X100945359Y-114080000D01*
X100927963Y-114256627D01*
X100893616Y-114369853D01*
X100876443Y-114426467D01*
X100802348Y-114565087D01*
X100792778Y-114582991D01*
X100763448Y-114618729D01*
X100680186Y-114720186D01*
X100578729Y-114803448D01*
X100542991Y-114832778D01*
X100542989Y-114832779D01*
X100386467Y-114916443D01*
X100329853Y-114933616D01*
X100216627Y-114967963D01*
X100150442Y-114974482D01*
X100084260Y-114981000D01*
X99995740Y-114981000D01*
X99929558Y-114974482D01*
X99863373Y-114967963D01*
X99750147Y-114933616D01*
X99693533Y-114916443D01*
X99537011Y-114832779D01*
X99537009Y-114832778D01*
X99501271Y-114803448D01*
X99399814Y-114720186D01*
X99316552Y-114618729D01*
X99287222Y-114582991D01*
X99277652Y-114565087D01*
X99203557Y-114426467D01*
X99186384Y-114369853D01*
X99152037Y-114256627D01*
X99134641Y-114080000D01*
X99152037Y-113903373D01*
X99203557Y-113733534D01*
X99203557Y-113733533D01*
X99287221Y-113577011D01*
X99287222Y-113577009D01*
X99316552Y-113541271D01*
X99399814Y-113439814D01*
X99501271Y-113356552D01*
X99537009Y-113327222D01*
X99554913Y-113317652D01*
X99693533Y-113243557D01*
X99750147Y-113226384D01*
X99863373Y-113192037D01*
X99929558Y-113185518D01*
X99995740Y-113179000D01*
X100084260Y-113179000D01*
X100150442Y-113185518D01*
X100150442Y-113185518D01*
G37*
G36*
X97610442Y-113185518D02*
X97676627Y-113192037D01*
X97789853Y-113226384D01*
X97846467Y-113243557D01*
X97985087Y-113317652D01*
X98002991Y-113327222D01*
X98038729Y-113356552D01*
X98140186Y-113439814D01*
X98223448Y-113541271D01*
X98252778Y-113577009D01*
X98252779Y-113577011D01*
X98336443Y-113733533D01*
X98336443Y-113733534D01*
X98387963Y-113903373D01*
X98405359Y-114080000D01*
X98387963Y-114256627D01*
X98353616Y-114369853D01*
X98336443Y-114426467D01*
X98262348Y-114565087D01*
X98252778Y-114582991D01*
X98223448Y-114618729D01*
X98140186Y-114720186D01*
X98038729Y-114803448D01*
X98002991Y-114832778D01*
X98002989Y-114832779D01*
X97846467Y-114916443D01*
X97789853Y-114933616D01*
X97676627Y-114967963D01*
X97610442Y-114974482D01*
X97544260Y-114981000D01*
X97455740Y-114981000D01*
X97389558Y-114974482D01*
X97323373Y-114967963D01*
X97210147Y-114933616D01*
X97153533Y-114916443D01*
X96997011Y-114832779D01*
X96997009Y-114832778D01*
X96961271Y-114803448D01*
X96859814Y-114720186D01*
X96776552Y-114618729D01*
X96747222Y-114582991D01*
X96737652Y-114565087D01*
X96663557Y-114426467D01*
X96646384Y-114369853D01*
X96612037Y-114256627D01*
X96594641Y-114080000D01*
X96612037Y-113903373D01*
X96663557Y-113733534D01*
X96663557Y-113733533D01*
X96747221Y-113577011D01*
X96747222Y-113577009D01*
X96776552Y-113541271D01*
X96859814Y-113439814D01*
X96961271Y-113356552D01*
X96997009Y-113327222D01*
X97014913Y-113317652D01*
X97153533Y-113243557D01*
X97210147Y-113226384D01*
X97323373Y-113192037D01*
X97389558Y-113185518D01*
X97455740Y-113179000D01*
X97544260Y-113179000D01*
X97610442Y-113185518D01*
X97610442Y-113185518D01*
G37*
G36*
X100150442Y-110645518D02*
X100216627Y-110652037D01*
X100329853Y-110686384D01*
X100386467Y-110703557D01*
X100525087Y-110777652D01*
X100542991Y-110787222D01*
X100578729Y-110816552D01*
X100680186Y-110899814D01*
X100763448Y-111001271D01*
X100792778Y-111037009D01*
X100792779Y-111037011D01*
X100876443Y-111193533D01*
X100876443Y-111193534D01*
X100927963Y-111363373D01*
X100945359Y-111540000D01*
X100927963Y-111716627D01*
X100893616Y-111829853D01*
X100876443Y-111886467D01*
X100802348Y-112025087D01*
X100792778Y-112042991D01*
X100763448Y-112078729D01*
X100680186Y-112180186D01*
X100578729Y-112263448D01*
X100542991Y-112292778D01*
X100542989Y-112292779D01*
X100386467Y-112376443D01*
X100329853Y-112393616D01*
X100216627Y-112427963D01*
X100150442Y-112434482D01*
X100084260Y-112441000D01*
X99995740Y-112441000D01*
X99929558Y-112434482D01*
X99863373Y-112427963D01*
X99750147Y-112393616D01*
X99693533Y-112376443D01*
X99537011Y-112292779D01*
X99537009Y-112292778D01*
X99501271Y-112263448D01*
X99399814Y-112180186D01*
X99316552Y-112078729D01*
X99287222Y-112042991D01*
X99277652Y-112025087D01*
X99203557Y-111886467D01*
X99186384Y-111829853D01*
X99152037Y-111716627D01*
X99134641Y-111540000D01*
X99152037Y-111363373D01*
X99203557Y-111193534D01*
X99203557Y-111193533D01*
X99287221Y-111037011D01*
X99287222Y-111037009D01*
X99316552Y-111001271D01*
X99399814Y-110899814D01*
X99501271Y-110816552D01*
X99537009Y-110787222D01*
X99554913Y-110777652D01*
X99693533Y-110703557D01*
X99750147Y-110686384D01*
X99863373Y-110652037D01*
X99929558Y-110645518D01*
X99995740Y-110639000D01*
X100084260Y-110639000D01*
X100150442Y-110645518D01*
X100150442Y-110645518D01*
G37*
G36*
X97610442Y-110645518D02*
X97676627Y-110652037D01*
X97789853Y-110686384D01*
X97846467Y-110703557D01*
X97985087Y-110777652D01*
X98002991Y-110787222D01*
X98038729Y-110816552D01*
X98140186Y-110899814D01*
X98223448Y-111001271D01*
X98252778Y-111037009D01*
X98252779Y-111037011D01*
X98336443Y-111193533D01*
X98336443Y-111193534D01*
X98387963Y-111363373D01*
X98405359Y-111540000D01*
X98387963Y-111716627D01*
X98353616Y-111829853D01*
X98336443Y-111886467D01*
X98262348Y-112025087D01*
X98252778Y-112042991D01*
X98223448Y-112078729D01*
X98140186Y-112180186D01*
X98038729Y-112263448D01*
X98002991Y-112292778D01*
X98002989Y-112292779D01*
X97846467Y-112376443D01*
X97789853Y-112393616D01*
X97676627Y-112427963D01*
X97610442Y-112434482D01*
X97544260Y-112441000D01*
X97455740Y-112441000D01*
X97389558Y-112434482D01*
X97323373Y-112427963D01*
X97210147Y-112393616D01*
X97153533Y-112376443D01*
X96997011Y-112292779D01*
X96997009Y-112292778D01*
X96961271Y-112263448D01*
X96859814Y-112180186D01*
X96776552Y-112078729D01*
X96747222Y-112042991D01*
X96737652Y-112025087D01*
X96663557Y-111886467D01*
X96646384Y-111829853D01*
X96612037Y-111716627D01*
X96594641Y-111540000D01*
X96612037Y-111363373D01*
X96663557Y-111193534D01*
X96663557Y-111193533D01*
X96747221Y-111037011D01*
X96747222Y-111037009D01*
X96776552Y-111001271D01*
X96859814Y-110899814D01*
X96961271Y-110816552D01*
X96997009Y-110787222D01*
X97014913Y-110777652D01*
X97153533Y-110703557D01*
X97210147Y-110686384D01*
X97323373Y-110652037D01*
X97389558Y-110645518D01*
X97455740Y-110639000D01*
X97544260Y-110639000D01*
X97610442Y-110645518D01*
X97610442Y-110645518D01*
G37*
G36*
X98401000Y-109901000D02*
X96599000Y-109901000D01*
X96599000Y-108099000D01*
X98401000Y-108099000D01*
X98401000Y-109901000D01*
X98401000Y-109901000D01*
G37*
G36*
X100150442Y-108105518D02*
X100216627Y-108112037D01*
X100329853Y-108146384D01*
X100386467Y-108163557D01*
X100525087Y-108237652D01*
X100542991Y-108247222D01*
X100578729Y-108276552D01*
X100680186Y-108359814D01*
X100763448Y-108461271D01*
X100792778Y-108497009D01*
X100792779Y-108497011D01*
X100876443Y-108653533D01*
X100876443Y-108653534D01*
X100927963Y-108823373D01*
X100945359Y-109000000D01*
X100927963Y-109176627D01*
X100893616Y-109289853D01*
X100876443Y-109346467D01*
X100802348Y-109485087D01*
X100792778Y-109502991D01*
X100763448Y-109538729D01*
X100680186Y-109640186D01*
X100578729Y-109723448D01*
X100542991Y-109752778D01*
X100542989Y-109752779D01*
X100386467Y-109836443D01*
X100329853Y-109853616D01*
X100216627Y-109887963D01*
X100150443Y-109894481D01*
X100084260Y-109901000D01*
X99995740Y-109901000D01*
X99929557Y-109894481D01*
X99863373Y-109887963D01*
X99750147Y-109853616D01*
X99693533Y-109836443D01*
X99537011Y-109752779D01*
X99537009Y-109752778D01*
X99501271Y-109723448D01*
X99399814Y-109640186D01*
X99316552Y-109538729D01*
X99287222Y-109502991D01*
X99277652Y-109485087D01*
X99203557Y-109346467D01*
X99186384Y-109289853D01*
X99152037Y-109176627D01*
X99134641Y-109000000D01*
X99152037Y-108823373D01*
X99203557Y-108653534D01*
X99203557Y-108653533D01*
X99287221Y-108497011D01*
X99287222Y-108497009D01*
X99316552Y-108461271D01*
X99399814Y-108359814D01*
X99501271Y-108276552D01*
X99537009Y-108247222D01*
X99554913Y-108237652D01*
X99693533Y-108163557D01*
X99750147Y-108146384D01*
X99863373Y-108112037D01*
X99929558Y-108105518D01*
X99995740Y-108099000D01*
X100084260Y-108099000D01*
X100150442Y-108105518D01*
X100150442Y-108105518D01*
G37*
G36*
X100513511Y-100405164D02*
X100593812Y-100429523D01*
X100667818Y-100469080D01*
X100732685Y-100522315D01*
X100785920Y-100587182D01*
X100825477Y-100661188D01*
X100849836Y-100741489D01*
X100856000Y-100804074D01*
X100856000Y-102595926D01*
X100849836Y-102658511D01*
X100825477Y-102738812D01*
X100785920Y-102812818D01*
X100732685Y-102877685D01*
X100667817Y-102930920D01*
X100630814Y-102950698D01*
X100593812Y-102970477D01*
X100567044Y-102978597D01*
X100513510Y-102994836D01*
X100430000Y-103003061D01*
X100346489Y-102994836D01*
X100266188Y-102970477D01*
X100192182Y-102930920D01*
X100127315Y-102877685D01*
X100074080Y-102812817D01*
X100054302Y-102775814D01*
X100034523Y-102738812D01*
X100022343Y-102698660D01*
X100010164Y-102658510D01*
X100004000Y-102595925D01*
X100004001Y-100804074D01*
X100010165Y-100741489D01*
X100034524Y-100661188D01*
X100074081Y-100587182D01*
X100127316Y-100522315D01*
X100192183Y-100469080D01*
X100266189Y-100429523D01*
X100346490Y-100405164D01*
X100430000Y-100396939D01*
X100513511Y-100405164D01*
X100513511Y-100405164D01*
G37*
G36*
X101783511Y-100405164D02*
X101863812Y-100429523D01*
X101937818Y-100469080D01*
X102002685Y-100522315D01*
X102055920Y-100587182D01*
X102095477Y-100661188D01*
X102119836Y-100741489D01*
X102126000Y-100804074D01*
X102126000Y-102595926D01*
X102119836Y-102658511D01*
X102095477Y-102738812D01*
X102055920Y-102812818D01*
X102002685Y-102877685D01*
X101937817Y-102930920D01*
X101900814Y-102950698D01*
X101863812Y-102970477D01*
X101837044Y-102978597D01*
X101783510Y-102994836D01*
X101700000Y-103003061D01*
X101616489Y-102994836D01*
X101536188Y-102970477D01*
X101462182Y-102930920D01*
X101397315Y-102877685D01*
X101344080Y-102812817D01*
X101324302Y-102775814D01*
X101304523Y-102738812D01*
X101292343Y-102698660D01*
X101280164Y-102658510D01*
X101274000Y-102595925D01*
X101274001Y-100804074D01*
X101280165Y-100741489D01*
X101304524Y-100661188D01*
X101344081Y-100587182D01*
X101397316Y-100522315D01*
X101462183Y-100469080D01*
X101536189Y-100429523D01*
X101616490Y-100405164D01*
X101700000Y-100396939D01*
X101783511Y-100405164D01*
X101783511Y-100405164D01*
G37*
G36*
X103053511Y-100405164D02*
X103133812Y-100429523D01*
X103207818Y-100469080D01*
X103272685Y-100522315D01*
X103325920Y-100587182D01*
X103365477Y-100661188D01*
X103389836Y-100741489D01*
X103396000Y-100804074D01*
X103396000Y-102595926D01*
X103389836Y-102658511D01*
X103365477Y-102738812D01*
X103325920Y-102812818D01*
X103272685Y-102877685D01*
X103207817Y-102930920D01*
X103170814Y-102950698D01*
X103133812Y-102970477D01*
X103107044Y-102978597D01*
X103053510Y-102994836D01*
X102970000Y-103003061D01*
X102886489Y-102994836D01*
X102806188Y-102970477D01*
X102732182Y-102930920D01*
X102667315Y-102877685D01*
X102614080Y-102812817D01*
X102594302Y-102775814D01*
X102574523Y-102738812D01*
X102562343Y-102698660D01*
X102550164Y-102658510D01*
X102544000Y-102595925D01*
X102544001Y-100804074D01*
X102550165Y-100741489D01*
X102574524Y-100661188D01*
X102614081Y-100587182D01*
X102667316Y-100522315D01*
X102732183Y-100469080D01*
X102806189Y-100429523D01*
X102886490Y-100405164D01*
X102970000Y-100396939D01*
X103053511Y-100405164D01*
X103053511Y-100405164D01*
G37*
G36*
X99243511Y-100405164D02*
X99323812Y-100429523D01*
X99397818Y-100469080D01*
X99462685Y-100522315D01*
X99515920Y-100587182D01*
X99555477Y-100661188D01*
X99579836Y-100741489D01*
X99586000Y-100804074D01*
X99586000Y-102595926D01*
X99579836Y-102658511D01*
X99555477Y-102738812D01*
X99515920Y-102812818D01*
X99462685Y-102877685D01*
X99397817Y-102930920D01*
X99360814Y-102950698D01*
X99323812Y-102970477D01*
X99297044Y-102978597D01*
X99243510Y-102994836D01*
X99160000Y-103003061D01*
X99076489Y-102994836D01*
X98996188Y-102970477D01*
X98922182Y-102930920D01*
X98857315Y-102877685D01*
X98804080Y-102812817D01*
X98784302Y-102775814D01*
X98764523Y-102738812D01*
X98752343Y-102698660D01*
X98740164Y-102658510D01*
X98734000Y-102595925D01*
X98734001Y-100804074D01*
X98740165Y-100741489D01*
X98764524Y-100661188D01*
X98804081Y-100587182D01*
X98857316Y-100522315D01*
X98922183Y-100469080D01*
X98996189Y-100429523D01*
X99076490Y-100405164D01*
X99160000Y-100396939D01*
X99243511Y-100405164D01*
X99243511Y-100405164D01*
G37*
G36*
X104666000Y-103001000D02*
X103814000Y-103001000D01*
X103814000Y-100399000D01*
X104666000Y-100399000D01*
X104666000Y-103001000D01*
X104666000Y-103001000D01*
G37*
G36*
X104323511Y-96405164D02*
X104403812Y-96429523D01*
X104477818Y-96469080D01*
X104542685Y-96522315D01*
X104595920Y-96587182D01*
X104635477Y-96661188D01*
X104659836Y-96741489D01*
X104666000Y-96804074D01*
X104666000Y-98595926D01*
X104659836Y-98658511D01*
X104635477Y-98738812D01*
X104595920Y-98812818D01*
X104542685Y-98877685D01*
X104477817Y-98930920D01*
X104440814Y-98950699D01*
X104403812Y-98970477D01*
X104377044Y-98978597D01*
X104323510Y-98994836D01*
X104240000Y-99003061D01*
X104156489Y-98994836D01*
X104076188Y-98970477D01*
X104002182Y-98930920D01*
X103937315Y-98877685D01*
X103884080Y-98812817D01*
X103864302Y-98775814D01*
X103844523Y-98738812D01*
X103832344Y-98698661D01*
X103820164Y-98658510D01*
X103814000Y-98595925D01*
X103814001Y-96804074D01*
X103820165Y-96741489D01*
X103844524Y-96661188D01*
X103884081Y-96587182D01*
X103937316Y-96522315D01*
X104002183Y-96469080D01*
X104076189Y-96429523D01*
X104156490Y-96405164D01*
X104240000Y-96396939D01*
X104323511Y-96405164D01*
X104323511Y-96405164D01*
G37*
G36*
X103053511Y-96405164D02*
X103133812Y-96429523D01*
X103207818Y-96469080D01*
X103272685Y-96522315D01*
X103325920Y-96587182D01*
X103365477Y-96661188D01*
X103389836Y-96741489D01*
X103396000Y-96804074D01*
X103396000Y-98595926D01*
X103389836Y-98658511D01*
X103365477Y-98738812D01*
X103325920Y-98812818D01*
X103272685Y-98877685D01*
X103207817Y-98930920D01*
X103170814Y-98950699D01*
X103133812Y-98970477D01*
X103107044Y-98978597D01*
X103053510Y-98994836D01*
X102970000Y-99003061D01*
X102886489Y-98994836D01*
X102806188Y-98970477D01*
X102732182Y-98930920D01*
X102667315Y-98877685D01*
X102614080Y-98812817D01*
X102594302Y-98775814D01*
X102574523Y-98738812D01*
X102562344Y-98698661D01*
X102550164Y-98658510D01*
X102544000Y-98595925D01*
X102544001Y-96804074D01*
X102550165Y-96741489D01*
X102574524Y-96661188D01*
X102614081Y-96587182D01*
X102667316Y-96522315D01*
X102732183Y-96469080D01*
X102806189Y-96429523D01*
X102886490Y-96405164D01*
X102970000Y-96396939D01*
X103053511Y-96405164D01*
X103053511Y-96405164D01*
G37*
G36*
X101783511Y-96405164D02*
X101863812Y-96429523D01*
X101937818Y-96469080D01*
X102002685Y-96522315D01*
X102055920Y-96587182D01*
X102095477Y-96661188D01*
X102119836Y-96741489D01*
X102126000Y-96804074D01*
X102126000Y-98595926D01*
X102119836Y-98658511D01*
X102095477Y-98738812D01*
X102055920Y-98812818D01*
X102002685Y-98877685D01*
X101937817Y-98930920D01*
X101900814Y-98950699D01*
X101863812Y-98970477D01*
X101837044Y-98978597D01*
X101783510Y-98994836D01*
X101700000Y-99003061D01*
X101616489Y-98994836D01*
X101536188Y-98970477D01*
X101462182Y-98930920D01*
X101397315Y-98877685D01*
X101344080Y-98812817D01*
X101324302Y-98775814D01*
X101304523Y-98738812D01*
X101292344Y-98698661D01*
X101280164Y-98658510D01*
X101274000Y-98595925D01*
X101274001Y-96804074D01*
X101280165Y-96741489D01*
X101304524Y-96661188D01*
X101344081Y-96587182D01*
X101397316Y-96522315D01*
X101462183Y-96469080D01*
X101536189Y-96429523D01*
X101616490Y-96405164D01*
X101700000Y-96396939D01*
X101783511Y-96405164D01*
X101783511Y-96405164D01*
G37*
G36*
X100513511Y-96405164D02*
X100593812Y-96429523D01*
X100667818Y-96469080D01*
X100732685Y-96522315D01*
X100785920Y-96587182D01*
X100825477Y-96661188D01*
X100849836Y-96741489D01*
X100856000Y-96804074D01*
X100856000Y-98595926D01*
X100849836Y-98658511D01*
X100825477Y-98738812D01*
X100785920Y-98812818D01*
X100732685Y-98877685D01*
X100667817Y-98930920D01*
X100630814Y-98950699D01*
X100593812Y-98970477D01*
X100567044Y-98978597D01*
X100513510Y-98994836D01*
X100430000Y-99003061D01*
X100346489Y-98994836D01*
X100266188Y-98970477D01*
X100192182Y-98930920D01*
X100127315Y-98877685D01*
X100074080Y-98812817D01*
X100054302Y-98775814D01*
X100034523Y-98738812D01*
X100022344Y-98698661D01*
X100010164Y-98658510D01*
X100004000Y-98595925D01*
X100004001Y-96804074D01*
X100010165Y-96741489D01*
X100034524Y-96661188D01*
X100074081Y-96587182D01*
X100127316Y-96522315D01*
X100192183Y-96469080D01*
X100266189Y-96429523D01*
X100346490Y-96405164D01*
X100430000Y-96396939D01*
X100513511Y-96405164D01*
X100513511Y-96405164D01*
G37*
G36*
X99243511Y-96405164D02*
X99323812Y-96429523D01*
X99397818Y-96469080D01*
X99462685Y-96522315D01*
X99515920Y-96587182D01*
X99555477Y-96661188D01*
X99579836Y-96741489D01*
X99586000Y-96804074D01*
X99586000Y-98595926D01*
X99579836Y-98658511D01*
X99555477Y-98738812D01*
X99515920Y-98812818D01*
X99462685Y-98877685D01*
X99397817Y-98930920D01*
X99360814Y-98950699D01*
X99323812Y-98970477D01*
X99297044Y-98978597D01*
X99243510Y-98994836D01*
X99160000Y-99003061D01*
X99076489Y-98994836D01*
X98996188Y-98970477D01*
X98922182Y-98930920D01*
X98857315Y-98877685D01*
X98804080Y-98812817D01*
X98784302Y-98775814D01*
X98764523Y-98738812D01*
X98752344Y-98698661D01*
X98740164Y-98658510D01*
X98734000Y-98595925D01*
X98734001Y-96804074D01*
X98740165Y-96741489D01*
X98764524Y-96661188D01*
X98804081Y-96587182D01*
X98857316Y-96522315D01*
X98922183Y-96469080D01*
X98996189Y-96429523D01*
X99076490Y-96405164D01*
X99160000Y-96396939D01*
X99243511Y-96405164D01*
X99243511Y-96405164D01*
G37*
G36*
X101457142Y-91538242D02*
X101605102Y-91599530D01*
X101738258Y-91688502D01*
X101851498Y-91801742D01*
X101940470Y-91934898D01*
X102001758Y-92082858D01*
X102033000Y-92239925D01*
X102033000Y-92400075D01*
X102001758Y-92557142D01*
X101940470Y-92705102D01*
X101851498Y-92838258D01*
X101738258Y-92951498D01*
X101605102Y-93040470D01*
X101457142Y-93101758D01*
X101300075Y-93133000D01*
X101139925Y-93133000D01*
X100982858Y-93101758D01*
X100834898Y-93040470D01*
X100701742Y-92951498D01*
X100588502Y-92838258D01*
X100499530Y-92705102D01*
X100438242Y-92557142D01*
X100407000Y-92400075D01*
X100407000Y-92239925D01*
X100438242Y-92082858D01*
X100499530Y-91934898D01*
X100588502Y-91801742D01*
X100701742Y-91688502D01*
X100834898Y-91599530D01*
X100982858Y-91538242D01*
X101139925Y-91507000D01*
X101300075Y-91507000D01*
X101457142Y-91538242D01*
X101457142Y-91538242D01*
G37*
G36*
X99027142Y-91538242D02*
X99175102Y-91599530D01*
X99308258Y-91688502D01*
X99421498Y-91801742D01*
X99510470Y-91934898D01*
X99571758Y-92082858D01*
X99603000Y-92239925D01*
X99603000Y-92400075D01*
X99571758Y-92557142D01*
X99510470Y-92705102D01*
X99421498Y-92838258D01*
X99308258Y-92951498D01*
X99175102Y-93040470D01*
X99027142Y-93101758D01*
X98870075Y-93133000D01*
X98709925Y-93133000D01*
X98552858Y-93101758D01*
X98404898Y-93040470D01*
X98271742Y-92951498D01*
X98158502Y-92838258D01*
X98069530Y-92705102D01*
X98008242Y-92557142D01*
X97977000Y-92400075D01*
X97977000Y-92239925D01*
X98008242Y-92082858D01*
X98069530Y-91934898D01*
X98158502Y-91801742D01*
X98271742Y-91688502D01*
X98404898Y-91599530D01*
X98552858Y-91538242D01*
X98709925Y-91507000D01*
X98870075Y-91507000D01*
X99027142Y-91538242D01*
X99027142Y-91538242D01*
G37*
G36*
X100598252Y-85427818D02*
X100598254Y-85427819D01*
X100598255Y-85427819D01*
X100971513Y-85582427D01*
X101302905Y-85803857D01*
X101307439Y-85806886D01*
X101593114Y-86092561D01*
X101593116Y-86092564D01*
X101817573Y-86428487D01*
X101846780Y-86499000D01*
X101972182Y-86801748D01*
X102051000Y-87197993D01*
X102051000Y-87602007D01*
X101976936Y-87974354D01*
X101972181Y-87998255D01*
X101817573Y-88371513D01*
X101817572Y-88371514D01*
X101593114Y-88707439D01*
X101307439Y-88993114D01*
X101307436Y-88993116D01*
X100971513Y-89217573D01*
X100598255Y-89372181D01*
X100598254Y-89372181D01*
X100598252Y-89372182D01*
X100202007Y-89451000D01*
X99797993Y-89451000D01*
X99401748Y-89372182D01*
X99401746Y-89372181D01*
X99401745Y-89372181D01*
X99028487Y-89217573D01*
X98692564Y-88993116D01*
X98692561Y-88993114D01*
X98406886Y-88707439D01*
X98182428Y-88371514D01*
X98182427Y-88371513D01*
X98027819Y-87998255D01*
X98023065Y-87974354D01*
X97949000Y-87602007D01*
X97949000Y-87197993D01*
X98027818Y-86801748D01*
X98153220Y-86499000D01*
X98182427Y-86428487D01*
X98406884Y-86092564D01*
X98406886Y-86092561D01*
X98692561Y-85806886D01*
X98697095Y-85803857D01*
X99028487Y-85582427D01*
X99401745Y-85427819D01*
X99401746Y-85427819D01*
X99401748Y-85427818D01*
X99797993Y-85349000D01*
X100202007Y-85349000D01*
X100598252Y-85427818D01*
X100598252Y-85427818D01*
G37*
G36*
X95182812Y-86533624D02*
X95346784Y-86601544D01*
X95494354Y-86700147D01*
X95619853Y-86825646D01*
X95718456Y-86973216D01*
X95786376Y-87137188D01*
X95821000Y-87311259D01*
X95821000Y-87488741D01*
X95786376Y-87662812D01*
X95718456Y-87826784D01*
X95619853Y-87974354D01*
X95494354Y-88099853D01*
X95346784Y-88198456D01*
X95182812Y-88266376D01*
X95008741Y-88301000D01*
X94831259Y-88301000D01*
X94657188Y-88266376D01*
X94493216Y-88198456D01*
X94345646Y-88099853D01*
X94220147Y-87974354D01*
X94121544Y-87826784D01*
X94053624Y-87662812D01*
X94019000Y-87488741D01*
X94019000Y-87311259D01*
X94053624Y-87137188D01*
X94121544Y-86973216D01*
X94220147Y-86825646D01*
X94345646Y-86700147D01*
X94493216Y-86601544D01*
X94657188Y-86533624D01*
X94831259Y-86499000D01*
X95008741Y-86499000D01*
X95182812Y-86533624D01*
X95182812Y-86533624D01*
G37*
G36*
X105342812Y-86533624D02*
X105506784Y-86601544D01*
X105654354Y-86700147D01*
X105779853Y-86825646D01*
X105878456Y-86973216D01*
X105946376Y-87137188D01*
X105981000Y-87311259D01*
X105981000Y-87488741D01*
X105946376Y-87662812D01*
X105878456Y-87826784D01*
X105779853Y-87974354D01*
X105654354Y-88099853D01*
X105506784Y-88198456D01*
X105342812Y-88266376D01*
X105168741Y-88301000D01*
X104991259Y-88301000D01*
X104817188Y-88266376D01*
X104653216Y-88198456D01*
X104505646Y-88099853D01*
X104380147Y-87974354D01*
X104281544Y-87826784D01*
X104213624Y-87662812D01*
X104179000Y-87488741D01*
X104179000Y-87311259D01*
X104213624Y-87137188D01*
X104281544Y-86973216D01*
X104380147Y-86825646D01*
X104505646Y-86700147D01*
X104653216Y-86601544D01*
X104817188Y-86533624D01*
X104991259Y-86499000D01*
X105168741Y-86499000D01*
X105342812Y-86533624D01*
X105342812Y-86533624D01*
G37*
G36*
X96525734Y-83753232D02*
X96735202Y-83839996D01*
X96923723Y-83965962D01*
X97084038Y-84126277D01*
X97210004Y-84314798D01*
X97296768Y-84524266D01*
X97341000Y-84746635D01*
X97341000Y-84973365D01*
X97296768Y-85195734D01*
X97210004Y-85405202D01*
X97084038Y-85593723D01*
X96923723Y-85754038D01*
X96735202Y-85880004D01*
X96525734Y-85966768D01*
X96303365Y-86011000D01*
X96076635Y-86011000D01*
X95854266Y-85966768D01*
X95644798Y-85880004D01*
X95456277Y-85754038D01*
X95295962Y-85593723D01*
X95169996Y-85405202D01*
X95083232Y-85195734D01*
X95039000Y-84973365D01*
X95039000Y-84746635D01*
X95083232Y-84524266D01*
X95169996Y-84314798D01*
X95295962Y-84126277D01*
X95456277Y-83965962D01*
X95644798Y-83839996D01*
X95854266Y-83753232D01*
X96076635Y-83709000D01*
X96303365Y-83709000D01*
X96525734Y-83753232D01*
X96525734Y-83753232D01*
G37*
G36*
X102875734Y-81213232D02*
X103085202Y-81299996D01*
X103273723Y-81425962D01*
X103434038Y-81586277D01*
X103560004Y-81774798D01*
X103646768Y-81984266D01*
X103691000Y-82206635D01*
X103691000Y-82433365D01*
X103646768Y-82655734D01*
X103560004Y-82865202D01*
X103434038Y-83053723D01*
X103273723Y-83214038D01*
X103085202Y-83340004D01*
X102875734Y-83426768D01*
X102653365Y-83471000D01*
X102426635Y-83471000D01*
X102204266Y-83426768D01*
X101994798Y-83340004D01*
X101806277Y-83214038D01*
X101645962Y-83053723D01*
X101519996Y-82865202D01*
X101433232Y-82655734D01*
X101389000Y-82433365D01*
X101389000Y-82206635D01*
X101433232Y-81984266D01*
X101519996Y-81774798D01*
X101645962Y-81586277D01*
X101806277Y-81425962D01*
X101994798Y-81299996D01*
X102204266Y-81213232D01*
X102426635Y-81169000D01*
X102653365Y-81169000D01*
X102875734Y-81213232D01*
X102875734Y-81213232D01*
G37*
G36*
X98959267Y-77044205D02*
X99102309Y-77103455D01*
X99102311Y-77103456D01*
X99229336Y-77188331D01*
X99231049Y-77189476D01*
X99340524Y-77298951D01*
X99426545Y-77427691D01*
X99485795Y-77570733D01*
X99516000Y-77722584D01*
X99516000Y-77877416D01*
X99485795Y-78029267D01*
X99426545Y-78172309D01*
X99340524Y-78301049D01*
X99231049Y-78410524D01*
X99231046Y-78410526D01*
X99102311Y-78496544D01*
X99102310Y-78496545D01*
X99102309Y-78496545D01*
X98959267Y-78555795D01*
X98807416Y-78586000D01*
X98652584Y-78586000D01*
X98500733Y-78555795D01*
X98357691Y-78496545D01*
X98357690Y-78496545D01*
X98357689Y-78496544D01*
X98228954Y-78410526D01*
X98228951Y-78410524D01*
X98119476Y-78301049D01*
X98033455Y-78172309D01*
X97974205Y-78029267D01*
X97944000Y-77877416D01*
X97944000Y-77722584D01*
X97974205Y-77570733D01*
X98033455Y-77427691D01*
X98119476Y-77298951D01*
X98228951Y-77189476D01*
X98230664Y-77188331D01*
X98357689Y-77103456D01*
X98357691Y-77103455D01*
X98500733Y-77044205D01*
X98652584Y-77014000D01*
X98807416Y-77014000D01*
X98959267Y-77044205D01*
X98959267Y-77044205D01*
G37*
G36*
X102056000Y-78586000D02*
X100484000Y-78586000D01*
X100484000Y-77014000D01*
X102056000Y-77014000D01*
X102056000Y-78586000D01*
X102056000Y-78586000D01*
G37*
M02*
