G04 #@! TF.GenerationSoftware,KiCad,Pcbnew,5.0.1*
G04 #@! TF.CreationDate,2019-03-28T22:54:33+10:30*
G04 #@! TF.ProjectId,reflex,7265666C65782E6B696361645F706362,rev?*
G04 #@! TF.SameCoordinates,Original*
G04 #@! TF.FileFunction,Profile,NP*
%FSLAX46Y46*%
G04 Gerber Fmt 4.6, Leading zero omitted, Abs format (unit mm)*
G04 Created by KiCad (PCBNEW 5.0.1) date Thu 28 Mar 2019 22:54:33 ACDT*
%MOMM*%
%LPD*%
G01*
G04 APERTURE LIST*
%ADD10C,0.150000*%
G04 APERTURE END LIST*
D10*
X90850000Y-87850000D02*
X90150000Y-87150000D01*
X90853553Y-87846447D02*
G75*
G02X91000000Y-88200000I-353553J-353553D01*
G01*
X90150000Y-94850000D02*
G75*
G03X90003553Y-95203553I353553J-353553D01*
G01*
X90146447Y-87153553D02*
G75*
G02X90000000Y-86800000I353553J353553D01*
G01*
X90850000Y-94150000D02*
G75*
G03X90996447Y-93796447I-353553J353553D01*
G01*
X109850000Y-124150000D02*
G75*
G03X109996447Y-123796447I-353553J353553D01*
G01*
X104150000Y-129850000D02*
G75*
G02X103796447Y-129996447I-353553J353553D01*
G01*
X90146447Y-128153553D02*
G75*
G02X90000000Y-127800000I353553J353553D01*
G01*
X91900000Y-129900000D02*
G75*
G03X92200000Y-130000000I300000J400000D01*
G01*
X101900000Y-106600000D02*
G75*
G03X101400000Y-107100000I0J-500000D01*
G01*
X101400000Y-118750000D02*
G75*
G03X101900000Y-119250000I500000J0D01*
G01*
X110000000Y-77000000D02*
G75*
G03X108000000Y-75000000I-2000000J0D01*
G01*
X93500000Y-77500000D02*
G75*
G03X93500000Y-77500000I-1000000J0D01*
G01*
X90000000Y-86800000D02*
X90000000Y-77000000D01*
X91000000Y-93800000D02*
X91000000Y-88200000D01*
X90150000Y-94850000D02*
X90850000Y-94150000D01*
X91900000Y-129900000D02*
X90150000Y-128150000D01*
X110000000Y-105850000D02*
G75*
G02X109250000Y-106600000I-750000J0D01*
G01*
X109250000Y-119250000D02*
G75*
G02X110000000Y-120000000I0J-750000D01*
G01*
X109850000Y-124150000D02*
X104150000Y-129850000D01*
X110000000Y-120000000D02*
X110000000Y-123800000D01*
X101900000Y-106600000D02*
X109250000Y-106600000D01*
X101400000Y-118750000D02*
X101400000Y-107100000D01*
X109250000Y-119250000D02*
X101900000Y-119250000D01*
X92000000Y-75000000D02*
G75*
G03X90000000Y-77000000I0J-2000000D01*
G01*
X90000000Y-127800000D02*
X90000000Y-95200000D01*
X103800000Y-130000000D02*
X92200000Y-130000000D01*
X110000000Y-77000000D02*
X110000000Y-105850000D01*
X92000000Y-75000000D02*
X108000000Y-75000000D01*
M02*
