G04 #@! TF.GenerationSoftware,KiCad,Pcbnew,5.0.1*
G04 #@! TF.CreationDate,2019-03-28T22:54:33+10:30*
G04 #@! TF.ProjectId,reflex,7265666C65782E6B696361645F706362,rev?*
G04 #@! TF.SameCoordinates,Original*
G04 #@! TF.FileFunction,Drawing*
%FSLAX46Y46*%
G04 Gerber Fmt 4.6, Leading zero omitted, Abs format (unit mm)*
G04 Created by KiCad (PCBNEW 5.0.1) date Thu 28 Mar 2019 22:54:33 ACDT*
%MOMM*%
%LPD*%
G01*
G04 APERTURE LIST*
%ADD10C,0.300000*%
%ADD11C,0.100000*%
%ADD12C,0.025000*%
%ADD13C,0.150000*%
%ADD14C,0.040000*%
G04 APERTURE END LIST*
D10*
X93785714Y-62221428D02*
X93857142Y-62150000D01*
X94000000Y-62078571D01*
X94357142Y-62078571D01*
X94500000Y-62150000D01*
X94571428Y-62221428D01*
X94642857Y-62364285D01*
X94642857Y-62507142D01*
X94571428Y-62721428D01*
X93714285Y-63578571D01*
X94642857Y-63578571D01*
X95571428Y-62078571D02*
X95714285Y-62078571D01*
X95857142Y-62150000D01*
X95928571Y-62221428D01*
X96000000Y-62364285D01*
X96071428Y-62650000D01*
X96071428Y-63007142D01*
X96000000Y-63292857D01*
X95928571Y-63435714D01*
X95857142Y-63507142D01*
X95714285Y-63578571D01*
X95571428Y-63578571D01*
X95428571Y-63507142D01*
X95357142Y-63435714D01*
X95285714Y-63292857D01*
X95214285Y-63007142D01*
X95214285Y-62650000D01*
X95285714Y-62364285D01*
X95357142Y-62221428D01*
X95428571Y-62150000D01*
X95571428Y-62078571D01*
X96714285Y-63435714D02*
X96785714Y-63507142D01*
X96714285Y-63578571D01*
X96642857Y-63507142D01*
X96714285Y-63435714D01*
X96714285Y-63578571D01*
X97714285Y-62078571D02*
X97857142Y-62078571D01*
X98000000Y-62150000D01*
X98071428Y-62221428D01*
X98142857Y-62364285D01*
X98214285Y-62650000D01*
X98214285Y-63007142D01*
X98142857Y-63292857D01*
X98071428Y-63435714D01*
X98000000Y-63507142D01*
X97857142Y-63578571D01*
X97714285Y-63578571D01*
X97571428Y-63507142D01*
X97500000Y-63435714D01*
X97428571Y-63292857D01*
X97357142Y-63007142D01*
X97357142Y-62650000D01*
X97428571Y-62364285D01*
X97500000Y-62221428D01*
X97571428Y-62150000D01*
X97714285Y-62078571D01*
X99142857Y-62078571D02*
X99285714Y-62078571D01*
X99428571Y-62150000D01*
X99500000Y-62221428D01*
X99571428Y-62364285D01*
X99642857Y-62650000D01*
X99642857Y-63007142D01*
X99571428Y-63292857D01*
X99500000Y-63435714D01*
X99428571Y-63507142D01*
X99285714Y-63578571D01*
X99142857Y-63578571D01*
X99000000Y-63507142D01*
X98928571Y-63435714D01*
X98857142Y-63292857D01*
X98785714Y-63007142D01*
X98785714Y-62650000D01*
X98857142Y-62364285D01*
X98928571Y-62221428D01*
X99000000Y-62150000D01*
X99142857Y-62078571D01*
X100571428Y-62078571D02*
X100714285Y-62078571D01*
X100857142Y-62150000D01*
X100928571Y-62221428D01*
X101000000Y-62364285D01*
X101071428Y-62650000D01*
X101071428Y-63007142D01*
X101000000Y-63292857D01*
X100928571Y-63435714D01*
X100857142Y-63507142D01*
X100714285Y-63578571D01*
X100571428Y-63578571D01*
X100428571Y-63507142D01*
X100357142Y-63435714D01*
X100285714Y-63292857D01*
X100214285Y-63007142D01*
X100214285Y-62650000D01*
X100285714Y-62364285D01*
X100357142Y-62221428D01*
X100428571Y-62150000D01*
X100571428Y-62078571D01*
X102857142Y-63578571D02*
X102857142Y-62578571D01*
X102857142Y-62721428D02*
X102928571Y-62650000D01*
X103071428Y-62578571D01*
X103285714Y-62578571D01*
X103428571Y-62650000D01*
X103500000Y-62792857D01*
X103500000Y-63578571D01*
X103500000Y-62792857D02*
X103571428Y-62650000D01*
X103714285Y-62578571D01*
X103928571Y-62578571D01*
X104071428Y-62650000D01*
X104142857Y-62792857D01*
X104142857Y-63578571D01*
X104857142Y-63578571D02*
X104857142Y-62578571D01*
X104857142Y-62721428D02*
X104928571Y-62650000D01*
X105071428Y-62578571D01*
X105285714Y-62578571D01*
X105428571Y-62650000D01*
X105500000Y-62792857D01*
X105500000Y-63578571D01*
X105500000Y-62792857D02*
X105571428Y-62650000D01*
X105714285Y-62578571D01*
X105928571Y-62578571D01*
X106071428Y-62650000D01*
X106142857Y-62792857D01*
X106142857Y-63578571D01*
X90000000Y-65000000D02*
X110000000Y-65000000D01*
X90000000Y-75000000D02*
X90000000Y-64413579D01*
X110000000Y-75000000D02*
X110000000Y-64413579D01*
X110000000Y-65000000D02*
X108873496Y-65586421D01*
X110000000Y-65000000D02*
X108873496Y-64413579D01*
X90000000Y-65000000D02*
X91126504Y-65586421D01*
X90000000Y-65000000D02*
X91126504Y-64413579D01*
X75995681Y-107928571D02*
X75995681Y-108642857D01*
X76709967Y-108714285D01*
X76638538Y-108642857D01*
X76567110Y-108500000D01*
X76567110Y-108142857D01*
X76638538Y-108000000D01*
X76709967Y-107928571D01*
X76852824Y-107857142D01*
X77209967Y-107857142D01*
X77352824Y-107928571D01*
X77424252Y-108000000D01*
X77495681Y-108142857D01*
X77495681Y-108500000D01*
X77424252Y-108642857D01*
X77352824Y-108714285D01*
X75995681Y-106500000D02*
X75995681Y-107214285D01*
X76709967Y-107285714D01*
X76638538Y-107214285D01*
X76567110Y-107071428D01*
X76567110Y-106714285D01*
X76638538Y-106571428D01*
X76709967Y-106500000D01*
X76852824Y-106428571D01*
X77209967Y-106428571D01*
X77352824Y-106500000D01*
X77424252Y-106571428D01*
X77495681Y-106714285D01*
X77495681Y-107071428D01*
X77424252Y-107214285D01*
X77352824Y-107285714D01*
X77352824Y-105785714D02*
X77424252Y-105714285D01*
X77495681Y-105785714D01*
X77424252Y-105857142D01*
X77352824Y-105785714D01*
X77495681Y-105785714D01*
X75995681Y-104785714D02*
X75995681Y-104642857D01*
X76067110Y-104500000D01*
X76138538Y-104428571D01*
X76281395Y-104357142D01*
X76567110Y-104285714D01*
X76924252Y-104285714D01*
X77209967Y-104357142D01*
X77352824Y-104428571D01*
X77424252Y-104500000D01*
X77495681Y-104642857D01*
X77495681Y-104785714D01*
X77424252Y-104928571D01*
X77352824Y-105000000D01*
X77209967Y-105071428D01*
X76924252Y-105142857D01*
X76567110Y-105142857D01*
X76281395Y-105071428D01*
X76138538Y-105000000D01*
X76067110Y-104928571D01*
X75995681Y-104785714D01*
X75995681Y-103357142D02*
X75995681Y-103214285D01*
X76067110Y-103071428D01*
X76138538Y-103000000D01*
X76281395Y-102928571D01*
X76567110Y-102857142D01*
X76924252Y-102857142D01*
X77209967Y-102928571D01*
X77352824Y-103000000D01*
X77424252Y-103071428D01*
X77495681Y-103214285D01*
X77495681Y-103357142D01*
X77424252Y-103500000D01*
X77352824Y-103571428D01*
X77209967Y-103642857D01*
X76924252Y-103714285D01*
X76567110Y-103714285D01*
X76281395Y-103642857D01*
X76138538Y-103571428D01*
X76067110Y-103500000D01*
X75995681Y-103357142D01*
X75995681Y-101928571D02*
X75995681Y-101785714D01*
X76067110Y-101642857D01*
X76138538Y-101571428D01*
X76281395Y-101500000D01*
X76567110Y-101428571D01*
X76924252Y-101428571D01*
X77209967Y-101500000D01*
X77352824Y-101571428D01*
X77424252Y-101642857D01*
X77495681Y-101785714D01*
X77495681Y-101928571D01*
X77424252Y-102071428D01*
X77352824Y-102142857D01*
X77209967Y-102214285D01*
X76924252Y-102285714D01*
X76567110Y-102285714D01*
X76281395Y-102214285D01*
X76138538Y-102142857D01*
X76067110Y-102071428D01*
X75995681Y-101928571D01*
X77495681Y-99642857D02*
X76495681Y-99642857D01*
X76638538Y-99642857D02*
X76567110Y-99571428D01*
X76495681Y-99428571D01*
X76495681Y-99214285D01*
X76567110Y-99071428D01*
X76709967Y-99000000D01*
X77495681Y-99000000D01*
X76709967Y-99000000D02*
X76567110Y-98928571D01*
X76495681Y-98785714D01*
X76495681Y-98571428D01*
X76567110Y-98428571D01*
X76709967Y-98357142D01*
X77495681Y-98357142D01*
X77495681Y-97642857D02*
X76495681Y-97642857D01*
X76638538Y-97642857D02*
X76567110Y-97571428D01*
X76495681Y-97428571D01*
X76495681Y-97214285D01*
X76567110Y-97071428D01*
X76709967Y-97000000D01*
X77495681Y-97000000D01*
X76709967Y-97000000D02*
X76567110Y-96928571D01*
X76495681Y-96785714D01*
X76495681Y-96571428D01*
X76567110Y-96428571D01*
X76709967Y-96357142D01*
X77495681Y-96357142D01*
X78917110Y-130000000D02*
X78917110Y-75000000D01*
X90000000Y-130000000D02*
X78330689Y-130000000D01*
X90000000Y-75000000D02*
X78330689Y-75000000D01*
X78917110Y-75000000D02*
X79503531Y-76126504D01*
X78917110Y-75000000D02*
X78330689Y-76126504D01*
X78917110Y-130000000D02*
X79503531Y-128873496D01*
X78917110Y-130000000D02*
X78330689Y-128873496D01*
D11*
X97928571Y-79252380D02*
X97928571Y-78252380D01*
X98500000Y-79252380D02*
X98071428Y-78680952D01*
X98500000Y-78252380D02*
X97928571Y-78823809D01*
X98928571Y-78728571D02*
X99261904Y-78728571D01*
X99404761Y-79252380D02*
X98928571Y-79252380D01*
X98928571Y-78252380D01*
X99404761Y-78252380D01*
X100023809Y-78776190D02*
X100023809Y-79252380D01*
X99690476Y-78252380D02*
X100023809Y-78776190D01*
X100357142Y-78252380D01*
X101261904Y-79157142D02*
X101214285Y-79204761D01*
X101071428Y-79252380D01*
X100976190Y-79252380D01*
X100833333Y-79204761D01*
X100738095Y-79109523D01*
X100690476Y-79014285D01*
X100642857Y-78823809D01*
X100642857Y-78680952D01*
X100690476Y-78490476D01*
X100738095Y-78395238D01*
X100833333Y-78300000D01*
X100976190Y-78252380D01*
X101071428Y-78252380D01*
X101214285Y-78300000D01*
X101261904Y-78347619D01*
X101642857Y-78966666D02*
X102119047Y-78966666D01*
X101547619Y-79252380D02*
X101880952Y-78252380D01*
X102214285Y-79252380D01*
X102547619Y-79252380D02*
X102547619Y-78252380D01*
X102928571Y-78252380D01*
X103023809Y-78300000D01*
X103071428Y-78347619D01*
X103119047Y-78442857D01*
X103119047Y-78585714D01*
X103071428Y-78680952D01*
X103023809Y-78728571D01*
X102928571Y-78776190D01*
X102547619Y-78776190D01*
D12*
G04 #@! TO.C,U2*
X99790000Y-100720000D02*
X99790000Y-100440000D01*
X99790000Y-100440000D02*
G75*
G03X99550000Y-100440000I-120000J0D01*
G01*
X99550000Y-100440000D02*
X99550000Y-100720000D01*
X99550000Y-100720000D02*
X99790000Y-100720000D01*
X100290000Y-100720000D02*
X100290000Y-100440000D01*
X100290000Y-100440000D02*
G75*
G03X100050000Y-100440000I-120000J0D01*
G01*
X100050000Y-100440000D02*
X100050000Y-100720000D01*
X100050000Y-100720000D02*
X100290000Y-100720000D01*
X100790000Y-100720000D02*
X100790000Y-100440000D01*
X100790000Y-100440000D02*
G75*
G03X100550000Y-100440000I-120000J0D01*
G01*
X100550000Y-100440000D02*
X100550000Y-100720000D01*
X100550000Y-100720000D02*
X100790000Y-100720000D01*
X101290000Y-100720000D02*
X101290000Y-100440000D01*
X101290000Y-100440000D02*
G75*
G03X101050000Y-100440000I-120000J0D01*
G01*
X101050000Y-100440000D02*
X101050000Y-100720000D01*
X101050000Y-100720000D02*
X101290000Y-100720000D01*
X101790000Y-100720000D02*
X101790000Y-100440000D01*
X101790000Y-100440000D02*
G75*
G03X101550000Y-100440000I-120000J0D01*
G01*
X101550000Y-100440000D02*
X101550000Y-100720000D01*
X101550000Y-100720000D02*
X101790000Y-100720000D01*
X102290000Y-100720000D02*
X102290000Y-100440000D01*
X102290000Y-100440000D02*
G75*
G03X102050000Y-100440000I-120000J0D01*
G01*
X102050000Y-100440000D02*
X102050000Y-100720000D01*
X102050000Y-100720000D02*
X102290000Y-100720000D01*
X102790000Y-100720000D02*
X102790000Y-100440000D01*
X102790000Y-100440000D02*
G75*
G03X102550000Y-100440000I-120000J0D01*
G01*
X102550000Y-100440000D02*
X102550000Y-100720000D01*
X102550000Y-100720000D02*
X102790000Y-100720000D01*
X103290000Y-100720000D02*
X103290000Y-100440000D01*
X103290000Y-100440000D02*
G75*
G03X103050000Y-100440000I-120000J0D01*
G01*
X103050000Y-100440000D02*
X103050000Y-100720000D01*
X103050000Y-100720000D02*
X103290000Y-100720000D01*
X103920000Y-99850000D02*
X103640000Y-99850000D01*
X103640000Y-99850000D02*
G75*
G03X103640000Y-100090000I0J-120000D01*
G01*
X103640000Y-100090000D02*
X103920000Y-100090000D01*
X103920000Y-100090000D02*
X103920000Y-99850000D01*
X103920000Y-99350000D02*
X103640000Y-99350000D01*
X103640000Y-99350000D02*
G75*
G03X103640000Y-99590000I0J-120000D01*
G01*
X103640000Y-99590000D02*
X103920000Y-99590000D01*
X103920000Y-99590000D02*
X103920000Y-99350000D01*
X103920000Y-98850000D02*
X103640000Y-98850000D01*
X103640000Y-98850000D02*
G75*
G03X103640000Y-99090000I0J-120000D01*
G01*
X103640000Y-99090000D02*
X103920000Y-99090000D01*
X103920000Y-99090000D02*
X103920000Y-98850000D01*
X103920000Y-98350000D02*
X103640000Y-98350000D01*
X103640000Y-98350000D02*
G75*
G03X103640000Y-98590000I0J-120000D01*
G01*
X103640000Y-98590000D02*
X103920000Y-98590000D01*
X103920000Y-98590000D02*
X103920000Y-98350000D01*
X103920000Y-97850000D02*
X103640000Y-97850000D01*
X103640000Y-97850000D02*
G75*
G03X103640000Y-98090000I0J-120000D01*
G01*
X103640000Y-98090000D02*
X103920000Y-98090000D01*
X103920000Y-98090000D02*
X103920000Y-97850000D01*
X103920000Y-97350000D02*
X103640000Y-97350000D01*
X103640000Y-97350000D02*
G75*
G03X103640000Y-97590000I0J-120000D01*
G01*
X103640000Y-97590000D02*
X103920000Y-97590000D01*
X103920000Y-97590000D02*
X103920000Y-97350000D01*
X103920000Y-96850000D02*
X103640000Y-96850000D01*
X103640000Y-96850000D02*
G75*
G03X103640000Y-97090000I0J-120000D01*
G01*
X103640000Y-97090000D02*
X103920000Y-97090000D01*
X103920000Y-97090000D02*
X103920000Y-96850000D01*
X103920000Y-96350000D02*
X103640000Y-96350000D01*
X103640000Y-96350000D02*
G75*
G03X103640000Y-96590000I0J-120000D01*
G01*
X103640000Y-96590000D02*
X103920000Y-96590000D01*
X103920000Y-96590000D02*
X103920000Y-96350000D01*
X103050000Y-95720000D02*
X103050000Y-96000000D01*
X103050000Y-96000000D02*
G75*
G03X103290000Y-96000000I120000J0D01*
G01*
X103290000Y-96000000D02*
X103290000Y-95720000D01*
X103290000Y-95720000D02*
X103050000Y-95720000D01*
X102550000Y-95720000D02*
X102550000Y-96000000D01*
X102550000Y-96000000D02*
G75*
G03X102790000Y-96000000I120000J0D01*
G01*
X102790000Y-96000000D02*
X102790000Y-95720000D01*
X102790000Y-95720000D02*
X102550000Y-95720000D01*
X102050000Y-95720000D02*
X102050000Y-96000000D01*
X102050000Y-96000000D02*
G75*
G03X102290000Y-96000000I120000J0D01*
G01*
X102290000Y-96000000D02*
X102290000Y-95720000D01*
X102290000Y-95720000D02*
X102050000Y-95720000D01*
X101550000Y-95720000D02*
X101550000Y-96000000D01*
X101550000Y-96000000D02*
G75*
G03X101790000Y-96000000I120000J0D01*
G01*
X101790000Y-96000000D02*
X101790000Y-95720000D01*
X101790000Y-95720000D02*
X101550000Y-95720000D01*
X101050000Y-95720000D02*
X101050000Y-96000000D01*
X101050000Y-96000000D02*
G75*
G03X101290000Y-96000000I120000J0D01*
G01*
X101290000Y-96000000D02*
X101290000Y-95720000D01*
X101290000Y-95720000D02*
X101050000Y-95720000D01*
X100550000Y-95720000D02*
X100550000Y-96000000D01*
X100550000Y-96000000D02*
G75*
G03X100790000Y-96000000I120000J0D01*
G01*
X100790000Y-96000000D02*
X100790000Y-95720000D01*
X100790000Y-95720000D02*
X100550000Y-95720000D01*
X100050000Y-95720000D02*
X100050000Y-96000000D01*
X100050000Y-96000000D02*
G75*
G03X100290000Y-96000000I120000J0D01*
G01*
X100290000Y-96000000D02*
X100290000Y-95720000D01*
X100290000Y-95720000D02*
X100050000Y-95720000D01*
X99550000Y-95720000D02*
X99550000Y-96000000D01*
X99550000Y-96000000D02*
G75*
G03X99790000Y-96000000I120000J0D01*
G01*
X99790000Y-96000000D02*
X99790000Y-95720000D01*
X99790000Y-95720000D02*
X99550000Y-95720000D01*
X98920000Y-96590000D02*
X99200000Y-96590000D01*
X99200000Y-96590000D02*
G75*
G03X99200000Y-96350000I0J120000D01*
G01*
X99200000Y-96350000D02*
X98920000Y-96350000D01*
X98920000Y-96350000D02*
X98920000Y-96590000D01*
X98920000Y-97090000D02*
X99200000Y-97090000D01*
X99200000Y-97090000D02*
G75*
G03X99200000Y-96850000I0J120000D01*
G01*
X99200000Y-96850000D02*
X98920000Y-96850000D01*
X98920000Y-96850000D02*
X98920000Y-97090000D01*
X98920000Y-97590000D02*
X99200000Y-97590000D01*
X99200000Y-97590000D02*
G75*
G03X99200000Y-97350000I0J120000D01*
G01*
X99200000Y-97350000D02*
X98920000Y-97350000D01*
X98920000Y-97350000D02*
X98920000Y-97590000D01*
X98920000Y-98090000D02*
X99200000Y-98090000D01*
X99200000Y-98090000D02*
G75*
G03X99200000Y-97850000I0J120000D01*
G01*
X99200000Y-97850000D02*
X98920000Y-97850000D01*
X98920000Y-97850000D02*
X98920000Y-98090000D01*
X98920000Y-98590000D02*
X99200000Y-98590000D01*
X99200000Y-98590000D02*
G75*
G03X99200000Y-98350000I0J120000D01*
G01*
X99200000Y-98350000D02*
X98920000Y-98350000D01*
X98920000Y-98350000D02*
X98920000Y-98590000D01*
X98920000Y-99090000D02*
X99200000Y-99090000D01*
X99200000Y-99090000D02*
G75*
G03X99200000Y-98850000I0J120000D01*
G01*
X99200000Y-98850000D02*
X98920000Y-98850000D01*
X98920000Y-98850000D02*
X98920000Y-99090000D01*
X98920000Y-99590000D02*
X99200000Y-99590000D01*
X99200000Y-99590000D02*
G75*
G03X99200000Y-99350000I0J120000D01*
G01*
X99200000Y-99350000D02*
X98920000Y-99350000D01*
X98920000Y-99350000D02*
X98920000Y-99590000D01*
X98920000Y-100090000D02*
X99200000Y-100090000D01*
X99200000Y-100090000D02*
G75*
G03X99200000Y-99850000I0J120000D01*
G01*
X99200000Y-99850000D02*
X98920000Y-99850000D01*
X98920000Y-99850000D02*
X98920000Y-100090000D01*
X100195000Y-99945000D02*
X102895000Y-99945000D01*
X102895000Y-99945000D02*
G75*
G03X103145000Y-99695000I0J250000D01*
G01*
X103145000Y-99695000D02*
X103145000Y-96745000D01*
X103145000Y-96745000D02*
G75*
G03X102895000Y-96495000I-250000J0D01*
G01*
X102895000Y-96495000D02*
X99945000Y-96495000D01*
X99945000Y-96495000D02*
G75*
G03X99695000Y-96745000I0J-250000D01*
G01*
X99695000Y-96745000D02*
X99695000Y-99445000D01*
X99695000Y-99445000D02*
X100195000Y-99945000D01*
X98920000Y-100720000D02*
X98920000Y-95720000D01*
X98920000Y-95720000D02*
X103920000Y-95720000D01*
X103920000Y-95720000D02*
X103920000Y-100720000D01*
X103920000Y-100720000D02*
X98920000Y-100720000D01*
D13*
G04 #@! TO.C,J1*
X103680223Y-130751291D02*
X110751291Y-123680223D01*
G04 #@! TO.C,SW1*
X90475000Y-77875000D02*
X109525000Y-77875000D01*
X109525000Y-77875000D02*
X109525000Y-96925000D01*
X109525000Y-96925000D02*
X90475000Y-96925000D01*
X90475000Y-96925000D02*
X90475000Y-77875000D01*
G04 #@! TD*
G04 #@! TO.C,J1*
D14*
X111158382Y-123628032D02*
X110875539Y-123345189D01*
X110983289Y-123237439D01*
X111023695Y-123223971D01*
X111050632Y-123223971D01*
X111091038Y-123237439D01*
X111131444Y-123277845D01*
X111144913Y-123318251D01*
X111144913Y-123345189D01*
X111131444Y-123385595D01*
X111023695Y-123493345D01*
X111575911Y-123156627D02*
X111575911Y-123183564D01*
X111548974Y-123237439D01*
X111522037Y-123264377D01*
X111468162Y-123291314D01*
X111414287Y-123291314D01*
X111373881Y-123277845D01*
X111306537Y-123237439D01*
X111266131Y-123197033D01*
X111225725Y-123129690D01*
X111212257Y-123089284D01*
X111212257Y-123035409D01*
X111239194Y-122981534D01*
X111266131Y-122954597D01*
X111320006Y-122927659D01*
X111346944Y-122927659D01*
X111670192Y-122819910D02*
X111724067Y-122792972D01*
X111751005Y-122792972D01*
X111791411Y-122806441D01*
X111831817Y-122846847D01*
X111845285Y-122887253D01*
X111845285Y-122914190D01*
X111831817Y-122954597D01*
X111724067Y-123062346D01*
X111441224Y-122779503D01*
X111535505Y-122685223D01*
X111575911Y-122671754D01*
X111602849Y-122671754D01*
X111643255Y-122685223D01*
X111670192Y-122712160D01*
X111683661Y-122752566D01*
X111683661Y-122779503D01*
X111670192Y-122819910D01*
X111575911Y-122914190D01*
X112168534Y-122321568D02*
X112074253Y-122415849D01*
X112222409Y-122564004D02*
X111939566Y-122281162D01*
X112074253Y-122146475D01*
X112464846Y-122321568D02*
X112276284Y-122133006D01*
X112330159Y-122186881D02*
X112316690Y-122146475D01*
X112316690Y-122119537D01*
X112330159Y-122079131D01*
X112357096Y-122052194D01*
X112680345Y-122106068D02*
X112639939Y-122119537D01*
X112613001Y-122119537D01*
X112572595Y-122106068D01*
X112491783Y-122025256D01*
X112478314Y-121984850D01*
X112478314Y-121957913D01*
X112491783Y-121917507D01*
X112532189Y-121877101D01*
X112572595Y-121863632D01*
X112599533Y-121863632D01*
X112639939Y-121877101D01*
X112720751Y-121957913D01*
X112734220Y-121998319D01*
X112734220Y-122025256D01*
X112720751Y-122065662D01*
X112680345Y-122106068D01*
X112707282Y-121702007D02*
X112895844Y-121890569D01*
X112734220Y-121728945D02*
X112734220Y-121702007D01*
X112747688Y-121661601D01*
X112788095Y-121621195D01*
X112828501Y-121607726D01*
X112868907Y-121621195D01*
X113017062Y-121769351D01*
X112922782Y-121486508D02*
X113030531Y-121378759D01*
X112868907Y-121351821D02*
X113111343Y-121594258D01*
X113151749Y-121607726D01*
X113192156Y-121594258D01*
X113219093Y-121567320D01*
X113380717Y-121109385D02*
X113474998Y-121015104D01*
X113663560Y-121122853D02*
X113528873Y-121257540D01*
X113246030Y-120974698D01*
X113380717Y-120840011D01*
X113905997Y-120880417D02*
X113623154Y-120597574D01*
X113892528Y-120866948D02*
X113879059Y-120907354D01*
X113825184Y-120961229D01*
X113784778Y-120974698D01*
X113757841Y-120974698D01*
X113717435Y-120961229D01*
X113636623Y-120880417D01*
X113623154Y-120840011D01*
X113623154Y-120813073D01*
X113636623Y-120772667D01*
X113690497Y-120718792D01*
X113730904Y-120705324D01*
X113973340Y-120435950D02*
X114202308Y-120664917D01*
X114215777Y-120705324D01*
X114215777Y-120732261D01*
X114202308Y-120772667D01*
X114161902Y-120813073D01*
X114121496Y-120826542D01*
X114148433Y-120611043D02*
X114134965Y-120651449D01*
X114081090Y-120705324D01*
X114040684Y-120718792D01*
X114013746Y-120718792D01*
X113973340Y-120705324D01*
X113892528Y-120624511D01*
X113879059Y-120584105D01*
X113879059Y-120557168D01*
X113892528Y-120516762D01*
X113946403Y-120462887D01*
X113986809Y-120449418D01*
X114390870Y-120368606D02*
X114377401Y-120409012D01*
X114323526Y-120462887D01*
X114283120Y-120476356D01*
X114242714Y-120462887D01*
X114134965Y-120355137D01*
X114121496Y-120314731D01*
X114134965Y-120274325D01*
X114188839Y-120220450D01*
X114229245Y-120206982D01*
X114269652Y-120220450D01*
X114296589Y-120247388D01*
X114188839Y-120409012D01*
G04 #@! TD*
M02*
