G04 #@! TF.GenerationSoftware,KiCad,Pcbnew,5.0.1*
G04 #@! TF.CreationDate,2019-03-28T22:54:33+10:30*
G04 #@! TF.ProjectId,reflex,7265666C65782E6B696361645F706362,rev?*
G04 #@! TF.SameCoordinates,Original*
G04 #@! TF.FileFunction,Copper,L1,Top,Signal*
G04 #@! TF.FilePolarity,Positive*
%FSLAX46Y46*%
G04 Gerber Fmt 4.6, Leading zero omitted, Abs format (unit mm)*
G04 Created by KiCad (PCBNEW 5.0.1) date Thu 28 Mar 2019 22:54:33 ACDT*
%MOMM*%
%LPD*%
G01*
G04 APERTURE LIST*
G04 #@! TA.AperFunction,SMDPad,CuDef*
%ADD10R,0.500000X0.800000*%
G04 #@! TD*
G04 #@! TA.AperFunction,SMDPad,CuDef*
%ADD11R,0.300000X0.800000*%
G04 #@! TD*
G04 #@! TA.AperFunction,Conductor*
%ADD12C,0.100000*%
G04 #@! TD*
G04 #@! TA.AperFunction,SMDPad,CuDef*
%ADD13C,0.260000*%
G04 #@! TD*
G04 #@! TA.AperFunction,SMDPad,CuDef*
%ADD14R,1.720000X1.720000*%
G04 #@! TD*
G04 #@! TA.AperFunction,ComponentPad*
%ADD15R,1.700000X1.700000*%
G04 #@! TD*
G04 #@! TA.AperFunction,ComponentPad*
%ADD16O,1.700000X1.700000*%
G04 #@! TD*
G04 #@! TA.AperFunction,SMDPad,CuDef*
%ADD17R,0.400000X0.650000*%
G04 #@! TD*
G04 #@! TA.AperFunction,SMDPad,CuDef*
%ADD18C,1.175000*%
G04 #@! TD*
G04 #@! TA.AperFunction,SMDPad,CuDef*
%ADD19C,1.900000*%
G04 #@! TD*
G04 #@! TA.AperFunction,SMDPad,CuDef*
%ADD20C,1.475000*%
G04 #@! TD*
G04 #@! TA.AperFunction,SMDPad,CuDef*
%ADD21C,0.450000*%
G04 #@! TD*
G04 #@! TA.AperFunction,SMDPad,CuDef*
%ADD22C,0.920000*%
G04 #@! TD*
G04 #@! TA.AperFunction,SMDPad,CuDef*
%ADD23C,1.160000*%
G04 #@! TD*
G04 #@! TA.AperFunction,SMDPad,CuDef*
%ADD24C,1.180000*%
G04 #@! TD*
G04 #@! TA.AperFunction,ComponentPad*
%ADD25R,1.470000X1.470000*%
G04 #@! TD*
G04 #@! TA.AperFunction,ComponentPad*
%ADD26C,1.470000*%
G04 #@! TD*
G04 #@! TA.AperFunction,SMDPad,CuDef*
%ADD27C,0.850000*%
G04 #@! TD*
G04 #@! TA.AperFunction,SMDPad,CuDef*
%ADD28C,0.400000*%
G04 #@! TD*
G04 #@! TA.AperFunction,ComponentPad*
%ADD29C,2.200000*%
G04 #@! TD*
G04 #@! TA.AperFunction,ComponentPad*
%ADD30C,1.524000*%
G04 #@! TD*
G04 #@! TA.AperFunction,SMDPad,CuDef*
%ADD31C,0.800000*%
G04 #@! TD*
G04 #@! TA.AperFunction,SMDPad,CuDef*
%ADD32C,0.560000*%
G04 #@! TD*
G04 #@! TA.AperFunction,SMDPad,CuDef*
%ADD33C,0.460000*%
G04 #@! TD*
G04 #@! TA.AperFunction,ViaPad*
%ADD34C,0.800000*%
G04 #@! TD*
G04 #@! TA.AperFunction,Conductor*
%ADD35C,0.250000*%
G04 #@! TD*
G04 #@! TA.AperFunction,Conductor*
%ADD36C,0.350000*%
G04 #@! TD*
G04 #@! TA.AperFunction,Conductor*
%ADD37C,0.400000*%
G04 #@! TD*
G04 #@! TA.AperFunction,Conductor*
%ADD38C,0.500000*%
G04 #@! TD*
G04 #@! TA.AperFunction,Conductor*
%ADD39C,0.200000*%
G04 #@! TD*
G04 APERTURE END LIST*
D10*
G04 #@! TO.P,U5,2*
G04 #@! TO.N,Net-(U4-Pad1)*
X94400000Y-115650000D03*
D11*
G04 #@! TO.P,U5,3*
G04 #@! TO.N,Net-(U4-Pad6)*
X93500000Y-115650000D03*
D10*
G04 #@! TO.P,U5,4*
G04 #@! TO.N,GND*
X92600000Y-115650000D03*
G04 #@! TO.P,U5,5*
G04 #@! TO.N,+3.3V*
X92600000Y-117350000D03*
D11*
G04 #@! TO.P,U5,6*
G04 #@! TO.N,Net-(U5-Pad6)*
X93500000Y-117350000D03*
D10*
G04 #@! TO.P,U5,1*
G04 #@! TO.N,Net-(U5-Pad1)*
X94400000Y-117350000D03*
G04 #@! TD*
D12*
G04 #@! TO.N,LED_DATA*
G04 #@! TO.C,U2*
G36*
X99741371Y-100215313D02*
X99747681Y-100216249D01*
X99753869Y-100217799D01*
X99759874Y-100219948D01*
X99765641Y-100222675D01*
X99771112Y-100225954D01*
X99776236Y-100229754D01*
X99780962Y-100234038D01*
X99785246Y-100238764D01*
X99789046Y-100243888D01*
X99792325Y-100249359D01*
X99795052Y-100255126D01*
X99797201Y-100261131D01*
X99798751Y-100267319D01*
X99799687Y-100273629D01*
X99800000Y-100280000D01*
X99800000Y-100930000D01*
X99799687Y-100936371D01*
X99798751Y-100942681D01*
X99797201Y-100948869D01*
X99795052Y-100954874D01*
X99792325Y-100960641D01*
X99789046Y-100966112D01*
X99785246Y-100971236D01*
X99780962Y-100975962D01*
X99776236Y-100980246D01*
X99771112Y-100984046D01*
X99765641Y-100987325D01*
X99759874Y-100990052D01*
X99753869Y-100992201D01*
X99747681Y-100993751D01*
X99741371Y-100994687D01*
X99735000Y-100995000D01*
X99605000Y-100995000D01*
X99598629Y-100994687D01*
X99592319Y-100993751D01*
X99586131Y-100992201D01*
X99580126Y-100990052D01*
X99574359Y-100987325D01*
X99568888Y-100984046D01*
X99563764Y-100980246D01*
X99559038Y-100975962D01*
X99554754Y-100971236D01*
X99550954Y-100966112D01*
X99547675Y-100960641D01*
X99544948Y-100954874D01*
X99542799Y-100948869D01*
X99541249Y-100942681D01*
X99540313Y-100936371D01*
X99540000Y-100930000D01*
X99540000Y-100280000D01*
X99540313Y-100273629D01*
X99541249Y-100267319D01*
X99542799Y-100261131D01*
X99544948Y-100255126D01*
X99547675Y-100249359D01*
X99550954Y-100243888D01*
X99554754Y-100238764D01*
X99559038Y-100234038D01*
X99563764Y-100229754D01*
X99568888Y-100225954D01*
X99574359Y-100222675D01*
X99580126Y-100219948D01*
X99586131Y-100217799D01*
X99592319Y-100216249D01*
X99598629Y-100215313D01*
X99605000Y-100215000D01*
X99735000Y-100215000D01*
X99741371Y-100215313D01*
X99741371Y-100215313D01*
G37*
D13*
G04 #@! TD*
G04 #@! TO.P,U2,1*
G04 #@! TO.N,LED_DATA*
X99670000Y-100605000D03*
D12*
G04 #@! TO.N,LED_CLK*
G04 #@! TO.C,U2*
G36*
X100241371Y-100215313D02*
X100247681Y-100216249D01*
X100253869Y-100217799D01*
X100259874Y-100219948D01*
X100265641Y-100222675D01*
X100271112Y-100225954D01*
X100276236Y-100229754D01*
X100280962Y-100234038D01*
X100285246Y-100238764D01*
X100289046Y-100243888D01*
X100292325Y-100249359D01*
X100295052Y-100255126D01*
X100297201Y-100261131D01*
X100298751Y-100267319D01*
X100299687Y-100273629D01*
X100300000Y-100280000D01*
X100300000Y-100930000D01*
X100299687Y-100936371D01*
X100298751Y-100942681D01*
X100297201Y-100948869D01*
X100295052Y-100954874D01*
X100292325Y-100960641D01*
X100289046Y-100966112D01*
X100285246Y-100971236D01*
X100280962Y-100975962D01*
X100276236Y-100980246D01*
X100271112Y-100984046D01*
X100265641Y-100987325D01*
X100259874Y-100990052D01*
X100253869Y-100992201D01*
X100247681Y-100993751D01*
X100241371Y-100994687D01*
X100235000Y-100995000D01*
X100105000Y-100995000D01*
X100098629Y-100994687D01*
X100092319Y-100993751D01*
X100086131Y-100992201D01*
X100080126Y-100990052D01*
X100074359Y-100987325D01*
X100068888Y-100984046D01*
X100063764Y-100980246D01*
X100059038Y-100975962D01*
X100054754Y-100971236D01*
X100050954Y-100966112D01*
X100047675Y-100960641D01*
X100044948Y-100954874D01*
X100042799Y-100948869D01*
X100041249Y-100942681D01*
X100040313Y-100936371D01*
X100040000Y-100930000D01*
X100040000Y-100280000D01*
X100040313Y-100273629D01*
X100041249Y-100267319D01*
X100042799Y-100261131D01*
X100044948Y-100255126D01*
X100047675Y-100249359D01*
X100050954Y-100243888D01*
X100054754Y-100238764D01*
X100059038Y-100234038D01*
X100063764Y-100229754D01*
X100068888Y-100225954D01*
X100074359Y-100222675D01*
X100080126Y-100219948D01*
X100086131Y-100217799D01*
X100092319Y-100216249D01*
X100098629Y-100215313D01*
X100105000Y-100215000D01*
X100235000Y-100215000D01*
X100241371Y-100215313D01*
X100241371Y-100215313D01*
G37*
D13*
G04 #@! TD*
G04 #@! TO.P,U2,2*
G04 #@! TO.N,LED_CLK*
X100170000Y-100605000D03*
D12*
G04 #@! TO.N,PHOTO_TRANS*
G04 #@! TO.C,U2*
G36*
X100741371Y-100215313D02*
X100747681Y-100216249D01*
X100753869Y-100217799D01*
X100759874Y-100219948D01*
X100765641Y-100222675D01*
X100771112Y-100225954D01*
X100776236Y-100229754D01*
X100780962Y-100234038D01*
X100785246Y-100238764D01*
X100789046Y-100243888D01*
X100792325Y-100249359D01*
X100795052Y-100255126D01*
X100797201Y-100261131D01*
X100798751Y-100267319D01*
X100799687Y-100273629D01*
X100800000Y-100280000D01*
X100800000Y-100930000D01*
X100799687Y-100936371D01*
X100798751Y-100942681D01*
X100797201Y-100948869D01*
X100795052Y-100954874D01*
X100792325Y-100960641D01*
X100789046Y-100966112D01*
X100785246Y-100971236D01*
X100780962Y-100975962D01*
X100776236Y-100980246D01*
X100771112Y-100984046D01*
X100765641Y-100987325D01*
X100759874Y-100990052D01*
X100753869Y-100992201D01*
X100747681Y-100993751D01*
X100741371Y-100994687D01*
X100735000Y-100995000D01*
X100605000Y-100995000D01*
X100598629Y-100994687D01*
X100592319Y-100993751D01*
X100586131Y-100992201D01*
X100580126Y-100990052D01*
X100574359Y-100987325D01*
X100568888Y-100984046D01*
X100563764Y-100980246D01*
X100559038Y-100975962D01*
X100554754Y-100971236D01*
X100550954Y-100966112D01*
X100547675Y-100960641D01*
X100544948Y-100954874D01*
X100542799Y-100948869D01*
X100541249Y-100942681D01*
X100540313Y-100936371D01*
X100540000Y-100930000D01*
X100540000Y-100280000D01*
X100540313Y-100273629D01*
X100541249Y-100267319D01*
X100542799Y-100261131D01*
X100544948Y-100255126D01*
X100547675Y-100249359D01*
X100550954Y-100243888D01*
X100554754Y-100238764D01*
X100559038Y-100234038D01*
X100563764Y-100229754D01*
X100568888Y-100225954D01*
X100574359Y-100222675D01*
X100580126Y-100219948D01*
X100586131Y-100217799D01*
X100592319Y-100216249D01*
X100598629Y-100215313D01*
X100605000Y-100215000D01*
X100735000Y-100215000D01*
X100741371Y-100215313D01*
X100741371Y-100215313D01*
G37*
D13*
G04 #@! TD*
G04 #@! TO.P,U2,3*
G04 #@! TO.N,PHOTO_TRANS*
X100670000Y-100605000D03*
D12*
G04 #@! TO.N,Net-(U2-Pad4)*
G04 #@! TO.C,U2*
G36*
X101241371Y-100215313D02*
X101247681Y-100216249D01*
X101253869Y-100217799D01*
X101259874Y-100219948D01*
X101265641Y-100222675D01*
X101271112Y-100225954D01*
X101276236Y-100229754D01*
X101280962Y-100234038D01*
X101285246Y-100238764D01*
X101289046Y-100243888D01*
X101292325Y-100249359D01*
X101295052Y-100255126D01*
X101297201Y-100261131D01*
X101298751Y-100267319D01*
X101299687Y-100273629D01*
X101300000Y-100280000D01*
X101300000Y-100930000D01*
X101299687Y-100936371D01*
X101298751Y-100942681D01*
X101297201Y-100948869D01*
X101295052Y-100954874D01*
X101292325Y-100960641D01*
X101289046Y-100966112D01*
X101285246Y-100971236D01*
X101280962Y-100975962D01*
X101276236Y-100980246D01*
X101271112Y-100984046D01*
X101265641Y-100987325D01*
X101259874Y-100990052D01*
X101253869Y-100992201D01*
X101247681Y-100993751D01*
X101241371Y-100994687D01*
X101235000Y-100995000D01*
X101105000Y-100995000D01*
X101098629Y-100994687D01*
X101092319Y-100993751D01*
X101086131Y-100992201D01*
X101080126Y-100990052D01*
X101074359Y-100987325D01*
X101068888Y-100984046D01*
X101063764Y-100980246D01*
X101059038Y-100975962D01*
X101054754Y-100971236D01*
X101050954Y-100966112D01*
X101047675Y-100960641D01*
X101044948Y-100954874D01*
X101042799Y-100948869D01*
X101041249Y-100942681D01*
X101040313Y-100936371D01*
X101040000Y-100930000D01*
X101040000Y-100280000D01*
X101040313Y-100273629D01*
X101041249Y-100267319D01*
X101042799Y-100261131D01*
X101044948Y-100255126D01*
X101047675Y-100249359D01*
X101050954Y-100243888D01*
X101054754Y-100238764D01*
X101059038Y-100234038D01*
X101063764Y-100229754D01*
X101068888Y-100225954D01*
X101074359Y-100222675D01*
X101080126Y-100219948D01*
X101086131Y-100217799D01*
X101092319Y-100216249D01*
X101098629Y-100215313D01*
X101105000Y-100215000D01*
X101235000Y-100215000D01*
X101241371Y-100215313D01*
X101241371Y-100215313D01*
G37*
D13*
G04 #@! TD*
G04 #@! TO.P,U2,4*
G04 #@! TO.N,Net-(U2-Pad4)*
X101170000Y-100605000D03*
D12*
G04 #@! TO.N,Net-(U2-Pad5)*
G04 #@! TO.C,U2*
G36*
X101741371Y-100215313D02*
X101747681Y-100216249D01*
X101753869Y-100217799D01*
X101759874Y-100219948D01*
X101765641Y-100222675D01*
X101771112Y-100225954D01*
X101776236Y-100229754D01*
X101780962Y-100234038D01*
X101785246Y-100238764D01*
X101789046Y-100243888D01*
X101792325Y-100249359D01*
X101795052Y-100255126D01*
X101797201Y-100261131D01*
X101798751Y-100267319D01*
X101799687Y-100273629D01*
X101800000Y-100280000D01*
X101800000Y-100930000D01*
X101799687Y-100936371D01*
X101798751Y-100942681D01*
X101797201Y-100948869D01*
X101795052Y-100954874D01*
X101792325Y-100960641D01*
X101789046Y-100966112D01*
X101785246Y-100971236D01*
X101780962Y-100975962D01*
X101776236Y-100980246D01*
X101771112Y-100984046D01*
X101765641Y-100987325D01*
X101759874Y-100990052D01*
X101753869Y-100992201D01*
X101747681Y-100993751D01*
X101741371Y-100994687D01*
X101735000Y-100995000D01*
X101605000Y-100995000D01*
X101598629Y-100994687D01*
X101592319Y-100993751D01*
X101586131Y-100992201D01*
X101580126Y-100990052D01*
X101574359Y-100987325D01*
X101568888Y-100984046D01*
X101563764Y-100980246D01*
X101559038Y-100975962D01*
X101554754Y-100971236D01*
X101550954Y-100966112D01*
X101547675Y-100960641D01*
X101544948Y-100954874D01*
X101542799Y-100948869D01*
X101541249Y-100942681D01*
X101540313Y-100936371D01*
X101540000Y-100930000D01*
X101540000Y-100280000D01*
X101540313Y-100273629D01*
X101541249Y-100267319D01*
X101542799Y-100261131D01*
X101544948Y-100255126D01*
X101547675Y-100249359D01*
X101550954Y-100243888D01*
X101554754Y-100238764D01*
X101559038Y-100234038D01*
X101563764Y-100229754D01*
X101568888Y-100225954D01*
X101574359Y-100222675D01*
X101580126Y-100219948D01*
X101586131Y-100217799D01*
X101592319Y-100216249D01*
X101598629Y-100215313D01*
X101605000Y-100215000D01*
X101735000Y-100215000D01*
X101741371Y-100215313D01*
X101741371Y-100215313D01*
G37*
D13*
G04 #@! TD*
G04 #@! TO.P,U2,5*
G04 #@! TO.N,Net-(U2-Pad5)*
X101670000Y-100605000D03*
D12*
G04 #@! TO.N,Net-(U2-Pad6)*
G04 #@! TO.C,U2*
G36*
X102241371Y-100215313D02*
X102247681Y-100216249D01*
X102253869Y-100217799D01*
X102259874Y-100219948D01*
X102265641Y-100222675D01*
X102271112Y-100225954D01*
X102276236Y-100229754D01*
X102280962Y-100234038D01*
X102285246Y-100238764D01*
X102289046Y-100243888D01*
X102292325Y-100249359D01*
X102295052Y-100255126D01*
X102297201Y-100261131D01*
X102298751Y-100267319D01*
X102299687Y-100273629D01*
X102300000Y-100280000D01*
X102300000Y-100930000D01*
X102299687Y-100936371D01*
X102298751Y-100942681D01*
X102297201Y-100948869D01*
X102295052Y-100954874D01*
X102292325Y-100960641D01*
X102289046Y-100966112D01*
X102285246Y-100971236D01*
X102280962Y-100975962D01*
X102276236Y-100980246D01*
X102271112Y-100984046D01*
X102265641Y-100987325D01*
X102259874Y-100990052D01*
X102253869Y-100992201D01*
X102247681Y-100993751D01*
X102241371Y-100994687D01*
X102235000Y-100995000D01*
X102105000Y-100995000D01*
X102098629Y-100994687D01*
X102092319Y-100993751D01*
X102086131Y-100992201D01*
X102080126Y-100990052D01*
X102074359Y-100987325D01*
X102068888Y-100984046D01*
X102063764Y-100980246D01*
X102059038Y-100975962D01*
X102054754Y-100971236D01*
X102050954Y-100966112D01*
X102047675Y-100960641D01*
X102044948Y-100954874D01*
X102042799Y-100948869D01*
X102041249Y-100942681D01*
X102040313Y-100936371D01*
X102040000Y-100930000D01*
X102040000Y-100280000D01*
X102040313Y-100273629D01*
X102041249Y-100267319D01*
X102042799Y-100261131D01*
X102044948Y-100255126D01*
X102047675Y-100249359D01*
X102050954Y-100243888D01*
X102054754Y-100238764D01*
X102059038Y-100234038D01*
X102063764Y-100229754D01*
X102068888Y-100225954D01*
X102074359Y-100222675D01*
X102080126Y-100219948D01*
X102086131Y-100217799D01*
X102092319Y-100216249D01*
X102098629Y-100215313D01*
X102105000Y-100215000D01*
X102235000Y-100215000D01*
X102241371Y-100215313D01*
X102241371Y-100215313D01*
G37*
D13*
G04 #@! TD*
G04 #@! TO.P,U2,6*
G04 #@! TO.N,Net-(U2-Pad6)*
X102170000Y-100605000D03*
D12*
G04 #@! TO.N,UART_TX*
G04 #@! TO.C,U2*
G36*
X102741371Y-100215313D02*
X102747681Y-100216249D01*
X102753869Y-100217799D01*
X102759874Y-100219948D01*
X102765641Y-100222675D01*
X102771112Y-100225954D01*
X102776236Y-100229754D01*
X102780962Y-100234038D01*
X102785246Y-100238764D01*
X102789046Y-100243888D01*
X102792325Y-100249359D01*
X102795052Y-100255126D01*
X102797201Y-100261131D01*
X102798751Y-100267319D01*
X102799687Y-100273629D01*
X102800000Y-100280000D01*
X102800000Y-100930000D01*
X102799687Y-100936371D01*
X102798751Y-100942681D01*
X102797201Y-100948869D01*
X102795052Y-100954874D01*
X102792325Y-100960641D01*
X102789046Y-100966112D01*
X102785246Y-100971236D01*
X102780962Y-100975962D01*
X102776236Y-100980246D01*
X102771112Y-100984046D01*
X102765641Y-100987325D01*
X102759874Y-100990052D01*
X102753869Y-100992201D01*
X102747681Y-100993751D01*
X102741371Y-100994687D01*
X102735000Y-100995000D01*
X102605000Y-100995000D01*
X102598629Y-100994687D01*
X102592319Y-100993751D01*
X102586131Y-100992201D01*
X102580126Y-100990052D01*
X102574359Y-100987325D01*
X102568888Y-100984046D01*
X102563764Y-100980246D01*
X102559038Y-100975962D01*
X102554754Y-100971236D01*
X102550954Y-100966112D01*
X102547675Y-100960641D01*
X102544948Y-100954874D01*
X102542799Y-100948869D01*
X102541249Y-100942681D01*
X102540313Y-100936371D01*
X102540000Y-100930000D01*
X102540000Y-100280000D01*
X102540313Y-100273629D01*
X102541249Y-100267319D01*
X102542799Y-100261131D01*
X102544948Y-100255126D01*
X102547675Y-100249359D01*
X102550954Y-100243888D01*
X102554754Y-100238764D01*
X102559038Y-100234038D01*
X102563764Y-100229754D01*
X102568888Y-100225954D01*
X102574359Y-100222675D01*
X102580126Y-100219948D01*
X102586131Y-100217799D01*
X102592319Y-100216249D01*
X102598629Y-100215313D01*
X102605000Y-100215000D01*
X102735000Y-100215000D01*
X102741371Y-100215313D01*
X102741371Y-100215313D01*
G37*
D13*
G04 #@! TD*
G04 #@! TO.P,U2,7*
G04 #@! TO.N,UART_TX*
X102670000Y-100605000D03*
D12*
G04 #@! TO.N,UART_RX*
G04 #@! TO.C,U2*
G36*
X103241371Y-100215313D02*
X103247681Y-100216249D01*
X103253869Y-100217799D01*
X103259874Y-100219948D01*
X103265641Y-100222675D01*
X103271112Y-100225954D01*
X103276236Y-100229754D01*
X103280962Y-100234038D01*
X103285246Y-100238764D01*
X103289046Y-100243888D01*
X103292325Y-100249359D01*
X103295052Y-100255126D01*
X103297201Y-100261131D01*
X103298751Y-100267319D01*
X103299687Y-100273629D01*
X103300000Y-100280000D01*
X103300000Y-100930000D01*
X103299687Y-100936371D01*
X103298751Y-100942681D01*
X103297201Y-100948869D01*
X103295052Y-100954874D01*
X103292325Y-100960641D01*
X103289046Y-100966112D01*
X103285246Y-100971236D01*
X103280962Y-100975962D01*
X103276236Y-100980246D01*
X103271112Y-100984046D01*
X103265641Y-100987325D01*
X103259874Y-100990052D01*
X103253869Y-100992201D01*
X103247681Y-100993751D01*
X103241371Y-100994687D01*
X103235000Y-100995000D01*
X103105000Y-100995000D01*
X103098629Y-100994687D01*
X103092319Y-100993751D01*
X103086131Y-100992201D01*
X103080126Y-100990052D01*
X103074359Y-100987325D01*
X103068888Y-100984046D01*
X103063764Y-100980246D01*
X103059038Y-100975962D01*
X103054754Y-100971236D01*
X103050954Y-100966112D01*
X103047675Y-100960641D01*
X103044948Y-100954874D01*
X103042799Y-100948869D01*
X103041249Y-100942681D01*
X103040313Y-100936371D01*
X103040000Y-100930000D01*
X103040000Y-100280000D01*
X103040313Y-100273629D01*
X103041249Y-100267319D01*
X103042799Y-100261131D01*
X103044948Y-100255126D01*
X103047675Y-100249359D01*
X103050954Y-100243888D01*
X103054754Y-100238764D01*
X103059038Y-100234038D01*
X103063764Y-100229754D01*
X103068888Y-100225954D01*
X103074359Y-100222675D01*
X103080126Y-100219948D01*
X103086131Y-100217799D01*
X103092319Y-100216249D01*
X103098629Y-100215313D01*
X103105000Y-100215000D01*
X103235000Y-100215000D01*
X103241371Y-100215313D01*
X103241371Y-100215313D01*
G37*
D13*
G04 #@! TD*
G04 #@! TO.P,U2,8*
G04 #@! TO.N,UART_RX*
X103170000Y-100605000D03*
D12*
G04 #@! TO.N,+3.3V*
G04 #@! TO.C,U2*
G36*
X104136371Y-99840313D02*
X104142681Y-99841249D01*
X104148869Y-99842799D01*
X104154874Y-99844948D01*
X104160641Y-99847675D01*
X104166112Y-99850954D01*
X104171236Y-99854754D01*
X104175962Y-99859038D01*
X104180246Y-99863764D01*
X104184046Y-99868888D01*
X104187325Y-99874359D01*
X104190052Y-99880126D01*
X104192201Y-99886131D01*
X104193751Y-99892319D01*
X104194687Y-99898629D01*
X104195000Y-99905000D01*
X104195000Y-100035000D01*
X104194687Y-100041371D01*
X104193751Y-100047681D01*
X104192201Y-100053869D01*
X104190052Y-100059874D01*
X104187325Y-100065641D01*
X104184046Y-100071112D01*
X104180246Y-100076236D01*
X104175962Y-100080962D01*
X104171236Y-100085246D01*
X104166112Y-100089046D01*
X104160641Y-100092325D01*
X104154874Y-100095052D01*
X104148869Y-100097201D01*
X104142681Y-100098751D01*
X104136371Y-100099687D01*
X104130000Y-100100000D01*
X103480000Y-100100000D01*
X103473629Y-100099687D01*
X103467319Y-100098751D01*
X103461131Y-100097201D01*
X103455126Y-100095052D01*
X103449359Y-100092325D01*
X103443888Y-100089046D01*
X103438764Y-100085246D01*
X103434038Y-100080962D01*
X103429754Y-100076236D01*
X103425954Y-100071112D01*
X103422675Y-100065641D01*
X103419948Y-100059874D01*
X103417799Y-100053869D01*
X103416249Y-100047681D01*
X103415313Y-100041371D01*
X103415000Y-100035000D01*
X103415000Y-99905000D01*
X103415313Y-99898629D01*
X103416249Y-99892319D01*
X103417799Y-99886131D01*
X103419948Y-99880126D01*
X103422675Y-99874359D01*
X103425954Y-99868888D01*
X103429754Y-99863764D01*
X103434038Y-99859038D01*
X103438764Y-99854754D01*
X103443888Y-99850954D01*
X103449359Y-99847675D01*
X103455126Y-99844948D01*
X103461131Y-99842799D01*
X103467319Y-99841249D01*
X103473629Y-99840313D01*
X103480000Y-99840000D01*
X104130000Y-99840000D01*
X104136371Y-99840313D01*
X104136371Y-99840313D01*
G37*
D13*
G04 #@! TD*
G04 #@! TO.P,U2,9*
G04 #@! TO.N,+3.3V*
X103805000Y-99970000D03*
D12*
G04 #@! TO.N,GND*
G04 #@! TO.C,U2*
G36*
X104136371Y-99340313D02*
X104142681Y-99341249D01*
X104148869Y-99342799D01*
X104154874Y-99344948D01*
X104160641Y-99347675D01*
X104166112Y-99350954D01*
X104171236Y-99354754D01*
X104175962Y-99359038D01*
X104180246Y-99363764D01*
X104184046Y-99368888D01*
X104187325Y-99374359D01*
X104190052Y-99380126D01*
X104192201Y-99386131D01*
X104193751Y-99392319D01*
X104194687Y-99398629D01*
X104195000Y-99405000D01*
X104195000Y-99535000D01*
X104194687Y-99541371D01*
X104193751Y-99547681D01*
X104192201Y-99553869D01*
X104190052Y-99559874D01*
X104187325Y-99565641D01*
X104184046Y-99571112D01*
X104180246Y-99576236D01*
X104175962Y-99580962D01*
X104171236Y-99585246D01*
X104166112Y-99589046D01*
X104160641Y-99592325D01*
X104154874Y-99595052D01*
X104148869Y-99597201D01*
X104142681Y-99598751D01*
X104136371Y-99599687D01*
X104130000Y-99600000D01*
X103480000Y-99600000D01*
X103473629Y-99599687D01*
X103467319Y-99598751D01*
X103461131Y-99597201D01*
X103455126Y-99595052D01*
X103449359Y-99592325D01*
X103443888Y-99589046D01*
X103438764Y-99585246D01*
X103434038Y-99580962D01*
X103429754Y-99576236D01*
X103425954Y-99571112D01*
X103422675Y-99565641D01*
X103419948Y-99559874D01*
X103417799Y-99553869D01*
X103416249Y-99547681D01*
X103415313Y-99541371D01*
X103415000Y-99535000D01*
X103415000Y-99405000D01*
X103415313Y-99398629D01*
X103416249Y-99392319D01*
X103417799Y-99386131D01*
X103419948Y-99380126D01*
X103422675Y-99374359D01*
X103425954Y-99368888D01*
X103429754Y-99363764D01*
X103434038Y-99359038D01*
X103438764Y-99354754D01*
X103443888Y-99350954D01*
X103449359Y-99347675D01*
X103455126Y-99344948D01*
X103461131Y-99342799D01*
X103467319Y-99341249D01*
X103473629Y-99340313D01*
X103480000Y-99340000D01*
X104130000Y-99340000D01*
X104136371Y-99340313D01*
X104136371Y-99340313D01*
G37*
D13*
G04 #@! TD*
G04 #@! TO.P,U2,10*
G04 #@! TO.N,GND*
X103805000Y-99470000D03*
D12*
G04 #@! TO.N,EXTERNAL_TRIG*
G04 #@! TO.C,U2*
G36*
X104136371Y-98840313D02*
X104142681Y-98841249D01*
X104148869Y-98842799D01*
X104154874Y-98844948D01*
X104160641Y-98847675D01*
X104166112Y-98850954D01*
X104171236Y-98854754D01*
X104175962Y-98859038D01*
X104180246Y-98863764D01*
X104184046Y-98868888D01*
X104187325Y-98874359D01*
X104190052Y-98880126D01*
X104192201Y-98886131D01*
X104193751Y-98892319D01*
X104194687Y-98898629D01*
X104195000Y-98905000D01*
X104195000Y-99035000D01*
X104194687Y-99041371D01*
X104193751Y-99047681D01*
X104192201Y-99053869D01*
X104190052Y-99059874D01*
X104187325Y-99065641D01*
X104184046Y-99071112D01*
X104180246Y-99076236D01*
X104175962Y-99080962D01*
X104171236Y-99085246D01*
X104166112Y-99089046D01*
X104160641Y-99092325D01*
X104154874Y-99095052D01*
X104148869Y-99097201D01*
X104142681Y-99098751D01*
X104136371Y-99099687D01*
X104130000Y-99100000D01*
X103480000Y-99100000D01*
X103473629Y-99099687D01*
X103467319Y-99098751D01*
X103461131Y-99097201D01*
X103455126Y-99095052D01*
X103449359Y-99092325D01*
X103443888Y-99089046D01*
X103438764Y-99085246D01*
X103434038Y-99080962D01*
X103429754Y-99076236D01*
X103425954Y-99071112D01*
X103422675Y-99065641D01*
X103419948Y-99059874D01*
X103417799Y-99053869D01*
X103416249Y-99047681D01*
X103415313Y-99041371D01*
X103415000Y-99035000D01*
X103415000Y-98905000D01*
X103415313Y-98898629D01*
X103416249Y-98892319D01*
X103417799Y-98886131D01*
X103419948Y-98880126D01*
X103422675Y-98874359D01*
X103425954Y-98868888D01*
X103429754Y-98863764D01*
X103434038Y-98859038D01*
X103438764Y-98854754D01*
X103443888Y-98850954D01*
X103449359Y-98847675D01*
X103455126Y-98844948D01*
X103461131Y-98842799D01*
X103467319Y-98841249D01*
X103473629Y-98840313D01*
X103480000Y-98840000D01*
X104130000Y-98840000D01*
X104136371Y-98840313D01*
X104136371Y-98840313D01*
G37*
D13*
G04 #@! TD*
G04 #@! TO.P,U2,11*
G04 #@! TO.N,EXTERNAL_TRIG*
X103805000Y-98970000D03*
D12*
G04 #@! TO.N,SWITCH_TRIG*
G04 #@! TO.C,U2*
G36*
X104136371Y-98340313D02*
X104142681Y-98341249D01*
X104148869Y-98342799D01*
X104154874Y-98344948D01*
X104160641Y-98347675D01*
X104166112Y-98350954D01*
X104171236Y-98354754D01*
X104175962Y-98359038D01*
X104180246Y-98363764D01*
X104184046Y-98368888D01*
X104187325Y-98374359D01*
X104190052Y-98380126D01*
X104192201Y-98386131D01*
X104193751Y-98392319D01*
X104194687Y-98398629D01*
X104195000Y-98405000D01*
X104195000Y-98535000D01*
X104194687Y-98541371D01*
X104193751Y-98547681D01*
X104192201Y-98553869D01*
X104190052Y-98559874D01*
X104187325Y-98565641D01*
X104184046Y-98571112D01*
X104180246Y-98576236D01*
X104175962Y-98580962D01*
X104171236Y-98585246D01*
X104166112Y-98589046D01*
X104160641Y-98592325D01*
X104154874Y-98595052D01*
X104148869Y-98597201D01*
X104142681Y-98598751D01*
X104136371Y-98599687D01*
X104130000Y-98600000D01*
X103480000Y-98600000D01*
X103473629Y-98599687D01*
X103467319Y-98598751D01*
X103461131Y-98597201D01*
X103455126Y-98595052D01*
X103449359Y-98592325D01*
X103443888Y-98589046D01*
X103438764Y-98585246D01*
X103434038Y-98580962D01*
X103429754Y-98576236D01*
X103425954Y-98571112D01*
X103422675Y-98565641D01*
X103419948Y-98559874D01*
X103417799Y-98553869D01*
X103416249Y-98547681D01*
X103415313Y-98541371D01*
X103415000Y-98535000D01*
X103415000Y-98405000D01*
X103415313Y-98398629D01*
X103416249Y-98392319D01*
X103417799Y-98386131D01*
X103419948Y-98380126D01*
X103422675Y-98374359D01*
X103425954Y-98368888D01*
X103429754Y-98363764D01*
X103434038Y-98359038D01*
X103438764Y-98354754D01*
X103443888Y-98350954D01*
X103449359Y-98347675D01*
X103455126Y-98344948D01*
X103461131Y-98342799D01*
X103467319Y-98341249D01*
X103473629Y-98340313D01*
X103480000Y-98340000D01*
X104130000Y-98340000D01*
X104136371Y-98340313D01*
X104136371Y-98340313D01*
G37*
D13*
G04 #@! TD*
G04 #@! TO.P,U2,12*
G04 #@! TO.N,SWITCH_TRIG*
X103805000Y-98470000D03*
D12*
G04 #@! TO.N,STATUS_USER*
G04 #@! TO.C,U2*
G36*
X104136371Y-97840313D02*
X104142681Y-97841249D01*
X104148869Y-97842799D01*
X104154874Y-97844948D01*
X104160641Y-97847675D01*
X104166112Y-97850954D01*
X104171236Y-97854754D01*
X104175962Y-97859038D01*
X104180246Y-97863764D01*
X104184046Y-97868888D01*
X104187325Y-97874359D01*
X104190052Y-97880126D01*
X104192201Y-97886131D01*
X104193751Y-97892319D01*
X104194687Y-97898629D01*
X104195000Y-97905000D01*
X104195000Y-98035000D01*
X104194687Y-98041371D01*
X104193751Y-98047681D01*
X104192201Y-98053869D01*
X104190052Y-98059874D01*
X104187325Y-98065641D01*
X104184046Y-98071112D01*
X104180246Y-98076236D01*
X104175962Y-98080962D01*
X104171236Y-98085246D01*
X104166112Y-98089046D01*
X104160641Y-98092325D01*
X104154874Y-98095052D01*
X104148869Y-98097201D01*
X104142681Y-98098751D01*
X104136371Y-98099687D01*
X104130000Y-98100000D01*
X103480000Y-98100000D01*
X103473629Y-98099687D01*
X103467319Y-98098751D01*
X103461131Y-98097201D01*
X103455126Y-98095052D01*
X103449359Y-98092325D01*
X103443888Y-98089046D01*
X103438764Y-98085246D01*
X103434038Y-98080962D01*
X103429754Y-98076236D01*
X103425954Y-98071112D01*
X103422675Y-98065641D01*
X103419948Y-98059874D01*
X103417799Y-98053869D01*
X103416249Y-98047681D01*
X103415313Y-98041371D01*
X103415000Y-98035000D01*
X103415000Y-97905000D01*
X103415313Y-97898629D01*
X103416249Y-97892319D01*
X103417799Y-97886131D01*
X103419948Y-97880126D01*
X103422675Y-97874359D01*
X103425954Y-97868888D01*
X103429754Y-97863764D01*
X103434038Y-97859038D01*
X103438764Y-97854754D01*
X103443888Y-97850954D01*
X103449359Y-97847675D01*
X103455126Y-97844948D01*
X103461131Y-97842799D01*
X103467319Y-97841249D01*
X103473629Y-97840313D01*
X103480000Y-97840000D01*
X104130000Y-97840000D01*
X104136371Y-97840313D01*
X104136371Y-97840313D01*
G37*
D13*
G04 #@! TD*
G04 #@! TO.P,U2,13*
G04 #@! TO.N,STATUS_USER*
X103805000Y-97970000D03*
D12*
G04 #@! TO.N,Net-(U2-Pad14)*
G04 #@! TO.C,U2*
G36*
X104136371Y-97340313D02*
X104142681Y-97341249D01*
X104148869Y-97342799D01*
X104154874Y-97344948D01*
X104160641Y-97347675D01*
X104166112Y-97350954D01*
X104171236Y-97354754D01*
X104175962Y-97359038D01*
X104180246Y-97363764D01*
X104184046Y-97368888D01*
X104187325Y-97374359D01*
X104190052Y-97380126D01*
X104192201Y-97386131D01*
X104193751Y-97392319D01*
X104194687Y-97398629D01*
X104195000Y-97405000D01*
X104195000Y-97535000D01*
X104194687Y-97541371D01*
X104193751Y-97547681D01*
X104192201Y-97553869D01*
X104190052Y-97559874D01*
X104187325Y-97565641D01*
X104184046Y-97571112D01*
X104180246Y-97576236D01*
X104175962Y-97580962D01*
X104171236Y-97585246D01*
X104166112Y-97589046D01*
X104160641Y-97592325D01*
X104154874Y-97595052D01*
X104148869Y-97597201D01*
X104142681Y-97598751D01*
X104136371Y-97599687D01*
X104130000Y-97600000D01*
X103480000Y-97600000D01*
X103473629Y-97599687D01*
X103467319Y-97598751D01*
X103461131Y-97597201D01*
X103455126Y-97595052D01*
X103449359Y-97592325D01*
X103443888Y-97589046D01*
X103438764Y-97585246D01*
X103434038Y-97580962D01*
X103429754Y-97576236D01*
X103425954Y-97571112D01*
X103422675Y-97565641D01*
X103419948Y-97559874D01*
X103417799Y-97553869D01*
X103416249Y-97547681D01*
X103415313Y-97541371D01*
X103415000Y-97535000D01*
X103415000Y-97405000D01*
X103415313Y-97398629D01*
X103416249Y-97392319D01*
X103417799Y-97386131D01*
X103419948Y-97380126D01*
X103422675Y-97374359D01*
X103425954Y-97368888D01*
X103429754Y-97363764D01*
X103434038Y-97359038D01*
X103438764Y-97354754D01*
X103443888Y-97350954D01*
X103449359Y-97347675D01*
X103455126Y-97344948D01*
X103461131Y-97342799D01*
X103467319Y-97341249D01*
X103473629Y-97340313D01*
X103480000Y-97340000D01*
X104130000Y-97340000D01*
X104136371Y-97340313D01*
X104136371Y-97340313D01*
G37*
D13*
G04 #@! TD*
G04 #@! TO.P,U2,14*
G04 #@! TO.N,Net-(U2-Pad14)*
X103805000Y-97470000D03*
D12*
G04 #@! TO.N,Net-(U2-Pad15)*
G04 #@! TO.C,U2*
G36*
X104136371Y-96840313D02*
X104142681Y-96841249D01*
X104148869Y-96842799D01*
X104154874Y-96844948D01*
X104160641Y-96847675D01*
X104166112Y-96850954D01*
X104171236Y-96854754D01*
X104175962Y-96859038D01*
X104180246Y-96863764D01*
X104184046Y-96868888D01*
X104187325Y-96874359D01*
X104190052Y-96880126D01*
X104192201Y-96886131D01*
X104193751Y-96892319D01*
X104194687Y-96898629D01*
X104195000Y-96905000D01*
X104195000Y-97035000D01*
X104194687Y-97041371D01*
X104193751Y-97047681D01*
X104192201Y-97053869D01*
X104190052Y-97059874D01*
X104187325Y-97065641D01*
X104184046Y-97071112D01*
X104180246Y-97076236D01*
X104175962Y-97080962D01*
X104171236Y-97085246D01*
X104166112Y-97089046D01*
X104160641Y-97092325D01*
X104154874Y-97095052D01*
X104148869Y-97097201D01*
X104142681Y-97098751D01*
X104136371Y-97099687D01*
X104130000Y-97100000D01*
X103480000Y-97100000D01*
X103473629Y-97099687D01*
X103467319Y-97098751D01*
X103461131Y-97097201D01*
X103455126Y-97095052D01*
X103449359Y-97092325D01*
X103443888Y-97089046D01*
X103438764Y-97085246D01*
X103434038Y-97080962D01*
X103429754Y-97076236D01*
X103425954Y-97071112D01*
X103422675Y-97065641D01*
X103419948Y-97059874D01*
X103417799Y-97053869D01*
X103416249Y-97047681D01*
X103415313Y-97041371D01*
X103415000Y-97035000D01*
X103415000Y-96905000D01*
X103415313Y-96898629D01*
X103416249Y-96892319D01*
X103417799Y-96886131D01*
X103419948Y-96880126D01*
X103422675Y-96874359D01*
X103425954Y-96868888D01*
X103429754Y-96863764D01*
X103434038Y-96859038D01*
X103438764Y-96854754D01*
X103443888Y-96850954D01*
X103449359Y-96847675D01*
X103455126Y-96844948D01*
X103461131Y-96842799D01*
X103467319Y-96841249D01*
X103473629Y-96840313D01*
X103480000Y-96840000D01*
X104130000Y-96840000D01*
X104136371Y-96840313D01*
X104136371Y-96840313D01*
G37*
D13*
G04 #@! TD*
G04 #@! TO.P,U2,15*
G04 #@! TO.N,Net-(U2-Pad15)*
X103805000Y-96970000D03*
D12*
G04 #@! TO.N,Net-(U2-Pad16)*
G04 #@! TO.C,U2*
G36*
X104136371Y-96340313D02*
X104142681Y-96341249D01*
X104148869Y-96342799D01*
X104154874Y-96344948D01*
X104160641Y-96347675D01*
X104166112Y-96350954D01*
X104171236Y-96354754D01*
X104175962Y-96359038D01*
X104180246Y-96363764D01*
X104184046Y-96368888D01*
X104187325Y-96374359D01*
X104190052Y-96380126D01*
X104192201Y-96386131D01*
X104193751Y-96392319D01*
X104194687Y-96398629D01*
X104195000Y-96405000D01*
X104195000Y-96535000D01*
X104194687Y-96541371D01*
X104193751Y-96547681D01*
X104192201Y-96553869D01*
X104190052Y-96559874D01*
X104187325Y-96565641D01*
X104184046Y-96571112D01*
X104180246Y-96576236D01*
X104175962Y-96580962D01*
X104171236Y-96585246D01*
X104166112Y-96589046D01*
X104160641Y-96592325D01*
X104154874Y-96595052D01*
X104148869Y-96597201D01*
X104142681Y-96598751D01*
X104136371Y-96599687D01*
X104130000Y-96600000D01*
X103480000Y-96600000D01*
X103473629Y-96599687D01*
X103467319Y-96598751D01*
X103461131Y-96597201D01*
X103455126Y-96595052D01*
X103449359Y-96592325D01*
X103443888Y-96589046D01*
X103438764Y-96585246D01*
X103434038Y-96580962D01*
X103429754Y-96576236D01*
X103425954Y-96571112D01*
X103422675Y-96565641D01*
X103419948Y-96559874D01*
X103417799Y-96553869D01*
X103416249Y-96547681D01*
X103415313Y-96541371D01*
X103415000Y-96535000D01*
X103415000Y-96405000D01*
X103415313Y-96398629D01*
X103416249Y-96392319D01*
X103417799Y-96386131D01*
X103419948Y-96380126D01*
X103422675Y-96374359D01*
X103425954Y-96368888D01*
X103429754Y-96363764D01*
X103434038Y-96359038D01*
X103438764Y-96354754D01*
X103443888Y-96350954D01*
X103449359Y-96347675D01*
X103455126Y-96344948D01*
X103461131Y-96342799D01*
X103467319Y-96341249D01*
X103473629Y-96340313D01*
X103480000Y-96340000D01*
X104130000Y-96340000D01*
X104136371Y-96340313D01*
X104136371Y-96340313D01*
G37*
D13*
G04 #@! TD*
G04 #@! TO.P,U2,16*
G04 #@! TO.N,Net-(U2-Pad16)*
X103805000Y-96470000D03*
D12*
G04 #@! TO.N,Net-(U2-Pad17)*
G04 #@! TO.C,U2*
G36*
X103241371Y-95445313D02*
X103247681Y-95446249D01*
X103253869Y-95447799D01*
X103259874Y-95449948D01*
X103265641Y-95452675D01*
X103271112Y-95455954D01*
X103276236Y-95459754D01*
X103280962Y-95464038D01*
X103285246Y-95468764D01*
X103289046Y-95473888D01*
X103292325Y-95479359D01*
X103295052Y-95485126D01*
X103297201Y-95491131D01*
X103298751Y-95497319D01*
X103299687Y-95503629D01*
X103300000Y-95510000D01*
X103300000Y-96160000D01*
X103299687Y-96166371D01*
X103298751Y-96172681D01*
X103297201Y-96178869D01*
X103295052Y-96184874D01*
X103292325Y-96190641D01*
X103289046Y-96196112D01*
X103285246Y-96201236D01*
X103280962Y-96205962D01*
X103276236Y-96210246D01*
X103271112Y-96214046D01*
X103265641Y-96217325D01*
X103259874Y-96220052D01*
X103253869Y-96222201D01*
X103247681Y-96223751D01*
X103241371Y-96224687D01*
X103235000Y-96225000D01*
X103105000Y-96225000D01*
X103098629Y-96224687D01*
X103092319Y-96223751D01*
X103086131Y-96222201D01*
X103080126Y-96220052D01*
X103074359Y-96217325D01*
X103068888Y-96214046D01*
X103063764Y-96210246D01*
X103059038Y-96205962D01*
X103054754Y-96201236D01*
X103050954Y-96196112D01*
X103047675Y-96190641D01*
X103044948Y-96184874D01*
X103042799Y-96178869D01*
X103041249Y-96172681D01*
X103040313Y-96166371D01*
X103040000Y-96160000D01*
X103040000Y-95510000D01*
X103040313Y-95503629D01*
X103041249Y-95497319D01*
X103042799Y-95491131D01*
X103044948Y-95485126D01*
X103047675Y-95479359D01*
X103050954Y-95473888D01*
X103054754Y-95468764D01*
X103059038Y-95464038D01*
X103063764Y-95459754D01*
X103068888Y-95455954D01*
X103074359Y-95452675D01*
X103080126Y-95449948D01*
X103086131Y-95447799D01*
X103092319Y-95446249D01*
X103098629Y-95445313D01*
X103105000Y-95445000D01*
X103235000Y-95445000D01*
X103241371Y-95445313D01*
X103241371Y-95445313D01*
G37*
D13*
G04 #@! TD*
G04 #@! TO.P,U2,17*
G04 #@! TO.N,Net-(U2-Pad17)*
X103170000Y-95835000D03*
D12*
G04 #@! TO.N,Net-(U2-Pad18)*
G04 #@! TO.C,U2*
G36*
X102741371Y-95445313D02*
X102747681Y-95446249D01*
X102753869Y-95447799D01*
X102759874Y-95449948D01*
X102765641Y-95452675D01*
X102771112Y-95455954D01*
X102776236Y-95459754D01*
X102780962Y-95464038D01*
X102785246Y-95468764D01*
X102789046Y-95473888D01*
X102792325Y-95479359D01*
X102795052Y-95485126D01*
X102797201Y-95491131D01*
X102798751Y-95497319D01*
X102799687Y-95503629D01*
X102800000Y-95510000D01*
X102800000Y-96160000D01*
X102799687Y-96166371D01*
X102798751Y-96172681D01*
X102797201Y-96178869D01*
X102795052Y-96184874D01*
X102792325Y-96190641D01*
X102789046Y-96196112D01*
X102785246Y-96201236D01*
X102780962Y-96205962D01*
X102776236Y-96210246D01*
X102771112Y-96214046D01*
X102765641Y-96217325D01*
X102759874Y-96220052D01*
X102753869Y-96222201D01*
X102747681Y-96223751D01*
X102741371Y-96224687D01*
X102735000Y-96225000D01*
X102605000Y-96225000D01*
X102598629Y-96224687D01*
X102592319Y-96223751D01*
X102586131Y-96222201D01*
X102580126Y-96220052D01*
X102574359Y-96217325D01*
X102568888Y-96214046D01*
X102563764Y-96210246D01*
X102559038Y-96205962D01*
X102554754Y-96201236D01*
X102550954Y-96196112D01*
X102547675Y-96190641D01*
X102544948Y-96184874D01*
X102542799Y-96178869D01*
X102541249Y-96172681D01*
X102540313Y-96166371D01*
X102540000Y-96160000D01*
X102540000Y-95510000D01*
X102540313Y-95503629D01*
X102541249Y-95497319D01*
X102542799Y-95491131D01*
X102544948Y-95485126D01*
X102547675Y-95479359D01*
X102550954Y-95473888D01*
X102554754Y-95468764D01*
X102559038Y-95464038D01*
X102563764Y-95459754D01*
X102568888Y-95455954D01*
X102574359Y-95452675D01*
X102580126Y-95449948D01*
X102586131Y-95447799D01*
X102592319Y-95446249D01*
X102598629Y-95445313D01*
X102605000Y-95445000D01*
X102735000Y-95445000D01*
X102741371Y-95445313D01*
X102741371Y-95445313D01*
G37*
D13*
G04 #@! TD*
G04 #@! TO.P,U2,18*
G04 #@! TO.N,Net-(U2-Pad18)*
X102670000Y-95835000D03*
D12*
G04 #@! TO.N,Net-(U2-Pad19)*
G04 #@! TO.C,U2*
G36*
X102241371Y-95445313D02*
X102247681Y-95446249D01*
X102253869Y-95447799D01*
X102259874Y-95449948D01*
X102265641Y-95452675D01*
X102271112Y-95455954D01*
X102276236Y-95459754D01*
X102280962Y-95464038D01*
X102285246Y-95468764D01*
X102289046Y-95473888D01*
X102292325Y-95479359D01*
X102295052Y-95485126D01*
X102297201Y-95491131D01*
X102298751Y-95497319D01*
X102299687Y-95503629D01*
X102300000Y-95510000D01*
X102300000Y-96160000D01*
X102299687Y-96166371D01*
X102298751Y-96172681D01*
X102297201Y-96178869D01*
X102295052Y-96184874D01*
X102292325Y-96190641D01*
X102289046Y-96196112D01*
X102285246Y-96201236D01*
X102280962Y-96205962D01*
X102276236Y-96210246D01*
X102271112Y-96214046D01*
X102265641Y-96217325D01*
X102259874Y-96220052D01*
X102253869Y-96222201D01*
X102247681Y-96223751D01*
X102241371Y-96224687D01*
X102235000Y-96225000D01*
X102105000Y-96225000D01*
X102098629Y-96224687D01*
X102092319Y-96223751D01*
X102086131Y-96222201D01*
X102080126Y-96220052D01*
X102074359Y-96217325D01*
X102068888Y-96214046D01*
X102063764Y-96210246D01*
X102059038Y-96205962D01*
X102054754Y-96201236D01*
X102050954Y-96196112D01*
X102047675Y-96190641D01*
X102044948Y-96184874D01*
X102042799Y-96178869D01*
X102041249Y-96172681D01*
X102040313Y-96166371D01*
X102040000Y-96160000D01*
X102040000Y-95510000D01*
X102040313Y-95503629D01*
X102041249Y-95497319D01*
X102042799Y-95491131D01*
X102044948Y-95485126D01*
X102047675Y-95479359D01*
X102050954Y-95473888D01*
X102054754Y-95468764D01*
X102059038Y-95464038D01*
X102063764Y-95459754D01*
X102068888Y-95455954D01*
X102074359Y-95452675D01*
X102080126Y-95449948D01*
X102086131Y-95447799D01*
X102092319Y-95446249D01*
X102098629Y-95445313D01*
X102105000Y-95445000D01*
X102235000Y-95445000D01*
X102241371Y-95445313D01*
X102241371Y-95445313D01*
G37*
D13*
G04 #@! TD*
G04 #@! TO.P,U2,19*
G04 #@! TO.N,Net-(U2-Pad19)*
X102170000Y-95835000D03*
D12*
G04 #@! TO.N,Net-(U2-Pad20)*
G04 #@! TO.C,U2*
G36*
X101741371Y-95445313D02*
X101747681Y-95446249D01*
X101753869Y-95447799D01*
X101759874Y-95449948D01*
X101765641Y-95452675D01*
X101771112Y-95455954D01*
X101776236Y-95459754D01*
X101780962Y-95464038D01*
X101785246Y-95468764D01*
X101789046Y-95473888D01*
X101792325Y-95479359D01*
X101795052Y-95485126D01*
X101797201Y-95491131D01*
X101798751Y-95497319D01*
X101799687Y-95503629D01*
X101800000Y-95510000D01*
X101800000Y-96160000D01*
X101799687Y-96166371D01*
X101798751Y-96172681D01*
X101797201Y-96178869D01*
X101795052Y-96184874D01*
X101792325Y-96190641D01*
X101789046Y-96196112D01*
X101785246Y-96201236D01*
X101780962Y-96205962D01*
X101776236Y-96210246D01*
X101771112Y-96214046D01*
X101765641Y-96217325D01*
X101759874Y-96220052D01*
X101753869Y-96222201D01*
X101747681Y-96223751D01*
X101741371Y-96224687D01*
X101735000Y-96225000D01*
X101605000Y-96225000D01*
X101598629Y-96224687D01*
X101592319Y-96223751D01*
X101586131Y-96222201D01*
X101580126Y-96220052D01*
X101574359Y-96217325D01*
X101568888Y-96214046D01*
X101563764Y-96210246D01*
X101559038Y-96205962D01*
X101554754Y-96201236D01*
X101550954Y-96196112D01*
X101547675Y-96190641D01*
X101544948Y-96184874D01*
X101542799Y-96178869D01*
X101541249Y-96172681D01*
X101540313Y-96166371D01*
X101540000Y-96160000D01*
X101540000Y-95510000D01*
X101540313Y-95503629D01*
X101541249Y-95497319D01*
X101542799Y-95491131D01*
X101544948Y-95485126D01*
X101547675Y-95479359D01*
X101550954Y-95473888D01*
X101554754Y-95468764D01*
X101559038Y-95464038D01*
X101563764Y-95459754D01*
X101568888Y-95455954D01*
X101574359Y-95452675D01*
X101580126Y-95449948D01*
X101586131Y-95447799D01*
X101592319Y-95446249D01*
X101598629Y-95445313D01*
X101605000Y-95445000D01*
X101735000Y-95445000D01*
X101741371Y-95445313D01*
X101741371Y-95445313D01*
G37*
D13*
G04 #@! TD*
G04 #@! TO.P,U2,20*
G04 #@! TO.N,Net-(U2-Pad20)*
X101670000Y-95835000D03*
D12*
G04 #@! TO.N,Net-(U2-Pad21)*
G04 #@! TO.C,U2*
G36*
X101241371Y-95445313D02*
X101247681Y-95446249D01*
X101253869Y-95447799D01*
X101259874Y-95449948D01*
X101265641Y-95452675D01*
X101271112Y-95455954D01*
X101276236Y-95459754D01*
X101280962Y-95464038D01*
X101285246Y-95468764D01*
X101289046Y-95473888D01*
X101292325Y-95479359D01*
X101295052Y-95485126D01*
X101297201Y-95491131D01*
X101298751Y-95497319D01*
X101299687Y-95503629D01*
X101300000Y-95510000D01*
X101300000Y-96160000D01*
X101299687Y-96166371D01*
X101298751Y-96172681D01*
X101297201Y-96178869D01*
X101295052Y-96184874D01*
X101292325Y-96190641D01*
X101289046Y-96196112D01*
X101285246Y-96201236D01*
X101280962Y-96205962D01*
X101276236Y-96210246D01*
X101271112Y-96214046D01*
X101265641Y-96217325D01*
X101259874Y-96220052D01*
X101253869Y-96222201D01*
X101247681Y-96223751D01*
X101241371Y-96224687D01*
X101235000Y-96225000D01*
X101105000Y-96225000D01*
X101098629Y-96224687D01*
X101092319Y-96223751D01*
X101086131Y-96222201D01*
X101080126Y-96220052D01*
X101074359Y-96217325D01*
X101068888Y-96214046D01*
X101063764Y-96210246D01*
X101059038Y-96205962D01*
X101054754Y-96201236D01*
X101050954Y-96196112D01*
X101047675Y-96190641D01*
X101044948Y-96184874D01*
X101042799Y-96178869D01*
X101041249Y-96172681D01*
X101040313Y-96166371D01*
X101040000Y-96160000D01*
X101040000Y-95510000D01*
X101040313Y-95503629D01*
X101041249Y-95497319D01*
X101042799Y-95491131D01*
X101044948Y-95485126D01*
X101047675Y-95479359D01*
X101050954Y-95473888D01*
X101054754Y-95468764D01*
X101059038Y-95464038D01*
X101063764Y-95459754D01*
X101068888Y-95455954D01*
X101074359Y-95452675D01*
X101080126Y-95449948D01*
X101086131Y-95447799D01*
X101092319Y-95446249D01*
X101098629Y-95445313D01*
X101105000Y-95445000D01*
X101235000Y-95445000D01*
X101241371Y-95445313D01*
X101241371Y-95445313D01*
G37*
D13*
G04 #@! TD*
G04 #@! TO.P,U2,21*
G04 #@! TO.N,Net-(U2-Pad21)*
X101170000Y-95835000D03*
D12*
G04 #@! TO.N,USB_D-*
G04 #@! TO.C,U2*
G36*
X100741371Y-95445313D02*
X100747681Y-95446249D01*
X100753869Y-95447799D01*
X100759874Y-95449948D01*
X100765641Y-95452675D01*
X100771112Y-95455954D01*
X100776236Y-95459754D01*
X100780962Y-95464038D01*
X100785246Y-95468764D01*
X100789046Y-95473888D01*
X100792325Y-95479359D01*
X100795052Y-95485126D01*
X100797201Y-95491131D01*
X100798751Y-95497319D01*
X100799687Y-95503629D01*
X100800000Y-95510000D01*
X100800000Y-96160000D01*
X100799687Y-96166371D01*
X100798751Y-96172681D01*
X100797201Y-96178869D01*
X100795052Y-96184874D01*
X100792325Y-96190641D01*
X100789046Y-96196112D01*
X100785246Y-96201236D01*
X100780962Y-96205962D01*
X100776236Y-96210246D01*
X100771112Y-96214046D01*
X100765641Y-96217325D01*
X100759874Y-96220052D01*
X100753869Y-96222201D01*
X100747681Y-96223751D01*
X100741371Y-96224687D01*
X100735000Y-96225000D01*
X100605000Y-96225000D01*
X100598629Y-96224687D01*
X100592319Y-96223751D01*
X100586131Y-96222201D01*
X100580126Y-96220052D01*
X100574359Y-96217325D01*
X100568888Y-96214046D01*
X100563764Y-96210246D01*
X100559038Y-96205962D01*
X100554754Y-96201236D01*
X100550954Y-96196112D01*
X100547675Y-96190641D01*
X100544948Y-96184874D01*
X100542799Y-96178869D01*
X100541249Y-96172681D01*
X100540313Y-96166371D01*
X100540000Y-96160000D01*
X100540000Y-95510000D01*
X100540313Y-95503629D01*
X100541249Y-95497319D01*
X100542799Y-95491131D01*
X100544948Y-95485126D01*
X100547675Y-95479359D01*
X100550954Y-95473888D01*
X100554754Y-95468764D01*
X100559038Y-95464038D01*
X100563764Y-95459754D01*
X100568888Y-95455954D01*
X100574359Y-95452675D01*
X100580126Y-95449948D01*
X100586131Y-95447799D01*
X100592319Y-95446249D01*
X100598629Y-95445313D01*
X100605000Y-95445000D01*
X100735000Y-95445000D01*
X100741371Y-95445313D01*
X100741371Y-95445313D01*
G37*
D13*
G04 #@! TD*
G04 #@! TO.P,U2,22*
G04 #@! TO.N,USB_D-*
X100670000Y-95835000D03*
D12*
G04 #@! TO.N,USB_D+*
G04 #@! TO.C,U2*
G36*
X100241371Y-95445313D02*
X100247681Y-95446249D01*
X100253869Y-95447799D01*
X100259874Y-95449948D01*
X100265641Y-95452675D01*
X100271112Y-95455954D01*
X100276236Y-95459754D01*
X100280962Y-95464038D01*
X100285246Y-95468764D01*
X100289046Y-95473888D01*
X100292325Y-95479359D01*
X100295052Y-95485126D01*
X100297201Y-95491131D01*
X100298751Y-95497319D01*
X100299687Y-95503629D01*
X100300000Y-95510000D01*
X100300000Y-96160000D01*
X100299687Y-96166371D01*
X100298751Y-96172681D01*
X100297201Y-96178869D01*
X100295052Y-96184874D01*
X100292325Y-96190641D01*
X100289046Y-96196112D01*
X100285246Y-96201236D01*
X100280962Y-96205962D01*
X100276236Y-96210246D01*
X100271112Y-96214046D01*
X100265641Y-96217325D01*
X100259874Y-96220052D01*
X100253869Y-96222201D01*
X100247681Y-96223751D01*
X100241371Y-96224687D01*
X100235000Y-96225000D01*
X100105000Y-96225000D01*
X100098629Y-96224687D01*
X100092319Y-96223751D01*
X100086131Y-96222201D01*
X100080126Y-96220052D01*
X100074359Y-96217325D01*
X100068888Y-96214046D01*
X100063764Y-96210246D01*
X100059038Y-96205962D01*
X100054754Y-96201236D01*
X100050954Y-96196112D01*
X100047675Y-96190641D01*
X100044948Y-96184874D01*
X100042799Y-96178869D01*
X100041249Y-96172681D01*
X100040313Y-96166371D01*
X100040000Y-96160000D01*
X100040000Y-95510000D01*
X100040313Y-95503629D01*
X100041249Y-95497319D01*
X100042799Y-95491131D01*
X100044948Y-95485126D01*
X100047675Y-95479359D01*
X100050954Y-95473888D01*
X100054754Y-95468764D01*
X100059038Y-95464038D01*
X100063764Y-95459754D01*
X100068888Y-95455954D01*
X100074359Y-95452675D01*
X100080126Y-95449948D01*
X100086131Y-95447799D01*
X100092319Y-95446249D01*
X100098629Y-95445313D01*
X100105000Y-95445000D01*
X100235000Y-95445000D01*
X100241371Y-95445313D01*
X100241371Y-95445313D01*
G37*
D13*
G04 #@! TD*
G04 #@! TO.P,U2,23*
G04 #@! TO.N,USB_D+*
X100170000Y-95835000D03*
D12*
G04 #@! TO.N,Net-(U2-Pad24)*
G04 #@! TO.C,U2*
G36*
X99741371Y-95445313D02*
X99747681Y-95446249D01*
X99753869Y-95447799D01*
X99759874Y-95449948D01*
X99765641Y-95452675D01*
X99771112Y-95455954D01*
X99776236Y-95459754D01*
X99780962Y-95464038D01*
X99785246Y-95468764D01*
X99789046Y-95473888D01*
X99792325Y-95479359D01*
X99795052Y-95485126D01*
X99797201Y-95491131D01*
X99798751Y-95497319D01*
X99799687Y-95503629D01*
X99800000Y-95510000D01*
X99800000Y-96160000D01*
X99799687Y-96166371D01*
X99798751Y-96172681D01*
X99797201Y-96178869D01*
X99795052Y-96184874D01*
X99792325Y-96190641D01*
X99789046Y-96196112D01*
X99785246Y-96201236D01*
X99780962Y-96205962D01*
X99776236Y-96210246D01*
X99771112Y-96214046D01*
X99765641Y-96217325D01*
X99759874Y-96220052D01*
X99753869Y-96222201D01*
X99747681Y-96223751D01*
X99741371Y-96224687D01*
X99735000Y-96225000D01*
X99605000Y-96225000D01*
X99598629Y-96224687D01*
X99592319Y-96223751D01*
X99586131Y-96222201D01*
X99580126Y-96220052D01*
X99574359Y-96217325D01*
X99568888Y-96214046D01*
X99563764Y-96210246D01*
X99559038Y-96205962D01*
X99554754Y-96201236D01*
X99550954Y-96196112D01*
X99547675Y-96190641D01*
X99544948Y-96184874D01*
X99542799Y-96178869D01*
X99541249Y-96172681D01*
X99540313Y-96166371D01*
X99540000Y-96160000D01*
X99540000Y-95510000D01*
X99540313Y-95503629D01*
X99541249Y-95497319D01*
X99542799Y-95491131D01*
X99544948Y-95485126D01*
X99547675Y-95479359D01*
X99550954Y-95473888D01*
X99554754Y-95468764D01*
X99559038Y-95464038D01*
X99563764Y-95459754D01*
X99568888Y-95455954D01*
X99574359Y-95452675D01*
X99580126Y-95449948D01*
X99586131Y-95447799D01*
X99592319Y-95446249D01*
X99598629Y-95445313D01*
X99605000Y-95445000D01*
X99735000Y-95445000D01*
X99741371Y-95445313D01*
X99741371Y-95445313D01*
G37*
D13*
G04 #@! TD*
G04 #@! TO.P,U2,24*
G04 #@! TO.N,Net-(U2-Pad24)*
X99670000Y-95835000D03*
D12*
G04 #@! TO.N,Net-(U2-Pad25)*
G04 #@! TO.C,U2*
G36*
X99366371Y-96340313D02*
X99372681Y-96341249D01*
X99378869Y-96342799D01*
X99384874Y-96344948D01*
X99390641Y-96347675D01*
X99396112Y-96350954D01*
X99401236Y-96354754D01*
X99405962Y-96359038D01*
X99410246Y-96363764D01*
X99414046Y-96368888D01*
X99417325Y-96374359D01*
X99420052Y-96380126D01*
X99422201Y-96386131D01*
X99423751Y-96392319D01*
X99424687Y-96398629D01*
X99425000Y-96405000D01*
X99425000Y-96535000D01*
X99424687Y-96541371D01*
X99423751Y-96547681D01*
X99422201Y-96553869D01*
X99420052Y-96559874D01*
X99417325Y-96565641D01*
X99414046Y-96571112D01*
X99410246Y-96576236D01*
X99405962Y-96580962D01*
X99401236Y-96585246D01*
X99396112Y-96589046D01*
X99390641Y-96592325D01*
X99384874Y-96595052D01*
X99378869Y-96597201D01*
X99372681Y-96598751D01*
X99366371Y-96599687D01*
X99360000Y-96600000D01*
X98710000Y-96600000D01*
X98703629Y-96599687D01*
X98697319Y-96598751D01*
X98691131Y-96597201D01*
X98685126Y-96595052D01*
X98679359Y-96592325D01*
X98673888Y-96589046D01*
X98668764Y-96585246D01*
X98664038Y-96580962D01*
X98659754Y-96576236D01*
X98655954Y-96571112D01*
X98652675Y-96565641D01*
X98649948Y-96559874D01*
X98647799Y-96553869D01*
X98646249Y-96547681D01*
X98645313Y-96541371D01*
X98645000Y-96535000D01*
X98645000Y-96405000D01*
X98645313Y-96398629D01*
X98646249Y-96392319D01*
X98647799Y-96386131D01*
X98649948Y-96380126D01*
X98652675Y-96374359D01*
X98655954Y-96368888D01*
X98659754Y-96363764D01*
X98664038Y-96359038D01*
X98668764Y-96354754D01*
X98673888Y-96350954D01*
X98679359Y-96347675D01*
X98685126Y-96344948D01*
X98691131Y-96342799D01*
X98697319Y-96341249D01*
X98703629Y-96340313D01*
X98710000Y-96340000D01*
X99360000Y-96340000D01*
X99366371Y-96340313D01*
X99366371Y-96340313D01*
G37*
D13*
G04 #@! TD*
G04 #@! TO.P,U2,25*
G04 #@! TO.N,Net-(U2-Pad25)*
X99035000Y-96470000D03*
D12*
G04 #@! TO.N,~RESET*
G04 #@! TO.C,U2*
G36*
X99366371Y-96840313D02*
X99372681Y-96841249D01*
X99378869Y-96842799D01*
X99384874Y-96844948D01*
X99390641Y-96847675D01*
X99396112Y-96850954D01*
X99401236Y-96854754D01*
X99405962Y-96859038D01*
X99410246Y-96863764D01*
X99414046Y-96868888D01*
X99417325Y-96874359D01*
X99420052Y-96880126D01*
X99422201Y-96886131D01*
X99423751Y-96892319D01*
X99424687Y-96898629D01*
X99425000Y-96905000D01*
X99425000Y-97035000D01*
X99424687Y-97041371D01*
X99423751Y-97047681D01*
X99422201Y-97053869D01*
X99420052Y-97059874D01*
X99417325Y-97065641D01*
X99414046Y-97071112D01*
X99410246Y-97076236D01*
X99405962Y-97080962D01*
X99401236Y-97085246D01*
X99396112Y-97089046D01*
X99390641Y-97092325D01*
X99384874Y-97095052D01*
X99378869Y-97097201D01*
X99372681Y-97098751D01*
X99366371Y-97099687D01*
X99360000Y-97100000D01*
X98710000Y-97100000D01*
X98703629Y-97099687D01*
X98697319Y-97098751D01*
X98691131Y-97097201D01*
X98685126Y-97095052D01*
X98679359Y-97092325D01*
X98673888Y-97089046D01*
X98668764Y-97085246D01*
X98664038Y-97080962D01*
X98659754Y-97076236D01*
X98655954Y-97071112D01*
X98652675Y-97065641D01*
X98649948Y-97059874D01*
X98647799Y-97053869D01*
X98646249Y-97047681D01*
X98645313Y-97041371D01*
X98645000Y-97035000D01*
X98645000Y-96905000D01*
X98645313Y-96898629D01*
X98646249Y-96892319D01*
X98647799Y-96886131D01*
X98649948Y-96880126D01*
X98652675Y-96874359D01*
X98655954Y-96868888D01*
X98659754Y-96863764D01*
X98664038Y-96859038D01*
X98668764Y-96854754D01*
X98673888Y-96850954D01*
X98679359Y-96847675D01*
X98685126Y-96844948D01*
X98691131Y-96842799D01*
X98697319Y-96841249D01*
X98703629Y-96840313D01*
X98710000Y-96840000D01*
X99360000Y-96840000D01*
X99366371Y-96840313D01*
X99366371Y-96840313D01*
G37*
D13*
G04 #@! TD*
G04 #@! TO.P,U2,26*
G04 #@! TO.N,~RESET*
X99035000Y-96970000D03*
D12*
G04 #@! TO.N,Net-(U2-Pad27)*
G04 #@! TO.C,U2*
G36*
X99366371Y-97340313D02*
X99372681Y-97341249D01*
X99378869Y-97342799D01*
X99384874Y-97344948D01*
X99390641Y-97347675D01*
X99396112Y-97350954D01*
X99401236Y-97354754D01*
X99405962Y-97359038D01*
X99410246Y-97363764D01*
X99414046Y-97368888D01*
X99417325Y-97374359D01*
X99420052Y-97380126D01*
X99422201Y-97386131D01*
X99423751Y-97392319D01*
X99424687Y-97398629D01*
X99425000Y-97405000D01*
X99425000Y-97535000D01*
X99424687Y-97541371D01*
X99423751Y-97547681D01*
X99422201Y-97553869D01*
X99420052Y-97559874D01*
X99417325Y-97565641D01*
X99414046Y-97571112D01*
X99410246Y-97576236D01*
X99405962Y-97580962D01*
X99401236Y-97585246D01*
X99396112Y-97589046D01*
X99390641Y-97592325D01*
X99384874Y-97595052D01*
X99378869Y-97597201D01*
X99372681Y-97598751D01*
X99366371Y-97599687D01*
X99360000Y-97600000D01*
X98710000Y-97600000D01*
X98703629Y-97599687D01*
X98697319Y-97598751D01*
X98691131Y-97597201D01*
X98685126Y-97595052D01*
X98679359Y-97592325D01*
X98673888Y-97589046D01*
X98668764Y-97585246D01*
X98664038Y-97580962D01*
X98659754Y-97576236D01*
X98655954Y-97571112D01*
X98652675Y-97565641D01*
X98649948Y-97559874D01*
X98647799Y-97553869D01*
X98646249Y-97547681D01*
X98645313Y-97541371D01*
X98645000Y-97535000D01*
X98645000Y-97405000D01*
X98645313Y-97398629D01*
X98646249Y-97392319D01*
X98647799Y-97386131D01*
X98649948Y-97380126D01*
X98652675Y-97374359D01*
X98655954Y-97368888D01*
X98659754Y-97363764D01*
X98664038Y-97359038D01*
X98668764Y-97354754D01*
X98673888Y-97350954D01*
X98679359Y-97347675D01*
X98685126Y-97344948D01*
X98691131Y-97342799D01*
X98697319Y-97341249D01*
X98703629Y-97340313D01*
X98710000Y-97340000D01*
X99360000Y-97340000D01*
X99366371Y-97340313D01*
X99366371Y-97340313D01*
G37*
D13*
G04 #@! TD*
G04 #@! TO.P,U2,27*
G04 #@! TO.N,Net-(U2-Pad27)*
X99035000Y-97470000D03*
D12*
G04 #@! TO.N,GND*
G04 #@! TO.C,U2*
G36*
X99366371Y-97840313D02*
X99372681Y-97841249D01*
X99378869Y-97842799D01*
X99384874Y-97844948D01*
X99390641Y-97847675D01*
X99396112Y-97850954D01*
X99401236Y-97854754D01*
X99405962Y-97859038D01*
X99410246Y-97863764D01*
X99414046Y-97868888D01*
X99417325Y-97874359D01*
X99420052Y-97880126D01*
X99422201Y-97886131D01*
X99423751Y-97892319D01*
X99424687Y-97898629D01*
X99425000Y-97905000D01*
X99425000Y-98035000D01*
X99424687Y-98041371D01*
X99423751Y-98047681D01*
X99422201Y-98053869D01*
X99420052Y-98059874D01*
X99417325Y-98065641D01*
X99414046Y-98071112D01*
X99410246Y-98076236D01*
X99405962Y-98080962D01*
X99401236Y-98085246D01*
X99396112Y-98089046D01*
X99390641Y-98092325D01*
X99384874Y-98095052D01*
X99378869Y-98097201D01*
X99372681Y-98098751D01*
X99366371Y-98099687D01*
X99360000Y-98100000D01*
X98710000Y-98100000D01*
X98703629Y-98099687D01*
X98697319Y-98098751D01*
X98691131Y-98097201D01*
X98685126Y-98095052D01*
X98679359Y-98092325D01*
X98673888Y-98089046D01*
X98668764Y-98085246D01*
X98664038Y-98080962D01*
X98659754Y-98076236D01*
X98655954Y-98071112D01*
X98652675Y-98065641D01*
X98649948Y-98059874D01*
X98647799Y-98053869D01*
X98646249Y-98047681D01*
X98645313Y-98041371D01*
X98645000Y-98035000D01*
X98645000Y-97905000D01*
X98645313Y-97898629D01*
X98646249Y-97892319D01*
X98647799Y-97886131D01*
X98649948Y-97880126D01*
X98652675Y-97874359D01*
X98655954Y-97868888D01*
X98659754Y-97863764D01*
X98664038Y-97859038D01*
X98668764Y-97854754D01*
X98673888Y-97850954D01*
X98679359Y-97847675D01*
X98685126Y-97844948D01*
X98691131Y-97842799D01*
X98697319Y-97841249D01*
X98703629Y-97840313D01*
X98710000Y-97840000D01*
X99360000Y-97840000D01*
X99366371Y-97840313D01*
X99366371Y-97840313D01*
G37*
D13*
G04 #@! TD*
G04 #@! TO.P,U2,28*
G04 #@! TO.N,GND*
X99035000Y-97970000D03*
D12*
G04 #@! TO.N,Net-(C3-Pad2)*
G04 #@! TO.C,U2*
G36*
X99366371Y-98340313D02*
X99372681Y-98341249D01*
X99378869Y-98342799D01*
X99384874Y-98344948D01*
X99390641Y-98347675D01*
X99396112Y-98350954D01*
X99401236Y-98354754D01*
X99405962Y-98359038D01*
X99410246Y-98363764D01*
X99414046Y-98368888D01*
X99417325Y-98374359D01*
X99420052Y-98380126D01*
X99422201Y-98386131D01*
X99423751Y-98392319D01*
X99424687Y-98398629D01*
X99425000Y-98405000D01*
X99425000Y-98535000D01*
X99424687Y-98541371D01*
X99423751Y-98547681D01*
X99422201Y-98553869D01*
X99420052Y-98559874D01*
X99417325Y-98565641D01*
X99414046Y-98571112D01*
X99410246Y-98576236D01*
X99405962Y-98580962D01*
X99401236Y-98585246D01*
X99396112Y-98589046D01*
X99390641Y-98592325D01*
X99384874Y-98595052D01*
X99378869Y-98597201D01*
X99372681Y-98598751D01*
X99366371Y-98599687D01*
X99360000Y-98600000D01*
X98710000Y-98600000D01*
X98703629Y-98599687D01*
X98697319Y-98598751D01*
X98691131Y-98597201D01*
X98685126Y-98595052D01*
X98679359Y-98592325D01*
X98673888Y-98589046D01*
X98668764Y-98585246D01*
X98664038Y-98580962D01*
X98659754Y-98576236D01*
X98655954Y-98571112D01*
X98652675Y-98565641D01*
X98649948Y-98559874D01*
X98647799Y-98553869D01*
X98646249Y-98547681D01*
X98645313Y-98541371D01*
X98645000Y-98535000D01*
X98645000Y-98405000D01*
X98645313Y-98398629D01*
X98646249Y-98392319D01*
X98647799Y-98386131D01*
X98649948Y-98380126D01*
X98652675Y-98374359D01*
X98655954Y-98368888D01*
X98659754Y-98363764D01*
X98664038Y-98359038D01*
X98668764Y-98354754D01*
X98673888Y-98350954D01*
X98679359Y-98347675D01*
X98685126Y-98344948D01*
X98691131Y-98342799D01*
X98697319Y-98341249D01*
X98703629Y-98340313D01*
X98710000Y-98340000D01*
X99360000Y-98340000D01*
X99366371Y-98340313D01*
X99366371Y-98340313D01*
G37*
D13*
G04 #@! TD*
G04 #@! TO.P,U2,29*
G04 #@! TO.N,Net-(C3-Pad2)*
X99035000Y-98470000D03*
D12*
G04 #@! TO.N,+3.3V*
G04 #@! TO.C,U2*
G36*
X99366371Y-98840313D02*
X99372681Y-98841249D01*
X99378869Y-98842799D01*
X99384874Y-98844948D01*
X99390641Y-98847675D01*
X99396112Y-98850954D01*
X99401236Y-98854754D01*
X99405962Y-98859038D01*
X99410246Y-98863764D01*
X99414046Y-98868888D01*
X99417325Y-98874359D01*
X99420052Y-98880126D01*
X99422201Y-98886131D01*
X99423751Y-98892319D01*
X99424687Y-98898629D01*
X99425000Y-98905000D01*
X99425000Y-99035000D01*
X99424687Y-99041371D01*
X99423751Y-99047681D01*
X99422201Y-99053869D01*
X99420052Y-99059874D01*
X99417325Y-99065641D01*
X99414046Y-99071112D01*
X99410246Y-99076236D01*
X99405962Y-99080962D01*
X99401236Y-99085246D01*
X99396112Y-99089046D01*
X99390641Y-99092325D01*
X99384874Y-99095052D01*
X99378869Y-99097201D01*
X99372681Y-99098751D01*
X99366371Y-99099687D01*
X99360000Y-99100000D01*
X98710000Y-99100000D01*
X98703629Y-99099687D01*
X98697319Y-99098751D01*
X98691131Y-99097201D01*
X98685126Y-99095052D01*
X98679359Y-99092325D01*
X98673888Y-99089046D01*
X98668764Y-99085246D01*
X98664038Y-99080962D01*
X98659754Y-99076236D01*
X98655954Y-99071112D01*
X98652675Y-99065641D01*
X98649948Y-99059874D01*
X98647799Y-99053869D01*
X98646249Y-99047681D01*
X98645313Y-99041371D01*
X98645000Y-99035000D01*
X98645000Y-98905000D01*
X98645313Y-98898629D01*
X98646249Y-98892319D01*
X98647799Y-98886131D01*
X98649948Y-98880126D01*
X98652675Y-98874359D01*
X98655954Y-98868888D01*
X98659754Y-98863764D01*
X98664038Y-98859038D01*
X98668764Y-98854754D01*
X98673888Y-98850954D01*
X98679359Y-98847675D01*
X98685126Y-98844948D01*
X98691131Y-98842799D01*
X98697319Y-98841249D01*
X98703629Y-98840313D01*
X98710000Y-98840000D01*
X99360000Y-98840000D01*
X99366371Y-98840313D01*
X99366371Y-98840313D01*
G37*
D13*
G04 #@! TD*
G04 #@! TO.P,U2,30*
G04 #@! TO.N,+3.3V*
X99035000Y-98970000D03*
D12*
G04 #@! TO.N,STATUS_CAPTURE*
G04 #@! TO.C,U2*
G36*
X99366371Y-99340313D02*
X99372681Y-99341249D01*
X99378869Y-99342799D01*
X99384874Y-99344948D01*
X99390641Y-99347675D01*
X99396112Y-99350954D01*
X99401236Y-99354754D01*
X99405962Y-99359038D01*
X99410246Y-99363764D01*
X99414046Y-99368888D01*
X99417325Y-99374359D01*
X99420052Y-99380126D01*
X99422201Y-99386131D01*
X99423751Y-99392319D01*
X99424687Y-99398629D01*
X99425000Y-99405000D01*
X99425000Y-99535000D01*
X99424687Y-99541371D01*
X99423751Y-99547681D01*
X99422201Y-99553869D01*
X99420052Y-99559874D01*
X99417325Y-99565641D01*
X99414046Y-99571112D01*
X99410246Y-99576236D01*
X99405962Y-99580962D01*
X99401236Y-99585246D01*
X99396112Y-99589046D01*
X99390641Y-99592325D01*
X99384874Y-99595052D01*
X99378869Y-99597201D01*
X99372681Y-99598751D01*
X99366371Y-99599687D01*
X99360000Y-99600000D01*
X98710000Y-99600000D01*
X98703629Y-99599687D01*
X98697319Y-99598751D01*
X98691131Y-99597201D01*
X98685126Y-99595052D01*
X98679359Y-99592325D01*
X98673888Y-99589046D01*
X98668764Y-99585246D01*
X98664038Y-99580962D01*
X98659754Y-99576236D01*
X98655954Y-99571112D01*
X98652675Y-99565641D01*
X98649948Y-99559874D01*
X98647799Y-99553869D01*
X98646249Y-99547681D01*
X98645313Y-99541371D01*
X98645000Y-99535000D01*
X98645000Y-99405000D01*
X98645313Y-99398629D01*
X98646249Y-99392319D01*
X98647799Y-99386131D01*
X98649948Y-99380126D01*
X98652675Y-99374359D01*
X98655954Y-99368888D01*
X98659754Y-99363764D01*
X98664038Y-99359038D01*
X98668764Y-99354754D01*
X98673888Y-99350954D01*
X98679359Y-99347675D01*
X98685126Y-99344948D01*
X98691131Y-99342799D01*
X98697319Y-99341249D01*
X98703629Y-99340313D01*
X98710000Y-99340000D01*
X99360000Y-99340000D01*
X99366371Y-99340313D01*
X99366371Y-99340313D01*
G37*
D13*
G04 #@! TD*
G04 #@! TO.P,U2,31*
G04 #@! TO.N,STATUS_CAPTURE*
X99035000Y-99470000D03*
D12*
G04 #@! TO.N,STATUS_TRIGGER*
G04 #@! TO.C,U2*
G36*
X99366371Y-99840313D02*
X99372681Y-99841249D01*
X99378869Y-99842799D01*
X99384874Y-99844948D01*
X99390641Y-99847675D01*
X99396112Y-99850954D01*
X99401236Y-99854754D01*
X99405962Y-99859038D01*
X99410246Y-99863764D01*
X99414046Y-99868888D01*
X99417325Y-99874359D01*
X99420052Y-99880126D01*
X99422201Y-99886131D01*
X99423751Y-99892319D01*
X99424687Y-99898629D01*
X99425000Y-99905000D01*
X99425000Y-100035000D01*
X99424687Y-100041371D01*
X99423751Y-100047681D01*
X99422201Y-100053869D01*
X99420052Y-100059874D01*
X99417325Y-100065641D01*
X99414046Y-100071112D01*
X99410246Y-100076236D01*
X99405962Y-100080962D01*
X99401236Y-100085246D01*
X99396112Y-100089046D01*
X99390641Y-100092325D01*
X99384874Y-100095052D01*
X99378869Y-100097201D01*
X99372681Y-100098751D01*
X99366371Y-100099687D01*
X99360000Y-100100000D01*
X98710000Y-100100000D01*
X98703629Y-100099687D01*
X98697319Y-100098751D01*
X98691131Y-100097201D01*
X98685126Y-100095052D01*
X98679359Y-100092325D01*
X98673888Y-100089046D01*
X98668764Y-100085246D01*
X98664038Y-100080962D01*
X98659754Y-100076236D01*
X98655954Y-100071112D01*
X98652675Y-100065641D01*
X98649948Y-100059874D01*
X98647799Y-100053869D01*
X98646249Y-100047681D01*
X98645313Y-100041371D01*
X98645000Y-100035000D01*
X98645000Y-99905000D01*
X98645313Y-99898629D01*
X98646249Y-99892319D01*
X98647799Y-99886131D01*
X98649948Y-99880126D01*
X98652675Y-99874359D01*
X98655954Y-99868888D01*
X98659754Y-99863764D01*
X98664038Y-99859038D01*
X98668764Y-99854754D01*
X98673888Y-99850954D01*
X98679359Y-99847675D01*
X98685126Y-99844948D01*
X98691131Y-99842799D01*
X98697319Y-99841249D01*
X98703629Y-99840313D01*
X98710000Y-99840000D01*
X99360000Y-99840000D01*
X99366371Y-99840313D01*
X99366371Y-99840313D01*
G37*
D13*
G04 #@! TD*
G04 #@! TO.P,U2,32*
G04 #@! TO.N,STATUS_TRIGGER*
X99035000Y-99970000D03*
D14*
G04 #@! TO.P,U2,33*
G04 #@! TO.N,N/C*
X102200000Y-99000000D03*
X102200000Y-97440000D03*
X100640000Y-99000000D03*
X100640000Y-97440000D03*
G04 #@! TD*
D15*
G04 #@! TO.P,J2,1*
G04 #@! TO.N,Net-(J2-Pad1)*
X97500000Y-109000000D03*
D16*
G04 #@! TO.P,J2,8*
G04 #@! TO.N,GND*
X100040000Y-109000000D03*
G04 #@! TO.P,J2,2*
G04 #@! TO.N,Net-(J2-Pad2)*
X97500000Y-111540000D03*
G04 #@! TO.P,J2,7*
G04 #@! TO.N,GND*
X100040000Y-111540000D03*
G04 #@! TO.P,J2,3*
G04 #@! TO.N,Net-(J2-Pad3)*
X97500000Y-114080000D03*
G04 #@! TO.P,J2,6*
G04 #@! TO.N,GND*
X100040000Y-114080000D03*
G04 #@! TO.P,J2,4*
G04 #@! TO.N,Net-(J2-Pad4)*
X97500000Y-116620000D03*
G04 #@! TO.P,J2,5*
G04 #@! TO.N,Net-(J2-Pad5)*
X100040000Y-116620000D03*
G04 #@! TD*
D17*
G04 #@! TO.P,D3,1*
G04 #@! TO.N,GND*
X100150000Y-104550000D03*
G04 #@! TO.P,D3,3*
G04 #@! TO.N,N/C*
X98850000Y-104550000D03*
G04 #@! TO.P,D3,5*
X99500000Y-106450000D03*
G04 #@! TO.P,D3,2*
G04 #@! TO.N,+3.3V*
X99500000Y-104550000D03*
G04 #@! TO.P,D3,4*
G04 #@! TO.N,N/C*
X98850000Y-106450000D03*
G04 #@! TO.P,D3,6*
G04 #@! TO.N,EXTERNAL_TRIG*
X100150000Y-106450000D03*
G04 #@! TD*
G04 #@! TO.P,D2,6*
G04 #@! TO.N,STATUS_TRIGGER*
X94150000Y-106500000D03*
G04 #@! TO.P,D2,4*
G04 #@! TO.N,GND*
X92850000Y-106500000D03*
G04 #@! TO.P,D2,2*
G04 #@! TO.N,+3.3V*
X93500000Y-104600000D03*
G04 #@! TO.P,D2,5*
X93500000Y-106500000D03*
G04 #@! TO.P,D2,3*
G04 #@! TO.N,STATUS_CAPTURE*
X92850000Y-104600000D03*
G04 #@! TO.P,D2,1*
G04 #@! TO.N,GND*
X94150000Y-104600000D03*
G04 #@! TD*
G04 #@! TO.P,D1,1*
G04 #@! TO.N,GND*
X97150000Y-104600000D03*
G04 #@! TO.P,D1,3*
G04 #@! TO.N,UART_TX*
X95850000Y-104600000D03*
G04 #@! TO.P,D1,5*
G04 #@! TO.N,+3.3V*
X96500000Y-106500000D03*
G04 #@! TO.P,D1,2*
X96500000Y-104600000D03*
G04 #@! TO.P,D1,4*
G04 #@! TO.N,GND*
X95850000Y-106500000D03*
G04 #@! TO.P,D1,6*
G04 #@! TO.N,UART_RX*
X97150000Y-106500000D03*
G04 #@! TD*
D18*
G04 #@! TO.P,J1,6*
G04 #@! TO.N,N/C*
X106784422Y-125596482D03*
D12*
G04 #@! TD*
G04 #@! TO.N,N/C*
G04 #@! TO.C,J1*
G36*
X107871599Y-125852808D02*
X107040748Y-126683659D01*
X105697245Y-125340156D01*
X106528096Y-124509305D01*
X107871599Y-125852808D01*
X107871599Y-125852808D01*
G37*
D18*
G04 #@! TO.P,J1,6*
G04 #@! TO.N,N/C*
X105596482Y-126784422D03*
D12*
G04 #@! TD*
G04 #@! TO.N,N/C*
G04 #@! TO.C,J1*
G36*
X106683659Y-127040748D02*
X105852808Y-127871599D01*
X104509305Y-126528096D01*
X105340156Y-125697245D01*
X106683659Y-127040748D01*
X106683659Y-127040748D01*
G37*
D19*
G04 #@! TO.P,J1,6*
G04 #@! TO.N,N/C*
X108248133Y-124132771D03*
D12*
G04 #@! TD*
G04 #@! TO.N,N/C*
G04 #@! TO.C,J1*
G36*
X109759574Y-123964833D02*
X108080195Y-125644212D01*
X106736692Y-124300709D01*
X108416071Y-122621330D01*
X109759574Y-123964833D01*
X109759574Y-123964833D01*
G37*
D19*
G04 #@! TO.P,J1,6*
G04 #@! TO.N,N/C*
X104132771Y-128248133D03*
D12*
G04 #@! TD*
G04 #@! TO.N,N/C*
G04 #@! TO.C,J1*
G36*
X105644212Y-128080195D02*
X103964833Y-129759574D01*
X102621330Y-128416071D01*
X104300709Y-126736692D01*
X105644212Y-128080195D01*
X105644212Y-128080195D01*
G37*
D20*
G04 #@! TO.P,J1,6*
G04 #@! TO.N,N/C*
X106305357Y-122822856D03*
D12*
G04 #@! TD*
G04 #@! TO.N,N/C*
G04 #@! TO.C,J1*
G36*
X107569310Y-123043827D02*
X106526328Y-124086809D01*
X105041404Y-122601885D01*
X106084386Y-121558903D01*
X107569310Y-123043827D01*
X107569310Y-123043827D01*
G37*
D20*
G04 #@! TO.P,J1,6*
G04 #@! TO.N,N/C*
X102822856Y-126305357D03*
D12*
G04 #@! TD*
G04 #@! TO.N,N/C*
G04 #@! TO.C,J1*
G36*
X104086809Y-126526328D02*
X103043827Y-127569310D01*
X101558903Y-126084386D01*
X102601885Y-125041404D01*
X104086809Y-126526328D01*
X104086809Y-126526328D01*
G37*
D21*
G04 #@! TO.P,J1,5*
G04 #@! TO.N,GND*
X105228787Y-123390309D03*
D12*
G04 #@! TD*
G04 #@! TO.N,GND*
G04 #@! TO.C,J1*
G36*
X105875790Y-123719114D02*
X105557592Y-124037312D01*
X104581784Y-123061504D01*
X104899982Y-122743306D01*
X105875790Y-123719114D01*
X105875790Y-123719114D01*
G37*
D21*
G04 #@! TO.P,J1,4*
G04 #@! TO.N,Net-(J1-Pad4)*
X104769167Y-123849929D03*
D12*
G04 #@! TD*
G04 #@! TO.N,Net-(J1-Pad4)*
G04 #@! TO.C,J1*
G36*
X105416170Y-124178734D02*
X105097972Y-124496932D01*
X104122164Y-123521124D01*
X104440362Y-123202926D01*
X105416170Y-124178734D01*
X105416170Y-124178734D01*
G37*
D21*
G04 #@! TO.P,J1,3*
G04 #@! TO.N,Net-(J1-Pad3)*
X104309548Y-124309548D03*
D12*
G04 #@! TD*
G04 #@! TO.N,Net-(J1-Pad3)*
G04 #@! TO.C,J1*
G36*
X104956551Y-124638353D02*
X104638353Y-124956551D01*
X103662545Y-123980743D01*
X103980743Y-123662545D01*
X104956551Y-124638353D01*
X104956551Y-124638353D01*
G37*
D21*
G04 #@! TO.P,J1,2*
G04 #@! TO.N,Net-(J1-Pad2)*
X103849929Y-124769167D03*
D12*
G04 #@! TD*
G04 #@! TO.N,Net-(J1-Pad2)*
G04 #@! TO.C,J1*
G36*
X104496932Y-125097972D02*
X104178734Y-125416170D01*
X103202926Y-124440362D01*
X103521124Y-124122164D01*
X104496932Y-125097972D01*
X104496932Y-125097972D01*
G37*
D21*
G04 #@! TO.P,J1,1*
G04 #@! TO.N,Net-(F1-Pad2)*
X103390309Y-125228787D03*
D12*
G04 #@! TD*
G04 #@! TO.N,Net-(F1-Pad2)*
G04 #@! TO.C,J1*
G36*
X104037312Y-125557592D02*
X103719114Y-125875790D01*
X102743306Y-124899982D01*
X103061504Y-124581784D01*
X104037312Y-125557592D01*
X104037312Y-125557592D01*
G37*
G04 #@! TO.N,PHOTO_TRANS*
G04 #@! TO.C,C1*
G36*
X104077544Y-78416108D02*
X104099871Y-78419419D01*
X104121765Y-78424904D01*
X104143017Y-78432508D01*
X104163421Y-78442158D01*
X104182781Y-78453762D01*
X104200910Y-78467208D01*
X104217635Y-78482365D01*
X104232792Y-78499090D01*
X104246238Y-78517219D01*
X104257842Y-78536579D01*
X104267492Y-78556983D01*
X104275096Y-78578235D01*
X104280581Y-78600129D01*
X104283892Y-78622456D01*
X104285000Y-78645000D01*
X104285000Y-79155000D01*
X104283892Y-79177544D01*
X104280581Y-79199871D01*
X104275096Y-79221765D01*
X104267492Y-79243017D01*
X104257842Y-79263421D01*
X104246238Y-79282781D01*
X104232792Y-79300910D01*
X104217635Y-79317635D01*
X104200910Y-79332792D01*
X104182781Y-79346238D01*
X104163421Y-79357842D01*
X104143017Y-79367492D01*
X104121765Y-79375096D01*
X104099871Y-79380581D01*
X104077544Y-79383892D01*
X104055000Y-79385000D01*
X103595000Y-79385000D01*
X103572456Y-79383892D01*
X103550129Y-79380581D01*
X103528235Y-79375096D01*
X103506983Y-79367492D01*
X103486579Y-79357842D01*
X103467219Y-79346238D01*
X103449090Y-79332792D01*
X103432365Y-79317635D01*
X103417208Y-79300910D01*
X103403762Y-79282781D01*
X103392158Y-79263421D01*
X103382508Y-79243017D01*
X103374904Y-79221765D01*
X103369419Y-79199871D01*
X103366108Y-79177544D01*
X103365000Y-79155000D01*
X103365000Y-78645000D01*
X103366108Y-78622456D01*
X103369419Y-78600129D01*
X103374904Y-78578235D01*
X103382508Y-78556983D01*
X103392158Y-78536579D01*
X103403762Y-78517219D01*
X103417208Y-78499090D01*
X103432365Y-78482365D01*
X103449090Y-78467208D01*
X103467219Y-78453762D01*
X103486579Y-78442158D01*
X103506983Y-78432508D01*
X103528235Y-78424904D01*
X103550129Y-78419419D01*
X103572456Y-78416108D01*
X103595000Y-78415000D01*
X104055000Y-78415000D01*
X104077544Y-78416108D01*
X104077544Y-78416108D01*
G37*
D22*
G04 #@! TD*
G04 #@! TO.P,C1,1*
G04 #@! TO.N,PHOTO_TRANS*
X103825000Y-78900000D03*
D12*
G04 #@! TO.N,GND*
G04 #@! TO.C,C1*
G36*
X105627544Y-78416108D02*
X105649871Y-78419419D01*
X105671765Y-78424904D01*
X105693017Y-78432508D01*
X105713421Y-78442158D01*
X105732781Y-78453762D01*
X105750910Y-78467208D01*
X105767635Y-78482365D01*
X105782792Y-78499090D01*
X105796238Y-78517219D01*
X105807842Y-78536579D01*
X105817492Y-78556983D01*
X105825096Y-78578235D01*
X105830581Y-78600129D01*
X105833892Y-78622456D01*
X105835000Y-78645000D01*
X105835000Y-79155000D01*
X105833892Y-79177544D01*
X105830581Y-79199871D01*
X105825096Y-79221765D01*
X105817492Y-79243017D01*
X105807842Y-79263421D01*
X105796238Y-79282781D01*
X105782792Y-79300910D01*
X105767635Y-79317635D01*
X105750910Y-79332792D01*
X105732781Y-79346238D01*
X105713421Y-79357842D01*
X105693017Y-79367492D01*
X105671765Y-79375096D01*
X105649871Y-79380581D01*
X105627544Y-79383892D01*
X105605000Y-79385000D01*
X105145000Y-79385000D01*
X105122456Y-79383892D01*
X105100129Y-79380581D01*
X105078235Y-79375096D01*
X105056983Y-79367492D01*
X105036579Y-79357842D01*
X105017219Y-79346238D01*
X104999090Y-79332792D01*
X104982365Y-79317635D01*
X104967208Y-79300910D01*
X104953762Y-79282781D01*
X104942158Y-79263421D01*
X104932508Y-79243017D01*
X104924904Y-79221765D01*
X104919419Y-79199871D01*
X104916108Y-79177544D01*
X104915000Y-79155000D01*
X104915000Y-78645000D01*
X104916108Y-78622456D01*
X104919419Y-78600129D01*
X104924904Y-78578235D01*
X104932508Y-78556983D01*
X104942158Y-78536579D01*
X104953762Y-78517219D01*
X104967208Y-78499090D01*
X104982365Y-78482365D01*
X104999090Y-78467208D01*
X105017219Y-78453762D01*
X105036579Y-78442158D01*
X105056983Y-78432508D01*
X105078235Y-78424904D01*
X105100129Y-78419419D01*
X105122456Y-78416108D01*
X105145000Y-78415000D01*
X105605000Y-78415000D01*
X105627544Y-78416108D01*
X105627544Y-78416108D01*
G37*
D22*
G04 #@! TD*
G04 #@! TO.P,C1,2*
G04 #@! TO.N,GND*
X105375000Y-78900000D03*
D12*
G04 #@! TO.N,+3.3V*
G04 #@! TO.C,C2*
G36*
X107777544Y-100016108D02*
X107799871Y-100019419D01*
X107821765Y-100024904D01*
X107843017Y-100032508D01*
X107863421Y-100042158D01*
X107882781Y-100053762D01*
X107900910Y-100067208D01*
X107917635Y-100082365D01*
X107932792Y-100099090D01*
X107946238Y-100117219D01*
X107957842Y-100136579D01*
X107967492Y-100156983D01*
X107975096Y-100178235D01*
X107980581Y-100200129D01*
X107983892Y-100222456D01*
X107985000Y-100245000D01*
X107985000Y-100705000D01*
X107983892Y-100727544D01*
X107980581Y-100749871D01*
X107975096Y-100771765D01*
X107967492Y-100793017D01*
X107957842Y-100813421D01*
X107946238Y-100832781D01*
X107932792Y-100850910D01*
X107917635Y-100867635D01*
X107900910Y-100882792D01*
X107882781Y-100896238D01*
X107863421Y-100907842D01*
X107843017Y-100917492D01*
X107821765Y-100925096D01*
X107799871Y-100930581D01*
X107777544Y-100933892D01*
X107755000Y-100935000D01*
X107245000Y-100935000D01*
X107222456Y-100933892D01*
X107200129Y-100930581D01*
X107178235Y-100925096D01*
X107156983Y-100917492D01*
X107136579Y-100907842D01*
X107117219Y-100896238D01*
X107099090Y-100882792D01*
X107082365Y-100867635D01*
X107067208Y-100850910D01*
X107053762Y-100832781D01*
X107042158Y-100813421D01*
X107032508Y-100793017D01*
X107024904Y-100771765D01*
X107019419Y-100749871D01*
X107016108Y-100727544D01*
X107015000Y-100705000D01*
X107015000Y-100245000D01*
X107016108Y-100222456D01*
X107019419Y-100200129D01*
X107024904Y-100178235D01*
X107032508Y-100156983D01*
X107042158Y-100136579D01*
X107053762Y-100117219D01*
X107067208Y-100099090D01*
X107082365Y-100082365D01*
X107099090Y-100067208D01*
X107117219Y-100053762D01*
X107136579Y-100042158D01*
X107156983Y-100032508D01*
X107178235Y-100024904D01*
X107200129Y-100019419D01*
X107222456Y-100016108D01*
X107245000Y-100015000D01*
X107755000Y-100015000D01*
X107777544Y-100016108D01*
X107777544Y-100016108D01*
G37*
D22*
G04 #@! TD*
G04 #@! TO.P,C2,2*
G04 #@! TO.N,+3.3V*
X107500000Y-100475000D03*
D12*
G04 #@! TO.N,GND*
G04 #@! TO.C,C2*
G36*
X107777544Y-98466108D02*
X107799871Y-98469419D01*
X107821765Y-98474904D01*
X107843017Y-98482508D01*
X107863421Y-98492158D01*
X107882781Y-98503762D01*
X107900910Y-98517208D01*
X107917635Y-98532365D01*
X107932792Y-98549090D01*
X107946238Y-98567219D01*
X107957842Y-98586579D01*
X107967492Y-98606983D01*
X107975096Y-98628235D01*
X107980581Y-98650129D01*
X107983892Y-98672456D01*
X107985000Y-98695000D01*
X107985000Y-99155000D01*
X107983892Y-99177544D01*
X107980581Y-99199871D01*
X107975096Y-99221765D01*
X107967492Y-99243017D01*
X107957842Y-99263421D01*
X107946238Y-99282781D01*
X107932792Y-99300910D01*
X107917635Y-99317635D01*
X107900910Y-99332792D01*
X107882781Y-99346238D01*
X107863421Y-99357842D01*
X107843017Y-99367492D01*
X107821765Y-99375096D01*
X107799871Y-99380581D01*
X107777544Y-99383892D01*
X107755000Y-99385000D01*
X107245000Y-99385000D01*
X107222456Y-99383892D01*
X107200129Y-99380581D01*
X107178235Y-99375096D01*
X107156983Y-99367492D01*
X107136579Y-99357842D01*
X107117219Y-99346238D01*
X107099090Y-99332792D01*
X107082365Y-99317635D01*
X107067208Y-99300910D01*
X107053762Y-99282781D01*
X107042158Y-99263421D01*
X107032508Y-99243017D01*
X107024904Y-99221765D01*
X107019419Y-99199871D01*
X107016108Y-99177544D01*
X107015000Y-99155000D01*
X107015000Y-98695000D01*
X107016108Y-98672456D01*
X107019419Y-98650129D01*
X107024904Y-98628235D01*
X107032508Y-98606983D01*
X107042158Y-98586579D01*
X107053762Y-98567219D01*
X107067208Y-98549090D01*
X107082365Y-98532365D01*
X107099090Y-98517208D01*
X107117219Y-98503762D01*
X107136579Y-98492158D01*
X107156983Y-98482508D01*
X107178235Y-98474904D01*
X107200129Y-98469419D01*
X107222456Y-98466108D01*
X107245000Y-98465000D01*
X107755000Y-98465000D01*
X107777544Y-98466108D01*
X107777544Y-98466108D01*
G37*
D22*
G04 #@! TD*
G04 #@! TO.P,C2,1*
G04 #@! TO.N,GND*
X107500000Y-98925000D03*
D12*
G04 #@! TO.N,Net-(C3-Pad2)*
G04 #@! TO.C,C3*
G36*
X96027544Y-95416108D02*
X96049871Y-95419419D01*
X96071765Y-95424904D01*
X96093017Y-95432508D01*
X96113421Y-95442158D01*
X96132781Y-95453762D01*
X96150910Y-95467208D01*
X96167635Y-95482365D01*
X96182792Y-95499090D01*
X96196238Y-95517219D01*
X96207842Y-95536579D01*
X96217492Y-95556983D01*
X96225096Y-95578235D01*
X96230581Y-95600129D01*
X96233892Y-95622456D01*
X96235000Y-95645000D01*
X96235000Y-96155000D01*
X96233892Y-96177544D01*
X96230581Y-96199871D01*
X96225096Y-96221765D01*
X96217492Y-96243017D01*
X96207842Y-96263421D01*
X96196238Y-96282781D01*
X96182792Y-96300910D01*
X96167635Y-96317635D01*
X96150910Y-96332792D01*
X96132781Y-96346238D01*
X96113421Y-96357842D01*
X96093017Y-96367492D01*
X96071765Y-96375096D01*
X96049871Y-96380581D01*
X96027544Y-96383892D01*
X96005000Y-96385000D01*
X95545000Y-96385000D01*
X95522456Y-96383892D01*
X95500129Y-96380581D01*
X95478235Y-96375096D01*
X95456983Y-96367492D01*
X95436579Y-96357842D01*
X95417219Y-96346238D01*
X95399090Y-96332792D01*
X95382365Y-96317635D01*
X95367208Y-96300910D01*
X95353762Y-96282781D01*
X95342158Y-96263421D01*
X95332508Y-96243017D01*
X95324904Y-96221765D01*
X95319419Y-96199871D01*
X95316108Y-96177544D01*
X95315000Y-96155000D01*
X95315000Y-95645000D01*
X95316108Y-95622456D01*
X95319419Y-95600129D01*
X95324904Y-95578235D01*
X95332508Y-95556983D01*
X95342158Y-95536579D01*
X95353762Y-95517219D01*
X95367208Y-95499090D01*
X95382365Y-95482365D01*
X95399090Y-95467208D01*
X95417219Y-95453762D01*
X95436579Y-95442158D01*
X95456983Y-95432508D01*
X95478235Y-95424904D01*
X95500129Y-95419419D01*
X95522456Y-95416108D01*
X95545000Y-95415000D01*
X96005000Y-95415000D01*
X96027544Y-95416108D01*
X96027544Y-95416108D01*
G37*
D22*
G04 #@! TD*
G04 #@! TO.P,C3,2*
G04 #@! TO.N,Net-(C3-Pad2)*
X95775000Y-95900000D03*
D12*
G04 #@! TO.N,GND*
G04 #@! TO.C,C3*
G36*
X94477544Y-95416108D02*
X94499871Y-95419419D01*
X94521765Y-95424904D01*
X94543017Y-95432508D01*
X94563421Y-95442158D01*
X94582781Y-95453762D01*
X94600910Y-95467208D01*
X94617635Y-95482365D01*
X94632792Y-95499090D01*
X94646238Y-95517219D01*
X94657842Y-95536579D01*
X94667492Y-95556983D01*
X94675096Y-95578235D01*
X94680581Y-95600129D01*
X94683892Y-95622456D01*
X94685000Y-95645000D01*
X94685000Y-96155000D01*
X94683892Y-96177544D01*
X94680581Y-96199871D01*
X94675096Y-96221765D01*
X94667492Y-96243017D01*
X94657842Y-96263421D01*
X94646238Y-96282781D01*
X94632792Y-96300910D01*
X94617635Y-96317635D01*
X94600910Y-96332792D01*
X94582781Y-96346238D01*
X94563421Y-96357842D01*
X94543017Y-96367492D01*
X94521765Y-96375096D01*
X94499871Y-96380581D01*
X94477544Y-96383892D01*
X94455000Y-96385000D01*
X93995000Y-96385000D01*
X93972456Y-96383892D01*
X93950129Y-96380581D01*
X93928235Y-96375096D01*
X93906983Y-96367492D01*
X93886579Y-96357842D01*
X93867219Y-96346238D01*
X93849090Y-96332792D01*
X93832365Y-96317635D01*
X93817208Y-96300910D01*
X93803762Y-96282781D01*
X93792158Y-96263421D01*
X93782508Y-96243017D01*
X93774904Y-96221765D01*
X93769419Y-96199871D01*
X93766108Y-96177544D01*
X93765000Y-96155000D01*
X93765000Y-95645000D01*
X93766108Y-95622456D01*
X93769419Y-95600129D01*
X93774904Y-95578235D01*
X93782508Y-95556983D01*
X93792158Y-95536579D01*
X93803762Y-95517219D01*
X93817208Y-95499090D01*
X93832365Y-95482365D01*
X93849090Y-95467208D01*
X93867219Y-95453762D01*
X93886579Y-95442158D01*
X93906983Y-95432508D01*
X93928235Y-95424904D01*
X93950129Y-95419419D01*
X93972456Y-95416108D01*
X93995000Y-95415000D01*
X94455000Y-95415000D01*
X94477544Y-95416108D01*
X94477544Y-95416108D01*
G37*
D22*
G04 #@! TD*
G04 #@! TO.P,C3,1*
G04 #@! TO.N,GND*
X94225000Y-95900000D03*
D12*
G04 #@! TO.N,GND*
G04 #@! TO.C,C4*
G36*
X96473425Y-125546396D02*
X96501576Y-125550572D01*
X96529183Y-125557487D01*
X96555978Y-125567075D01*
X96581705Y-125579243D01*
X96606115Y-125593874D01*
X96628974Y-125610827D01*
X96650061Y-125629939D01*
X96669173Y-125651026D01*
X96686126Y-125673885D01*
X96700757Y-125698295D01*
X96712925Y-125724022D01*
X96722513Y-125750817D01*
X96729428Y-125778424D01*
X96733604Y-125806575D01*
X96735000Y-125835000D01*
X96735000Y-126415000D01*
X96733604Y-126443425D01*
X96729428Y-126471576D01*
X96722513Y-126499183D01*
X96712925Y-126525978D01*
X96700757Y-126551705D01*
X96686126Y-126576115D01*
X96669173Y-126598974D01*
X96650061Y-126620061D01*
X96628974Y-126639173D01*
X96606115Y-126656126D01*
X96581705Y-126670757D01*
X96555978Y-126682925D01*
X96529183Y-126692513D01*
X96501576Y-126699428D01*
X96473425Y-126703604D01*
X96445000Y-126705000D01*
X95555000Y-126705000D01*
X95526575Y-126703604D01*
X95498424Y-126699428D01*
X95470817Y-126692513D01*
X95444022Y-126682925D01*
X95418295Y-126670757D01*
X95393885Y-126656126D01*
X95371026Y-126639173D01*
X95349939Y-126620061D01*
X95330827Y-126598974D01*
X95313874Y-126576115D01*
X95299243Y-126551705D01*
X95287075Y-126525978D01*
X95277487Y-126499183D01*
X95270572Y-126471576D01*
X95266396Y-126443425D01*
X95265000Y-126415000D01*
X95265000Y-125835000D01*
X95266396Y-125806575D01*
X95270572Y-125778424D01*
X95277487Y-125750817D01*
X95287075Y-125724022D01*
X95299243Y-125698295D01*
X95313874Y-125673885D01*
X95330827Y-125651026D01*
X95349939Y-125629939D01*
X95371026Y-125610827D01*
X95393885Y-125593874D01*
X95418295Y-125579243D01*
X95444022Y-125567075D01*
X95470817Y-125557487D01*
X95498424Y-125550572D01*
X95526575Y-125546396D01*
X95555000Y-125545000D01*
X96445000Y-125545000D01*
X96473425Y-125546396D01*
X96473425Y-125546396D01*
G37*
D23*
G04 #@! TD*
G04 #@! TO.P,C4,2*
G04 #@! TO.N,GND*
X96000000Y-126125000D03*
D12*
G04 #@! TO.N,+5V*
G04 #@! TO.C,C4*
G36*
X96473425Y-127296396D02*
X96501576Y-127300572D01*
X96529183Y-127307487D01*
X96555978Y-127317075D01*
X96581705Y-127329243D01*
X96606115Y-127343874D01*
X96628974Y-127360827D01*
X96650061Y-127379939D01*
X96669173Y-127401026D01*
X96686126Y-127423885D01*
X96700757Y-127448295D01*
X96712925Y-127474022D01*
X96722513Y-127500817D01*
X96729428Y-127528424D01*
X96733604Y-127556575D01*
X96735000Y-127585000D01*
X96735000Y-128165000D01*
X96733604Y-128193425D01*
X96729428Y-128221576D01*
X96722513Y-128249183D01*
X96712925Y-128275978D01*
X96700757Y-128301705D01*
X96686126Y-128326115D01*
X96669173Y-128348974D01*
X96650061Y-128370061D01*
X96628974Y-128389173D01*
X96606115Y-128406126D01*
X96581705Y-128420757D01*
X96555978Y-128432925D01*
X96529183Y-128442513D01*
X96501576Y-128449428D01*
X96473425Y-128453604D01*
X96445000Y-128455000D01*
X95555000Y-128455000D01*
X95526575Y-128453604D01*
X95498424Y-128449428D01*
X95470817Y-128442513D01*
X95444022Y-128432925D01*
X95418295Y-128420757D01*
X95393885Y-128406126D01*
X95371026Y-128389173D01*
X95349939Y-128370061D01*
X95330827Y-128348974D01*
X95313874Y-128326115D01*
X95299243Y-128301705D01*
X95287075Y-128275978D01*
X95277487Y-128249183D01*
X95270572Y-128221576D01*
X95266396Y-128193425D01*
X95265000Y-128165000D01*
X95265000Y-127585000D01*
X95266396Y-127556575D01*
X95270572Y-127528424D01*
X95277487Y-127500817D01*
X95287075Y-127474022D01*
X95299243Y-127448295D01*
X95313874Y-127423885D01*
X95330827Y-127401026D01*
X95349939Y-127379939D01*
X95371026Y-127360827D01*
X95393885Y-127343874D01*
X95418295Y-127329243D01*
X95444022Y-127317075D01*
X95470817Y-127307487D01*
X95498424Y-127300572D01*
X95526575Y-127296396D01*
X95555000Y-127295000D01*
X96445000Y-127295000D01*
X96473425Y-127296396D01*
X96473425Y-127296396D01*
G37*
D23*
G04 #@! TD*
G04 #@! TO.P,C4,1*
G04 #@! TO.N,+5V*
X96000000Y-127875000D03*
D12*
G04 #@! TO.N,+3.3V*
G04 #@! TO.C,C5*
G36*
X92393425Y-122516396D02*
X92421576Y-122520572D01*
X92449183Y-122527487D01*
X92475978Y-122537075D01*
X92501705Y-122549243D01*
X92526115Y-122563874D01*
X92548974Y-122580827D01*
X92570061Y-122599939D01*
X92589173Y-122621026D01*
X92606126Y-122643885D01*
X92620757Y-122668295D01*
X92632925Y-122694022D01*
X92642513Y-122720817D01*
X92649428Y-122748424D01*
X92653604Y-122776575D01*
X92655000Y-122805000D01*
X92655000Y-123695000D01*
X92653604Y-123723425D01*
X92649428Y-123751576D01*
X92642513Y-123779183D01*
X92632925Y-123805978D01*
X92620757Y-123831705D01*
X92606126Y-123856115D01*
X92589173Y-123878974D01*
X92570061Y-123900061D01*
X92548974Y-123919173D01*
X92526115Y-123936126D01*
X92501705Y-123950757D01*
X92475978Y-123962925D01*
X92449183Y-123972513D01*
X92421576Y-123979428D01*
X92393425Y-123983604D01*
X92365000Y-123985000D01*
X91785000Y-123985000D01*
X91756575Y-123983604D01*
X91728424Y-123979428D01*
X91700817Y-123972513D01*
X91674022Y-123962925D01*
X91648295Y-123950757D01*
X91623885Y-123936126D01*
X91601026Y-123919173D01*
X91579939Y-123900061D01*
X91560827Y-123878974D01*
X91543874Y-123856115D01*
X91529243Y-123831705D01*
X91517075Y-123805978D01*
X91507487Y-123779183D01*
X91500572Y-123751576D01*
X91496396Y-123723425D01*
X91495000Y-123695000D01*
X91495000Y-122805000D01*
X91496396Y-122776575D01*
X91500572Y-122748424D01*
X91507487Y-122720817D01*
X91517075Y-122694022D01*
X91529243Y-122668295D01*
X91543874Y-122643885D01*
X91560827Y-122621026D01*
X91579939Y-122599939D01*
X91601026Y-122580827D01*
X91623885Y-122563874D01*
X91648295Y-122549243D01*
X91674022Y-122537075D01*
X91700817Y-122527487D01*
X91728424Y-122520572D01*
X91756575Y-122516396D01*
X91785000Y-122515000D01*
X92365000Y-122515000D01*
X92393425Y-122516396D01*
X92393425Y-122516396D01*
G37*
D23*
G04 #@! TD*
G04 #@! TO.P,C5,1*
G04 #@! TO.N,+3.3V*
X92075000Y-123250000D03*
D12*
G04 #@! TO.N,GND*
G04 #@! TO.C,C5*
G36*
X94143425Y-122516396D02*
X94171576Y-122520572D01*
X94199183Y-122527487D01*
X94225978Y-122537075D01*
X94251705Y-122549243D01*
X94276115Y-122563874D01*
X94298974Y-122580827D01*
X94320061Y-122599939D01*
X94339173Y-122621026D01*
X94356126Y-122643885D01*
X94370757Y-122668295D01*
X94382925Y-122694022D01*
X94392513Y-122720817D01*
X94399428Y-122748424D01*
X94403604Y-122776575D01*
X94405000Y-122805000D01*
X94405000Y-123695000D01*
X94403604Y-123723425D01*
X94399428Y-123751576D01*
X94392513Y-123779183D01*
X94382925Y-123805978D01*
X94370757Y-123831705D01*
X94356126Y-123856115D01*
X94339173Y-123878974D01*
X94320061Y-123900061D01*
X94298974Y-123919173D01*
X94276115Y-123936126D01*
X94251705Y-123950757D01*
X94225978Y-123962925D01*
X94199183Y-123972513D01*
X94171576Y-123979428D01*
X94143425Y-123983604D01*
X94115000Y-123985000D01*
X93535000Y-123985000D01*
X93506575Y-123983604D01*
X93478424Y-123979428D01*
X93450817Y-123972513D01*
X93424022Y-123962925D01*
X93398295Y-123950757D01*
X93373885Y-123936126D01*
X93351026Y-123919173D01*
X93329939Y-123900061D01*
X93310827Y-123878974D01*
X93293874Y-123856115D01*
X93279243Y-123831705D01*
X93267075Y-123805978D01*
X93257487Y-123779183D01*
X93250572Y-123751576D01*
X93246396Y-123723425D01*
X93245000Y-123695000D01*
X93245000Y-122805000D01*
X93246396Y-122776575D01*
X93250572Y-122748424D01*
X93257487Y-122720817D01*
X93267075Y-122694022D01*
X93279243Y-122668295D01*
X93293874Y-122643885D01*
X93310827Y-122621026D01*
X93329939Y-122599939D01*
X93351026Y-122580827D01*
X93373885Y-122563874D01*
X93398295Y-122549243D01*
X93424022Y-122537075D01*
X93450817Y-122527487D01*
X93478424Y-122520572D01*
X93506575Y-122516396D01*
X93535000Y-122515000D01*
X94115000Y-122515000D01*
X94143425Y-122516396D01*
X94143425Y-122516396D01*
G37*
D23*
G04 #@! TD*
G04 #@! TO.P,C5,2*
G04 #@! TO.N,GND*
X93825000Y-123250000D03*
D12*
G04 #@! TO.N,+5V*
G04 #@! TO.C,F1*
G36*
X100338915Y-127896421D02*
X100367552Y-127900668D01*
X100395634Y-127907703D01*
X100422892Y-127917456D01*
X100449062Y-127929833D01*
X100473893Y-127944716D01*
X100497146Y-127961962D01*
X100518597Y-127981403D01*
X100538038Y-128002854D01*
X100555284Y-128026107D01*
X100570167Y-128050938D01*
X100582544Y-128077108D01*
X100592297Y-128104366D01*
X100599332Y-128132448D01*
X100603579Y-128161085D01*
X100605000Y-128190000D01*
X100605000Y-128780000D01*
X100603579Y-128808915D01*
X100599332Y-128837552D01*
X100592297Y-128865634D01*
X100582544Y-128892892D01*
X100570167Y-128919062D01*
X100555284Y-128943893D01*
X100538038Y-128967146D01*
X100518597Y-128988597D01*
X100497146Y-129008038D01*
X100473893Y-129025284D01*
X100449062Y-129040167D01*
X100422892Y-129052544D01*
X100395634Y-129062297D01*
X100367552Y-129069332D01*
X100338915Y-129073579D01*
X100310000Y-129075000D01*
X98090000Y-129075000D01*
X98061085Y-129073579D01*
X98032448Y-129069332D01*
X98004366Y-129062297D01*
X97977108Y-129052544D01*
X97950938Y-129040167D01*
X97926107Y-129025284D01*
X97902854Y-129008038D01*
X97881403Y-128988597D01*
X97861962Y-128967146D01*
X97844716Y-128943893D01*
X97829833Y-128919062D01*
X97817456Y-128892892D01*
X97807703Y-128865634D01*
X97800668Y-128837552D01*
X97796421Y-128808915D01*
X97795000Y-128780000D01*
X97795000Y-128190000D01*
X97796421Y-128161085D01*
X97800668Y-128132448D01*
X97807703Y-128104366D01*
X97817456Y-128077108D01*
X97829833Y-128050938D01*
X97844716Y-128026107D01*
X97861962Y-128002854D01*
X97881403Y-127981403D01*
X97902854Y-127961962D01*
X97926107Y-127944716D01*
X97950938Y-127929833D01*
X97977108Y-127917456D01*
X98004366Y-127907703D01*
X98032448Y-127900668D01*
X98061085Y-127896421D01*
X98090000Y-127895000D01*
X100310000Y-127895000D01*
X100338915Y-127896421D01*
X100338915Y-127896421D01*
G37*
D24*
G04 #@! TD*
G04 #@! TO.P,F1,1*
G04 #@! TO.N,+5V*
X99200000Y-128485000D03*
D12*
G04 #@! TO.N,Net-(F1-Pad2)*
G04 #@! TO.C,F1*
G36*
X100338915Y-124926421D02*
X100367552Y-124930668D01*
X100395634Y-124937703D01*
X100422892Y-124947456D01*
X100449062Y-124959833D01*
X100473893Y-124974716D01*
X100497146Y-124991962D01*
X100518597Y-125011403D01*
X100538038Y-125032854D01*
X100555284Y-125056107D01*
X100570167Y-125080938D01*
X100582544Y-125107108D01*
X100592297Y-125134366D01*
X100599332Y-125162448D01*
X100603579Y-125191085D01*
X100605000Y-125220000D01*
X100605000Y-125810000D01*
X100603579Y-125838915D01*
X100599332Y-125867552D01*
X100592297Y-125895634D01*
X100582544Y-125922892D01*
X100570167Y-125949062D01*
X100555284Y-125973893D01*
X100538038Y-125997146D01*
X100518597Y-126018597D01*
X100497146Y-126038038D01*
X100473893Y-126055284D01*
X100449062Y-126070167D01*
X100422892Y-126082544D01*
X100395634Y-126092297D01*
X100367552Y-126099332D01*
X100338915Y-126103579D01*
X100310000Y-126105000D01*
X98090000Y-126105000D01*
X98061085Y-126103579D01*
X98032448Y-126099332D01*
X98004366Y-126092297D01*
X97977108Y-126082544D01*
X97950938Y-126070167D01*
X97926107Y-126055284D01*
X97902854Y-126038038D01*
X97881403Y-126018597D01*
X97861962Y-125997146D01*
X97844716Y-125973893D01*
X97829833Y-125949062D01*
X97817456Y-125922892D01*
X97807703Y-125895634D01*
X97800668Y-125867552D01*
X97796421Y-125838915D01*
X97795000Y-125810000D01*
X97795000Y-125220000D01*
X97796421Y-125191085D01*
X97800668Y-125162448D01*
X97807703Y-125134366D01*
X97817456Y-125107108D01*
X97829833Y-125080938D01*
X97844716Y-125056107D01*
X97861962Y-125032854D01*
X97881403Y-125011403D01*
X97902854Y-124991962D01*
X97926107Y-124974716D01*
X97950938Y-124959833D01*
X97977108Y-124947456D01*
X98004366Y-124937703D01*
X98032448Y-124930668D01*
X98061085Y-124926421D01*
X98090000Y-124925000D01*
X100310000Y-124925000D01*
X100338915Y-124926421D01*
X100338915Y-124926421D01*
G37*
D24*
G04 #@! TD*
G04 #@! TO.P,F1,2*
G04 #@! TO.N,Net-(F1-Pad2)*
X99200000Y-125515000D03*
D25*
G04 #@! TO.P,Q1,E*
G04 #@! TO.N,PHOTO_TRANS*
X101270000Y-77800000D03*
D26*
G04 #@! TO.P,Q1,C*
G04 #@! TO.N,Net-(Q1-PadC)*
X98730000Y-77800000D03*
G04 #@! TD*
D12*
G04 #@! TO.N,Net-(Q1-PadC)*
G04 #@! TO.C,R1*
G36*
X96298329Y-121326023D02*
X96318957Y-121329083D01*
X96339185Y-121334150D01*
X96358820Y-121341176D01*
X96377672Y-121350092D01*
X96395559Y-121360813D01*
X96412309Y-121373235D01*
X96427760Y-121387240D01*
X96441765Y-121402691D01*
X96454187Y-121419441D01*
X96464908Y-121437328D01*
X96473824Y-121456180D01*
X96480850Y-121475815D01*
X96485917Y-121496043D01*
X96488977Y-121516671D01*
X96490000Y-121537500D01*
X96490000Y-121962500D01*
X96488977Y-121983329D01*
X96485917Y-122003957D01*
X96480850Y-122024185D01*
X96473824Y-122043820D01*
X96464908Y-122062672D01*
X96454187Y-122080559D01*
X96441765Y-122097309D01*
X96427760Y-122112760D01*
X96412309Y-122126765D01*
X96395559Y-122139187D01*
X96377672Y-122149908D01*
X96358820Y-122158824D01*
X96339185Y-122165850D01*
X96318957Y-122170917D01*
X96298329Y-122173977D01*
X96277500Y-122175000D01*
X95722500Y-122175000D01*
X95701671Y-122173977D01*
X95681043Y-122170917D01*
X95660815Y-122165850D01*
X95641180Y-122158824D01*
X95622328Y-122149908D01*
X95604441Y-122139187D01*
X95587691Y-122126765D01*
X95572240Y-122112760D01*
X95558235Y-122097309D01*
X95545813Y-122080559D01*
X95535092Y-122062672D01*
X95526176Y-122043820D01*
X95519150Y-122024185D01*
X95514083Y-122003957D01*
X95511023Y-121983329D01*
X95510000Y-121962500D01*
X95510000Y-121537500D01*
X95511023Y-121516671D01*
X95514083Y-121496043D01*
X95519150Y-121475815D01*
X95526176Y-121456180D01*
X95535092Y-121437328D01*
X95545813Y-121419441D01*
X95558235Y-121402691D01*
X95572240Y-121387240D01*
X95587691Y-121373235D01*
X95604441Y-121360813D01*
X95622328Y-121350092D01*
X95641180Y-121341176D01*
X95660815Y-121334150D01*
X95681043Y-121329083D01*
X95701671Y-121326023D01*
X95722500Y-121325000D01*
X96277500Y-121325000D01*
X96298329Y-121326023D01*
X96298329Y-121326023D01*
G37*
D27*
G04 #@! TD*
G04 #@! TO.P,R1,2*
G04 #@! TO.N,Net-(Q1-PadC)*
X96000000Y-121750000D03*
D12*
G04 #@! TO.N,+5V*
G04 #@! TO.C,R1*
G36*
X96298329Y-122876023D02*
X96318957Y-122879083D01*
X96339185Y-122884150D01*
X96358820Y-122891176D01*
X96377672Y-122900092D01*
X96395559Y-122910813D01*
X96412309Y-122923235D01*
X96427760Y-122937240D01*
X96441765Y-122952691D01*
X96454187Y-122969441D01*
X96464908Y-122987328D01*
X96473824Y-123006180D01*
X96480850Y-123025815D01*
X96485917Y-123046043D01*
X96488977Y-123066671D01*
X96490000Y-123087500D01*
X96490000Y-123512500D01*
X96488977Y-123533329D01*
X96485917Y-123553957D01*
X96480850Y-123574185D01*
X96473824Y-123593820D01*
X96464908Y-123612672D01*
X96454187Y-123630559D01*
X96441765Y-123647309D01*
X96427760Y-123662760D01*
X96412309Y-123676765D01*
X96395559Y-123689187D01*
X96377672Y-123699908D01*
X96358820Y-123708824D01*
X96339185Y-123715850D01*
X96318957Y-123720917D01*
X96298329Y-123723977D01*
X96277500Y-123725000D01*
X95722500Y-123725000D01*
X95701671Y-123723977D01*
X95681043Y-123720917D01*
X95660815Y-123715850D01*
X95641180Y-123708824D01*
X95622328Y-123699908D01*
X95604441Y-123689187D01*
X95587691Y-123676765D01*
X95572240Y-123662760D01*
X95558235Y-123647309D01*
X95545813Y-123630559D01*
X95535092Y-123612672D01*
X95526176Y-123593820D01*
X95519150Y-123574185D01*
X95514083Y-123553957D01*
X95511023Y-123533329D01*
X95510000Y-123512500D01*
X95510000Y-123087500D01*
X95511023Y-123066671D01*
X95514083Y-123046043D01*
X95519150Y-123025815D01*
X95526176Y-123006180D01*
X95535092Y-122987328D01*
X95545813Y-122969441D01*
X95558235Y-122952691D01*
X95572240Y-122937240D01*
X95587691Y-122923235D01*
X95604441Y-122910813D01*
X95622328Y-122900092D01*
X95641180Y-122891176D01*
X95660815Y-122884150D01*
X95681043Y-122879083D01*
X95701671Y-122876023D01*
X95722500Y-122875000D01*
X96277500Y-122875000D01*
X96298329Y-122876023D01*
X96298329Y-122876023D01*
G37*
D27*
G04 #@! TD*
G04 #@! TO.P,R1,1*
G04 #@! TO.N,+5V*
X96000000Y-123300000D03*
D12*
G04 #@! TO.N,GND*
G04 #@! TO.C,R2*
G36*
X105608329Y-76811023D02*
X105628957Y-76814083D01*
X105649185Y-76819150D01*
X105668820Y-76826176D01*
X105687672Y-76835092D01*
X105705559Y-76845813D01*
X105722309Y-76858235D01*
X105737760Y-76872240D01*
X105751765Y-76887691D01*
X105764187Y-76904441D01*
X105774908Y-76922328D01*
X105783824Y-76941180D01*
X105790850Y-76960815D01*
X105795917Y-76981043D01*
X105798977Y-77001671D01*
X105800000Y-77022500D01*
X105800000Y-77577500D01*
X105798977Y-77598329D01*
X105795917Y-77618957D01*
X105790850Y-77639185D01*
X105783824Y-77658820D01*
X105774908Y-77677672D01*
X105764187Y-77695559D01*
X105751765Y-77712309D01*
X105737760Y-77727760D01*
X105722309Y-77741765D01*
X105705559Y-77754187D01*
X105687672Y-77764908D01*
X105668820Y-77773824D01*
X105649185Y-77780850D01*
X105628957Y-77785917D01*
X105608329Y-77788977D01*
X105587500Y-77790000D01*
X105162500Y-77790000D01*
X105141671Y-77788977D01*
X105121043Y-77785917D01*
X105100815Y-77780850D01*
X105081180Y-77773824D01*
X105062328Y-77764908D01*
X105044441Y-77754187D01*
X105027691Y-77741765D01*
X105012240Y-77727760D01*
X104998235Y-77712309D01*
X104985813Y-77695559D01*
X104975092Y-77677672D01*
X104966176Y-77658820D01*
X104959150Y-77639185D01*
X104954083Y-77618957D01*
X104951023Y-77598329D01*
X104950000Y-77577500D01*
X104950000Y-77022500D01*
X104951023Y-77001671D01*
X104954083Y-76981043D01*
X104959150Y-76960815D01*
X104966176Y-76941180D01*
X104975092Y-76922328D01*
X104985813Y-76904441D01*
X104998235Y-76887691D01*
X105012240Y-76872240D01*
X105027691Y-76858235D01*
X105044441Y-76845813D01*
X105062328Y-76835092D01*
X105081180Y-76826176D01*
X105100815Y-76819150D01*
X105121043Y-76814083D01*
X105141671Y-76811023D01*
X105162500Y-76810000D01*
X105587500Y-76810000D01*
X105608329Y-76811023D01*
X105608329Y-76811023D01*
G37*
D27*
G04 #@! TD*
G04 #@! TO.P,R2,1*
G04 #@! TO.N,GND*
X105375000Y-77300000D03*
D12*
G04 #@! TO.N,PHOTO_TRANS*
G04 #@! TO.C,R2*
G36*
X104058329Y-76811023D02*
X104078957Y-76814083D01*
X104099185Y-76819150D01*
X104118820Y-76826176D01*
X104137672Y-76835092D01*
X104155559Y-76845813D01*
X104172309Y-76858235D01*
X104187760Y-76872240D01*
X104201765Y-76887691D01*
X104214187Y-76904441D01*
X104224908Y-76922328D01*
X104233824Y-76941180D01*
X104240850Y-76960815D01*
X104245917Y-76981043D01*
X104248977Y-77001671D01*
X104250000Y-77022500D01*
X104250000Y-77577500D01*
X104248977Y-77598329D01*
X104245917Y-77618957D01*
X104240850Y-77639185D01*
X104233824Y-77658820D01*
X104224908Y-77677672D01*
X104214187Y-77695559D01*
X104201765Y-77712309D01*
X104187760Y-77727760D01*
X104172309Y-77741765D01*
X104155559Y-77754187D01*
X104137672Y-77764908D01*
X104118820Y-77773824D01*
X104099185Y-77780850D01*
X104078957Y-77785917D01*
X104058329Y-77788977D01*
X104037500Y-77790000D01*
X103612500Y-77790000D01*
X103591671Y-77788977D01*
X103571043Y-77785917D01*
X103550815Y-77780850D01*
X103531180Y-77773824D01*
X103512328Y-77764908D01*
X103494441Y-77754187D01*
X103477691Y-77741765D01*
X103462240Y-77727760D01*
X103448235Y-77712309D01*
X103435813Y-77695559D01*
X103425092Y-77677672D01*
X103416176Y-77658820D01*
X103409150Y-77639185D01*
X103404083Y-77618957D01*
X103401023Y-77598329D01*
X103400000Y-77577500D01*
X103400000Y-77022500D01*
X103401023Y-77001671D01*
X103404083Y-76981043D01*
X103409150Y-76960815D01*
X103416176Y-76941180D01*
X103425092Y-76922328D01*
X103435813Y-76904441D01*
X103448235Y-76887691D01*
X103462240Y-76872240D01*
X103477691Y-76858235D01*
X103494441Y-76845813D01*
X103512328Y-76835092D01*
X103531180Y-76826176D01*
X103550815Y-76819150D01*
X103571043Y-76814083D01*
X103591671Y-76811023D01*
X103612500Y-76810000D01*
X104037500Y-76810000D01*
X104058329Y-76811023D01*
X104058329Y-76811023D01*
G37*
D27*
G04 #@! TD*
G04 #@! TO.P,R2,2*
G04 #@! TO.N,PHOTO_TRANS*
X103825000Y-77300000D03*
D12*
G04 #@! TO.N,STATUS_USER*
G04 #@! TO.C,R4*
G36*
X107798329Y-96751023D02*
X107818957Y-96754083D01*
X107839185Y-96759150D01*
X107858820Y-96766176D01*
X107877672Y-96775092D01*
X107895559Y-96785813D01*
X107912309Y-96798235D01*
X107927760Y-96812240D01*
X107941765Y-96827691D01*
X107954187Y-96844441D01*
X107964908Y-96862328D01*
X107973824Y-96881180D01*
X107980850Y-96900815D01*
X107985917Y-96921043D01*
X107988977Y-96941671D01*
X107990000Y-96962500D01*
X107990000Y-97387500D01*
X107988977Y-97408329D01*
X107985917Y-97428957D01*
X107980850Y-97449185D01*
X107973824Y-97468820D01*
X107964908Y-97487672D01*
X107954187Y-97505559D01*
X107941765Y-97522309D01*
X107927760Y-97537760D01*
X107912309Y-97551765D01*
X107895559Y-97564187D01*
X107877672Y-97574908D01*
X107858820Y-97583824D01*
X107839185Y-97590850D01*
X107818957Y-97595917D01*
X107798329Y-97598977D01*
X107777500Y-97600000D01*
X107222500Y-97600000D01*
X107201671Y-97598977D01*
X107181043Y-97595917D01*
X107160815Y-97590850D01*
X107141180Y-97583824D01*
X107122328Y-97574908D01*
X107104441Y-97564187D01*
X107087691Y-97551765D01*
X107072240Y-97537760D01*
X107058235Y-97522309D01*
X107045813Y-97505559D01*
X107035092Y-97487672D01*
X107026176Y-97468820D01*
X107019150Y-97449185D01*
X107014083Y-97428957D01*
X107011023Y-97408329D01*
X107010000Y-97387500D01*
X107010000Y-96962500D01*
X107011023Y-96941671D01*
X107014083Y-96921043D01*
X107019150Y-96900815D01*
X107026176Y-96881180D01*
X107035092Y-96862328D01*
X107045813Y-96844441D01*
X107058235Y-96827691D01*
X107072240Y-96812240D01*
X107087691Y-96798235D01*
X107104441Y-96785813D01*
X107122328Y-96775092D01*
X107141180Y-96766176D01*
X107160815Y-96759150D01*
X107181043Y-96754083D01*
X107201671Y-96751023D01*
X107222500Y-96750000D01*
X107777500Y-96750000D01*
X107798329Y-96751023D01*
X107798329Y-96751023D01*
G37*
D27*
G04 #@! TD*
G04 #@! TO.P,R4,2*
G04 #@! TO.N,STATUS_USER*
X107500000Y-97175000D03*
D12*
G04 #@! TO.N,Net-(R4-Pad1)*
G04 #@! TO.C,R4*
G36*
X107798329Y-95201023D02*
X107818957Y-95204083D01*
X107839185Y-95209150D01*
X107858820Y-95216176D01*
X107877672Y-95225092D01*
X107895559Y-95235813D01*
X107912309Y-95248235D01*
X107927760Y-95262240D01*
X107941765Y-95277691D01*
X107954187Y-95294441D01*
X107964908Y-95312328D01*
X107973824Y-95331180D01*
X107980850Y-95350815D01*
X107985917Y-95371043D01*
X107988977Y-95391671D01*
X107990000Y-95412500D01*
X107990000Y-95837500D01*
X107988977Y-95858329D01*
X107985917Y-95878957D01*
X107980850Y-95899185D01*
X107973824Y-95918820D01*
X107964908Y-95937672D01*
X107954187Y-95955559D01*
X107941765Y-95972309D01*
X107927760Y-95987760D01*
X107912309Y-96001765D01*
X107895559Y-96014187D01*
X107877672Y-96024908D01*
X107858820Y-96033824D01*
X107839185Y-96040850D01*
X107818957Y-96045917D01*
X107798329Y-96048977D01*
X107777500Y-96050000D01*
X107222500Y-96050000D01*
X107201671Y-96048977D01*
X107181043Y-96045917D01*
X107160815Y-96040850D01*
X107141180Y-96033824D01*
X107122328Y-96024908D01*
X107104441Y-96014187D01*
X107087691Y-96001765D01*
X107072240Y-95987760D01*
X107058235Y-95972309D01*
X107045813Y-95955559D01*
X107035092Y-95937672D01*
X107026176Y-95918820D01*
X107019150Y-95899185D01*
X107014083Y-95878957D01*
X107011023Y-95858329D01*
X107010000Y-95837500D01*
X107010000Y-95412500D01*
X107011023Y-95391671D01*
X107014083Y-95371043D01*
X107019150Y-95350815D01*
X107026176Y-95331180D01*
X107035092Y-95312328D01*
X107045813Y-95294441D01*
X107058235Y-95277691D01*
X107072240Y-95262240D01*
X107087691Y-95248235D01*
X107104441Y-95235813D01*
X107122328Y-95225092D01*
X107141180Y-95216176D01*
X107160815Y-95209150D01*
X107181043Y-95204083D01*
X107201671Y-95201023D01*
X107222500Y-95200000D01*
X107777500Y-95200000D01*
X107798329Y-95201023D01*
X107798329Y-95201023D01*
G37*
D27*
G04 #@! TD*
G04 #@! TO.P,R4,1*
G04 #@! TO.N,Net-(R4-Pad1)*
X107500000Y-95625000D03*
D12*
G04 #@! TO.N,UART_RX*
G04 #@! TO.C,R7*
G36*
X102633329Y-104211023D02*
X102653957Y-104214083D01*
X102674185Y-104219150D01*
X102693820Y-104226176D01*
X102712672Y-104235092D01*
X102730559Y-104245813D01*
X102747309Y-104258235D01*
X102762760Y-104272240D01*
X102776765Y-104287691D01*
X102789187Y-104304441D01*
X102799908Y-104322328D01*
X102808824Y-104341180D01*
X102815850Y-104360815D01*
X102820917Y-104381043D01*
X102823977Y-104401671D01*
X102825000Y-104422500D01*
X102825000Y-104977500D01*
X102823977Y-104998329D01*
X102820917Y-105018957D01*
X102815850Y-105039185D01*
X102808824Y-105058820D01*
X102799908Y-105077672D01*
X102789187Y-105095559D01*
X102776765Y-105112309D01*
X102762760Y-105127760D01*
X102747309Y-105141765D01*
X102730559Y-105154187D01*
X102712672Y-105164908D01*
X102693820Y-105173824D01*
X102674185Y-105180850D01*
X102653957Y-105185917D01*
X102633329Y-105188977D01*
X102612500Y-105190000D01*
X102187500Y-105190000D01*
X102166671Y-105188977D01*
X102146043Y-105185917D01*
X102125815Y-105180850D01*
X102106180Y-105173824D01*
X102087328Y-105164908D01*
X102069441Y-105154187D01*
X102052691Y-105141765D01*
X102037240Y-105127760D01*
X102023235Y-105112309D01*
X102010813Y-105095559D01*
X102000092Y-105077672D01*
X101991176Y-105058820D01*
X101984150Y-105039185D01*
X101979083Y-105018957D01*
X101976023Y-104998329D01*
X101975000Y-104977500D01*
X101975000Y-104422500D01*
X101976023Y-104401671D01*
X101979083Y-104381043D01*
X101984150Y-104360815D01*
X101991176Y-104341180D01*
X102000092Y-104322328D01*
X102010813Y-104304441D01*
X102023235Y-104287691D01*
X102037240Y-104272240D01*
X102052691Y-104258235D01*
X102069441Y-104245813D01*
X102087328Y-104235092D01*
X102106180Y-104226176D01*
X102125815Y-104219150D01*
X102146043Y-104214083D01*
X102166671Y-104211023D01*
X102187500Y-104210000D01*
X102612500Y-104210000D01*
X102633329Y-104211023D01*
X102633329Y-104211023D01*
G37*
D27*
G04 #@! TD*
G04 #@! TO.P,R7,1*
G04 #@! TO.N,UART_RX*
X102400000Y-104700000D03*
D12*
G04 #@! TO.N,+3.3V*
G04 #@! TO.C,R7*
G36*
X104183329Y-104211023D02*
X104203957Y-104214083D01*
X104224185Y-104219150D01*
X104243820Y-104226176D01*
X104262672Y-104235092D01*
X104280559Y-104245813D01*
X104297309Y-104258235D01*
X104312760Y-104272240D01*
X104326765Y-104287691D01*
X104339187Y-104304441D01*
X104349908Y-104322328D01*
X104358824Y-104341180D01*
X104365850Y-104360815D01*
X104370917Y-104381043D01*
X104373977Y-104401671D01*
X104375000Y-104422500D01*
X104375000Y-104977500D01*
X104373977Y-104998329D01*
X104370917Y-105018957D01*
X104365850Y-105039185D01*
X104358824Y-105058820D01*
X104349908Y-105077672D01*
X104339187Y-105095559D01*
X104326765Y-105112309D01*
X104312760Y-105127760D01*
X104297309Y-105141765D01*
X104280559Y-105154187D01*
X104262672Y-105164908D01*
X104243820Y-105173824D01*
X104224185Y-105180850D01*
X104203957Y-105185917D01*
X104183329Y-105188977D01*
X104162500Y-105190000D01*
X103737500Y-105190000D01*
X103716671Y-105188977D01*
X103696043Y-105185917D01*
X103675815Y-105180850D01*
X103656180Y-105173824D01*
X103637328Y-105164908D01*
X103619441Y-105154187D01*
X103602691Y-105141765D01*
X103587240Y-105127760D01*
X103573235Y-105112309D01*
X103560813Y-105095559D01*
X103550092Y-105077672D01*
X103541176Y-105058820D01*
X103534150Y-105039185D01*
X103529083Y-105018957D01*
X103526023Y-104998329D01*
X103525000Y-104977500D01*
X103525000Y-104422500D01*
X103526023Y-104401671D01*
X103529083Y-104381043D01*
X103534150Y-104360815D01*
X103541176Y-104341180D01*
X103550092Y-104322328D01*
X103560813Y-104304441D01*
X103573235Y-104287691D01*
X103587240Y-104272240D01*
X103602691Y-104258235D01*
X103619441Y-104245813D01*
X103637328Y-104235092D01*
X103656180Y-104226176D01*
X103675815Y-104219150D01*
X103696043Y-104214083D01*
X103716671Y-104211023D01*
X103737500Y-104210000D01*
X104162500Y-104210000D01*
X104183329Y-104211023D01*
X104183329Y-104211023D01*
G37*
D27*
G04 #@! TD*
G04 #@! TO.P,R7,2*
G04 #@! TO.N,+3.3V*
X103950000Y-104700000D03*
D12*
G04 #@! TO.N,UART_RX*
G04 #@! TO.C,R8*
G36*
X95409802Y-108950482D02*
X95419509Y-108951921D01*
X95429028Y-108954306D01*
X95438268Y-108957612D01*
X95447140Y-108961808D01*
X95455557Y-108966853D01*
X95463439Y-108972699D01*
X95470711Y-108979289D01*
X95477301Y-108986561D01*
X95483147Y-108994443D01*
X95488192Y-109002860D01*
X95492388Y-109011732D01*
X95495694Y-109020972D01*
X95498079Y-109030491D01*
X95499518Y-109040198D01*
X95500000Y-109050000D01*
X95500000Y-109750000D01*
X95499518Y-109759802D01*
X95498079Y-109769509D01*
X95495694Y-109779028D01*
X95492388Y-109788268D01*
X95488192Y-109797140D01*
X95483147Y-109805557D01*
X95477301Y-109813439D01*
X95470711Y-109820711D01*
X95463439Y-109827301D01*
X95455557Y-109833147D01*
X95447140Y-109838192D01*
X95438268Y-109842388D01*
X95429028Y-109845694D01*
X95419509Y-109848079D01*
X95409802Y-109849518D01*
X95400000Y-109850000D01*
X95200000Y-109850000D01*
X95190198Y-109849518D01*
X95180491Y-109848079D01*
X95170972Y-109845694D01*
X95161732Y-109842388D01*
X95152860Y-109838192D01*
X95144443Y-109833147D01*
X95136561Y-109827301D01*
X95129289Y-109820711D01*
X95122699Y-109813439D01*
X95116853Y-109805557D01*
X95111808Y-109797140D01*
X95107612Y-109788268D01*
X95104306Y-109779028D01*
X95101921Y-109769509D01*
X95100482Y-109759802D01*
X95100000Y-109750000D01*
X95100000Y-109050000D01*
X95100482Y-109040198D01*
X95101921Y-109030491D01*
X95104306Y-109020972D01*
X95107612Y-109011732D01*
X95111808Y-109002860D01*
X95116853Y-108994443D01*
X95122699Y-108986561D01*
X95129289Y-108979289D01*
X95136561Y-108972699D01*
X95144443Y-108966853D01*
X95152860Y-108961808D01*
X95161732Y-108957612D01*
X95170972Y-108954306D01*
X95180491Y-108951921D01*
X95190198Y-108950482D01*
X95200000Y-108950000D01*
X95400000Y-108950000D01*
X95409802Y-108950482D01*
X95409802Y-108950482D01*
G37*
D28*
G04 #@! TD*
G04 #@! TO.P,R8,5*
G04 #@! TO.N,UART_RX*
X95300000Y-109400000D03*
D12*
G04 #@! TO.N,UART_TX*
G04 #@! TO.C,R8*
G36*
X94609802Y-108950482D02*
X94619509Y-108951921D01*
X94629028Y-108954306D01*
X94638268Y-108957612D01*
X94647140Y-108961808D01*
X94655557Y-108966853D01*
X94663439Y-108972699D01*
X94670711Y-108979289D01*
X94677301Y-108986561D01*
X94683147Y-108994443D01*
X94688192Y-109002860D01*
X94692388Y-109011732D01*
X94695694Y-109020972D01*
X94698079Y-109030491D01*
X94699518Y-109040198D01*
X94700000Y-109050000D01*
X94700000Y-109750000D01*
X94699518Y-109759802D01*
X94698079Y-109769509D01*
X94695694Y-109779028D01*
X94692388Y-109788268D01*
X94688192Y-109797140D01*
X94683147Y-109805557D01*
X94677301Y-109813439D01*
X94670711Y-109820711D01*
X94663439Y-109827301D01*
X94655557Y-109833147D01*
X94647140Y-109838192D01*
X94638268Y-109842388D01*
X94629028Y-109845694D01*
X94619509Y-109848079D01*
X94609802Y-109849518D01*
X94600000Y-109850000D01*
X94400000Y-109850000D01*
X94390198Y-109849518D01*
X94380491Y-109848079D01*
X94370972Y-109845694D01*
X94361732Y-109842388D01*
X94352860Y-109838192D01*
X94344443Y-109833147D01*
X94336561Y-109827301D01*
X94329289Y-109820711D01*
X94322699Y-109813439D01*
X94316853Y-109805557D01*
X94311808Y-109797140D01*
X94307612Y-109788268D01*
X94304306Y-109779028D01*
X94301921Y-109769509D01*
X94300482Y-109759802D01*
X94300000Y-109750000D01*
X94300000Y-109050000D01*
X94300482Y-109040198D01*
X94301921Y-109030491D01*
X94304306Y-109020972D01*
X94307612Y-109011732D01*
X94311808Y-109002860D01*
X94316853Y-108994443D01*
X94322699Y-108986561D01*
X94329289Y-108979289D01*
X94336561Y-108972699D01*
X94344443Y-108966853D01*
X94352860Y-108961808D01*
X94361732Y-108957612D01*
X94370972Y-108954306D01*
X94380491Y-108951921D01*
X94390198Y-108950482D01*
X94400000Y-108950000D01*
X94600000Y-108950000D01*
X94609802Y-108950482D01*
X94609802Y-108950482D01*
G37*
D28*
G04 #@! TD*
G04 #@! TO.P,R8,6*
G04 #@! TO.N,UART_TX*
X94500000Y-109400000D03*
D12*
G04 #@! TO.N,STATUS_TRIGGER*
G04 #@! TO.C,R8*
G36*
X93809802Y-108950482D02*
X93819509Y-108951921D01*
X93829028Y-108954306D01*
X93838268Y-108957612D01*
X93847140Y-108961808D01*
X93855557Y-108966853D01*
X93863439Y-108972699D01*
X93870711Y-108979289D01*
X93877301Y-108986561D01*
X93883147Y-108994443D01*
X93888192Y-109002860D01*
X93892388Y-109011732D01*
X93895694Y-109020972D01*
X93898079Y-109030491D01*
X93899518Y-109040198D01*
X93900000Y-109050000D01*
X93900000Y-109750000D01*
X93899518Y-109759802D01*
X93898079Y-109769509D01*
X93895694Y-109779028D01*
X93892388Y-109788268D01*
X93888192Y-109797140D01*
X93883147Y-109805557D01*
X93877301Y-109813439D01*
X93870711Y-109820711D01*
X93863439Y-109827301D01*
X93855557Y-109833147D01*
X93847140Y-109838192D01*
X93838268Y-109842388D01*
X93829028Y-109845694D01*
X93819509Y-109848079D01*
X93809802Y-109849518D01*
X93800000Y-109850000D01*
X93600000Y-109850000D01*
X93590198Y-109849518D01*
X93580491Y-109848079D01*
X93570972Y-109845694D01*
X93561732Y-109842388D01*
X93552860Y-109838192D01*
X93544443Y-109833147D01*
X93536561Y-109827301D01*
X93529289Y-109820711D01*
X93522699Y-109813439D01*
X93516853Y-109805557D01*
X93511808Y-109797140D01*
X93507612Y-109788268D01*
X93504306Y-109779028D01*
X93501921Y-109769509D01*
X93500482Y-109759802D01*
X93500000Y-109750000D01*
X93500000Y-109050000D01*
X93500482Y-109040198D01*
X93501921Y-109030491D01*
X93504306Y-109020972D01*
X93507612Y-109011732D01*
X93511808Y-109002860D01*
X93516853Y-108994443D01*
X93522699Y-108986561D01*
X93529289Y-108979289D01*
X93536561Y-108972699D01*
X93544443Y-108966853D01*
X93552860Y-108961808D01*
X93561732Y-108957612D01*
X93570972Y-108954306D01*
X93580491Y-108951921D01*
X93590198Y-108950482D01*
X93600000Y-108950000D01*
X93800000Y-108950000D01*
X93809802Y-108950482D01*
X93809802Y-108950482D01*
G37*
D28*
G04 #@! TD*
G04 #@! TO.P,R8,7*
G04 #@! TO.N,STATUS_TRIGGER*
X93700000Y-109400000D03*
D12*
G04 #@! TO.N,STATUS_CAPTURE*
G04 #@! TO.C,R8*
G36*
X93009802Y-108950482D02*
X93019509Y-108951921D01*
X93029028Y-108954306D01*
X93038268Y-108957612D01*
X93047140Y-108961808D01*
X93055557Y-108966853D01*
X93063439Y-108972699D01*
X93070711Y-108979289D01*
X93077301Y-108986561D01*
X93083147Y-108994443D01*
X93088192Y-109002860D01*
X93092388Y-109011732D01*
X93095694Y-109020972D01*
X93098079Y-109030491D01*
X93099518Y-109040198D01*
X93100000Y-109050000D01*
X93100000Y-109750000D01*
X93099518Y-109759802D01*
X93098079Y-109769509D01*
X93095694Y-109779028D01*
X93092388Y-109788268D01*
X93088192Y-109797140D01*
X93083147Y-109805557D01*
X93077301Y-109813439D01*
X93070711Y-109820711D01*
X93063439Y-109827301D01*
X93055557Y-109833147D01*
X93047140Y-109838192D01*
X93038268Y-109842388D01*
X93029028Y-109845694D01*
X93019509Y-109848079D01*
X93009802Y-109849518D01*
X93000000Y-109850000D01*
X92800000Y-109850000D01*
X92790198Y-109849518D01*
X92780491Y-109848079D01*
X92770972Y-109845694D01*
X92761732Y-109842388D01*
X92752860Y-109838192D01*
X92744443Y-109833147D01*
X92736561Y-109827301D01*
X92729289Y-109820711D01*
X92722699Y-109813439D01*
X92716853Y-109805557D01*
X92711808Y-109797140D01*
X92707612Y-109788268D01*
X92704306Y-109779028D01*
X92701921Y-109769509D01*
X92700482Y-109759802D01*
X92700000Y-109750000D01*
X92700000Y-109050000D01*
X92700482Y-109040198D01*
X92701921Y-109030491D01*
X92704306Y-109020972D01*
X92707612Y-109011732D01*
X92711808Y-109002860D01*
X92716853Y-108994443D01*
X92722699Y-108986561D01*
X92729289Y-108979289D01*
X92736561Y-108972699D01*
X92744443Y-108966853D01*
X92752860Y-108961808D01*
X92761732Y-108957612D01*
X92770972Y-108954306D01*
X92780491Y-108951921D01*
X92790198Y-108950482D01*
X92800000Y-108950000D01*
X93000000Y-108950000D01*
X93009802Y-108950482D01*
X93009802Y-108950482D01*
G37*
D28*
G04 #@! TD*
G04 #@! TO.P,R8,8*
G04 #@! TO.N,STATUS_CAPTURE*
X92900000Y-109400000D03*
D12*
G04 #@! TO.N,Net-(J2-Pad1)*
G04 #@! TO.C,R8*
G36*
X95409802Y-110650482D02*
X95419509Y-110651921D01*
X95429028Y-110654306D01*
X95438268Y-110657612D01*
X95447140Y-110661808D01*
X95455557Y-110666853D01*
X95463439Y-110672699D01*
X95470711Y-110679289D01*
X95477301Y-110686561D01*
X95483147Y-110694443D01*
X95488192Y-110702860D01*
X95492388Y-110711732D01*
X95495694Y-110720972D01*
X95498079Y-110730491D01*
X95499518Y-110740198D01*
X95500000Y-110750000D01*
X95500000Y-111450000D01*
X95499518Y-111459802D01*
X95498079Y-111469509D01*
X95495694Y-111479028D01*
X95492388Y-111488268D01*
X95488192Y-111497140D01*
X95483147Y-111505557D01*
X95477301Y-111513439D01*
X95470711Y-111520711D01*
X95463439Y-111527301D01*
X95455557Y-111533147D01*
X95447140Y-111538192D01*
X95438268Y-111542388D01*
X95429028Y-111545694D01*
X95419509Y-111548079D01*
X95409802Y-111549518D01*
X95400000Y-111550000D01*
X95200000Y-111550000D01*
X95190198Y-111549518D01*
X95180491Y-111548079D01*
X95170972Y-111545694D01*
X95161732Y-111542388D01*
X95152860Y-111538192D01*
X95144443Y-111533147D01*
X95136561Y-111527301D01*
X95129289Y-111520711D01*
X95122699Y-111513439D01*
X95116853Y-111505557D01*
X95111808Y-111497140D01*
X95107612Y-111488268D01*
X95104306Y-111479028D01*
X95101921Y-111469509D01*
X95100482Y-111459802D01*
X95100000Y-111450000D01*
X95100000Y-110750000D01*
X95100482Y-110740198D01*
X95101921Y-110730491D01*
X95104306Y-110720972D01*
X95107612Y-110711732D01*
X95111808Y-110702860D01*
X95116853Y-110694443D01*
X95122699Y-110686561D01*
X95129289Y-110679289D01*
X95136561Y-110672699D01*
X95144443Y-110666853D01*
X95152860Y-110661808D01*
X95161732Y-110657612D01*
X95170972Y-110654306D01*
X95180491Y-110651921D01*
X95190198Y-110650482D01*
X95200000Y-110650000D01*
X95400000Y-110650000D01*
X95409802Y-110650482D01*
X95409802Y-110650482D01*
G37*
D28*
G04 #@! TD*
G04 #@! TO.P,R8,4*
G04 #@! TO.N,Net-(J2-Pad1)*
X95300000Y-111100000D03*
D12*
G04 #@! TO.N,Net-(J2-Pad4)*
G04 #@! TO.C,R8*
G36*
X93009802Y-110650482D02*
X93019509Y-110651921D01*
X93029028Y-110654306D01*
X93038268Y-110657612D01*
X93047140Y-110661808D01*
X93055557Y-110666853D01*
X93063439Y-110672699D01*
X93070711Y-110679289D01*
X93077301Y-110686561D01*
X93083147Y-110694443D01*
X93088192Y-110702860D01*
X93092388Y-110711732D01*
X93095694Y-110720972D01*
X93098079Y-110730491D01*
X93099518Y-110740198D01*
X93100000Y-110750000D01*
X93100000Y-111450000D01*
X93099518Y-111459802D01*
X93098079Y-111469509D01*
X93095694Y-111479028D01*
X93092388Y-111488268D01*
X93088192Y-111497140D01*
X93083147Y-111505557D01*
X93077301Y-111513439D01*
X93070711Y-111520711D01*
X93063439Y-111527301D01*
X93055557Y-111533147D01*
X93047140Y-111538192D01*
X93038268Y-111542388D01*
X93029028Y-111545694D01*
X93019509Y-111548079D01*
X93009802Y-111549518D01*
X93000000Y-111550000D01*
X92800000Y-111550000D01*
X92790198Y-111549518D01*
X92780491Y-111548079D01*
X92770972Y-111545694D01*
X92761732Y-111542388D01*
X92752860Y-111538192D01*
X92744443Y-111533147D01*
X92736561Y-111527301D01*
X92729289Y-111520711D01*
X92722699Y-111513439D01*
X92716853Y-111505557D01*
X92711808Y-111497140D01*
X92707612Y-111488268D01*
X92704306Y-111479028D01*
X92701921Y-111469509D01*
X92700482Y-111459802D01*
X92700000Y-111450000D01*
X92700000Y-110750000D01*
X92700482Y-110740198D01*
X92701921Y-110730491D01*
X92704306Y-110720972D01*
X92707612Y-110711732D01*
X92711808Y-110702860D01*
X92716853Y-110694443D01*
X92722699Y-110686561D01*
X92729289Y-110679289D01*
X92736561Y-110672699D01*
X92744443Y-110666853D01*
X92752860Y-110661808D01*
X92761732Y-110657612D01*
X92770972Y-110654306D01*
X92780491Y-110651921D01*
X92790198Y-110650482D01*
X92800000Y-110650000D01*
X93000000Y-110650000D01*
X93009802Y-110650482D01*
X93009802Y-110650482D01*
G37*
D28*
G04 #@! TD*
G04 #@! TO.P,R8,1*
G04 #@! TO.N,Net-(J2-Pad4)*
X92900000Y-111100000D03*
D12*
G04 #@! TO.N,Net-(J2-Pad2)*
G04 #@! TO.C,R8*
G36*
X94609802Y-110650482D02*
X94619509Y-110651921D01*
X94629028Y-110654306D01*
X94638268Y-110657612D01*
X94647140Y-110661808D01*
X94655557Y-110666853D01*
X94663439Y-110672699D01*
X94670711Y-110679289D01*
X94677301Y-110686561D01*
X94683147Y-110694443D01*
X94688192Y-110702860D01*
X94692388Y-110711732D01*
X94695694Y-110720972D01*
X94698079Y-110730491D01*
X94699518Y-110740198D01*
X94700000Y-110750000D01*
X94700000Y-111450000D01*
X94699518Y-111459802D01*
X94698079Y-111469509D01*
X94695694Y-111479028D01*
X94692388Y-111488268D01*
X94688192Y-111497140D01*
X94683147Y-111505557D01*
X94677301Y-111513439D01*
X94670711Y-111520711D01*
X94663439Y-111527301D01*
X94655557Y-111533147D01*
X94647140Y-111538192D01*
X94638268Y-111542388D01*
X94629028Y-111545694D01*
X94619509Y-111548079D01*
X94609802Y-111549518D01*
X94600000Y-111550000D01*
X94400000Y-111550000D01*
X94390198Y-111549518D01*
X94380491Y-111548079D01*
X94370972Y-111545694D01*
X94361732Y-111542388D01*
X94352860Y-111538192D01*
X94344443Y-111533147D01*
X94336561Y-111527301D01*
X94329289Y-111520711D01*
X94322699Y-111513439D01*
X94316853Y-111505557D01*
X94311808Y-111497140D01*
X94307612Y-111488268D01*
X94304306Y-111479028D01*
X94301921Y-111469509D01*
X94300482Y-111459802D01*
X94300000Y-111450000D01*
X94300000Y-110750000D01*
X94300482Y-110740198D01*
X94301921Y-110730491D01*
X94304306Y-110720972D01*
X94307612Y-110711732D01*
X94311808Y-110702860D01*
X94316853Y-110694443D01*
X94322699Y-110686561D01*
X94329289Y-110679289D01*
X94336561Y-110672699D01*
X94344443Y-110666853D01*
X94352860Y-110661808D01*
X94361732Y-110657612D01*
X94370972Y-110654306D01*
X94380491Y-110651921D01*
X94390198Y-110650482D01*
X94400000Y-110650000D01*
X94600000Y-110650000D01*
X94609802Y-110650482D01*
X94609802Y-110650482D01*
G37*
D28*
G04 #@! TD*
G04 #@! TO.P,R8,3*
G04 #@! TO.N,Net-(J2-Pad2)*
X94500000Y-111100000D03*
D12*
G04 #@! TO.N,Net-(J2-Pad3)*
G04 #@! TO.C,R8*
G36*
X93809802Y-110650482D02*
X93819509Y-110651921D01*
X93829028Y-110654306D01*
X93838268Y-110657612D01*
X93847140Y-110661808D01*
X93855557Y-110666853D01*
X93863439Y-110672699D01*
X93870711Y-110679289D01*
X93877301Y-110686561D01*
X93883147Y-110694443D01*
X93888192Y-110702860D01*
X93892388Y-110711732D01*
X93895694Y-110720972D01*
X93898079Y-110730491D01*
X93899518Y-110740198D01*
X93900000Y-110750000D01*
X93900000Y-111450000D01*
X93899518Y-111459802D01*
X93898079Y-111469509D01*
X93895694Y-111479028D01*
X93892388Y-111488268D01*
X93888192Y-111497140D01*
X93883147Y-111505557D01*
X93877301Y-111513439D01*
X93870711Y-111520711D01*
X93863439Y-111527301D01*
X93855557Y-111533147D01*
X93847140Y-111538192D01*
X93838268Y-111542388D01*
X93829028Y-111545694D01*
X93819509Y-111548079D01*
X93809802Y-111549518D01*
X93800000Y-111550000D01*
X93600000Y-111550000D01*
X93590198Y-111549518D01*
X93580491Y-111548079D01*
X93570972Y-111545694D01*
X93561732Y-111542388D01*
X93552860Y-111538192D01*
X93544443Y-111533147D01*
X93536561Y-111527301D01*
X93529289Y-111520711D01*
X93522699Y-111513439D01*
X93516853Y-111505557D01*
X93511808Y-111497140D01*
X93507612Y-111488268D01*
X93504306Y-111479028D01*
X93501921Y-111469509D01*
X93500482Y-111459802D01*
X93500000Y-111450000D01*
X93500000Y-110750000D01*
X93500482Y-110740198D01*
X93501921Y-110730491D01*
X93504306Y-110720972D01*
X93507612Y-110711732D01*
X93511808Y-110702860D01*
X93516853Y-110694443D01*
X93522699Y-110686561D01*
X93529289Y-110679289D01*
X93536561Y-110672699D01*
X93544443Y-110666853D01*
X93552860Y-110661808D01*
X93561732Y-110657612D01*
X93570972Y-110654306D01*
X93580491Y-110651921D01*
X93590198Y-110650482D01*
X93600000Y-110650000D01*
X93800000Y-110650000D01*
X93809802Y-110650482D01*
X93809802Y-110650482D01*
G37*
D28*
G04 #@! TD*
G04 #@! TO.P,R8,2*
G04 #@! TO.N,Net-(J2-Pad3)*
X93700000Y-111100000D03*
D12*
G04 #@! TO.N,EXTERNAL_TRIG*
G04 #@! TO.C,R9*
G36*
X99458329Y-118011023D02*
X99478957Y-118014083D01*
X99499185Y-118019150D01*
X99518820Y-118026176D01*
X99537672Y-118035092D01*
X99555559Y-118045813D01*
X99572309Y-118058235D01*
X99587760Y-118072240D01*
X99601765Y-118087691D01*
X99614187Y-118104441D01*
X99624908Y-118122328D01*
X99633824Y-118141180D01*
X99640850Y-118160815D01*
X99645917Y-118181043D01*
X99648977Y-118201671D01*
X99650000Y-118222500D01*
X99650000Y-118777500D01*
X99648977Y-118798329D01*
X99645917Y-118818957D01*
X99640850Y-118839185D01*
X99633824Y-118858820D01*
X99624908Y-118877672D01*
X99614187Y-118895559D01*
X99601765Y-118912309D01*
X99587760Y-118927760D01*
X99572309Y-118941765D01*
X99555559Y-118954187D01*
X99537672Y-118964908D01*
X99518820Y-118973824D01*
X99499185Y-118980850D01*
X99478957Y-118985917D01*
X99458329Y-118988977D01*
X99437500Y-118990000D01*
X99012500Y-118990000D01*
X98991671Y-118988977D01*
X98971043Y-118985917D01*
X98950815Y-118980850D01*
X98931180Y-118973824D01*
X98912328Y-118964908D01*
X98894441Y-118954187D01*
X98877691Y-118941765D01*
X98862240Y-118927760D01*
X98848235Y-118912309D01*
X98835813Y-118895559D01*
X98825092Y-118877672D01*
X98816176Y-118858820D01*
X98809150Y-118839185D01*
X98804083Y-118818957D01*
X98801023Y-118798329D01*
X98800000Y-118777500D01*
X98800000Y-118222500D01*
X98801023Y-118201671D01*
X98804083Y-118181043D01*
X98809150Y-118160815D01*
X98816176Y-118141180D01*
X98825092Y-118122328D01*
X98835813Y-118104441D01*
X98848235Y-118087691D01*
X98862240Y-118072240D01*
X98877691Y-118058235D01*
X98894441Y-118045813D01*
X98912328Y-118035092D01*
X98931180Y-118026176D01*
X98950815Y-118019150D01*
X98971043Y-118014083D01*
X98991671Y-118011023D01*
X99012500Y-118010000D01*
X99437500Y-118010000D01*
X99458329Y-118011023D01*
X99458329Y-118011023D01*
G37*
D27*
G04 #@! TD*
G04 #@! TO.P,R9,2*
G04 #@! TO.N,EXTERNAL_TRIG*
X99225000Y-118500000D03*
D12*
G04 #@! TO.N,Net-(J2-Pad5)*
G04 #@! TO.C,R9*
G36*
X101008329Y-118011023D02*
X101028957Y-118014083D01*
X101049185Y-118019150D01*
X101068820Y-118026176D01*
X101087672Y-118035092D01*
X101105559Y-118045813D01*
X101122309Y-118058235D01*
X101137760Y-118072240D01*
X101151765Y-118087691D01*
X101164187Y-118104441D01*
X101174908Y-118122328D01*
X101183824Y-118141180D01*
X101190850Y-118160815D01*
X101195917Y-118181043D01*
X101198977Y-118201671D01*
X101200000Y-118222500D01*
X101200000Y-118777500D01*
X101198977Y-118798329D01*
X101195917Y-118818957D01*
X101190850Y-118839185D01*
X101183824Y-118858820D01*
X101174908Y-118877672D01*
X101164187Y-118895559D01*
X101151765Y-118912309D01*
X101137760Y-118927760D01*
X101122309Y-118941765D01*
X101105559Y-118954187D01*
X101087672Y-118964908D01*
X101068820Y-118973824D01*
X101049185Y-118980850D01*
X101028957Y-118985917D01*
X101008329Y-118988977D01*
X100987500Y-118990000D01*
X100562500Y-118990000D01*
X100541671Y-118988977D01*
X100521043Y-118985917D01*
X100500815Y-118980850D01*
X100481180Y-118973824D01*
X100462328Y-118964908D01*
X100444441Y-118954187D01*
X100427691Y-118941765D01*
X100412240Y-118927760D01*
X100398235Y-118912309D01*
X100385813Y-118895559D01*
X100375092Y-118877672D01*
X100366176Y-118858820D01*
X100359150Y-118839185D01*
X100354083Y-118818957D01*
X100351023Y-118798329D01*
X100350000Y-118777500D01*
X100350000Y-118222500D01*
X100351023Y-118201671D01*
X100354083Y-118181043D01*
X100359150Y-118160815D01*
X100366176Y-118141180D01*
X100375092Y-118122328D01*
X100385813Y-118104441D01*
X100398235Y-118087691D01*
X100412240Y-118072240D01*
X100427691Y-118058235D01*
X100444441Y-118045813D01*
X100462328Y-118035092D01*
X100481180Y-118026176D01*
X100500815Y-118019150D01*
X100521043Y-118014083D01*
X100541671Y-118011023D01*
X100562500Y-118010000D01*
X100987500Y-118010000D01*
X101008329Y-118011023D01*
X101008329Y-118011023D01*
G37*
D27*
G04 #@! TD*
G04 #@! TO.P,R9,1*
G04 #@! TO.N,Net-(J2-Pad5)*
X100775000Y-118500000D03*
D29*
G04 #@! TO.P,SW1,1*
G04 #@! TO.N,SWITCH_TRIG*
X102540000Y-82320000D03*
G04 #@! TO.P,SW1,2*
G04 #@! TO.N,GND*
X96190000Y-84860000D03*
D30*
G04 #@! TO.P,SW1,3*
G04 #@! TO.N,Net-(R4-Pad1)*
X98790000Y-92320000D03*
G04 #@! TO.P,SW1,4*
G04 #@! TO.N,GND*
X101220000Y-92320000D03*
G04 #@! TD*
D12*
G04 #@! TO.N,GND*
G04 #@! TO.C,SW2*
G36*
X109419603Y-105300963D02*
X109439018Y-105303843D01*
X109458057Y-105308612D01*
X109476537Y-105315224D01*
X109494279Y-105323616D01*
X109511114Y-105333706D01*
X109526879Y-105345398D01*
X109541421Y-105358579D01*
X109554602Y-105373121D01*
X109566294Y-105388886D01*
X109576384Y-105405721D01*
X109584776Y-105423463D01*
X109591388Y-105441943D01*
X109596157Y-105460982D01*
X109599037Y-105480397D01*
X109600000Y-105500000D01*
X109600000Y-105900000D01*
X109599037Y-105919603D01*
X109596157Y-105939018D01*
X109591388Y-105958057D01*
X109584776Y-105976537D01*
X109576384Y-105994279D01*
X109566294Y-106011114D01*
X109554602Y-106026879D01*
X109541421Y-106041421D01*
X109526879Y-106054602D01*
X109511114Y-106066294D01*
X109494279Y-106076384D01*
X109476537Y-106084776D01*
X109458057Y-106091388D01*
X109439018Y-106096157D01*
X109419603Y-106099037D01*
X109400000Y-106100000D01*
X108100000Y-106100000D01*
X108080397Y-106099037D01*
X108060982Y-106096157D01*
X108041943Y-106091388D01*
X108023463Y-106084776D01*
X108005721Y-106076384D01*
X107988886Y-106066294D01*
X107973121Y-106054602D01*
X107958579Y-106041421D01*
X107945398Y-106026879D01*
X107933706Y-106011114D01*
X107923616Y-105994279D01*
X107915224Y-105976537D01*
X107908612Y-105958057D01*
X107903843Y-105939018D01*
X107900963Y-105919603D01*
X107900000Y-105900000D01*
X107900000Y-105500000D01*
X107900963Y-105480397D01*
X107903843Y-105460982D01*
X107908612Y-105441943D01*
X107915224Y-105423463D01*
X107923616Y-105405721D01*
X107933706Y-105388886D01*
X107945398Y-105373121D01*
X107958579Y-105358579D01*
X107973121Y-105345398D01*
X107988886Y-105333706D01*
X108005721Y-105323616D01*
X108023463Y-105315224D01*
X108041943Y-105308612D01*
X108060982Y-105303843D01*
X108080397Y-105300963D01*
X108100000Y-105300000D01*
X109400000Y-105300000D01*
X109419603Y-105300963D01*
X109419603Y-105300963D01*
G37*
D31*
G04 #@! TD*
G04 #@! TO.P,SW2,1*
G04 #@! TO.N,GND*
X108750000Y-105700000D03*
D12*
G04 #@! TO.N,~RESET*
G04 #@! TO.C,SW2*
G36*
X109419603Y-101900963D02*
X109439018Y-101903843D01*
X109458057Y-101908612D01*
X109476537Y-101915224D01*
X109494279Y-101923616D01*
X109511114Y-101933706D01*
X109526879Y-101945398D01*
X109541421Y-101958579D01*
X109554602Y-101973121D01*
X109566294Y-101988886D01*
X109576384Y-102005721D01*
X109584776Y-102023463D01*
X109591388Y-102041943D01*
X109596157Y-102060982D01*
X109599037Y-102080397D01*
X109600000Y-102100000D01*
X109600000Y-102500000D01*
X109599037Y-102519603D01*
X109596157Y-102539018D01*
X109591388Y-102558057D01*
X109584776Y-102576537D01*
X109576384Y-102594279D01*
X109566294Y-102611114D01*
X109554602Y-102626879D01*
X109541421Y-102641421D01*
X109526879Y-102654602D01*
X109511114Y-102666294D01*
X109494279Y-102676384D01*
X109476537Y-102684776D01*
X109458057Y-102691388D01*
X109439018Y-102696157D01*
X109419603Y-102699037D01*
X109400000Y-102700000D01*
X108100000Y-102700000D01*
X108080397Y-102699037D01*
X108060982Y-102696157D01*
X108041943Y-102691388D01*
X108023463Y-102684776D01*
X108005721Y-102676384D01*
X107988886Y-102666294D01*
X107973121Y-102654602D01*
X107958579Y-102641421D01*
X107945398Y-102626879D01*
X107933706Y-102611114D01*
X107923616Y-102594279D01*
X107915224Y-102576537D01*
X107908612Y-102558057D01*
X107903843Y-102539018D01*
X107900963Y-102519603D01*
X107900000Y-102500000D01*
X107900000Y-102100000D01*
X107900963Y-102080397D01*
X107903843Y-102060982D01*
X107908612Y-102041943D01*
X107915224Y-102023463D01*
X107923616Y-102005721D01*
X107933706Y-101988886D01*
X107945398Y-101973121D01*
X107958579Y-101958579D01*
X107973121Y-101945398D01*
X107988886Y-101933706D01*
X108005721Y-101923616D01*
X108023463Y-101915224D01*
X108041943Y-101908612D01*
X108060982Y-101903843D01*
X108080397Y-101900963D01*
X108100000Y-101900000D01*
X109400000Y-101900000D01*
X109419603Y-101900963D01*
X109419603Y-101900963D01*
G37*
D31*
G04 #@! TD*
G04 #@! TO.P,SW2,2*
G04 #@! TO.N,~RESET*
X108750000Y-102300000D03*
D12*
G04 #@! TO.N,Net-(J1-Pad2)*
G04 #@! TO.C,U1*
G36*
X102473722Y-121920674D02*
X102487313Y-121922690D01*
X102500640Y-121926028D01*
X102513576Y-121930657D01*
X102525996Y-121936531D01*
X102537780Y-121943594D01*
X102548815Y-121951779D01*
X102558995Y-121961005D01*
X102568221Y-121971185D01*
X102576406Y-121982220D01*
X102583469Y-121994004D01*
X102589343Y-122006424D01*
X102593972Y-122019360D01*
X102597310Y-122032687D01*
X102599326Y-122046278D01*
X102600000Y-122060000D01*
X102600000Y-122340000D01*
X102599326Y-122353722D01*
X102597310Y-122367313D01*
X102593972Y-122380640D01*
X102589343Y-122393576D01*
X102583469Y-122405996D01*
X102576406Y-122417780D01*
X102568221Y-122428815D01*
X102558995Y-122438995D01*
X102548815Y-122448221D01*
X102537780Y-122456406D01*
X102525996Y-122463469D01*
X102513576Y-122469343D01*
X102500640Y-122473972D01*
X102487313Y-122477310D01*
X102473722Y-122479326D01*
X102460000Y-122480000D01*
X101390000Y-122480000D01*
X101376278Y-122479326D01*
X101362687Y-122477310D01*
X101349360Y-122473972D01*
X101336424Y-122469343D01*
X101324004Y-122463469D01*
X101312220Y-122456406D01*
X101301185Y-122448221D01*
X101291005Y-122438995D01*
X101281779Y-122428815D01*
X101273594Y-122417780D01*
X101266531Y-122405996D01*
X101260657Y-122393576D01*
X101256028Y-122380640D01*
X101252690Y-122367313D01*
X101250674Y-122353722D01*
X101250000Y-122340000D01*
X101250000Y-122060000D01*
X101250674Y-122046278D01*
X101252690Y-122032687D01*
X101256028Y-122019360D01*
X101260657Y-122006424D01*
X101266531Y-121994004D01*
X101273594Y-121982220D01*
X101281779Y-121971185D01*
X101291005Y-121961005D01*
X101301185Y-121951779D01*
X101312220Y-121943594D01*
X101324004Y-121936531D01*
X101336424Y-121930657D01*
X101349360Y-121926028D01*
X101362687Y-121922690D01*
X101376278Y-121920674D01*
X101390000Y-121920000D01*
X102460000Y-121920000D01*
X102473722Y-121920674D01*
X102473722Y-121920674D01*
G37*
D32*
G04 #@! TD*
G04 #@! TO.P,U1,1*
G04 #@! TO.N,Net-(J1-Pad2)*
X101925000Y-122200000D03*
D12*
G04 #@! TO.N,GND*
G04 #@! TO.C,U1*
G36*
X102473722Y-120970674D02*
X102487313Y-120972690D01*
X102500640Y-120976028D01*
X102513576Y-120980657D01*
X102525996Y-120986531D01*
X102537780Y-120993594D01*
X102548815Y-121001779D01*
X102558995Y-121011005D01*
X102568221Y-121021185D01*
X102576406Y-121032220D01*
X102583469Y-121044004D01*
X102589343Y-121056424D01*
X102593972Y-121069360D01*
X102597310Y-121082687D01*
X102599326Y-121096278D01*
X102600000Y-121110000D01*
X102600000Y-121390000D01*
X102599326Y-121403722D01*
X102597310Y-121417313D01*
X102593972Y-121430640D01*
X102589343Y-121443576D01*
X102583469Y-121455996D01*
X102576406Y-121467780D01*
X102568221Y-121478815D01*
X102558995Y-121488995D01*
X102548815Y-121498221D01*
X102537780Y-121506406D01*
X102525996Y-121513469D01*
X102513576Y-121519343D01*
X102500640Y-121523972D01*
X102487313Y-121527310D01*
X102473722Y-121529326D01*
X102460000Y-121530000D01*
X101390000Y-121530000D01*
X101376278Y-121529326D01*
X101362687Y-121527310D01*
X101349360Y-121523972D01*
X101336424Y-121519343D01*
X101324004Y-121513469D01*
X101312220Y-121506406D01*
X101301185Y-121498221D01*
X101291005Y-121488995D01*
X101281779Y-121478815D01*
X101273594Y-121467780D01*
X101266531Y-121455996D01*
X101260657Y-121443576D01*
X101256028Y-121430640D01*
X101252690Y-121417313D01*
X101250674Y-121403722D01*
X101250000Y-121390000D01*
X101250000Y-121110000D01*
X101250674Y-121096278D01*
X101252690Y-121082687D01*
X101256028Y-121069360D01*
X101260657Y-121056424D01*
X101266531Y-121044004D01*
X101273594Y-121032220D01*
X101281779Y-121021185D01*
X101291005Y-121011005D01*
X101301185Y-121001779D01*
X101312220Y-120993594D01*
X101324004Y-120986531D01*
X101336424Y-120980657D01*
X101349360Y-120976028D01*
X101362687Y-120972690D01*
X101376278Y-120970674D01*
X101390000Y-120970000D01*
X102460000Y-120970000D01*
X102473722Y-120970674D01*
X102473722Y-120970674D01*
G37*
D32*
G04 #@! TD*
G04 #@! TO.P,U1,2*
G04 #@! TO.N,GND*
X101925000Y-121250000D03*
D12*
G04 #@! TO.N,Net-(J1-Pad3)*
G04 #@! TO.C,U1*
G36*
X102473722Y-120020674D02*
X102487313Y-120022690D01*
X102500640Y-120026028D01*
X102513576Y-120030657D01*
X102525996Y-120036531D01*
X102537780Y-120043594D01*
X102548815Y-120051779D01*
X102558995Y-120061005D01*
X102568221Y-120071185D01*
X102576406Y-120082220D01*
X102583469Y-120094004D01*
X102589343Y-120106424D01*
X102593972Y-120119360D01*
X102597310Y-120132687D01*
X102599326Y-120146278D01*
X102600000Y-120160000D01*
X102600000Y-120440000D01*
X102599326Y-120453722D01*
X102597310Y-120467313D01*
X102593972Y-120480640D01*
X102589343Y-120493576D01*
X102583469Y-120505996D01*
X102576406Y-120517780D01*
X102568221Y-120528815D01*
X102558995Y-120538995D01*
X102548815Y-120548221D01*
X102537780Y-120556406D01*
X102525996Y-120563469D01*
X102513576Y-120569343D01*
X102500640Y-120573972D01*
X102487313Y-120577310D01*
X102473722Y-120579326D01*
X102460000Y-120580000D01*
X101390000Y-120580000D01*
X101376278Y-120579326D01*
X101362687Y-120577310D01*
X101349360Y-120573972D01*
X101336424Y-120569343D01*
X101324004Y-120563469D01*
X101312220Y-120556406D01*
X101301185Y-120548221D01*
X101291005Y-120538995D01*
X101281779Y-120528815D01*
X101273594Y-120517780D01*
X101266531Y-120505996D01*
X101260657Y-120493576D01*
X101256028Y-120480640D01*
X101252690Y-120467313D01*
X101250674Y-120453722D01*
X101250000Y-120440000D01*
X101250000Y-120160000D01*
X101250674Y-120146278D01*
X101252690Y-120132687D01*
X101256028Y-120119360D01*
X101260657Y-120106424D01*
X101266531Y-120094004D01*
X101273594Y-120082220D01*
X101281779Y-120071185D01*
X101291005Y-120061005D01*
X101301185Y-120051779D01*
X101312220Y-120043594D01*
X101324004Y-120036531D01*
X101336424Y-120030657D01*
X101349360Y-120026028D01*
X101362687Y-120022690D01*
X101376278Y-120020674D01*
X101390000Y-120020000D01*
X102460000Y-120020000D01*
X102473722Y-120020674D01*
X102473722Y-120020674D01*
G37*
D32*
G04 #@! TD*
G04 #@! TO.P,U1,3*
G04 #@! TO.N,Net-(J1-Pad3)*
X101925000Y-120300000D03*
D12*
G04 #@! TO.N,USB_D+*
G04 #@! TO.C,U1*
G36*
X100123722Y-120020674D02*
X100137313Y-120022690D01*
X100150640Y-120026028D01*
X100163576Y-120030657D01*
X100175996Y-120036531D01*
X100187780Y-120043594D01*
X100198815Y-120051779D01*
X100208995Y-120061005D01*
X100218221Y-120071185D01*
X100226406Y-120082220D01*
X100233469Y-120094004D01*
X100239343Y-120106424D01*
X100243972Y-120119360D01*
X100247310Y-120132687D01*
X100249326Y-120146278D01*
X100250000Y-120160000D01*
X100250000Y-120440000D01*
X100249326Y-120453722D01*
X100247310Y-120467313D01*
X100243972Y-120480640D01*
X100239343Y-120493576D01*
X100233469Y-120505996D01*
X100226406Y-120517780D01*
X100218221Y-120528815D01*
X100208995Y-120538995D01*
X100198815Y-120548221D01*
X100187780Y-120556406D01*
X100175996Y-120563469D01*
X100163576Y-120569343D01*
X100150640Y-120573972D01*
X100137313Y-120577310D01*
X100123722Y-120579326D01*
X100110000Y-120580000D01*
X99040000Y-120580000D01*
X99026278Y-120579326D01*
X99012687Y-120577310D01*
X98999360Y-120573972D01*
X98986424Y-120569343D01*
X98974004Y-120563469D01*
X98962220Y-120556406D01*
X98951185Y-120548221D01*
X98941005Y-120538995D01*
X98931779Y-120528815D01*
X98923594Y-120517780D01*
X98916531Y-120505996D01*
X98910657Y-120493576D01*
X98906028Y-120480640D01*
X98902690Y-120467313D01*
X98900674Y-120453722D01*
X98900000Y-120440000D01*
X98900000Y-120160000D01*
X98900674Y-120146278D01*
X98902690Y-120132687D01*
X98906028Y-120119360D01*
X98910657Y-120106424D01*
X98916531Y-120094004D01*
X98923594Y-120082220D01*
X98931779Y-120071185D01*
X98941005Y-120061005D01*
X98951185Y-120051779D01*
X98962220Y-120043594D01*
X98974004Y-120036531D01*
X98986424Y-120030657D01*
X98999360Y-120026028D01*
X99012687Y-120022690D01*
X99026278Y-120020674D01*
X99040000Y-120020000D01*
X100110000Y-120020000D01*
X100123722Y-120020674D01*
X100123722Y-120020674D01*
G37*
D32*
G04 #@! TD*
G04 #@! TO.P,U1,4*
G04 #@! TO.N,USB_D+*
X99575000Y-120300000D03*
D12*
G04 #@! TO.N,+5V*
G04 #@! TO.C,U1*
G36*
X100123722Y-120970674D02*
X100137313Y-120972690D01*
X100150640Y-120976028D01*
X100163576Y-120980657D01*
X100175996Y-120986531D01*
X100187780Y-120993594D01*
X100198815Y-121001779D01*
X100208995Y-121011005D01*
X100218221Y-121021185D01*
X100226406Y-121032220D01*
X100233469Y-121044004D01*
X100239343Y-121056424D01*
X100243972Y-121069360D01*
X100247310Y-121082687D01*
X100249326Y-121096278D01*
X100250000Y-121110000D01*
X100250000Y-121390000D01*
X100249326Y-121403722D01*
X100247310Y-121417313D01*
X100243972Y-121430640D01*
X100239343Y-121443576D01*
X100233469Y-121455996D01*
X100226406Y-121467780D01*
X100218221Y-121478815D01*
X100208995Y-121488995D01*
X100198815Y-121498221D01*
X100187780Y-121506406D01*
X100175996Y-121513469D01*
X100163576Y-121519343D01*
X100150640Y-121523972D01*
X100137313Y-121527310D01*
X100123722Y-121529326D01*
X100110000Y-121530000D01*
X99040000Y-121530000D01*
X99026278Y-121529326D01*
X99012687Y-121527310D01*
X98999360Y-121523972D01*
X98986424Y-121519343D01*
X98974004Y-121513469D01*
X98962220Y-121506406D01*
X98951185Y-121498221D01*
X98941005Y-121488995D01*
X98931779Y-121478815D01*
X98923594Y-121467780D01*
X98916531Y-121455996D01*
X98910657Y-121443576D01*
X98906028Y-121430640D01*
X98902690Y-121417313D01*
X98900674Y-121403722D01*
X98900000Y-121390000D01*
X98900000Y-121110000D01*
X98900674Y-121096278D01*
X98902690Y-121082687D01*
X98906028Y-121069360D01*
X98910657Y-121056424D01*
X98916531Y-121044004D01*
X98923594Y-121032220D01*
X98931779Y-121021185D01*
X98941005Y-121011005D01*
X98951185Y-121001779D01*
X98962220Y-120993594D01*
X98974004Y-120986531D01*
X98986424Y-120980657D01*
X98999360Y-120976028D01*
X99012687Y-120972690D01*
X99026278Y-120970674D01*
X99040000Y-120970000D01*
X100110000Y-120970000D01*
X100123722Y-120970674D01*
X100123722Y-120970674D01*
G37*
D32*
G04 #@! TD*
G04 #@! TO.P,U1,5*
G04 #@! TO.N,+5V*
X99575000Y-121250000D03*
D12*
G04 #@! TO.N,USB_D-*
G04 #@! TO.C,U1*
G36*
X100123722Y-121920674D02*
X100137313Y-121922690D01*
X100150640Y-121926028D01*
X100163576Y-121930657D01*
X100175996Y-121936531D01*
X100187780Y-121943594D01*
X100198815Y-121951779D01*
X100208995Y-121961005D01*
X100218221Y-121971185D01*
X100226406Y-121982220D01*
X100233469Y-121994004D01*
X100239343Y-122006424D01*
X100243972Y-122019360D01*
X100247310Y-122032687D01*
X100249326Y-122046278D01*
X100250000Y-122060000D01*
X100250000Y-122340000D01*
X100249326Y-122353722D01*
X100247310Y-122367313D01*
X100243972Y-122380640D01*
X100239343Y-122393576D01*
X100233469Y-122405996D01*
X100226406Y-122417780D01*
X100218221Y-122428815D01*
X100208995Y-122438995D01*
X100198815Y-122448221D01*
X100187780Y-122456406D01*
X100175996Y-122463469D01*
X100163576Y-122469343D01*
X100150640Y-122473972D01*
X100137313Y-122477310D01*
X100123722Y-122479326D01*
X100110000Y-122480000D01*
X99040000Y-122480000D01*
X99026278Y-122479326D01*
X99012687Y-122477310D01*
X98999360Y-122473972D01*
X98986424Y-122469343D01*
X98974004Y-122463469D01*
X98962220Y-122456406D01*
X98951185Y-122448221D01*
X98941005Y-122438995D01*
X98931779Y-122428815D01*
X98923594Y-122417780D01*
X98916531Y-122405996D01*
X98910657Y-122393576D01*
X98906028Y-122380640D01*
X98902690Y-122367313D01*
X98900674Y-122353722D01*
X98900000Y-122340000D01*
X98900000Y-122060000D01*
X98900674Y-122046278D01*
X98902690Y-122032687D01*
X98906028Y-122019360D01*
X98910657Y-122006424D01*
X98916531Y-121994004D01*
X98923594Y-121982220D01*
X98931779Y-121971185D01*
X98941005Y-121961005D01*
X98951185Y-121951779D01*
X98962220Y-121943594D01*
X98974004Y-121936531D01*
X98986424Y-121930657D01*
X98999360Y-121926028D01*
X99012687Y-121922690D01*
X99026278Y-121920674D01*
X99040000Y-121920000D01*
X100110000Y-121920000D01*
X100123722Y-121920674D01*
X100123722Y-121920674D01*
G37*
D32*
G04 #@! TD*
G04 #@! TO.P,U1,6*
G04 #@! TO.N,USB_D-*
X99575000Y-122200000D03*
D12*
G04 #@! TO.N,+5V*
G04 #@! TO.C,U3*
G36*
X92126272Y-127675554D02*
X92137435Y-127677210D01*
X92148383Y-127679952D01*
X92159009Y-127683754D01*
X92169211Y-127688579D01*
X92178891Y-127694381D01*
X92187955Y-127701104D01*
X92196317Y-127708683D01*
X92203896Y-127717045D01*
X92210619Y-127726109D01*
X92216421Y-127735789D01*
X92221246Y-127745991D01*
X92225048Y-127756617D01*
X92227790Y-127767565D01*
X92229446Y-127778728D01*
X92230000Y-127790000D01*
X92230000Y-128710000D01*
X92229446Y-128721272D01*
X92227790Y-128732435D01*
X92225048Y-128743383D01*
X92221246Y-128754009D01*
X92216421Y-128764211D01*
X92210619Y-128773891D01*
X92203896Y-128782955D01*
X92196317Y-128791317D01*
X92187955Y-128798896D01*
X92178891Y-128805619D01*
X92169211Y-128811421D01*
X92159009Y-128816246D01*
X92148383Y-128820048D01*
X92137435Y-128822790D01*
X92126272Y-128824446D01*
X92115000Y-128825000D01*
X91885000Y-128825000D01*
X91873728Y-128824446D01*
X91862565Y-128822790D01*
X91851617Y-128820048D01*
X91840991Y-128816246D01*
X91830789Y-128811421D01*
X91821109Y-128805619D01*
X91812045Y-128798896D01*
X91803683Y-128791317D01*
X91796104Y-128782955D01*
X91789381Y-128773891D01*
X91783579Y-128764211D01*
X91778754Y-128754009D01*
X91774952Y-128743383D01*
X91772210Y-128732435D01*
X91770554Y-128721272D01*
X91770000Y-128710000D01*
X91770000Y-127790000D01*
X91770554Y-127778728D01*
X91772210Y-127767565D01*
X91774952Y-127756617D01*
X91778754Y-127745991D01*
X91783579Y-127735789D01*
X91789381Y-127726109D01*
X91796104Y-127717045D01*
X91803683Y-127708683D01*
X91812045Y-127701104D01*
X91821109Y-127694381D01*
X91830789Y-127688579D01*
X91840991Y-127683754D01*
X91851617Y-127679952D01*
X91862565Y-127677210D01*
X91873728Y-127675554D01*
X91885000Y-127675000D01*
X92115000Y-127675000D01*
X92126272Y-127675554D01*
X92126272Y-127675554D01*
G37*
D33*
G04 #@! TD*
G04 #@! TO.P,U3,1*
G04 #@! TO.N,+5V*
X92000000Y-128250000D03*
D12*
G04 #@! TO.N,GND*
G04 #@! TO.C,U3*
G36*
X93076272Y-127675554D02*
X93087435Y-127677210D01*
X93098383Y-127679952D01*
X93109009Y-127683754D01*
X93119211Y-127688579D01*
X93128891Y-127694381D01*
X93137955Y-127701104D01*
X93146317Y-127708683D01*
X93153896Y-127717045D01*
X93160619Y-127726109D01*
X93166421Y-127735789D01*
X93171246Y-127745991D01*
X93175048Y-127756617D01*
X93177790Y-127767565D01*
X93179446Y-127778728D01*
X93180000Y-127790000D01*
X93180000Y-128710000D01*
X93179446Y-128721272D01*
X93177790Y-128732435D01*
X93175048Y-128743383D01*
X93171246Y-128754009D01*
X93166421Y-128764211D01*
X93160619Y-128773891D01*
X93153896Y-128782955D01*
X93146317Y-128791317D01*
X93137955Y-128798896D01*
X93128891Y-128805619D01*
X93119211Y-128811421D01*
X93109009Y-128816246D01*
X93098383Y-128820048D01*
X93087435Y-128822790D01*
X93076272Y-128824446D01*
X93065000Y-128825000D01*
X92835000Y-128825000D01*
X92823728Y-128824446D01*
X92812565Y-128822790D01*
X92801617Y-128820048D01*
X92790991Y-128816246D01*
X92780789Y-128811421D01*
X92771109Y-128805619D01*
X92762045Y-128798896D01*
X92753683Y-128791317D01*
X92746104Y-128782955D01*
X92739381Y-128773891D01*
X92733579Y-128764211D01*
X92728754Y-128754009D01*
X92724952Y-128743383D01*
X92722210Y-128732435D01*
X92720554Y-128721272D01*
X92720000Y-128710000D01*
X92720000Y-127790000D01*
X92720554Y-127778728D01*
X92722210Y-127767565D01*
X92724952Y-127756617D01*
X92728754Y-127745991D01*
X92733579Y-127735789D01*
X92739381Y-127726109D01*
X92746104Y-127717045D01*
X92753683Y-127708683D01*
X92762045Y-127701104D01*
X92771109Y-127694381D01*
X92780789Y-127688579D01*
X92790991Y-127683754D01*
X92801617Y-127679952D01*
X92812565Y-127677210D01*
X92823728Y-127675554D01*
X92835000Y-127675000D01*
X93065000Y-127675000D01*
X93076272Y-127675554D01*
X93076272Y-127675554D01*
G37*
D33*
G04 #@! TD*
G04 #@! TO.P,U3,2*
G04 #@! TO.N,GND*
X92950000Y-128250000D03*
D12*
G04 #@! TO.N,+5V*
G04 #@! TO.C,U3*
G36*
X94026272Y-127675554D02*
X94037435Y-127677210D01*
X94048383Y-127679952D01*
X94059009Y-127683754D01*
X94069211Y-127688579D01*
X94078891Y-127694381D01*
X94087955Y-127701104D01*
X94096317Y-127708683D01*
X94103896Y-127717045D01*
X94110619Y-127726109D01*
X94116421Y-127735789D01*
X94121246Y-127745991D01*
X94125048Y-127756617D01*
X94127790Y-127767565D01*
X94129446Y-127778728D01*
X94130000Y-127790000D01*
X94130000Y-128710000D01*
X94129446Y-128721272D01*
X94127790Y-128732435D01*
X94125048Y-128743383D01*
X94121246Y-128754009D01*
X94116421Y-128764211D01*
X94110619Y-128773891D01*
X94103896Y-128782955D01*
X94096317Y-128791317D01*
X94087955Y-128798896D01*
X94078891Y-128805619D01*
X94069211Y-128811421D01*
X94059009Y-128816246D01*
X94048383Y-128820048D01*
X94037435Y-128822790D01*
X94026272Y-128824446D01*
X94015000Y-128825000D01*
X93785000Y-128825000D01*
X93773728Y-128824446D01*
X93762565Y-128822790D01*
X93751617Y-128820048D01*
X93740991Y-128816246D01*
X93730789Y-128811421D01*
X93721109Y-128805619D01*
X93712045Y-128798896D01*
X93703683Y-128791317D01*
X93696104Y-128782955D01*
X93689381Y-128773891D01*
X93683579Y-128764211D01*
X93678754Y-128754009D01*
X93674952Y-128743383D01*
X93672210Y-128732435D01*
X93670554Y-128721272D01*
X93670000Y-128710000D01*
X93670000Y-127790000D01*
X93670554Y-127778728D01*
X93672210Y-127767565D01*
X93674952Y-127756617D01*
X93678754Y-127745991D01*
X93683579Y-127735789D01*
X93689381Y-127726109D01*
X93696104Y-127717045D01*
X93703683Y-127708683D01*
X93712045Y-127701104D01*
X93721109Y-127694381D01*
X93730789Y-127688579D01*
X93740991Y-127683754D01*
X93751617Y-127679952D01*
X93762565Y-127677210D01*
X93773728Y-127675554D01*
X93785000Y-127675000D01*
X94015000Y-127675000D01*
X94026272Y-127675554D01*
X94026272Y-127675554D01*
G37*
D33*
G04 #@! TD*
G04 #@! TO.P,U3,3*
G04 #@! TO.N,+5V*
X93900000Y-128250000D03*
D12*
G04 #@! TO.N,Net-(U3-Pad4)*
G04 #@! TO.C,U3*
G36*
X94026272Y-125175554D02*
X94037435Y-125177210D01*
X94048383Y-125179952D01*
X94059009Y-125183754D01*
X94069211Y-125188579D01*
X94078891Y-125194381D01*
X94087955Y-125201104D01*
X94096317Y-125208683D01*
X94103896Y-125217045D01*
X94110619Y-125226109D01*
X94116421Y-125235789D01*
X94121246Y-125245991D01*
X94125048Y-125256617D01*
X94127790Y-125267565D01*
X94129446Y-125278728D01*
X94130000Y-125290000D01*
X94130000Y-126210000D01*
X94129446Y-126221272D01*
X94127790Y-126232435D01*
X94125048Y-126243383D01*
X94121246Y-126254009D01*
X94116421Y-126264211D01*
X94110619Y-126273891D01*
X94103896Y-126282955D01*
X94096317Y-126291317D01*
X94087955Y-126298896D01*
X94078891Y-126305619D01*
X94069211Y-126311421D01*
X94059009Y-126316246D01*
X94048383Y-126320048D01*
X94037435Y-126322790D01*
X94026272Y-126324446D01*
X94015000Y-126325000D01*
X93785000Y-126325000D01*
X93773728Y-126324446D01*
X93762565Y-126322790D01*
X93751617Y-126320048D01*
X93740991Y-126316246D01*
X93730789Y-126311421D01*
X93721109Y-126305619D01*
X93712045Y-126298896D01*
X93703683Y-126291317D01*
X93696104Y-126282955D01*
X93689381Y-126273891D01*
X93683579Y-126264211D01*
X93678754Y-126254009D01*
X93674952Y-126243383D01*
X93672210Y-126232435D01*
X93670554Y-126221272D01*
X93670000Y-126210000D01*
X93670000Y-125290000D01*
X93670554Y-125278728D01*
X93672210Y-125267565D01*
X93674952Y-125256617D01*
X93678754Y-125245991D01*
X93683579Y-125235789D01*
X93689381Y-125226109D01*
X93696104Y-125217045D01*
X93703683Y-125208683D01*
X93712045Y-125201104D01*
X93721109Y-125194381D01*
X93730789Y-125188579D01*
X93740991Y-125183754D01*
X93751617Y-125179952D01*
X93762565Y-125177210D01*
X93773728Y-125175554D01*
X93785000Y-125175000D01*
X94015000Y-125175000D01*
X94026272Y-125175554D01*
X94026272Y-125175554D01*
G37*
D33*
G04 #@! TD*
G04 #@! TO.P,U3,4*
G04 #@! TO.N,Net-(U3-Pad4)*
X93900000Y-125750000D03*
D12*
G04 #@! TO.N,+3.3V*
G04 #@! TO.C,U3*
G36*
X92126272Y-125175554D02*
X92137435Y-125177210D01*
X92148383Y-125179952D01*
X92159009Y-125183754D01*
X92169211Y-125188579D01*
X92178891Y-125194381D01*
X92187955Y-125201104D01*
X92196317Y-125208683D01*
X92203896Y-125217045D01*
X92210619Y-125226109D01*
X92216421Y-125235789D01*
X92221246Y-125245991D01*
X92225048Y-125256617D01*
X92227790Y-125267565D01*
X92229446Y-125278728D01*
X92230000Y-125290000D01*
X92230000Y-126210000D01*
X92229446Y-126221272D01*
X92227790Y-126232435D01*
X92225048Y-126243383D01*
X92221246Y-126254009D01*
X92216421Y-126264211D01*
X92210619Y-126273891D01*
X92203896Y-126282955D01*
X92196317Y-126291317D01*
X92187955Y-126298896D01*
X92178891Y-126305619D01*
X92169211Y-126311421D01*
X92159009Y-126316246D01*
X92148383Y-126320048D01*
X92137435Y-126322790D01*
X92126272Y-126324446D01*
X92115000Y-126325000D01*
X91885000Y-126325000D01*
X91873728Y-126324446D01*
X91862565Y-126322790D01*
X91851617Y-126320048D01*
X91840991Y-126316246D01*
X91830789Y-126311421D01*
X91821109Y-126305619D01*
X91812045Y-126298896D01*
X91803683Y-126291317D01*
X91796104Y-126282955D01*
X91789381Y-126273891D01*
X91783579Y-126264211D01*
X91778754Y-126254009D01*
X91774952Y-126243383D01*
X91772210Y-126232435D01*
X91770554Y-126221272D01*
X91770000Y-126210000D01*
X91770000Y-125290000D01*
X91770554Y-125278728D01*
X91772210Y-125267565D01*
X91774952Y-125256617D01*
X91778754Y-125245991D01*
X91783579Y-125235789D01*
X91789381Y-125226109D01*
X91796104Y-125217045D01*
X91803683Y-125208683D01*
X91812045Y-125201104D01*
X91821109Y-125194381D01*
X91830789Y-125188579D01*
X91840991Y-125183754D01*
X91851617Y-125179952D01*
X91862565Y-125177210D01*
X91873728Y-125175554D01*
X91885000Y-125175000D01*
X92115000Y-125175000D01*
X92126272Y-125175554D01*
X92126272Y-125175554D01*
G37*
D33*
G04 #@! TD*
G04 #@! TO.P,U3,5*
G04 #@! TO.N,+3.3V*
X92000000Y-125750000D03*
D10*
G04 #@! TO.P,U4,2*
G04 #@! TO.N,LED_DATA*
X94400000Y-98150000D03*
D11*
G04 #@! TO.P,U4,3*
G04 #@! TO.N,LED_CLK*
X93500000Y-98150000D03*
D10*
G04 #@! TO.P,U4,4*
G04 #@! TO.N,GND*
X92600000Y-98150000D03*
G04 #@! TO.P,U4,5*
G04 #@! TO.N,+3.3V*
X92600000Y-99850000D03*
D11*
G04 #@! TO.P,U4,6*
G04 #@! TO.N,Net-(U4-Pad6)*
X93500000Y-99850000D03*
D10*
G04 #@! TO.P,U4,1*
G04 #@! TO.N,Net-(U4-Pad1)*
X94400000Y-99850000D03*
G04 #@! TD*
D34*
G04 #@! TO.N,PHOTO_TRANS*
X100500000Y-102174990D03*
X106000000Y-94500000D03*
X102362653Y-103537347D03*
X106525010Y-101400000D03*
G04 #@! TO.N,GND*
X103250000Y-121250000D03*
X105000000Y-121000000D03*
X93200000Y-107500000D03*
X95625000Y-107400000D03*
X94275000Y-103700000D03*
X92200010Y-114500000D03*
X93204075Y-96504075D03*
X97947653Y-97722347D03*
X94900000Y-124600000D03*
X93000000Y-127000000D03*
X97100160Y-103625160D03*
X107000000Y-105600000D03*
X108700000Y-98900000D03*
X100800000Y-104499994D03*
X105400000Y-80400000D03*
G04 #@! TO.N,+3.3V*
X93500000Y-105500000D03*
X96500000Y-105500000D03*
X92600000Y-118600000D03*
X99500000Y-105500000D03*
X96987347Y-98812653D03*
X91500000Y-121500000D03*
X92200000Y-101200000D03*
X104200000Y-101200000D03*
G04 #@! TO.N,STATUS_CAPTURE*
X96700000Y-99975000D03*
G04 #@! TO.N,STATUS_TRIGGER*
X97600089Y-100700141D03*
G04 #@! TO.N,EXTERNAL_TRIG*
X105612653Y-98725000D03*
X105229846Y-103742538D03*
G04 #@! TO.N,~RESET*
X98000000Y-95800000D03*
X106200000Y-103500000D03*
G04 #@! TO.N,LED_DATA*
X95912664Y-99012655D03*
X96517724Y-101497468D03*
G04 #@! TO.N,LED_CLK*
X95800000Y-102700000D03*
X96100000Y-97950009D03*
G04 #@! TO.N,Net-(U4-Pad6)*
X93200000Y-114400000D03*
X93499994Y-101321030D03*
G04 #@! TO.N,Net-(U4-Pad1)*
X92399982Y-113300000D03*
X92299970Y-102199938D03*
G04 #@! TD*
D35*
G04 #@! TO.N,PHOTO_TRANS*
X100670000Y-102004990D02*
X100500000Y-102174990D01*
X100670000Y-100605000D02*
X100670000Y-102004990D01*
X105300000Y-101400000D02*
X105900000Y-101400000D01*
X105900000Y-101400000D02*
X106525010Y-101400000D01*
X104600000Y-102100000D02*
X105300000Y-101400000D01*
X102362653Y-103537347D02*
X103800000Y-102100000D01*
X103800000Y-102100000D02*
X104600000Y-102100000D01*
X102900000Y-77300000D02*
X103825000Y-77300000D01*
X101270000Y-77800000D02*
X102400000Y-77800000D01*
X102400000Y-77800000D02*
X102900000Y-77300000D01*
X103825000Y-77300000D02*
X103825000Y-78900000D01*
X106000000Y-94500000D02*
X106000000Y-92800000D01*
X100600000Y-81100000D02*
X102800000Y-78900000D01*
X106000000Y-92800000D02*
X102800000Y-89600000D01*
X102800000Y-89600000D02*
X102800000Y-85400000D01*
X100600000Y-83200000D02*
X100600000Y-81100000D01*
X102800000Y-78900000D02*
X103825000Y-78900000D01*
X102800000Y-85400000D02*
X100600000Y-83200000D01*
G04 #@! TO.N,GND*
X101925000Y-121250000D02*
X103250000Y-121250000D01*
D36*
X104500000Y-121500000D02*
X105000000Y-121000000D01*
X105228787Y-123390309D02*
X104500000Y-122661522D01*
X104500000Y-122661522D02*
X104500000Y-121500000D01*
D35*
X92850000Y-106500000D02*
X92850000Y-107150000D01*
X92850000Y-107150000D02*
X93200000Y-107500000D01*
X95850000Y-106500000D02*
X95850000Y-107175000D01*
X95850000Y-107175000D02*
X95625000Y-107400000D01*
X94150000Y-104600000D02*
X94150000Y-103825000D01*
X94150000Y-103825000D02*
X94275000Y-103700000D01*
X92600000Y-115650000D02*
X92600000Y-114899990D01*
X92600000Y-114899990D02*
X92200010Y-114500000D01*
X92600000Y-97108150D02*
X93204075Y-96504075D01*
X93808150Y-95900000D02*
X93204075Y-96504075D01*
X94225000Y-95900000D02*
X93808150Y-95900000D01*
X99035000Y-97970000D02*
X98195306Y-97970000D01*
X98195306Y-97970000D02*
X97947653Y-97722347D01*
D36*
X94900000Y-123500000D02*
X94900000Y-124600000D01*
X93825000Y-123250000D02*
X94650000Y-123250000D01*
X94650000Y-123250000D02*
X94900000Y-123500000D01*
D35*
X92950000Y-128250000D02*
X92950000Y-127050000D01*
X92950000Y-127050000D02*
X93000000Y-127000000D01*
D36*
X95600000Y-124600000D02*
X94900000Y-124600000D01*
X96000000Y-126125000D02*
X96000000Y-125000000D01*
X96000000Y-125000000D02*
X95600000Y-124600000D01*
D35*
X92600000Y-97108150D02*
X92600000Y-98150000D01*
X97150000Y-103675000D02*
X97100160Y-103625160D01*
X97150000Y-104600000D02*
X97150000Y-103675000D01*
X106875000Y-98925000D02*
X107500000Y-98925000D01*
X103805000Y-99470000D02*
X106330000Y-99470000D01*
X106330000Y-99470000D02*
X106875000Y-98925000D01*
X108750000Y-105700000D02*
X107100000Y-105700000D01*
X107100000Y-105700000D02*
X107000000Y-105600000D01*
X108675000Y-98925000D02*
X108700000Y-98900000D01*
X107500000Y-98925000D02*
X108675000Y-98925000D01*
X100749994Y-104550000D02*
X100800000Y-104499994D01*
X100150000Y-104550000D02*
X100749994Y-104550000D01*
X105375000Y-77300000D02*
X105375000Y-78900000D01*
X105375000Y-78900000D02*
X105375000Y-80375000D01*
X105375000Y-80375000D02*
X105400000Y-80400000D01*
D37*
G04 #@! TO.N,+3.3V*
X92000000Y-123325000D02*
X92075000Y-123250000D01*
X92000000Y-125750000D02*
X92000000Y-123325000D01*
D35*
X93500000Y-105500000D02*
X93500000Y-104600000D01*
X93500000Y-106500000D02*
X93500000Y-105500000D01*
X96500000Y-105500000D02*
X96500000Y-104600000D01*
X96500000Y-106500000D02*
X96500000Y-105500000D01*
X92600000Y-117350000D02*
X92600000Y-118600000D01*
X99500000Y-104550000D02*
X99500000Y-105500000D01*
X99035000Y-98970000D02*
X97144694Y-98970000D01*
X97144694Y-98970000D02*
X96987347Y-98812653D01*
D37*
X92075000Y-123250000D02*
X92075000Y-122075000D01*
X92075000Y-122075000D02*
X91500000Y-121500000D01*
D35*
X92599999Y-100800001D02*
X92200000Y-101200000D01*
X92600000Y-100500000D02*
X92600000Y-99850000D01*
X92599999Y-100800001D02*
X92600000Y-100500000D01*
X106775000Y-100475000D02*
X107500000Y-100475000D01*
X106270000Y-99970000D02*
X106775000Y-100475000D01*
D36*
X100065685Y-105500000D02*
X99500000Y-105500000D01*
X100165685Y-105600000D02*
X100065685Y-105500000D01*
X103640000Y-105600000D02*
X100165685Y-105600000D01*
X103950000Y-104700000D02*
X103950000Y-105290000D01*
X103950000Y-105290000D02*
X103640000Y-105600000D01*
D35*
X104800000Y-99970000D02*
X106270000Y-99970000D01*
X103805000Y-99970000D02*
X104800000Y-99970000D01*
D36*
X107500000Y-101600000D02*
X107500000Y-101035000D01*
X107500000Y-101035000D02*
X107500000Y-100475000D01*
X103950000Y-104700000D02*
X103950000Y-103650000D01*
X106600000Y-102500000D02*
X107500000Y-101600000D01*
X105100000Y-102500000D02*
X106600000Y-102500000D01*
X103950000Y-103650000D02*
X105100000Y-102500000D01*
D35*
X104300000Y-101200000D02*
X104200000Y-101200000D01*
X104800000Y-99970000D02*
X104800000Y-100700000D01*
X104800000Y-100700000D02*
X104300000Y-101200000D01*
G04 #@! TO.N,Net-(C3-Pad2)*
X96600000Y-95900000D02*
X95775000Y-95900000D01*
X97000000Y-97800000D02*
X97000000Y-96300000D01*
X99035000Y-98470000D02*
X97670000Y-98470000D01*
X97000000Y-96300000D02*
X96600000Y-95900000D01*
X97670000Y-98470000D02*
X97000000Y-97800000D01*
D38*
G04 #@! TO.N,+5V*
X96875000Y-127875000D02*
X96000000Y-127875000D01*
D36*
X92000000Y-128250000D02*
X92000000Y-129000000D01*
X92000000Y-129000000D02*
X92300000Y-129300000D01*
X96000000Y-129100000D02*
X96000000Y-127875000D01*
X95800000Y-129300000D02*
X96000000Y-129100000D01*
D35*
X93900000Y-128250000D02*
X93900000Y-129300000D01*
D36*
X92300000Y-129300000D02*
X93900000Y-129300000D01*
X93900000Y-129300000D02*
X95800000Y-129300000D01*
D38*
X96975000Y-127875000D02*
X96000000Y-127875000D01*
X99200000Y-128485000D02*
X97585000Y-128485000D01*
X97585000Y-128485000D02*
X96975000Y-127875000D01*
D35*
X100750000Y-123000000D02*
X100250000Y-123500000D01*
X97300000Y-127550000D02*
X96975000Y-127875000D01*
X97300000Y-123900000D02*
X97300000Y-127550000D01*
X97700000Y-123500000D02*
X97300000Y-123900000D01*
X99575000Y-121250000D02*
X100500000Y-121250000D01*
X100500000Y-121250000D02*
X100750000Y-121500000D01*
X100750000Y-121500000D02*
X100750000Y-123000000D01*
X100250000Y-123500000D02*
X97700000Y-123500000D01*
X96700000Y-123300000D02*
X97300000Y-123900000D01*
X96000000Y-123300000D02*
X96700000Y-123300000D01*
G04 #@! TO.N,UART_TX*
X95850000Y-105175000D02*
X95850000Y-104600000D01*
X94900000Y-106125000D02*
X95850000Y-105175000D01*
X94900000Y-108100000D02*
X94900000Y-106125000D01*
X94500000Y-109400000D02*
X94500000Y-108500000D01*
X94500000Y-108500000D02*
X94900000Y-108100000D01*
X96800000Y-102900000D02*
X100900000Y-102900000D01*
X102670000Y-101130000D02*
X102670000Y-100605000D01*
X95850000Y-104600000D02*
X95850000Y-103850000D01*
X100900000Y-102900000D02*
X102670000Y-101130000D01*
X95850000Y-103850000D02*
X96800000Y-102900000D01*
G04 #@! TO.N,STATUS_CAPTURE*
X92850000Y-105175000D02*
X92850000Y-104600000D01*
X92100000Y-107700000D02*
X92100000Y-105925000D01*
X92900000Y-109400000D02*
X92900000Y-108500000D01*
X92100000Y-105925000D02*
X92850000Y-105175000D01*
X92900000Y-108500000D02*
X92100000Y-107700000D01*
X97830000Y-99470000D02*
X99035000Y-99470000D01*
X97325000Y-99975000D02*
X96700000Y-99975000D01*
X97830000Y-99470000D02*
X97325000Y-99975000D01*
X94900000Y-101800000D02*
X92850000Y-103850000D01*
X94900000Y-101100000D02*
X94900000Y-101800000D01*
X96700000Y-99975000D02*
X96025000Y-99975000D01*
X92850000Y-103850000D02*
X92850000Y-104600000D01*
X96025000Y-99975000D02*
X94900000Y-101100000D01*
G04 #@! TO.N,STATUS_TRIGGER*
X94150000Y-107750000D02*
X94150000Y-106500000D01*
X93700000Y-109400000D02*
X93700000Y-108200000D01*
X93700000Y-108200000D02*
X94150000Y-107750000D01*
X94150000Y-105925000D02*
X94150000Y-106500000D01*
X95000000Y-102336410D02*
X95000000Y-105075000D01*
X95400000Y-101936410D02*
X95000000Y-102336410D01*
X99035000Y-99970000D02*
X99005000Y-100000000D01*
X96100000Y-100700000D02*
X95400000Y-101400000D01*
X95000000Y-105075000D02*
X94150000Y-105925000D01*
X95400000Y-101400000D02*
X95400000Y-101936410D01*
X97600000Y-100700052D02*
X97600089Y-100700141D01*
X97600000Y-100700000D02*
X97600000Y-100700052D01*
X97600089Y-100700141D02*
X96100000Y-100700000D01*
X98330230Y-99970000D02*
X97600089Y-100700141D01*
X99035000Y-99970000D02*
X98330230Y-99970000D01*
G04 #@! TO.N,EXTERNAL_TRIG*
X99225000Y-117925000D02*
X99225000Y-118500000D01*
X100150000Y-107104545D02*
X99754545Y-107500000D01*
X100150000Y-106450000D02*
X100150000Y-107104545D01*
X98800000Y-107900000D02*
X98800000Y-117500000D01*
X99754545Y-107500000D02*
X99200000Y-107500000D01*
X99200000Y-107500000D02*
X98800000Y-107900000D01*
X98800000Y-117500000D02*
X99225000Y-117925000D01*
X103805000Y-98970000D02*
X105367653Y-98970000D01*
X105367653Y-98970000D02*
X105612653Y-98725000D01*
X100950000Y-106100000D02*
X104500000Y-106100000D01*
X105229846Y-105370154D02*
X105229846Y-104308223D01*
X104500000Y-106100000D02*
X105229846Y-105370154D01*
X100600000Y-106450000D02*
X100950000Y-106100000D01*
X105229846Y-104308223D02*
X105229846Y-103742538D01*
X100150000Y-106450000D02*
X100600000Y-106450000D01*
G04 #@! TO.N,UART_RX*
X97150000Y-106950000D02*
X97150000Y-106500000D01*
X95300000Y-109400000D02*
X95300000Y-108800000D01*
X95300000Y-108800000D02*
X97150000Y-106950000D01*
X97150000Y-105850000D02*
X97150000Y-106500000D01*
X97800000Y-105200000D02*
X97150000Y-105850000D01*
X103170000Y-100605000D02*
X103170000Y-101356998D01*
X97800000Y-103900000D02*
X97800000Y-105200000D01*
X101126998Y-103400000D02*
X98300000Y-103400000D01*
X98300000Y-103400000D02*
X97800000Y-103900000D01*
X103170000Y-101356998D02*
X101126998Y-103400000D01*
X102400000Y-104600000D02*
X102400000Y-104700000D01*
X101126998Y-103400000D02*
X101200000Y-103400000D01*
X101200000Y-103400000D02*
X102400000Y-104600000D01*
D36*
G04 #@! TO.N,Net-(F1-Pad2)*
X103390309Y-125228787D02*
X102411522Y-124250000D01*
X102411522Y-124250000D02*
X99500000Y-124250000D01*
X99200000Y-124550000D02*
X99200000Y-125515000D01*
X99500000Y-124250000D02*
X99200000Y-124550000D01*
D35*
G04 #@! TO.N,Net-(Q1-PadC)*
X98730000Y-84770000D02*
X98730000Y-77800000D01*
X95800000Y-93700000D02*
X97100000Y-92400000D01*
X97100000Y-86400000D02*
X98730000Y-84770000D01*
X93780746Y-93700000D02*
X95800000Y-93700000D01*
X97100000Y-92400000D02*
X97100000Y-86400000D01*
X96000000Y-121100000D02*
X95700000Y-120800000D01*
X96000000Y-121750000D02*
X96000000Y-121100000D01*
X92180746Y-120800000D02*
X90600000Y-119219254D01*
X90600000Y-119219254D02*
X90600000Y-96880746D01*
X95700000Y-120800000D02*
X92180746Y-120800000D01*
X90600000Y-96880746D02*
X93780746Y-93700000D01*
G04 #@! TO.N,STATUS_USER*
X106910000Y-97175000D02*
X107500000Y-97175000D01*
X103805000Y-97970000D02*
X104630000Y-97970000D01*
X105425000Y-97175000D02*
X106910000Y-97175000D01*
X104630000Y-97970000D02*
X105425000Y-97175000D01*
G04 #@! TO.N,SWITCH_TRIG*
X102540000Y-84040000D02*
X102540000Y-82320000D01*
X103400000Y-84900000D02*
X102540000Y-84040000D01*
X103400000Y-89300000D02*
X103400000Y-84900000D01*
X104830000Y-98470000D02*
X105300000Y-98000000D01*
X105300000Y-98000000D02*
X108300000Y-98000000D01*
X103805000Y-98470000D02*
X104830000Y-98470000D01*
X108300000Y-98000000D02*
X108500000Y-97800000D01*
X108500000Y-97800000D02*
X108500000Y-94400000D01*
X108500000Y-94400000D02*
X103400000Y-89300000D01*
G04 #@! TO.N,~RESET*
X98000000Y-96700000D02*
X98000000Y-96365685D01*
X99035000Y-96970000D02*
X98270000Y-96970000D01*
X98000000Y-96365685D02*
X98000000Y-95800000D01*
X98270000Y-96970000D02*
X98000000Y-96700000D01*
X106765685Y-103500000D02*
X106200000Y-103500000D01*
X108400000Y-103500000D02*
X106765685Y-103500000D01*
X108750000Y-102300000D02*
X108750000Y-103150000D01*
X108750000Y-103150000D02*
X108400000Y-103500000D01*
D39*
G04 #@! TO.N,USB_D+*
X100195000Y-95113200D02*
X100195000Y-95810000D01*
X99906800Y-94825000D02*
X100195000Y-95113200D01*
X93893200Y-94825000D02*
X99906800Y-94825000D01*
X91500000Y-118881800D02*
X91500000Y-97218200D01*
X96593200Y-119875000D02*
X92493200Y-119875000D01*
X100195000Y-95810000D02*
X100170000Y-95835000D01*
X97743200Y-121025000D02*
X96593200Y-119875000D01*
X92493200Y-119875000D02*
X91500000Y-118881800D01*
X91500000Y-97218200D02*
X93893200Y-94825000D01*
X98800000Y-120300000D02*
X98075000Y-121025000D01*
X98075000Y-121025000D02*
X97743200Y-121025000D01*
X99575000Y-120300000D02*
X98800000Y-120300000D01*
G04 #@! TO.N,USB_D-*
X100645000Y-95810000D02*
X100670000Y-95835000D01*
X100645000Y-94926800D02*
X100645000Y-95810000D01*
X100093200Y-94375000D02*
X100645000Y-94926800D01*
X91100000Y-96981800D02*
X93706800Y-94375000D01*
X91100000Y-119118200D02*
X91100000Y-96981800D01*
X98800000Y-122200000D02*
X98075000Y-121475000D01*
X93706800Y-94375000D02*
X100093200Y-94375000D01*
X99575000Y-122200000D02*
X98800000Y-122200000D01*
X98075000Y-121475000D02*
X97556800Y-121475000D01*
X97556800Y-121475000D02*
X96406800Y-120325000D01*
X96406800Y-120325000D02*
X92306800Y-120325000D01*
X92306800Y-120325000D02*
X91100000Y-119118200D01*
D35*
G04 #@! TO.N,LED_DATA*
X95912664Y-98962664D02*
X95912664Y-99012655D01*
X94400000Y-97500000D02*
X94600000Y-97300000D01*
X94400000Y-98150000D02*
X94400000Y-97500000D01*
X94600000Y-97300000D02*
X95100000Y-97300000D01*
X95100000Y-97300000D02*
X95300000Y-97500000D01*
X95300000Y-97500000D02*
X95300000Y-98399991D01*
X95300000Y-98399991D02*
X95912664Y-99012655D01*
X99670000Y-100605000D02*
X99670000Y-101230000D01*
X97083409Y-101497468D02*
X96517724Y-101497468D01*
X99402532Y-101497468D02*
X97083409Y-101497468D01*
X99670000Y-101230000D02*
X99402532Y-101497468D01*
G04 #@! TO.N,LED_CLK*
X94150011Y-96849989D02*
X95565665Y-96849989D01*
X95565665Y-96849989D02*
X96100000Y-97384324D01*
X93500000Y-97500000D02*
X94150011Y-96849989D01*
X96100000Y-97384324D02*
X96100000Y-97950009D01*
X93500000Y-98150000D02*
X93500000Y-97500000D01*
X96100000Y-102400000D02*
X95800000Y-102700000D01*
X99200000Y-102400000D02*
X96100000Y-102400000D01*
X100170000Y-100605000D02*
X100170000Y-101430000D01*
X100170000Y-101430000D02*
X99200000Y-102400000D01*
G04 #@! TO.N,Net-(U4-Pad6)*
X93500000Y-115650000D02*
X93500000Y-114700000D01*
X93500000Y-114700000D02*
X93200000Y-114400000D01*
X93500000Y-101321024D02*
X93499994Y-101321030D01*
X93499994Y-99850006D02*
X93500000Y-99850000D01*
X93499994Y-101321030D02*
X93499994Y-99850006D01*
G04 #@! TO.N,Net-(U4-Pad1)*
X92965667Y-113300000D02*
X92399982Y-113300000D01*
X93400000Y-113300000D02*
X92965667Y-113300000D01*
X94400000Y-115650000D02*
X94400000Y-114300000D01*
X94400000Y-114300000D02*
X93400000Y-113300000D01*
X94400000Y-101573004D02*
X94400000Y-99850000D01*
X92299970Y-102199938D02*
X93773066Y-102199938D01*
X93773066Y-102199938D02*
X94400000Y-101573004D01*
G04 #@! TO.N,Net-(J1-Pad3)*
X103550000Y-120300000D02*
X101925000Y-120300000D01*
X104000000Y-120750000D02*
X103550000Y-120300000D01*
X104000000Y-122250000D02*
X104000000Y-120750000D01*
X103750000Y-122500000D02*
X104000000Y-122250000D01*
X104309548Y-124309548D02*
X103750000Y-123750000D01*
X103750000Y-123750000D02*
X103750000Y-122500000D01*
G04 #@! TO.N,Net-(J1-Pad2)*
X103250000Y-124169238D02*
X103849929Y-124769167D01*
X103250000Y-122500000D02*
X103250000Y-124169238D01*
X101925000Y-122200000D02*
X102950000Y-122200000D01*
X102950000Y-122200000D02*
X103250000Y-122500000D01*
G04 #@! TO.N,Net-(R4-Pad1)*
X101070000Y-94600000D02*
X99551999Y-93081999D01*
X99551999Y-93081999D02*
X98790000Y-92320000D01*
X104200000Y-94600000D02*
X101070000Y-94600000D01*
X107500000Y-95625000D02*
X105225000Y-95625000D01*
X105225000Y-95625000D02*
X104200000Y-94600000D01*
G04 #@! TO.N,Net-(J2-Pad1)*
X95300000Y-111100000D02*
X95300000Y-111800000D01*
X95300000Y-111800000D02*
X95500000Y-112000000D01*
X95500000Y-112000000D02*
X95800000Y-112000000D01*
X95800000Y-112000000D02*
X96100000Y-111700000D01*
X96400000Y-109000000D02*
X97500000Y-109000000D01*
X96100000Y-109300000D02*
X96400000Y-109000000D01*
X96100000Y-111700000D02*
X96100000Y-109300000D01*
G04 #@! TO.N,Net-(J2-Pad2)*
X96650001Y-112389999D02*
X97500000Y-111540000D01*
X96340000Y-112700000D02*
X96650001Y-112389999D01*
X95300000Y-112700000D02*
X96340000Y-112700000D01*
X94500000Y-111100000D02*
X94500000Y-111900000D01*
X94500000Y-111900000D02*
X95300000Y-112700000D01*
G04 #@! TO.N,Net-(J2-Pad5)*
X100775000Y-117355000D02*
X100040000Y-116620000D01*
X100775000Y-118500000D02*
X100775000Y-117355000D01*
G04 #@! TO.N,Net-(J2-Pad3)*
X97480000Y-114100000D02*
X97500000Y-114080000D01*
X93700000Y-111100000D02*
X93700000Y-111900000D01*
X95900000Y-114100000D02*
X97480000Y-114100000D01*
X93700000Y-111900000D02*
X95900000Y-114100000D01*
G04 #@! TO.N,Net-(J2-Pad4)*
X97500000Y-116600000D02*
X97500000Y-116620000D01*
X92900000Y-111100000D02*
X92900000Y-112000000D01*
X92900000Y-112000000D02*
X97500000Y-116600000D01*
G04 #@! TD*
M02*
