G04 #@! TF.GenerationSoftware,KiCad,Pcbnew,5.0.1*
G04 #@! TF.CreationDate,2019-03-28T22:54:33+10:30*
G04 #@! TF.ProjectId,reflex,7265666C65782E6B696361645F706362,rev?*
G04 #@! TF.SameCoordinates,Original*
G04 #@! TF.FileFunction,Soldermask,Top*
G04 #@! TF.FilePolarity,Negative*
%FSLAX46Y46*%
G04 Gerber Fmt 4.6, Leading zero omitted, Abs format (unit mm)*
G04 Created by KiCad (PCBNEW 5.0.1) date Thu 28 Mar 2019 22:54:33 ACDT*
%MOMM*%
%LPD*%
G01*
G04 APERTURE LIST*
%ADD10C,0.100000*%
G04 APERTURE END LIST*
D10*
G36*
X107693055Y-123095446D02*
X107711997Y-123110992D01*
X107733608Y-123122543D01*
X107757057Y-123129656D01*
X107781443Y-123132058D01*
X107805829Y-123129656D01*
X107829278Y-123122543D01*
X107850889Y-123110992D01*
X107869825Y-123095451D01*
X108416071Y-122549205D01*
X109831699Y-123964833D01*
X107040748Y-126755784D01*
X105625120Y-125340156D01*
X106528096Y-124437180D01*
X106577947Y-124387330D01*
X106593493Y-124368388D01*
X106605044Y-124346777D01*
X106612157Y-124323328D01*
X106614559Y-124298942D01*
X106612157Y-124274556D01*
X106605044Y-124251107D01*
X106593493Y-124229496D01*
X106577947Y-124210554D01*
X106105599Y-123738206D01*
X106086657Y-123722660D01*
X106065046Y-123711109D01*
X106041597Y-123703996D01*
X106017211Y-123701594D01*
X105992825Y-123703996D01*
X105969376Y-123711109D01*
X105947765Y-123722660D01*
X105928823Y-123738206D01*
X103738206Y-125928823D01*
X103722660Y-125947765D01*
X103711109Y-125969376D01*
X103703996Y-125992825D01*
X103701594Y-126017211D01*
X103703996Y-126041597D01*
X103711109Y-126065046D01*
X103722660Y-126086657D01*
X103738206Y-126105599D01*
X104210554Y-126577947D01*
X104229496Y-126593493D01*
X104251107Y-126605044D01*
X104274556Y-126612157D01*
X104298942Y-126614559D01*
X104323328Y-126612157D01*
X104346777Y-126605044D01*
X104368388Y-126593493D01*
X104387355Y-126577922D01*
X104389097Y-126576179D01*
X105340156Y-125625120D01*
X106755784Y-127040748D01*
X103964833Y-129831699D01*
X102549205Y-128416071D01*
X103095451Y-127869825D01*
X103110992Y-127850889D01*
X103122543Y-127829279D01*
X103129656Y-127805829D01*
X103132058Y-127781443D01*
X103129656Y-127757057D01*
X103122543Y-127733608D01*
X103110992Y-127711997D01*
X103095446Y-127693055D01*
X101486777Y-126084386D01*
X106084386Y-121486777D01*
X107693055Y-123095446D01*
X107693055Y-123095446D01*
G37*
G36*
X100448217Y-127849550D02*
X100496499Y-127864197D01*
X100540999Y-127887983D01*
X100580006Y-127919994D01*
X100612017Y-127959001D01*
X100635803Y-128003501D01*
X100650450Y-128051783D01*
X100656000Y-128108140D01*
X100656000Y-128861860D01*
X100650450Y-128918217D01*
X100635803Y-128966499D01*
X100612017Y-129010999D01*
X100580006Y-129050006D01*
X100540999Y-129082017D01*
X100496499Y-129105803D01*
X100448217Y-129120450D01*
X100391860Y-129126000D01*
X98008140Y-129126000D01*
X97951783Y-129120450D01*
X97903501Y-129105803D01*
X97859001Y-129082017D01*
X97819994Y-129050006D01*
X97787983Y-129010999D01*
X97764197Y-128966499D01*
X97749550Y-128918217D01*
X97744000Y-128861860D01*
X97744000Y-128108140D01*
X97749550Y-128051783D01*
X97764197Y-128003501D01*
X97787983Y-127959001D01*
X97819994Y-127919994D01*
X97859001Y-127887983D01*
X97903501Y-127864197D01*
X97951783Y-127849550D01*
X98008140Y-127844000D01*
X100391860Y-127844000D01*
X100448217Y-127849550D01*
X100448217Y-127849550D01*
G37*
G36*
X94118102Y-127626093D02*
X94132616Y-127630495D01*
X94146000Y-127637649D01*
X94157727Y-127647273D01*
X94167351Y-127659000D01*
X94174505Y-127672384D01*
X94178907Y-127686898D01*
X94181000Y-127708142D01*
X94181000Y-128791858D01*
X94178907Y-128813102D01*
X94174505Y-128827616D01*
X94167351Y-128841000D01*
X94157727Y-128852727D01*
X94146000Y-128862351D01*
X94132616Y-128869505D01*
X94118102Y-128873907D01*
X94096858Y-128876000D01*
X93703142Y-128876000D01*
X93681898Y-128873907D01*
X93667384Y-128869505D01*
X93654000Y-128862351D01*
X93642273Y-128852727D01*
X93632649Y-128841000D01*
X93625495Y-128827616D01*
X93621093Y-128813102D01*
X93619000Y-128791858D01*
X93619000Y-127708142D01*
X93621093Y-127686898D01*
X93625495Y-127672384D01*
X93632649Y-127659000D01*
X93642273Y-127647273D01*
X93654000Y-127637649D01*
X93667384Y-127630495D01*
X93681898Y-127626093D01*
X93703142Y-127624000D01*
X94096858Y-127624000D01*
X94118102Y-127626093D01*
X94118102Y-127626093D01*
G37*
G36*
X93168102Y-127626093D02*
X93182616Y-127630495D01*
X93196000Y-127637649D01*
X93207727Y-127647273D01*
X93217351Y-127659000D01*
X93224505Y-127672384D01*
X93228907Y-127686898D01*
X93231000Y-127708142D01*
X93231000Y-128791858D01*
X93228907Y-128813102D01*
X93224505Y-128827616D01*
X93217351Y-128841000D01*
X93207727Y-128852727D01*
X93196000Y-128862351D01*
X93182616Y-128869505D01*
X93168102Y-128873907D01*
X93146858Y-128876000D01*
X92753142Y-128876000D01*
X92731898Y-128873907D01*
X92717384Y-128869505D01*
X92704000Y-128862351D01*
X92692273Y-128852727D01*
X92682649Y-128841000D01*
X92675495Y-128827616D01*
X92671093Y-128813102D01*
X92669000Y-128791858D01*
X92669000Y-127708142D01*
X92671093Y-127686898D01*
X92675495Y-127672384D01*
X92682649Y-127659000D01*
X92692273Y-127647273D01*
X92704000Y-127637649D01*
X92717384Y-127630495D01*
X92731898Y-127626093D01*
X92753142Y-127624000D01*
X93146858Y-127624000D01*
X93168102Y-127626093D01*
X93168102Y-127626093D01*
G37*
G36*
X92218102Y-127626093D02*
X92232616Y-127630495D01*
X92246000Y-127637649D01*
X92257727Y-127647273D01*
X92267351Y-127659000D01*
X92274505Y-127672384D01*
X92278907Y-127686898D01*
X92281000Y-127708142D01*
X92281000Y-128791858D01*
X92278907Y-128813102D01*
X92274505Y-128827616D01*
X92267351Y-128841000D01*
X92257727Y-128852727D01*
X92246000Y-128862351D01*
X92232616Y-128869505D01*
X92218102Y-128873907D01*
X92196858Y-128876000D01*
X91803142Y-128876000D01*
X91781898Y-128873907D01*
X91767384Y-128869505D01*
X91754000Y-128862351D01*
X91742273Y-128852727D01*
X91732649Y-128841000D01*
X91725495Y-128827616D01*
X91721093Y-128813102D01*
X91719000Y-128791858D01*
X91719000Y-127708142D01*
X91721093Y-127686898D01*
X91725495Y-127672384D01*
X91732649Y-127659000D01*
X91742273Y-127647273D01*
X91754000Y-127637649D01*
X91767384Y-127630495D01*
X91781898Y-127626093D01*
X91803142Y-127624000D01*
X92196858Y-127624000D01*
X92218102Y-127626093D01*
X92218102Y-127626093D01*
G37*
G36*
X96582239Y-127249454D02*
X96629587Y-127263818D01*
X96673223Y-127287140D01*
X96711470Y-127318530D01*
X96742860Y-127356777D01*
X96766182Y-127400413D01*
X96780546Y-127447761D01*
X96786000Y-127503140D01*
X96786000Y-128246860D01*
X96780546Y-128302239D01*
X96766182Y-128349587D01*
X96742860Y-128393223D01*
X96711470Y-128431470D01*
X96673223Y-128462860D01*
X96629587Y-128486182D01*
X96582239Y-128500546D01*
X96526860Y-128506000D01*
X95473140Y-128506000D01*
X95417761Y-128500546D01*
X95370413Y-128486182D01*
X95326777Y-128462860D01*
X95288530Y-128431470D01*
X95257140Y-128393223D01*
X95233818Y-128349587D01*
X95219454Y-128302239D01*
X95214000Y-128246860D01*
X95214000Y-127503140D01*
X95219454Y-127447761D01*
X95233818Y-127400413D01*
X95257140Y-127356777D01*
X95288530Y-127318530D01*
X95326777Y-127287140D01*
X95370413Y-127263818D01*
X95417761Y-127249454D01*
X95473140Y-127244000D01*
X96526860Y-127244000D01*
X96582239Y-127249454D01*
X96582239Y-127249454D01*
G37*
G36*
X96582239Y-125499454D02*
X96629587Y-125513818D01*
X96673223Y-125537140D01*
X96711470Y-125568530D01*
X96742860Y-125606777D01*
X96766182Y-125650413D01*
X96780546Y-125697761D01*
X96786000Y-125753140D01*
X96786000Y-126496860D01*
X96780546Y-126552239D01*
X96766182Y-126599587D01*
X96742860Y-126643223D01*
X96711470Y-126681470D01*
X96673223Y-126712860D01*
X96629587Y-126736182D01*
X96582239Y-126750546D01*
X96526860Y-126756000D01*
X95473140Y-126756000D01*
X95417761Y-126750546D01*
X95370413Y-126736182D01*
X95326777Y-126712860D01*
X95288530Y-126681470D01*
X95257140Y-126643223D01*
X95233818Y-126599587D01*
X95219454Y-126552239D01*
X95214000Y-126496860D01*
X95214000Y-125753140D01*
X95219454Y-125697761D01*
X95233818Y-125650413D01*
X95257140Y-125606777D01*
X95288530Y-125568530D01*
X95326777Y-125537140D01*
X95370413Y-125513818D01*
X95417761Y-125499454D01*
X95473140Y-125494000D01*
X96526860Y-125494000D01*
X96582239Y-125499454D01*
X96582239Y-125499454D01*
G37*
G36*
X92218102Y-125126093D02*
X92232616Y-125130495D01*
X92246000Y-125137649D01*
X92257727Y-125147273D01*
X92267351Y-125159000D01*
X92274505Y-125172384D01*
X92278907Y-125186898D01*
X92281000Y-125208142D01*
X92281000Y-126291858D01*
X92278907Y-126313102D01*
X92274505Y-126327616D01*
X92267351Y-126341000D01*
X92257727Y-126352727D01*
X92246000Y-126362351D01*
X92232616Y-126369505D01*
X92218102Y-126373907D01*
X92196858Y-126376000D01*
X91803142Y-126376000D01*
X91781898Y-126373907D01*
X91767384Y-126369505D01*
X91754000Y-126362351D01*
X91742273Y-126352727D01*
X91732649Y-126341000D01*
X91725495Y-126327616D01*
X91721093Y-126313102D01*
X91719000Y-126291858D01*
X91719000Y-125208142D01*
X91721093Y-125186898D01*
X91725495Y-125172384D01*
X91732649Y-125159000D01*
X91742273Y-125147273D01*
X91754000Y-125137649D01*
X91767384Y-125130495D01*
X91781898Y-125126093D01*
X91803142Y-125124000D01*
X92196858Y-125124000D01*
X92218102Y-125126093D01*
X92218102Y-125126093D01*
G37*
G36*
X94118102Y-125126093D02*
X94132616Y-125130495D01*
X94146000Y-125137649D01*
X94157727Y-125147273D01*
X94167351Y-125159000D01*
X94174505Y-125172384D01*
X94178907Y-125186898D01*
X94181000Y-125208142D01*
X94181000Y-126291858D01*
X94178907Y-126313102D01*
X94174505Y-126327616D01*
X94167351Y-126341000D01*
X94157727Y-126352727D01*
X94146000Y-126362351D01*
X94132616Y-126369505D01*
X94118102Y-126373907D01*
X94096858Y-126376000D01*
X93703142Y-126376000D01*
X93681898Y-126373907D01*
X93667384Y-126369505D01*
X93654000Y-126362351D01*
X93642273Y-126352727D01*
X93632649Y-126341000D01*
X93625495Y-126327616D01*
X93621093Y-126313102D01*
X93619000Y-126291858D01*
X93619000Y-125208142D01*
X93621093Y-125186898D01*
X93625495Y-125172384D01*
X93632649Y-125159000D01*
X93642273Y-125147273D01*
X93654000Y-125137649D01*
X93667384Y-125130495D01*
X93681898Y-125126093D01*
X93703142Y-125124000D01*
X94096858Y-125124000D01*
X94118102Y-125126093D01*
X94118102Y-125126093D01*
G37*
G36*
X100448217Y-124879550D02*
X100496499Y-124894197D01*
X100540999Y-124917983D01*
X100580006Y-124949994D01*
X100612017Y-124989001D01*
X100635803Y-125033501D01*
X100650450Y-125081783D01*
X100656000Y-125138140D01*
X100656000Y-125891860D01*
X100650450Y-125948217D01*
X100635803Y-125996499D01*
X100612017Y-126040999D01*
X100580006Y-126080006D01*
X100540999Y-126112017D01*
X100496499Y-126135803D01*
X100448217Y-126150450D01*
X100391860Y-126156000D01*
X98008140Y-126156000D01*
X97951783Y-126150450D01*
X97903501Y-126135803D01*
X97859001Y-126112017D01*
X97819994Y-126080006D01*
X97787983Y-126040999D01*
X97764197Y-125996499D01*
X97749550Y-125948217D01*
X97744000Y-125891860D01*
X97744000Y-125138140D01*
X97749550Y-125081783D01*
X97764197Y-125033501D01*
X97787983Y-124989001D01*
X97819994Y-124949994D01*
X97859001Y-124917983D01*
X97903501Y-124894197D01*
X97951783Y-124879550D01*
X98008140Y-124874000D01*
X100391860Y-124874000D01*
X100448217Y-124879550D01*
X100448217Y-124879550D01*
G37*
G36*
X94252239Y-122469454D02*
X94299587Y-122483818D01*
X94343223Y-122507140D01*
X94381470Y-122538530D01*
X94412860Y-122576777D01*
X94436182Y-122620413D01*
X94450546Y-122667761D01*
X94456000Y-122723140D01*
X94456000Y-123776860D01*
X94450546Y-123832239D01*
X94436182Y-123879587D01*
X94412860Y-123923223D01*
X94381470Y-123961470D01*
X94343223Y-123992860D01*
X94299587Y-124016182D01*
X94252239Y-124030546D01*
X94196860Y-124036000D01*
X93453140Y-124036000D01*
X93397761Y-124030546D01*
X93350413Y-124016182D01*
X93306777Y-123992860D01*
X93268530Y-123961470D01*
X93237140Y-123923223D01*
X93213818Y-123879587D01*
X93199454Y-123832239D01*
X93194000Y-123776860D01*
X93194000Y-122723140D01*
X93199454Y-122667761D01*
X93213818Y-122620413D01*
X93237140Y-122576777D01*
X93268530Y-122538530D01*
X93306777Y-122507140D01*
X93350413Y-122483818D01*
X93397761Y-122469454D01*
X93453140Y-122464000D01*
X94196860Y-122464000D01*
X94252239Y-122469454D01*
X94252239Y-122469454D01*
G37*
G36*
X92502239Y-122469454D02*
X92549587Y-122483818D01*
X92593223Y-122507140D01*
X92631470Y-122538530D01*
X92662860Y-122576777D01*
X92686182Y-122620413D01*
X92700546Y-122667761D01*
X92706000Y-122723140D01*
X92706000Y-123776860D01*
X92700546Y-123832239D01*
X92686182Y-123879587D01*
X92662860Y-123923223D01*
X92631470Y-123961470D01*
X92593223Y-123992860D01*
X92549587Y-124016182D01*
X92502239Y-124030546D01*
X92446860Y-124036000D01*
X91703140Y-124036000D01*
X91647761Y-124030546D01*
X91600413Y-124016182D01*
X91556777Y-123992860D01*
X91518530Y-123961470D01*
X91487140Y-123923223D01*
X91463818Y-123879587D01*
X91449454Y-123832239D01*
X91444000Y-123776860D01*
X91444000Y-122723140D01*
X91449454Y-122667761D01*
X91463818Y-122620413D01*
X91487140Y-122576777D01*
X91518530Y-122538530D01*
X91556777Y-122507140D01*
X91600413Y-122483818D01*
X91647761Y-122469454D01*
X91703140Y-122464000D01*
X92446860Y-122464000D01*
X92502239Y-122469454D01*
X92502239Y-122469454D01*
G37*
G36*
X96399617Y-122827965D02*
X96432430Y-122837918D01*
X96462667Y-122854080D01*
X96489170Y-122875830D01*
X96510920Y-122902333D01*
X96527082Y-122932570D01*
X96537035Y-122965383D01*
X96541000Y-123005640D01*
X96541000Y-123594360D01*
X96537035Y-123634617D01*
X96527082Y-123667430D01*
X96510920Y-123697667D01*
X96489170Y-123724170D01*
X96462667Y-123745920D01*
X96432430Y-123762082D01*
X96399617Y-123772035D01*
X96359360Y-123776000D01*
X95640640Y-123776000D01*
X95600383Y-123772035D01*
X95567570Y-123762082D01*
X95537333Y-123745920D01*
X95510830Y-123724170D01*
X95489080Y-123697667D01*
X95472918Y-123667430D01*
X95462965Y-123634617D01*
X95459000Y-123594360D01*
X95459000Y-123005640D01*
X95462965Y-122965383D01*
X95472918Y-122932570D01*
X95489080Y-122902333D01*
X95510830Y-122875830D01*
X95537333Y-122854080D01*
X95567570Y-122837918D01*
X95600383Y-122827965D01*
X95640640Y-122824000D01*
X96359360Y-122824000D01*
X96399617Y-122827965D01*
X96399617Y-122827965D01*
G37*
G36*
X100217977Y-121871572D02*
X100237187Y-121877399D01*
X100254884Y-121886859D01*
X100270404Y-121899596D01*
X100283141Y-121915116D01*
X100292601Y-121932813D01*
X100298428Y-121952023D01*
X100301000Y-121978140D01*
X100301000Y-122421860D01*
X100298428Y-122447977D01*
X100292601Y-122467187D01*
X100283141Y-122484884D01*
X100270404Y-122500404D01*
X100254884Y-122513141D01*
X100237187Y-122522601D01*
X100217977Y-122528428D01*
X100191860Y-122531000D01*
X98958140Y-122531000D01*
X98932023Y-122528428D01*
X98912813Y-122522601D01*
X98895116Y-122513141D01*
X98879596Y-122500404D01*
X98866859Y-122484884D01*
X98857399Y-122467187D01*
X98851572Y-122447977D01*
X98849000Y-122421860D01*
X98849000Y-121978140D01*
X98851572Y-121952023D01*
X98857399Y-121932813D01*
X98866859Y-121915116D01*
X98879596Y-121899596D01*
X98895116Y-121886859D01*
X98912813Y-121877399D01*
X98932023Y-121871572D01*
X98958140Y-121869000D01*
X100191860Y-121869000D01*
X100217977Y-121871572D01*
X100217977Y-121871572D01*
G37*
G36*
X102567977Y-121871572D02*
X102587187Y-121877399D01*
X102604884Y-121886859D01*
X102620404Y-121899596D01*
X102633141Y-121915116D01*
X102642601Y-121932813D01*
X102648428Y-121952023D01*
X102651000Y-121978140D01*
X102651000Y-122421860D01*
X102648428Y-122447977D01*
X102642601Y-122467187D01*
X102633141Y-122484884D01*
X102620404Y-122500404D01*
X102604884Y-122513141D01*
X102587187Y-122522601D01*
X102567977Y-122528428D01*
X102541860Y-122531000D01*
X101308140Y-122531000D01*
X101282023Y-122528428D01*
X101262813Y-122522601D01*
X101245116Y-122513141D01*
X101229596Y-122500404D01*
X101216859Y-122484884D01*
X101207399Y-122467187D01*
X101201572Y-122447977D01*
X101199000Y-122421860D01*
X101199000Y-121978140D01*
X101201572Y-121952023D01*
X101207399Y-121932813D01*
X101216859Y-121915116D01*
X101229596Y-121899596D01*
X101245116Y-121886859D01*
X101262813Y-121877399D01*
X101282023Y-121871572D01*
X101308140Y-121869000D01*
X102541860Y-121869000D01*
X102567977Y-121871572D01*
X102567977Y-121871572D01*
G37*
G36*
X96399617Y-121277965D02*
X96432430Y-121287918D01*
X96462667Y-121304080D01*
X96489170Y-121325830D01*
X96510920Y-121352333D01*
X96527082Y-121382570D01*
X96537035Y-121415383D01*
X96541000Y-121455640D01*
X96541000Y-122044360D01*
X96537035Y-122084617D01*
X96527082Y-122117430D01*
X96510920Y-122147667D01*
X96489170Y-122174170D01*
X96462667Y-122195920D01*
X96432430Y-122212082D01*
X96399617Y-122222035D01*
X96359360Y-122226000D01*
X95640640Y-122226000D01*
X95600383Y-122222035D01*
X95567570Y-122212082D01*
X95537333Y-122195920D01*
X95510830Y-122174170D01*
X95489080Y-122147667D01*
X95472918Y-122117430D01*
X95462965Y-122084617D01*
X95459000Y-122044360D01*
X95459000Y-121455640D01*
X95462965Y-121415383D01*
X95472918Y-121382570D01*
X95489080Y-121352333D01*
X95510830Y-121325830D01*
X95537333Y-121304080D01*
X95567570Y-121287918D01*
X95600383Y-121277965D01*
X95640640Y-121274000D01*
X96359360Y-121274000D01*
X96399617Y-121277965D01*
X96399617Y-121277965D01*
G37*
G36*
X100217977Y-120921572D02*
X100237187Y-120927399D01*
X100254884Y-120936859D01*
X100270404Y-120949596D01*
X100283141Y-120965116D01*
X100292601Y-120982813D01*
X100298428Y-121002023D01*
X100301000Y-121028140D01*
X100301000Y-121471860D01*
X100298428Y-121497977D01*
X100292601Y-121517187D01*
X100283141Y-121534884D01*
X100270404Y-121550404D01*
X100254884Y-121563141D01*
X100237187Y-121572601D01*
X100217977Y-121578428D01*
X100191860Y-121581000D01*
X98958140Y-121581000D01*
X98932023Y-121578428D01*
X98912813Y-121572601D01*
X98895116Y-121563141D01*
X98879596Y-121550404D01*
X98866859Y-121534884D01*
X98857399Y-121517187D01*
X98851572Y-121497977D01*
X98849000Y-121471860D01*
X98849000Y-121028140D01*
X98851572Y-121002023D01*
X98857399Y-120982813D01*
X98866859Y-120965116D01*
X98879596Y-120949596D01*
X98895116Y-120936859D01*
X98912813Y-120927399D01*
X98932023Y-120921572D01*
X98958140Y-120919000D01*
X100191860Y-120919000D01*
X100217977Y-120921572D01*
X100217977Y-120921572D01*
G37*
G36*
X102567977Y-120921572D02*
X102587187Y-120927399D01*
X102604884Y-120936859D01*
X102620404Y-120949596D01*
X102633141Y-120965116D01*
X102642601Y-120982813D01*
X102648428Y-121002023D01*
X102651000Y-121028140D01*
X102651000Y-121471860D01*
X102648428Y-121497977D01*
X102642601Y-121517187D01*
X102633141Y-121534884D01*
X102620404Y-121550404D01*
X102604884Y-121563141D01*
X102587187Y-121572601D01*
X102567977Y-121578428D01*
X102541860Y-121581000D01*
X101308140Y-121581000D01*
X101282023Y-121578428D01*
X101262813Y-121572601D01*
X101245116Y-121563141D01*
X101229596Y-121550404D01*
X101216859Y-121534884D01*
X101207399Y-121517187D01*
X101201572Y-121497977D01*
X101199000Y-121471860D01*
X101199000Y-121028140D01*
X101201572Y-121002023D01*
X101207399Y-120982813D01*
X101216859Y-120965116D01*
X101229596Y-120949596D01*
X101245116Y-120936859D01*
X101262813Y-120927399D01*
X101282023Y-120921572D01*
X101308140Y-120919000D01*
X102541860Y-120919000D01*
X102567977Y-120921572D01*
X102567977Y-120921572D01*
G37*
G36*
X102567977Y-119971572D02*
X102587187Y-119977399D01*
X102604884Y-119986859D01*
X102620404Y-119999596D01*
X102633141Y-120015116D01*
X102642601Y-120032813D01*
X102648428Y-120052023D01*
X102651000Y-120078140D01*
X102651000Y-120521860D01*
X102648428Y-120547977D01*
X102642601Y-120567187D01*
X102633141Y-120584884D01*
X102620404Y-120600404D01*
X102604884Y-120613141D01*
X102587187Y-120622601D01*
X102567977Y-120628428D01*
X102541860Y-120631000D01*
X101308140Y-120631000D01*
X101282023Y-120628428D01*
X101262813Y-120622601D01*
X101245116Y-120613141D01*
X101229596Y-120600404D01*
X101216859Y-120584884D01*
X101207399Y-120567187D01*
X101201572Y-120547977D01*
X101199000Y-120521860D01*
X101199000Y-120078140D01*
X101201572Y-120052023D01*
X101207399Y-120032813D01*
X101216859Y-120015116D01*
X101229596Y-119999596D01*
X101245116Y-119986859D01*
X101262813Y-119977399D01*
X101282023Y-119971572D01*
X101308140Y-119969000D01*
X102541860Y-119969000D01*
X102567977Y-119971572D01*
X102567977Y-119971572D01*
G37*
G36*
X100217977Y-119971572D02*
X100237187Y-119977399D01*
X100254884Y-119986859D01*
X100270404Y-119999596D01*
X100283141Y-120015116D01*
X100292601Y-120032813D01*
X100298428Y-120052023D01*
X100301000Y-120078140D01*
X100301000Y-120521860D01*
X100298428Y-120547977D01*
X100292601Y-120567187D01*
X100283141Y-120584884D01*
X100270404Y-120600404D01*
X100254884Y-120613141D01*
X100237187Y-120622601D01*
X100217977Y-120628428D01*
X100191860Y-120631000D01*
X98958140Y-120631000D01*
X98932023Y-120628428D01*
X98912813Y-120622601D01*
X98895116Y-120613141D01*
X98879596Y-120600404D01*
X98866859Y-120584884D01*
X98857399Y-120567187D01*
X98851572Y-120547977D01*
X98849000Y-120521860D01*
X98849000Y-120078140D01*
X98851572Y-120052023D01*
X98857399Y-120032813D01*
X98866859Y-120015116D01*
X98879596Y-119999596D01*
X98895116Y-119986859D01*
X98912813Y-119977399D01*
X98932023Y-119971572D01*
X98958140Y-119969000D01*
X100191860Y-119969000D01*
X100217977Y-119971572D01*
X100217977Y-119971572D01*
G37*
G36*
X99559617Y-117962965D02*
X99592430Y-117972918D01*
X99622667Y-117989080D01*
X99649170Y-118010830D01*
X99670920Y-118037333D01*
X99687082Y-118067570D01*
X99697035Y-118100383D01*
X99701000Y-118140640D01*
X99701000Y-118859360D01*
X99697035Y-118899617D01*
X99687082Y-118932430D01*
X99670920Y-118962667D01*
X99649170Y-118989170D01*
X99622667Y-119010920D01*
X99592430Y-119027082D01*
X99559617Y-119037035D01*
X99519360Y-119041000D01*
X98930640Y-119041000D01*
X98890383Y-119037035D01*
X98857570Y-119027082D01*
X98827333Y-119010920D01*
X98800830Y-118989170D01*
X98779080Y-118962667D01*
X98762918Y-118932430D01*
X98752965Y-118899617D01*
X98749000Y-118859360D01*
X98749000Y-118140640D01*
X98752965Y-118100383D01*
X98762918Y-118067570D01*
X98779080Y-118037333D01*
X98800830Y-118010830D01*
X98827333Y-117989080D01*
X98857570Y-117972918D01*
X98890383Y-117962965D01*
X98930640Y-117959000D01*
X99519360Y-117959000D01*
X99559617Y-117962965D01*
X99559617Y-117962965D01*
G37*
G36*
X101109617Y-117962965D02*
X101142430Y-117972918D01*
X101172667Y-117989080D01*
X101199170Y-118010830D01*
X101220920Y-118037333D01*
X101237082Y-118067570D01*
X101247035Y-118100383D01*
X101251000Y-118140640D01*
X101251000Y-118859360D01*
X101247035Y-118899617D01*
X101237082Y-118932430D01*
X101220920Y-118962667D01*
X101199170Y-118989170D01*
X101172667Y-119010920D01*
X101142430Y-119027082D01*
X101109617Y-119037035D01*
X101069360Y-119041000D01*
X100480640Y-119041000D01*
X100440383Y-119037035D01*
X100407570Y-119027082D01*
X100377333Y-119010920D01*
X100350830Y-118989170D01*
X100329080Y-118962667D01*
X100312918Y-118932430D01*
X100302965Y-118899617D01*
X100299000Y-118859360D01*
X100299000Y-118140640D01*
X100302965Y-118100383D01*
X100312918Y-118067570D01*
X100329080Y-118037333D01*
X100350830Y-118010830D01*
X100377333Y-117989080D01*
X100407570Y-117972918D01*
X100440383Y-117962965D01*
X100480640Y-117959000D01*
X101069360Y-117959000D01*
X101109617Y-117962965D01*
X101109617Y-117962965D01*
G37*
G36*
X94701000Y-117801000D02*
X94099000Y-117801000D01*
X94099000Y-116899000D01*
X94701000Y-116899000D01*
X94701000Y-117801000D01*
X94701000Y-117801000D01*
G37*
G36*
X92901000Y-117801000D02*
X92299000Y-117801000D01*
X92299000Y-116899000D01*
X92901000Y-116899000D01*
X92901000Y-117801000D01*
X92901000Y-117801000D01*
G37*
G36*
X93701000Y-117801000D02*
X93299000Y-117801000D01*
X93299000Y-116899000D01*
X93701000Y-116899000D01*
X93701000Y-117801000D01*
X93701000Y-117801000D01*
G37*
G36*
X100150443Y-115725519D02*
X100216627Y-115732037D01*
X100329853Y-115766384D01*
X100386467Y-115783557D01*
X100525087Y-115857652D01*
X100542991Y-115867222D01*
X100578729Y-115896552D01*
X100680186Y-115979814D01*
X100763448Y-116081271D01*
X100792778Y-116117009D01*
X100792779Y-116117011D01*
X100876443Y-116273533D01*
X100876443Y-116273534D01*
X100927963Y-116443373D01*
X100945359Y-116620000D01*
X100927963Y-116796627D01*
X100893616Y-116909853D01*
X100876443Y-116966467D01*
X100802348Y-117105087D01*
X100792778Y-117122991D01*
X100763448Y-117158729D01*
X100680186Y-117260186D01*
X100578729Y-117343448D01*
X100542991Y-117372778D01*
X100542989Y-117372779D01*
X100386467Y-117456443D01*
X100329853Y-117473616D01*
X100216627Y-117507963D01*
X100150443Y-117514481D01*
X100084260Y-117521000D01*
X99995740Y-117521000D01*
X99929557Y-117514481D01*
X99863373Y-117507963D01*
X99750147Y-117473616D01*
X99693533Y-117456443D01*
X99537011Y-117372779D01*
X99537009Y-117372778D01*
X99501271Y-117343448D01*
X99399814Y-117260186D01*
X99316552Y-117158729D01*
X99287222Y-117122991D01*
X99277652Y-117105087D01*
X99203557Y-116966467D01*
X99186384Y-116909853D01*
X99152037Y-116796627D01*
X99134641Y-116620000D01*
X99152037Y-116443373D01*
X99203557Y-116273534D01*
X99203557Y-116273533D01*
X99287221Y-116117011D01*
X99287222Y-116117009D01*
X99316552Y-116081271D01*
X99399814Y-115979814D01*
X99501271Y-115896552D01*
X99537009Y-115867222D01*
X99554913Y-115857652D01*
X99693533Y-115783557D01*
X99750147Y-115766384D01*
X99863373Y-115732037D01*
X99929557Y-115725519D01*
X99995740Y-115719000D01*
X100084260Y-115719000D01*
X100150443Y-115725519D01*
X100150443Y-115725519D01*
G37*
G36*
X97610443Y-115725519D02*
X97676627Y-115732037D01*
X97789853Y-115766384D01*
X97846467Y-115783557D01*
X97985087Y-115857652D01*
X98002991Y-115867222D01*
X98038729Y-115896552D01*
X98140186Y-115979814D01*
X98223448Y-116081271D01*
X98252778Y-116117009D01*
X98252779Y-116117011D01*
X98336443Y-116273533D01*
X98336443Y-116273534D01*
X98387963Y-116443373D01*
X98405359Y-116620000D01*
X98387963Y-116796627D01*
X98353616Y-116909853D01*
X98336443Y-116966467D01*
X98262348Y-117105087D01*
X98252778Y-117122991D01*
X98223448Y-117158729D01*
X98140186Y-117260186D01*
X98038729Y-117343448D01*
X98002991Y-117372778D01*
X98002989Y-117372779D01*
X97846467Y-117456443D01*
X97789853Y-117473616D01*
X97676627Y-117507963D01*
X97610443Y-117514481D01*
X97544260Y-117521000D01*
X97455740Y-117521000D01*
X97389557Y-117514481D01*
X97323373Y-117507963D01*
X97210147Y-117473616D01*
X97153533Y-117456443D01*
X96997011Y-117372779D01*
X96997009Y-117372778D01*
X96961271Y-117343448D01*
X96859814Y-117260186D01*
X96776552Y-117158729D01*
X96747222Y-117122991D01*
X96737652Y-117105087D01*
X96663557Y-116966467D01*
X96646384Y-116909853D01*
X96612037Y-116796627D01*
X96594641Y-116620000D01*
X96612037Y-116443373D01*
X96663557Y-116273534D01*
X96663557Y-116273533D01*
X96747221Y-116117011D01*
X96747222Y-116117009D01*
X96776552Y-116081271D01*
X96859814Y-115979814D01*
X96961271Y-115896552D01*
X96997009Y-115867222D01*
X97014913Y-115857652D01*
X97153533Y-115783557D01*
X97210147Y-115766384D01*
X97323373Y-115732037D01*
X97389557Y-115725519D01*
X97455740Y-115719000D01*
X97544260Y-115719000D01*
X97610443Y-115725519D01*
X97610443Y-115725519D01*
G37*
G36*
X92901000Y-116101000D02*
X92299000Y-116101000D01*
X92299000Y-115199000D01*
X92901000Y-115199000D01*
X92901000Y-116101000D01*
X92901000Y-116101000D01*
G37*
G36*
X94701000Y-116101000D02*
X94099000Y-116101000D01*
X94099000Y-115199000D01*
X94701000Y-115199000D01*
X94701000Y-116101000D01*
X94701000Y-116101000D01*
G37*
G36*
X93701000Y-116101000D02*
X93299000Y-116101000D01*
X93299000Y-115199000D01*
X93701000Y-115199000D01*
X93701000Y-116101000D01*
X93701000Y-116101000D01*
G37*
G36*
X100150442Y-113185518D02*
X100216627Y-113192037D01*
X100329853Y-113226384D01*
X100386467Y-113243557D01*
X100525087Y-113317652D01*
X100542991Y-113327222D01*
X100578729Y-113356552D01*
X100680186Y-113439814D01*
X100763448Y-113541271D01*
X100792778Y-113577009D01*
X100792779Y-113577011D01*
X100876443Y-113733533D01*
X100876443Y-113733534D01*
X100927963Y-113903373D01*
X100945359Y-114080000D01*
X100927963Y-114256627D01*
X100893616Y-114369853D01*
X100876443Y-114426467D01*
X100802348Y-114565087D01*
X100792778Y-114582991D01*
X100763448Y-114618729D01*
X100680186Y-114720186D01*
X100578729Y-114803448D01*
X100542991Y-114832778D01*
X100542989Y-114832779D01*
X100386467Y-114916443D01*
X100329853Y-114933616D01*
X100216627Y-114967963D01*
X100150442Y-114974482D01*
X100084260Y-114981000D01*
X99995740Y-114981000D01*
X99929558Y-114974482D01*
X99863373Y-114967963D01*
X99750147Y-114933616D01*
X99693533Y-114916443D01*
X99537011Y-114832779D01*
X99537009Y-114832778D01*
X99501271Y-114803448D01*
X99399814Y-114720186D01*
X99316552Y-114618729D01*
X99287222Y-114582991D01*
X99277652Y-114565087D01*
X99203557Y-114426467D01*
X99186384Y-114369853D01*
X99152037Y-114256627D01*
X99134641Y-114080000D01*
X99152037Y-113903373D01*
X99203557Y-113733534D01*
X99203557Y-113733533D01*
X99287221Y-113577011D01*
X99287222Y-113577009D01*
X99316552Y-113541271D01*
X99399814Y-113439814D01*
X99501271Y-113356552D01*
X99537009Y-113327222D01*
X99554913Y-113317652D01*
X99693533Y-113243557D01*
X99750147Y-113226384D01*
X99863373Y-113192037D01*
X99929558Y-113185518D01*
X99995740Y-113179000D01*
X100084260Y-113179000D01*
X100150442Y-113185518D01*
X100150442Y-113185518D01*
G37*
G36*
X97610442Y-113185518D02*
X97676627Y-113192037D01*
X97789853Y-113226384D01*
X97846467Y-113243557D01*
X97985087Y-113317652D01*
X98002991Y-113327222D01*
X98038729Y-113356552D01*
X98140186Y-113439814D01*
X98223448Y-113541271D01*
X98252778Y-113577009D01*
X98252779Y-113577011D01*
X98336443Y-113733533D01*
X98336443Y-113733534D01*
X98387963Y-113903373D01*
X98405359Y-114080000D01*
X98387963Y-114256627D01*
X98353616Y-114369853D01*
X98336443Y-114426467D01*
X98262348Y-114565087D01*
X98252778Y-114582991D01*
X98223448Y-114618729D01*
X98140186Y-114720186D01*
X98038729Y-114803448D01*
X98002991Y-114832778D01*
X98002989Y-114832779D01*
X97846467Y-114916443D01*
X97789853Y-114933616D01*
X97676627Y-114967963D01*
X97610442Y-114974482D01*
X97544260Y-114981000D01*
X97455740Y-114981000D01*
X97389558Y-114974482D01*
X97323373Y-114967963D01*
X97210147Y-114933616D01*
X97153533Y-114916443D01*
X96997011Y-114832779D01*
X96997009Y-114832778D01*
X96961271Y-114803448D01*
X96859814Y-114720186D01*
X96776552Y-114618729D01*
X96747222Y-114582991D01*
X96737652Y-114565087D01*
X96663557Y-114426467D01*
X96646384Y-114369853D01*
X96612037Y-114256627D01*
X96594641Y-114080000D01*
X96612037Y-113903373D01*
X96663557Y-113733534D01*
X96663557Y-113733533D01*
X96747221Y-113577011D01*
X96747222Y-113577009D01*
X96776552Y-113541271D01*
X96859814Y-113439814D01*
X96961271Y-113356552D01*
X96997009Y-113327222D01*
X97014913Y-113317652D01*
X97153533Y-113243557D01*
X97210147Y-113226384D01*
X97323373Y-113192037D01*
X97389558Y-113185518D01*
X97455740Y-113179000D01*
X97544260Y-113179000D01*
X97610442Y-113185518D01*
X97610442Y-113185518D01*
G37*
G36*
X97610442Y-110645518D02*
X97676627Y-110652037D01*
X97789853Y-110686384D01*
X97846467Y-110703557D01*
X97985087Y-110777652D01*
X98002991Y-110787222D01*
X98038729Y-110816552D01*
X98140186Y-110899814D01*
X98223448Y-111001271D01*
X98252778Y-111037009D01*
X98252779Y-111037011D01*
X98336443Y-111193533D01*
X98336443Y-111193534D01*
X98387963Y-111363373D01*
X98405359Y-111540000D01*
X98387963Y-111716627D01*
X98353616Y-111829853D01*
X98336443Y-111886467D01*
X98262348Y-112025087D01*
X98252778Y-112042991D01*
X98223448Y-112078729D01*
X98140186Y-112180186D01*
X98038729Y-112263448D01*
X98002991Y-112292778D01*
X98002989Y-112292779D01*
X97846467Y-112376443D01*
X97789853Y-112393616D01*
X97676627Y-112427963D01*
X97610442Y-112434482D01*
X97544260Y-112441000D01*
X97455740Y-112441000D01*
X97389558Y-112434482D01*
X97323373Y-112427963D01*
X97210147Y-112393616D01*
X97153533Y-112376443D01*
X96997011Y-112292779D01*
X96997009Y-112292778D01*
X96961271Y-112263448D01*
X96859814Y-112180186D01*
X96776552Y-112078729D01*
X96747222Y-112042991D01*
X96737652Y-112025087D01*
X96663557Y-111886467D01*
X96646384Y-111829853D01*
X96612037Y-111716627D01*
X96594641Y-111540000D01*
X96612037Y-111363373D01*
X96663557Y-111193534D01*
X96663557Y-111193533D01*
X96747221Y-111037011D01*
X96747222Y-111037009D01*
X96776552Y-111001271D01*
X96859814Y-110899814D01*
X96961271Y-110816552D01*
X96997009Y-110787222D01*
X97014913Y-110777652D01*
X97153533Y-110703557D01*
X97210147Y-110686384D01*
X97323373Y-110652037D01*
X97389558Y-110645518D01*
X97455740Y-110639000D01*
X97544260Y-110639000D01*
X97610442Y-110645518D01*
X97610442Y-110645518D01*
G37*
G36*
X100150442Y-110645518D02*
X100216627Y-110652037D01*
X100329853Y-110686384D01*
X100386467Y-110703557D01*
X100525087Y-110777652D01*
X100542991Y-110787222D01*
X100578729Y-110816552D01*
X100680186Y-110899814D01*
X100763448Y-111001271D01*
X100792778Y-111037009D01*
X100792779Y-111037011D01*
X100876443Y-111193533D01*
X100876443Y-111193534D01*
X100927963Y-111363373D01*
X100945359Y-111540000D01*
X100927963Y-111716627D01*
X100893616Y-111829853D01*
X100876443Y-111886467D01*
X100802348Y-112025087D01*
X100792778Y-112042991D01*
X100763448Y-112078729D01*
X100680186Y-112180186D01*
X100578729Y-112263448D01*
X100542991Y-112292778D01*
X100542989Y-112292779D01*
X100386467Y-112376443D01*
X100329853Y-112393616D01*
X100216627Y-112427963D01*
X100150442Y-112434482D01*
X100084260Y-112441000D01*
X99995740Y-112441000D01*
X99929558Y-112434482D01*
X99863373Y-112427963D01*
X99750147Y-112393616D01*
X99693533Y-112376443D01*
X99537011Y-112292779D01*
X99537009Y-112292778D01*
X99501271Y-112263448D01*
X99399814Y-112180186D01*
X99316552Y-112078729D01*
X99287222Y-112042991D01*
X99277652Y-112025087D01*
X99203557Y-111886467D01*
X99186384Y-111829853D01*
X99152037Y-111716627D01*
X99134641Y-111540000D01*
X99152037Y-111363373D01*
X99203557Y-111193534D01*
X99203557Y-111193533D01*
X99287221Y-111037011D01*
X99287222Y-111037009D01*
X99316552Y-111001271D01*
X99399814Y-110899814D01*
X99501271Y-110816552D01*
X99537009Y-110787222D01*
X99554913Y-110777652D01*
X99693533Y-110703557D01*
X99750147Y-110686384D01*
X99863373Y-110652037D01*
X99929558Y-110645518D01*
X99995740Y-110639000D01*
X100084260Y-110639000D01*
X100150442Y-110645518D01*
X100150442Y-110645518D01*
G37*
G36*
X95500170Y-110600803D02*
X95511879Y-110604355D01*
X95522662Y-110610119D01*
X95532120Y-110617880D01*
X95539881Y-110627338D01*
X95545645Y-110638121D01*
X95549197Y-110649830D01*
X95551000Y-110668138D01*
X95551000Y-111531862D01*
X95549197Y-111550170D01*
X95545645Y-111561879D01*
X95539881Y-111572662D01*
X95532120Y-111582120D01*
X95522662Y-111589881D01*
X95511879Y-111595645D01*
X95500170Y-111599197D01*
X95481862Y-111601000D01*
X95118138Y-111601000D01*
X95099830Y-111599197D01*
X95088121Y-111595645D01*
X95077338Y-111589881D01*
X95067880Y-111582120D01*
X95060119Y-111572662D01*
X95054355Y-111561879D01*
X95050803Y-111550170D01*
X95049000Y-111531862D01*
X95049000Y-110668138D01*
X95050803Y-110649830D01*
X95054355Y-110638121D01*
X95060119Y-110627338D01*
X95067880Y-110617880D01*
X95077338Y-110610119D01*
X95088121Y-110604355D01*
X95099830Y-110600803D01*
X95118138Y-110599000D01*
X95481862Y-110599000D01*
X95500170Y-110600803D01*
X95500170Y-110600803D01*
G37*
G36*
X93100170Y-110600803D02*
X93111879Y-110604355D01*
X93122662Y-110610119D01*
X93132120Y-110617880D01*
X93139881Y-110627338D01*
X93145645Y-110638121D01*
X93149197Y-110649830D01*
X93151000Y-110668138D01*
X93151000Y-111531862D01*
X93149197Y-111550170D01*
X93145645Y-111561879D01*
X93139881Y-111572662D01*
X93132120Y-111582120D01*
X93122662Y-111589881D01*
X93111879Y-111595645D01*
X93100170Y-111599197D01*
X93081862Y-111601000D01*
X92718138Y-111601000D01*
X92699830Y-111599197D01*
X92688121Y-111595645D01*
X92677338Y-111589881D01*
X92667880Y-111582120D01*
X92660119Y-111572662D01*
X92654355Y-111561879D01*
X92650803Y-111550170D01*
X92649000Y-111531862D01*
X92649000Y-110668138D01*
X92650803Y-110649830D01*
X92654355Y-110638121D01*
X92660119Y-110627338D01*
X92667880Y-110617880D01*
X92677338Y-110610119D01*
X92688121Y-110604355D01*
X92699830Y-110600803D01*
X92718138Y-110599000D01*
X93081862Y-110599000D01*
X93100170Y-110600803D01*
X93100170Y-110600803D01*
G37*
G36*
X94700170Y-110600803D02*
X94711879Y-110604355D01*
X94722662Y-110610119D01*
X94732120Y-110617880D01*
X94739881Y-110627338D01*
X94745645Y-110638121D01*
X94749197Y-110649830D01*
X94751000Y-110668138D01*
X94751000Y-111531862D01*
X94749197Y-111550170D01*
X94745645Y-111561879D01*
X94739881Y-111572662D01*
X94732120Y-111582120D01*
X94722662Y-111589881D01*
X94711879Y-111595645D01*
X94700170Y-111599197D01*
X94681862Y-111601000D01*
X94318138Y-111601000D01*
X94299830Y-111599197D01*
X94288121Y-111595645D01*
X94277338Y-111589881D01*
X94267880Y-111582120D01*
X94260119Y-111572662D01*
X94254355Y-111561879D01*
X94250803Y-111550170D01*
X94249000Y-111531862D01*
X94249000Y-110668138D01*
X94250803Y-110649830D01*
X94254355Y-110638121D01*
X94260119Y-110627338D01*
X94267880Y-110617880D01*
X94277338Y-110610119D01*
X94288121Y-110604355D01*
X94299830Y-110600803D01*
X94318138Y-110599000D01*
X94681862Y-110599000D01*
X94700170Y-110600803D01*
X94700170Y-110600803D01*
G37*
G36*
X93900170Y-110600803D02*
X93911879Y-110604355D01*
X93922662Y-110610119D01*
X93932120Y-110617880D01*
X93939881Y-110627338D01*
X93945645Y-110638121D01*
X93949197Y-110649830D01*
X93951000Y-110668138D01*
X93951000Y-111531862D01*
X93949197Y-111550170D01*
X93945645Y-111561879D01*
X93939881Y-111572662D01*
X93932120Y-111582120D01*
X93922662Y-111589881D01*
X93911879Y-111595645D01*
X93900170Y-111599197D01*
X93881862Y-111601000D01*
X93518138Y-111601000D01*
X93499830Y-111599197D01*
X93488121Y-111595645D01*
X93477338Y-111589881D01*
X93467880Y-111582120D01*
X93460119Y-111572662D01*
X93454355Y-111561879D01*
X93450803Y-111550170D01*
X93449000Y-111531862D01*
X93449000Y-110668138D01*
X93450803Y-110649830D01*
X93454355Y-110638121D01*
X93460119Y-110627338D01*
X93467880Y-110617880D01*
X93477338Y-110610119D01*
X93488121Y-110604355D01*
X93499830Y-110600803D01*
X93518138Y-110599000D01*
X93881862Y-110599000D01*
X93900170Y-110600803D01*
X93900170Y-110600803D01*
G37*
G36*
X95500170Y-108900803D02*
X95511879Y-108904355D01*
X95522662Y-108910119D01*
X95532120Y-108917880D01*
X95539881Y-108927338D01*
X95545645Y-108938121D01*
X95549197Y-108949830D01*
X95551000Y-108968138D01*
X95551000Y-109831862D01*
X95549197Y-109850170D01*
X95545645Y-109861879D01*
X95539881Y-109872662D01*
X95532120Y-109882120D01*
X95522662Y-109889881D01*
X95511879Y-109895645D01*
X95500170Y-109899197D01*
X95481862Y-109901000D01*
X95118138Y-109901000D01*
X95099830Y-109899197D01*
X95088121Y-109895645D01*
X95077338Y-109889881D01*
X95067880Y-109882120D01*
X95060119Y-109872662D01*
X95054355Y-109861879D01*
X95050803Y-109850170D01*
X95049000Y-109831862D01*
X95049000Y-108968138D01*
X95050803Y-108949830D01*
X95054355Y-108938121D01*
X95060119Y-108927338D01*
X95067880Y-108917880D01*
X95077338Y-108910119D01*
X95088121Y-108904355D01*
X95099830Y-108900803D01*
X95118138Y-108899000D01*
X95481862Y-108899000D01*
X95500170Y-108900803D01*
X95500170Y-108900803D01*
G37*
G36*
X93100170Y-108900803D02*
X93111879Y-108904355D01*
X93122662Y-108910119D01*
X93132120Y-108917880D01*
X93139881Y-108927338D01*
X93145645Y-108938121D01*
X93149197Y-108949830D01*
X93151000Y-108968138D01*
X93151000Y-109831862D01*
X93149197Y-109850170D01*
X93145645Y-109861879D01*
X93139881Y-109872662D01*
X93132120Y-109882120D01*
X93122662Y-109889881D01*
X93111879Y-109895645D01*
X93100170Y-109899197D01*
X93081862Y-109901000D01*
X92718138Y-109901000D01*
X92699830Y-109899197D01*
X92688121Y-109895645D01*
X92677338Y-109889881D01*
X92667880Y-109882120D01*
X92660119Y-109872662D01*
X92654355Y-109861879D01*
X92650803Y-109850170D01*
X92649000Y-109831862D01*
X92649000Y-108968138D01*
X92650803Y-108949830D01*
X92654355Y-108938121D01*
X92660119Y-108927338D01*
X92667880Y-108917880D01*
X92677338Y-108910119D01*
X92688121Y-108904355D01*
X92699830Y-108900803D01*
X92718138Y-108899000D01*
X93081862Y-108899000D01*
X93100170Y-108900803D01*
X93100170Y-108900803D01*
G37*
G36*
X93900170Y-108900803D02*
X93911879Y-108904355D01*
X93922662Y-108910119D01*
X93932120Y-108917880D01*
X93939881Y-108927338D01*
X93945645Y-108938121D01*
X93949197Y-108949830D01*
X93951000Y-108968138D01*
X93951000Y-109831862D01*
X93949197Y-109850170D01*
X93945645Y-109861879D01*
X93939881Y-109872662D01*
X93932120Y-109882120D01*
X93922662Y-109889881D01*
X93911879Y-109895645D01*
X93900170Y-109899197D01*
X93881862Y-109901000D01*
X93518138Y-109901000D01*
X93499830Y-109899197D01*
X93488121Y-109895645D01*
X93477338Y-109889881D01*
X93467880Y-109882120D01*
X93460119Y-109872662D01*
X93454355Y-109861879D01*
X93450803Y-109850170D01*
X93449000Y-109831862D01*
X93449000Y-108968138D01*
X93450803Y-108949830D01*
X93454355Y-108938121D01*
X93460119Y-108927338D01*
X93467880Y-108917880D01*
X93477338Y-108910119D01*
X93488121Y-108904355D01*
X93499830Y-108900803D01*
X93518138Y-108899000D01*
X93881862Y-108899000D01*
X93900170Y-108900803D01*
X93900170Y-108900803D01*
G37*
G36*
X94700170Y-108900803D02*
X94711879Y-108904355D01*
X94722662Y-108910119D01*
X94732120Y-108917880D01*
X94739881Y-108927338D01*
X94745645Y-108938121D01*
X94749197Y-108949830D01*
X94751000Y-108968138D01*
X94751000Y-109831862D01*
X94749197Y-109850170D01*
X94745645Y-109861879D01*
X94739881Y-109872662D01*
X94732120Y-109882120D01*
X94722662Y-109889881D01*
X94711879Y-109895645D01*
X94700170Y-109899197D01*
X94681862Y-109901000D01*
X94318138Y-109901000D01*
X94299830Y-109899197D01*
X94288121Y-109895645D01*
X94277338Y-109889881D01*
X94267880Y-109882120D01*
X94260119Y-109872662D01*
X94254355Y-109861879D01*
X94250803Y-109850170D01*
X94249000Y-109831862D01*
X94249000Y-108968138D01*
X94250803Y-108949830D01*
X94254355Y-108938121D01*
X94260119Y-108927338D01*
X94267880Y-108917880D01*
X94277338Y-108910119D01*
X94288121Y-108904355D01*
X94299830Y-108900803D01*
X94318138Y-108899000D01*
X94681862Y-108899000D01*
X94700170Y-108900803D01*
X94700170Y-108900803D01*
G37*
G36*
X98401000Y-109901000D02*
X96599000Y-109901000D01*
X96599000Y-108099000D01*
X98401000Y-108099000D01*
X98401000Y-109901000D01*
X98401000Y-109901000D01*
G37*
G36*
X100150442Y-108105518D02*
X100216627Y-108112037D01*
X100329853Y-108146384D01*
X100386467Y-108163557D01*
X100525087Y-108237652D01*
X100542991Y-108247222D01*
X100578729Y-108276552D01*
X100680186Y-108359814D01*
X100763448Y-108461271D01*
X100792778Y-108497009D01*
X100792779Y-108497011D01*
X100876443Y-108653533D01*
X100876443Y-108653534D01*
X100927963Y-108823373D01*
X100945359Y-109000000D01*
X100927963Y-109176627D01*
X100893616Y-109289853D01*
X100876443Y-109346467D01*
X100802348Y-109485087D01*
X100792778Y-109502991D01*
X100763448Y-109538729D01*
X100680186Y-109640186D01*
X100578729Y-109723448D01*
X100542991Y-109752778D01*
X100542989Y-109752779D01*
X100386467Y-109836443D01*
X100357519Y-109845224D01*
X100216627Y-109887963D01*
X100150443Y-109894481D01*
X100084260Y-109901000D01*
X99995740Y-109901000D01*
X99929557Y-109894481D01*
X99863373Y-109887963D01*
X99722481Y-109845224D01*
X99693533Y-109836443D01*
X99537011Y-109752779D01*
X99537009Y-109752778D01*
X99501271Y-109723448D01*
X99399814Y-109640186D01*
X99316552Y-109538729D01*
X99287222Y-109502991D01*
X99277652Y-109485087D01*
X99203557Y-109346467D01*
X99186384Y-109289853D01*
X99152037Y-109176627D01*
X99134641Y-109000000D01*
X99152037Y-108823373D01*
X99203557Y-108653534D01*
X99203557Y-108653533D01*
X99287221Y-108497011D01*
X99287222Y-108497009D01*
X99316552Y-108461271D01*
X99399814Y-108359814D01*
X99501271Y-108276552D01*
X99537009Y-108247222D01*
X99554913Y-108237652D01*
X99693533Y-108163557D01*
X99750147Y-108146384D01*
X99863373Y-108112037D01*
X99929558Y-108105518D01*
X99995740Y-108099000D01*
X100084260Y-108099000D01*
X100150442Y-108105518D01*
X100150442Y-108105518D01*
G37*
G36*
X94401000Y-106876000D02*
X92599000Y-106876000D01*
X92599000Y-106124000D01*
X94401000Y-106124000D01*
X94401000Y-106876000D01*
X94401000Y-106876000D01*
G37*
G36*
X97401000Y-106876000D02*
X95599000Y-106876000D01*
X95599000Y-106124000D01*
X97401000Y-106124000D01*
X97401000Y-106876000D01*
X97401000Y-106876000D01*
G37*
G36*
X100401000Y-106826000D02*
X98599000Y-106826000D01*
X98599000Y-106074000D01*
X100401000Y-106074000D01*
X100401000Y-106826000D01*
X100401000Y-106826000D01*
G37*
G36*
X109519683Y-105252725D02*
X109550144Y-105261966D01*
X109578223Y-105276975D01*
X109602831Y-105297169D01*
X109623025Y-105321777D01*
X109638034Y-105349856D01*
X109647275Y-105380317D01*
X109651000Y-105418140D01*
X109651000Y-105981860D01*
X109647275Y-106019683D01*
X109638034Y-106050144D01*
X109623025Y-106078223D01*
X109602831Y-106102831D01*
X109578223Y-106123025D01*
X109550144Y-106138034D01*
X109519683Y-106147275D01*
X109481860Y-106151000D01*
X108018140Y-106151000D01*
X107980317Y-106147275D01*
X107949856Y-106138034D01*
X107921777Y-106123025D01*
X107897169Y-106102831D01*
X107876975Y-106078223D01*
X107861966Y-106050144D01*
X107852725Y-106019683D01*
X107849000Y-105981860D01*
X107849000Y-105418140D01*
X107852725Y-105380317D01*
X107861966Y-105349856D01*
X107876975Y-105321777D01*
X107897169Y-105297169D01*
X107921777Y-105276975D01*
X107949856Y-105261966D01*
X107980317Y-105252725D01*
X108018140Y-105249000D01*
X109481860Y-105249000D01*
X109519683Y-105252725D01*
X109519683Y-105252725D01*
G37*
G36*
X104284617Y-104162965D02*
X104317430Y-104172918D01*
X104347667Y-104189080D01*
X104374170Y-104210830D01*
X104395920Y-104237333D01*
X104412082Y-104267570D01*
X104422035Y-104300383D01*
X104426000Y-104340640D01*
X104426000Y-105059360D01*
X104422035Y-105099617D01*
X104412082Y-105132430D01*
X104395920Y-105162667D01*
X104374170Y-105189170D01*
X104347667Y-105210920D01*
X104317430Y-105227082D01*
X104284617Y-105237035D01*
X104244360Y-105241000D01*
X103655640Y-105241000D01*
X103615383Y-105237035D01*
X103582570Y-105227082D01*
X103552333Y-105210920D01*
X103525830Y-105189170D01*
X103504080Y-105162667D01*
X103487918Y-105132430D01*
X103477965Y-105099617D01*
X103474000Y-105059360D01*
X103474000Y-104340640D01*
X103477965Y-104300383D01*
X103487918Y-104267570D01*
X103504080Y-104237333D01*
X103525830Y-104210830D01*
X103552333Y-104189080D01*
X103582570Y-104172918D01*
X103615383Y-104162965D01*
X103655640Y-104159000D01*
X104244360Y-104159000D01*
X104284617Y-104162965D01*
X104284617Y-104162965D01*
G37*
G36*
X102734617Y-104162965D02*
X102767430Y-104172918D01*
X102797667Y-104189080D01*
X102824170Y-104210830D01*
X102845920Y-104237333D01*
X102862082Y-104267570D01*
X102872035Y-104300383D01*
X102876000Y-104340640D01*
X102876000Y-105059360D01*
X102872035Y-105099617D01*
X102862082Y-105132430D01*
X102845920Y-105162667D01*
X102824170Y-105189170D01*
X102797667Y-105210920D01*
X102767430Y-105227082D01*
X102734617Y-105237035D01*
X102694360Y-105241000D01*
X102105640Y-105241000D01*
X102065383Y-105237035D01*
X102032570Y-105227082D01*
X102002333Y-105210920D01*
X101975830Y-105189170D01*
X101954080Y-105162667D01*
X101937918Y-105132430D01*
X101927965Y-105099617D01*
X101924000Y-105059360D01*
X101924000Y-104340640D01*
X101927965Y-104300383D01*
X101937918Y-104267570D01*
X101954080Y-104237333D01*
X101975830Y-104210830D01*
X102002333Y-104189080D01*
X102032570Y-104172918D01*
X102065383Y-104162965D01*
X102105640Y-104159000D01*
X102694360Y-104159000D01*
X102734617Y-104162965D01*
X102734617Y-104162965D01*
G37*
G36*
X97401000Y-104976000D02*
X95599000Y-104976000D01*
X95599000Y-104224000D01*
X97401000Y-104224000D01*
X97401000Y-104976000D01*
X97401000Y-104976000D01*
G37*
G36*
X94401000Y-104976000D02*
X92599000Y-104976000D01*
X92599000Y-104224000D01*
X94401000Y-104224000D01*
X94401000Y-104976000D01*
X94401000Y-104976000D01*
G37*
G36*
X100401000Y-104926000D02*
X98599000Y-104926000D01*
X98599000Y-104174000D01*
X100401000Y-104174000D01*
X100401000Y-104926000D01*
X100401000Y-104926000D01*
G37*
G36*
X109519683Y-101852725D02*
X109550144Y-101861966D01*
X109578223Y-101876975D01*
X109602831Y-101897169D01*
X109623025Y-101921777D01*
X109638034Y-101949856D01*
X109647275Y-101980317D01*
X109651000Y-102018140D01*
X109651000Y-102581860D01*
X109647275Y-102619683D01*
X109638034Y-102650144D01*
X109623025Y-102678223D01*
X109602831Y-102702831D01*
X109578223Y-102723025D01*
X109550144Y-102738034D01*
X109519683Y-102747275D01*
X109481860Y-102751000D01*
X108018140Y-102751000D01*
X107980317Y-102747275D01*
X107949856Y-102738034D01*
X107921777Y-102723025D01*
X107897169Y-102702831D01*
X107876975Y-102678223D01*
X107861966Y-102650144D01*
X107852725Y-102619683D01*
X107849000Y-102581860D01*
X107849000Y-102018140D01*
X107852725Y-101980317D01*
X107861966Y-101949856D01*
X107876975Y-101921777D01*
X107897169Y-101897169D01*
X107921777Y-101876975D01*
X107949856Y-101861966D01*
X107980317Y-101852725D01*
X108018140Y-101849000D01*
X109481860Y-101849000D01*
X109519683Y-101852725D01*
X109519683Y-101852725D01*
G37*
G36*
X99828347Y-95395132D02*
X99833482Y-95396689D01*
X99838218Y-95399220D01*
X99840698Y-95401256D01*
X99861073Y-95414871D01*
X99883711Y-95424249D01*
X99907745Y-95429030D01*
X99932249Y-95429030D01*
X99956283Y-95424250D01*
X99978922Y-95414874D01*
X99999302Y-95401256D01*
X100001782Y-95399220D01*
X100006518Y-95396689D01*
X100011653Y-95395132D01*
X100023141Y-95394000D01*
X100316859Y-95394000D01*
X100328347Y-95395132D01*
X100333482Y-95396689D01*
X100338218Y-95399220D01*
X100340698Y-95401256D01*
X100361073Y-95414871D01*
X100383711Y-95424249D01*
X100407745Y-95429030D01*
X100432249Y-95429030D01*
X100456283Y-95424250D01*
X100478922Y-95414874D01*
X100499302Y-95401256D01*
X100501782Y-95399220D01*
X100506518Y-95396689D01*
X100511653Y-95395132D01*
X100523141Y-95394000D01*
X100816859Y-95394000D01*
X100828347Y-95395132D01*
X100833482Y-95396689D01*
X100838218Y-95399220D01*
X100840698Y-95401256D01*
X100861073Y-95414871D01*
X100883711Y-95424249D01*
X100907745Y-95429030D01*
X100932249Y-95429030D01*
X100956283Y-95424250D01*
X100978922Y-95414874D01*
X100999302Y-95401256D01*
X101001782Y-95399220D01*
X101006518Y-95396689D01*
X101011653Y-95395132D01*
X101023141Y-95394000D01*
X101316859Y-95394000D01*
X101328347Y-95395132D01*
X101333482Y-95396689D01*
X101338218Y-95399220D01*
X101340698Y-95401256D01*
X101361073Y-95414871D01*
X101383711Y-95424249D01*
X101407745Y-95429030D01*
X101432249Y-95429030D01*
X101456283Y-95424250D01*
X101478922Y-95414874D01*
X101499302Y-95401256D01*
X101501782Y-95399220D01*
X101506518Y-95396689D01*
X101511653Y-95395132D01*
X101523141Y-95394000D01*
X101816859Y-95394000D01*
X101828347Y-95395132D01*
X101833482Y-95396689D01*
X101838218Y-95399220D01*
X101840698Y-95401256D01*
X101861073Y-95414871D01*
X101883711Y-95424249D01*
X101907745Y-95429030D01*
X101932249Y-95429030D01*
X101956283Y-95424250D01*
X101978922Y-95414874D01*
X101999302Y-95401256D01*
X102001782Y-95399220D01*
X102006518Y-95396689D01*
X102011653Y-95395132D01*
X102023141Y-95394000D01*
X102316859Y-95394000D01*
X102328347Y-95395132D01*
X102333482Y-95396689D01*
X102338218Y-95399220D01*
X102340698Y-95401256D01*
X102361073Y-95414871D01*
X102383711Y-95424249D01*
X102407745Y-95429030D01*
X102432249Y-95429030D01*
X102456283Y-95424250D01*
X102478922Y-95414874D01*
X102499302Y-95401256D01*
X102501782Y-95399220D01*
X102506518Y-95396689D01*
X102511653Y-95395132D01*
X102523141Y-95394000D01*
X102816859Y-95394000D01*
X102828347Y-95395132D01*
X102833482Y-95396689D01*
X102838218Y-95399220D01*
X102840698Y-95401256D01*
X102861073Y-95414871D01*
X102883711Y-95424249D01*
X102907745Y-95429030D01*
X102932249Y-95429030D01*
X102956283Y-95424250D01*
X102978922Y-95414874D01*
X102999302Y-95401256D01*
X103001782Y-95399220D01*
X103006518Y-95396689D01*
X103011653Y-95395132D01*
X103023141Y-95394000D01*
X103316859Y-95394000D01*
X103328347Y-95395132D01*
X103333482Y-95396689D01*
X103338218Y-95399220D01*
X103342371Y-95402629D01*
X103345780Y-95406782D01*
X103348311Y-95411518D01*
X103349868Y-95416653D01*
X103351000Y-95428141D01*
X103351000Y-96164000D01*
X103353402Y-96188386D01*
X103360515Y-96211835D01*
X103372066Y-96233446D01*
X103387612Y-96252388D01*
X103406554Y-96267934D01*
X103428165Y-96279485D01*
X103451614Y-96286598D01*
X103476000Y-96289000D01*
X104211859Y-96289000D01*
X104223347Y-96290132D01*
X104228482Y-96291689D01*
X104233218Y-96294220D01*
X104237371Y-96297629D01*
X104240780Y-96301782D01*
X104243311Y-96306518D01*
X104244868Y-96311653D01*
X104246000Y-96323141D01*
X104246000Y-96616859D01*
X104244868Y-96628347D01*
X104243311Y-96633482D01*
X104240780Y-96638218D01*
X104238744Y-96640698D01*
X104225129Y-96661073D01*
X104215751Y-96683711D01*
X104210970Y-96707745D01*
X104210970Y-96732249D01*
X104215750Y-96756283D01*
X104225126Y-96778922D01*
X104238744Y-96799302D01*
X104240780Y-96801782D01*
X104243311Y-96806518D01*
X104244868Y-96811653D01*
X104246000Y-96823141D01*
X104246000Y-97116859D01*
X104244868Y-97128347D01*
X104243311Y-97133482D01*
X104240780Y-97138218D01*
X104238744Y-97140698D01*
X104225129Y-97161073D01*
X104215751Y-97183711D01*
X104210970Y-97207745D01*
X104210970Y-97232249D01*
X104215750Y-97256283D01*
X104225126Y-97278922D01*
X104238744Y-97299302D01*
X104240780Y-97301782D01*
X104243311Y-97306518D01*
X104244868Y-97311653D01*
X104246000Y-97323141D01*
X104246000Y-97616859D01*
X104244868Y-97628347D01*
X104243311Y-97633482D01*
X104240780Y-97638218D01*
X104238744Y-97640698D01*
X104225129Y-97661073D01*
X104215751Y-97683711D01*
X104210970Y-97707745D01*
X104210970Y-97732249D01*
X104215750Y-97756283D01*
X104225126Y-97778922D01*
X104238744Y-97799302D01*
X104240780Y-97801782D01*
X104243311Y-97806518D01*
X104244868Y-97811653D01*
X104246000Y-97823141D01*
X104246000Y-98116859D01*
X104244868Y-98128347D01*
X104243311Y-98133482D01*
X104240780Y-98138218D01*
X104238744Y-98140698D01*
X104225129Y-98161073D01*
X104215751Y-98183711D01*
X104210970Y-98207745D01*
X104210970Y-98232249D01*
X104215750Y-98256283D01*
X104225126Y-98278922D01*
X104238744Y-98299302D01*
X104240780Y-98301782D01*
X104243311Y-98306518D01*
X104244868Y-98311653D01*
X104246000Y-98323141D01*
X104246000Y-98616859D01*
X104244868Y-98628347D01*
X104243311Y-98633482D01*
X104240780Y-98638218D01*
X104238744Y-98640698D01*
X104225129Y-98661073D01*
X104215751Y-98683711D01*
X104210970Y-98707745D01*
X104210970Y-98732249D01*
X104215750Y-98756283D01*
X104225126Y-98778922D01*
X104238744Y-98799302D01*
X104240780Y-98801782D01*
X104243311Y-98806518D01*
X104244868Y-98811653D01*
X104246000Y-98823141D01*
X104246000Y-99116859D01*
X104244868Y-99128347D01*
X104243311Y-99133482D01*
X104240780Y-99138218D01*
X104238744Y-99140698D01*
X104225129Y-99161073D01*
X104215751Y-99183711D01*
X104210970Y-99207745D01*
X104210970Y-99232249D01*
X104215750Y-99256283D01*
X104225126Y-99278922D01*
X104238744Y-99299302D01*
X104240780Y-99301782D01*
X104243311Y-99306518D01*
X104244868Y-99311653D01*
X104246000Y-99323141D01*
X104246000Y-99616859D01*
X104244868Y-99628347D01*
X104243311Y-99633482D01*
X104240780Y-99638218D01*
X104238744Y-99640698D01*
X104225129Y-99661073D01*
X104215751Y-99683711D01*
X104210970Y-99707745D01*
X104210970Y-99732249D01*
X104215750Y-99756283D01*
X104225126Y-99778922D01*
X104238744Y-99799302D01*
X104240780Y-99801782D01*
X104243311Y-99806518D01*
X104244868Y-99811653D01*
X104246000Y-99823141D01*
X104246000Y-100116859D01*
X104244868Y-100128347D01*
X104243311Y-100133482D01*
X104240780Y-100138218D01*
X104237371Y-100142371D01*
X104233218Y-100145780D01*
X104228482Y-100148311D01*
X104223347Y-100149868D01*
X104211859Y-100151000D01*
X103476000Y-100151000D01*
X103451614Y-100153402D01*
X103428165Y-100160515D01*
X103406554Y-100172066D01*
X103387612Y-100187612D01*
X103372066Y-100206554D01*
X103360515Y-100228165D01*
X103353402Y-100251614D01*
X103351000Y-100276000D01*
X103351000Y-101011859D01*
X103349868Y-101023347D01*
X103348311Y-101028482D01*
X103345780Y-101033218D01*
X103342371Y-101037371D01*
X103338218Y-101040780D01*
X103333482Y-101043311D01*
X103328347Y-101044868D01*
X103316859Y-101046000D01*
X103023141Y-101046000D01*
X103011653Y-101044868D01*
X103006518Y-101043311D01*
X103001782Y-101040780D01*
X102999302Y-101038744D01*
X102978927Y-101025129D01*
X102956289Y-101015751D01*
X102932255Y-101010970D01*
X102907751Y-101010970D01*
X102883717Y-101015750D01*
X102861078Y-101025126D01*
X102840698Y-101038744D01*
X102838218Y-101040780D01*
X102833482Y-101043311D01*
X102828347Y-101044868D01*
X102816859Y-101046000D01*
X102523141Y-101046000D01*
X102511653Y-101044868D01*
X102506518Y-101043311D01*
X102501782Y-101040780D01*
X102499302Y-101038744D01*
X102478927Y-101025129D01*
X102456289Y-101015751D01*
X102432255Y-101010970D01*
X102407751Y-101010970D01*
X102383717Y-101015750D01*
X102361078Y-101025126D01*
X102340698Y-101038744D01*
X102338218Y-101040780D01*
X102333482Y-101043311D01*
X102328347Y-101044868D01*
X102316859Y-101046000D01*
X102023141Y-101046000D01*
X102011653Y-101044868D01*
X102006518Y-101043311D01*
X102001782Y-101040780D01*
X101999302Y-101038744D01*
X101978927Y-101025129D01*
X101956289Y-101015751D01*
X101932255Y-101010970D01*
X101907751Y-101010970D01*
X101883717Y-101015750D01*
X101861078Y-101025126D01*
X101840698Y-101038744D01*
X101838218Y-101040780D01*
X101833482Y-101043311D01*
X101828347Y-101044868D01*
X101816859Y-101046000D01*
X101523141Y-101046000D01*
X101511653Y-101044868D01*
X101506518Y-101043311D01*
X101501782Y-101040780D01*
X101499302Y-101038744D01*
X101478927Y-101025129D01*
X101456289Y-101015751D01*
X101432255Y-101010970D01*
X101407751Y-101010970D01*
X101383717Y-101015750D01*
X101361078Y-101025126D01*
X101340698Y-101038744D01*
X101338218Y-101040780D01*
X101333482Y-101043311D01*
X101328347Y-101044868D01*
X101316859Y-101046000D01*
X101023141Y-101046000D01*
X101011653Y-101044868D01*
X101006518Y-101043311D01*
X101001782Y-101040780D01*
X100999302Y-101038744D01*
X100978927Y-101025129D01*
X100956289Y-101015751D01*
X100932255Y-101010970D01*
X100907751Y-101010970D01*
X100883717Y-101015750D01*
X100861078Y-101025126D01*
X100840698Y-101038744D01*
X100838218Y-101040780D01*
X100833482Y-101043311D01*
X100828347Y-101044868D01*
X100816859Y-101046000D01*
X100523141Y-101046000D01*
X100511653Y-101044868D01*
X100506518Y-101043311D01*
X100501782Y-101040780D01*
X100499302Y-101038744D01*
X100478927Y-101025129D01*
X100456289Y-101015751D01*
X100432255Y-101010970D01*
X100407751Y-101010970D01*
X100383717Y-101015750D01*
X100361078Y-101025126D01*
X100340698Y-101038744D01*
X100338218Y-101040780D01*
X100333482Y-101043311D01*
X100328347Y-101044868D01*
X100316859Y-101046000D01*
X100023141Y-101046000D01*
X100011653Y-101044868D01*
X100006518Y-101043311D01*
X100001782Y-101040780D01*
X99999302Y-101038744D01*
X99978927Y-101025129D01*
X99956289Y-101015751D01*
X99932255Y-101010970D01*
X99907751Y-101010970D01*
X99883717Y-101015750D01*
X99861078Y-101025126D01*
X99840698Y-101038744D01*
X99838218Y-101040780D01*
X99833482Y-101043311D01*
X99828347Y-101044868D01*
X99816859Y-101046000D01*
X99523141Y-101046000D01*
X99511653Y-101044868D01*
X99506518Y-101043311D01*
X99501782Y-101040780D01*
X99497629Y-101037371D01*
X99494220Y-101033218D01*
X99491689Y-101028482D01*
X99490132Y-101023347D01*
X99489000Y-101011859D01*
X99489000Y-100276000D01*
X99486598Y-100251614D01*
X99479485Y-100228165D01*
X99467934Y-100206554D01*
X99452388Y-100187612D01*
X99433446Y-100172066D01*
X99411835Y-100160515D01*
X99388386Y-100153402D01*
X99364000Y-100151000D01*
X98628141Y-100151000D01*
X98616653Y-100149868D01*
X98611518Y-100148311D01*
X98606782Y-100145780D01*
X98602629Y-100142371D01*
X98599220Y-100138218D01*
X98596689Y-100133482D01*
X98595132Y-100128347D01*
X98594000Y-100116859D01*
X98594000Y-99823141D01*
X98595132Y-99811653D01*
X98596689Y-99806518D01*
X98599220Y-99801782D01*
X98601256Y-99799302D01*
X98614871Y-99778927D01*
X98624249Y-99756289D01*
X98629030Y-99732255D01*
X98629030Y-99707751D01*
X98624250Y-99683717D01*
X98614874Y-99661078D01*
X98601256Y-99640698D01*
X98599220Y-99638218D01*
X98596689Y-99633482D01*
X98595132Y-99628347D01*
X98594000Y-99616859D01*
X98594000Y-99323141D01*
X98595132Y-99311653D01*
X98596689Y-99306518D01*
X98599220Y-99301782D01*
X98601256Y-99299302D01*
X98614871Y-99278927D01*
X98624249Y-99256289D01*
X98629030Y-99232255D01*
X98629030Y-99207751D01*
X98624250Y-99183717D01*
X98614874Y-99161078D01*
X98601256Y-99140698D01*
X98599220Y-99138218D01*
X98596689Y-99133482D01*
X98595132Y-99128347D01*
X98594000Y-99116859D01*
X98594000Y-98823141D01*
X98595132Y-98811653D01*
X98596689Y-98806518D01*
X98599220Y-98801782D01*
X98601256Y-98799302D01*
X98614871Y-98778927D01*
X98624249Y-98756289D01*
X98629030Y-98732255D01*
X98629030Y-98707751D01*
X98624250Y-98683717D01*
X98614874Y-98661078D01*
X98601256Y-98640698D01*
X98599220Y-98638218D01*
X98596689Y-98633482D01*
X98595132Y-98628347D01*
X98594000Y-98616859D01*
X98594000Y-98323141D01*
X98595132Y-98311653D01*
X98596689Y-98306518D01*
X98599220Y-98301782D01*
X98601256Y-98299302D01*
X98614871Y-98278927D01*
X98624249Y-98256289D01*
X98629030Y-98232255D01*
X98629030Y-98207751D01*
X98624250Y-98183717D01*
X98614874Y-98161078D01*
X98601256Y-98140698D01*
X98599220Y-98138218D01*
X98596689Y-98133482D01*
X98595132Y-98128347D01*
X98594000Y-98116859D01*
X98594000Y-97823141D01*
X98595132Y-97811653D01*
X98596689Y-97806518D01*
X98599220Y-97801782D01*
X98601256Y-97799302D01*
X98614871Y-97778927D01*
X98624249Y-97756289D01*
X98629030Y-97732255D01*
X98629030Y-97707751D01*
X98624250Y-97683717D01*
X98614874Y-97661078D01*
X98601256Y-97640698D01*
X98599220Y-97638218D01*
X98596689Y-97633482D01*
X98595132Y-97628347D01*
X98594000Y-97616859D01*
X98594000Y-97323141D01*
X98595132Y-97311653D01*
X98596689Y-97306518D01*
X98599220Y-97301782D01*
X98601256Y-97299302D01*
X98614871Y-97278927D01*
X98624249Y-97256289D01*
X98629030Y-97232255D01*
X98629030Y-97207751D01*
X98624250Y-97183717D01*
X98614874Y-97161078D01*
X98601256Y-97140698D01*
X98599220Y-97138218D01*
X98596689Y-97133482D01*
X98595132Y-97128347D01*
X98594000Y-97116859D01*
X98594000Y-96823141D01*
X98595132Y-96811653D01*
X98596689Y-96806518D01*
X98599220Y-96801782D01*
X98601256Y-96799302D01*
X98614871Y-96778927D01*
X98624249Y-96756289D01*
X98629030Y-96732255D01*
X98629030Y-96707751D01*
X98629029Y-96707745D01*
X99440970Y-96707745D01*
X99440970Y-96732249D01*
X99445750Y-96756283D01*
X99455126Y-96778922D01*
X99468744Y-96799302D01*
X99470780Y-96801782D01*
X99473311Y-96806518D01*
X99474868Y-96811653D01*
X99476000Y-96823141D01*
X99476000Y-97116859D01*
X99474868Y-97128347D01*
X99473311Y-97133482D01*
X99470780Y-97138218D01*
X99468744Y-97140698D01*
X99455129Y-97161073D01*
X99445751Y-97183711D01*
X99440970Y-97207745D01*
X99440970Y-97232249D01*
X99445750Y-97256283D01*
X99455126Y-97278922D01*
X99468744Y-97299302D01*
X99470780Y-97301782D01*
X99473311Y-97306518D01*
X99474868Y-97311653D01*
X99476000Y-97323141D01*
X99476000Y-97616859D01*
X99474868Y-97628347D01*
X99473311Y-97633482D01*
X99470780Y-97638218D01*
X99468744Y-97640698D01*
X99455129Y-97661073D01*
X99445751Y-97683711D01*
X99440970Y-97707745D01*
X99440970Y-97732249D01*
X99445750Y-97756283D01*
X99455126Y-97778922D01*
X99468744Y-97799302D01*
X99470780Y-97801782D01*
X99473311Y-97806518D01*
X99474868Y-97811653D01*
X99476000Y-97823141D01*
X99476000Y-98116859D01*
X99474868Y-98128347D01*
X99473311Y-98133482D01*
X99470780Y-98138218D01*
X99468744Y-98140698D01*
X99455129Y-98161073D01*
X99445751Y-98183711D01*
X99440970Y-98207745D01*
X99440970Y-98232249D01*
X99445750Y-98256283D01*
X99455126Y-98278922D01*
X99468744Y-98299302D01*
X99470780Y-98301782D01*
X99473311Y-98306518D01*
X99474868Y-98311653D01*
X99476000Y-98323141D01*
X99476000Y-98616859D01*
X99474868Y-98628347D01*
X99473311Y-98633482D01*
X99470780Y-98638218D01*
X99468744Y-98640698D01*
X99455129Y-98661073D01*
X99445751Y-98683711D01*
X99440970Y-98707745D01*
X99440970Y-98732249D01*
X99445750Y-98756283D01*
X99455126Y-98778922D01*
X99468744Y-98799302D01*
X99470780Y-98801782D01*
X99473311Y-98806518D01*
X99474868Y-98811653D01*
X99476000Y-98823141D01*
X99476000Y-99116859D01*
X99474868Y-99128347D01*
X99473311Y-99133482D01*
X99470780Y-99138218D01*
X99468744Y-99140698D01*
X99455129Y-99161073D01*
X99445751Y-99183711D01*
X99440970Y-99207745D01*
X99440970Y-99232249D01*
X99445750Y-99256283D01*
X99455126Y-99278922D01*
X99468744Y-99299302D01*
X99470780Y-99301782D01*
X99473311Y-99306518D01*
X99474868Y-99311653D01*
X99476000Y-99323141D01*
X99476000Y-99616859D01*
X99474868Y-99628347D01*
X99473311Y-99633482D01*
X99470780Y-99638218D01*
X99468744Y-99640698D01*
X99455129Y-99661073D01*
X99445751Y-99683711D01*
X99440970Y-99707745D01*
X99440970Y-99732249D01*
X99445750Y-99756283D01*
X99455126Y-99778922D01*
X99468744Y-99799302D01*
X99470780Y-99801782D01*
X99473311Y-99806518D01*
X99474868Y-99811653D01*
X99476000Y-99823141D01*
X99476000Y-100039000D01*
X99478402Y-100063386D01*
X99485515Y-100086835D01*
X99497066Y-100108446D01*
X99512612Y-100127388D01*
X99531554Y-100142934D01*
X99553165Y-100154485D01*
X99576614Y-100161598D01*
X99601000Y-100164000D01*
X99816859Y-100164000D01*
X99828347Y-100165132D01*
X99833482Y-100166689D01*
X99838218Y-100169220D01*
X99840698Y-100171256D01*
X99861073Y-100184871D01*
X99883711Y-100194249D01*
X99907745Y-100199030D01*
X99932249Y-100199030D01*
X99956283Y-100194250D01*
X99978922Y-100184874D01*
X99999302Y-100171256D01*
X100001782Y-100169220D01*
X100006518Y-100166689D01*
X100011653Y-100165132D01*
X100023141Y-100164000D01*
X100316859Y-100164000D01*
X100328347Y-100165132D01*
X100333482Y-100166689D01*
X100338218Y-100169220D01*
X100340698Y-100171256D01*
X100361073Y-100184871D01*
X100383711Y-100194249D01*
X100407745Y-100199030D01*
X100432249Y-100199030D01*
X100456283Y-100194250D01*
X100478922Y-100184874D01*
X100499302Y-100171256D01*
X100501782Y-100169220D01*
X100506518Y-100166689D01*
X100511653Y-100165132D01*
X100523141Y-100164000D01*
X100816859Y-100164000D01*
X100828347Y-100165132D01*
X100833482Y-100166689D01*
X100838218Y-100169220D01*
X100840698Y-100171256D01*
X100861073Y-100184871D01*
X100883711Y-100194249D01*
X100907745Y-100199030D01*
X100932249Y-100199030D01*
X100956283Y-100194250D01*
X100978922Y-100184874D01*
X100999302Y-100171256D01*
X101001782Y-100169220D01*
X101006518Y-100166689D01*
X101011653Y-100165132D01*
X101023141Y-100164000D01*
X101316859Y-100164000D01*
X101328347Y-100165132D01*
X101333482Y-100166689D01*
X101338218Y-100169220D01*
X101340698Y-100171256D01*
X101361073Y-100184871D01*
X101383711Y-100194249D01*
X101407745Y-100199030D01*
X101432249Y-100199030D01*
X101456283Y-100194250D01*
X101478922Y-100184874D01*
X101499302Y-100171256D01*
X101501782Y-100169220D01*
X101506518Y-100166689D01*
X101511653Y-100165132D01*
X101523141Y-100164000D01*
X101816859Y-100164000D01*
X101828347Y-100165132D01*
X101833482Y-100166689D01*
X101838218Y-100169220D01*
X101840698Y-100171256D01*
X101861073Y-100184871D01*
X101883711Y-100194249D01*
X101907745Y-100199030D01*
X101932249Y-100199030D01*
X101956283Y-100194250D01*
X101978922Y-100184874D01*
X101999302Y-100171256D01*
X102001782Y-100169220D01*
X102006518Y-100166689D01*
X102011653Y-100165132D01*
X102023141Y-100164000D01*
X102316859Y-100164000D01*
X102328347Y-100165132D01*
X102333482Y-100166689D01*
X102338218Y-100169220D01*
X102340698Y-100171256D01*
X102361073Y-100184871D01*
X102383711Y-100194249D01*
X102407745Y-100199030D01*
X102432249Y-100199030D01*
X102456283Y-100194250D01*
X102478922Y-100184874D01*
X102499302Y-100171256D01*
X102501782Y-100169220D01*
X102506518Y-100166689D01*
X102511653Y-100165132D01*
X102523141Y-100164000D01*
X102816859Y-100164000D01*
X102828347Y-100165132D01*
X102833482Y-100166689D01*
X102838218Y-100169220D01*
X102840698Y-100171256D01*
X102861073Y-100184871D01*
X102883711Y-100194249D01*
X102907745Y-100199030D01*
X102932249Y-100199030D01*
X102956283Y-100194250D01*
X102978922Y-100184874D01*
X102999302Y-100171256D01*
X103001782Y-100169220D01*
X103006518Y-100166689D01*
X103011653Y-100165132D01*
X103023141Y-100164000D01*
X103239000Y-100164000D01*
X103263386Y-100161598D01*
X103286835Y-100154485D01*
X103308446Y-100142934D01*
X103327388Y-100127388D01*
X103342934Y-100108446D01*
X103354485Y-100086835D01*
X103361598Y-100063386D01*
X103364000Y-100039000D01*
X103364000Y-99823141D01*
X103365132Y-99811653D01*
X103366689Y-99806518D01*
X103369220Y-99801782D01*
X103371256Y-99799302D01*
X103384871Y-99778927D01*
X103394249Y-99756289D01*
X103399030Y-99732255D01*
X103399030Y-99707751D01*
X103394250Y-99683717D01*
X103384874Y-99661078D01*
X103371256Y-99640698D01*
X103369220Y-99638218D01*
X103366689Y-99633482D01*
X103365132Y-99628347D01*
X103364000Y-99616859D01*
X103364000Y-99323141D01*
X103365132Y-99311653D01*
X103366689Y-99306518D01*
X103369220Y-99301782D01*
X103371256Y-99299302D01*
X103384871Y-99278927D01*
X103394249Y-99256289D01*
X103399030Y-99232255D01*
X103399030Y-99207751D01*
X103394250Y-99183717D01*
X103384874Y-99161078D01*
X103371256Y-99140698D01*
X103369220Y-99138218D01*
X103366689Y-99133482D01*
X103365132Y-99128347D01*
X103364000Y-99116859D01*
X103364000Y-98823141D01*
X103365132Y-98811653D01*
X103366689Y-98806518D01*
X103369220Y-98801782D01*
X103371256Y-98799302D01*
X103384871Y-98778927D01*
X103394249Y-98756289D01*
X103399030Y-98732255D01*
X103399030Y-98707751D01*
X103394250Y-98683717D01*
X103384874Y-98661078D01*
X103371256Y-98640698D01*
X103369220Y-98638218D01*
X103366689Y-98633482D01*
X103365132Y-98628347D01*
X103364000Y-98616859D01*
X103364000Y-98323141D01*
X103365132Y-98311653D01*
X103366689Y-98306518D01*
X103369220Y-98301782D01*
X103371256Y-98299302D01*
X103384871Y-98278927D01*
X103394249Y-98256289D01*
X103399030Y-98232255D01*
X103399030Y-98207751D01*
X103394250Y-98183717D01*
X103384874Y-98161078D01*
X103371256Y-98140698D01*
X103369220Y-98138218D01*
X103366689Y-98133482D01*
X103365132Y-98128347D01*
X103364000Y-98116859D01*
X103364000Y-97823141D01*
X103365132Y-97811653D01*
X103366689Y-97806518D01*
X103369220Y-97801782D01*
X103371256Y-97799302D01*
X103384871Y-97778927D01*
X103394249Y-97756289D01*
X103399030Y-97732255D01*
X103399030Y-97707751D01*
X103394250Y-97683717D01*
X103384874Y-97661078D01*
X103371256Y-97640698D01*
X103369220Y-97638218D01*
X103366689Y-97633482D01*
X103365132Y-97628347D01*
X103364000Y-97616859D01*
X103364000Y-97323141D01*
X103365132Y-97311653D01*
X103366689Y-97306518D01*
X103369220Y-97301782D01*
X103371256Y-97299302D01*
X103384871Y-97278927D01*
X103394249Y-97256289D01*
X103399030Y-97232255D01*
X103399030Y-97207751D01*
X103394250Y-97183717D01*
X103384874Y-97161078D01*
X103371256Y-97140698D01*
X103369220Y-97138218D01*
X103366689Y-97133482D01*
X103365132Y-97128347D01*
X103364000Y-97116859D01*
X103364000Y-96823141D01*
X103365132Y-96811653D01*
X103366689Y-96806518D01*
X103369220Y-96801782D01*
X103371256Y-96799302D01*
X103384871Y-96778927D01*
X103394249Y-96756289D01*
X103399030Y-96732255D01*
X103399030Y-96707751D01*
X103394250Y-96683717D01*
X103384874Y-96661078D01*
X103371256Y-96640698D01*
X103369220Y-96638218D01*
X103366689Y-96633482D01*
X103365132Y-96628347D01*
X103364000Y-96616859D01*
X103364000Y-96401000D01*
X103361598Y-96376614D01*
X103354485Y-96353165D01*
X103342934Y-96331554D01*
X103327388Y-96312612D01*
X103308446Y-96297066D01*
X103286835Y-96285515D01*
X103263386Y-96278402D01*
X103239000Y-96276000D01*
X103023141Y-96276000D01*
X103011653Y-96274868D01*
X103006518Y-96273311D01*
X103001782Y-96270780D01*
X102999302Y-96268744D01*
X102978927Y-96255129D01*
X102956289Y-96245751D01*
X102932255Y-96240970D01*
X102907751Y-96240970D01*
X102883717Y-96245750D01*
X102861078Y-96255126D01*
X102840698Y-96268744D01*
X102838218Y-96270780D01*
X102833482Y-96273311D01*
X102828347Y-96274868D01*
X102816859Y-96276000D01*
X102523141Y-96276000D01*
X102511653Y-96274868D01*
X102506518Y-96273311D01*
X102501782Y-96270780D01*
X102499302Y-96268744D01*
X102478927Y-96255129D01*
X102456289Y-96245751D01*
X102432255Y-96240970D01*
X102407751Y-96240970D01*
X102383717Y-96245750D01*
X102361078Y-96255126D01*
X102340698Y-96268744D01*
X102338218Y-96270780D01*
X102333482Y-96273311D01*
X102328347Y-96274868D01*
X102316859Y-96276000D01*
X102023141Y-96276000D01*
X102011653Y-96274868D01*
X102006518Y-96273311D01*
X102001782Y-96270780D01*
X101999302Y-96268744D01*
X101978927Y-96255129D01*
X101956289Y-96245751D01*
X101932255Y-96240970D01*
X101907751Y-96240970D01*
X101883717Y-96245750D01*
X101861078Y-96255126D01*
X101840698Y-96268744D01*
X101838218Y-96270780D01*
X101833482Y-96273311D01*
X101828347Y-96274868D01*
X101816859Y-96276000D01*
X101523141Y-96276000D01*
X101511653Y-96274868D01*
X101506518Y-96273311D01*
X101501782Y-96270780D01*
X101499302Y-96268744D01*
X101478927Y-96255129D01*
X101456289Y-96245751D01*
X101432255Y-96240970D01*
X101407751Y-96240970D01*
X101383717Y-96245750D01*
X101361078Y-96255126D01*
X101340698Y-96268744D01*
X101338218Y-96270780D01*
X101333482Y-96273311D01*
X101328347Y-96274868D01*
X101316859Y-96276000D01*
X101023141Y-96276000D01*
X101011653Y-96274868D01*
X101006518Y-96273311D01*
X101001782Y-96270780D01*
X100999302Y-96268744D01*
X100978927Y-96255129D01*
X100956289Y-96245751D01*
X100932255Y-96240970D01*
X100907751Y-96240970D01*
X100883717Y-96245750D01*
X100861078Y-96255126D01*
X100840698Y-96268744D01*
X100838218Y-96270780D01*
X100833482Y-96273311D01*
X100828347Y-96274868D01*
X100816859Y-96276000D01*
X100523141Y-96276000D01*
X100511653Y-96274868D01*
X100506518Y-96273311D01*
X100501782Y-96270780D01*
X100499302Y-96268744D01*
X100478927Y-96255129D01*
X100456289Y-96245751D01*
X100432255Y-96240970D01*
X100407751Y-96240970D01*
X100383717Y-96245750D01*
X100361078Y-96255126D01*
X100340698Y-96268744D01*
X100338218Y-96270780D01*
X100333482Y-96273311D01*
X100328347Y-96274868D01*
X100316859Y-96276000D01*
X100023141Y-96276000D01*
X100011653Y-96274868D01*
X100006518Y-96273311D01*
X100001782Y-96270780D01*
X99999302Y-96268744D01*
X99978927Y-96255129D01*
X99956289Y-96245751D01*
X99932255Y-96240970D01*
X99907751Y-96240970D01*
X99883717Y-96245750D01*
X99861078Y-96255126D01*
X99840698Y-96268744D01*
X99838218Y-96270780D01*
X99833482Y-96273311D01*
X99828347Y-96274868D01*
X99816859Y-96276000D01*
X99601000Y-96276000D01*
X99576614Y-96278402D01*
X99553165Y-96285515D01*
X99531554Y-96297066D01*
X99512612Y-96312612D01*
X99497066Y-96331554D01*
X99485515Y-96353165D01*
X99478402Y-96376614D01*
X99476000Y-96401000D01*
X99476000Y-96616859D01*
X99474868Y-96628347D01*
X99473311Y-96633482D01*
X99470780Y-96638218D01*
X99468744Y-96640698D01*
X99455129Y-96661073D01*
X99445751Y-96683711D01*
X99440970Y-96707745D01*
X98629029Y-96707745D01*
X98624250Y-96683717D01*
X98614874Y-96661078D01*
X98601256Y-96640698D01*
X98599220Y-96638218D01*
X98596689Y-96633482D01*
X98595132Y-96628347D01*
X98594000Y-96616859D01*
X98594000Y-96323141D01*
X98595132Y-96311653D01*
X98596689Y-96306518D01*
X98599220Y-96301782D01*
X98602629Y-96297629D01*
X98606782Y-96294220D01*
X98611518Y-96291689D01*
X98616653Y-96290132D01*
X98628141Y-96289000D01*
X99364000Y-96289000D01*
X99388386Y-96286598D01*
X99411835Y-96279485D01*
X99433446Y-96267934D01*
X99452388Y-96252388D01*
X99467934Y-96233446D01*
X99479485Y-96211835D01*
X99486598Y-96188386D01*
X99489000Y-96164000D01*
X99489000Y-95428141D01*
X99490132Y-95416653D01*
X99491689Y-95411518D01*
X99494220Y-95406782D01*
X99497629Y-95402629D01*
X99501782Y-95399220D01*
X99506518Y-95396689D01*
X99511653Y-95395132D01*
X99523141Y-95394000D01*
X99816859Y-95394000D01*
X99828347Y-95395132D01*
X99828347Y-95395132D01*
G37*
G36*
X103111000Y-99911000D02*
X99729000Y-99911000D01*
X99729000Y-96529000D01*
X103111000Y-96529000D01*
X103111000Y-99911000D01*
X103111000Y-99911000D01*
G37*
G36*
X107880536Y-99968301D02*
X107916621Y-99979248D01*
X107949892Y-99997032D01*
X107979044Y-100020956D01*
X108002968Y-100050108D01*
X108020752Y-100083379D01*
X108031699Y-100119464D01*
X108036000Y-100163139D01*
X108036000Y-100786861D01*
X108031699Y-100830536D01*
X108020752Y-100866621D01*
X108002968Y-100899892D01*
X107979044Y-100929044D01*
X107949892Y-100952968D01*
X107916621Y-100970752D01*
X107880536Y-100981699D01*
X107836861Y-100986000D01*
X107163139Y-100986000D01*
X107119464Y-100981699D01*
X107083379Y-100970752D01*
X107050108Y-100952968D01*
X107020956Y-100929044D01*
X106997032Y-100899892D01*
X106979248Y-100866621D01*
X106968301Y-100830536D01*
X106964000Y-100786861D01*
X106964000Y-100163139D01*
X106968301Y-100119464D01*
X106979248Y-100083379D01*
X106997032Y-100050108D01*
X107020956Y-100020956D01*
X107050108Y-99997032D01*
X107083379Y-99979248D01*
X107119464Y-99968301D01*
X107163139Y-99964000D01*
X107836861Y-99964000D01*
X107880536Y-99968301D01*
X107880536Y-99968301D01*
G37*
G36*
X94701000Y-100301000D02*
X94099000Y-100301000D01*
X94099000Y-99399000D01*
X94701000Y-99399000D01*
X94701000Y-100301000D01*
X94701000Y-100301000D01*
G37*
G36*
X92901000Y-100301000D02*
X92299000Y-100301000D01*
X92299000Y-99399000D01*
X92901000Y-99399000D01*
X92901000Y-100301000D01*
X92901000Y-100301000D01*
G37*
G36*
X93701000Y-100301000D02*
X93299000Y-100301000D01*
X93299000Y-99399000D01*
X93701000Y-99399000D01*
X93701000Y-100301000D01*
X93701000Y-100301000D01*
G37*
G36*
X107880536Y-98418301D02*
X107916621Y-98429248D01*
X107949892Y-98447032D01*
X107979044Y-98470956D01*
X108002968Y-98500108D01*
X108020752Y-98533379D01*
X108031699Y-98569464D01*
X108036000Y-98613139D01*
X108036000Y-99236861D01*
X108031699Y-99280536D01*
X108020752Y-99316621D01*
X108002968Y-99349892D01*
X107979044Y-99379044D01*
X107949892Y-99402968D01*
X107916621Y-99420752D01*
X107880536Y-99431699D01*
X107836861Y-99436000D01*
X107163139Y-99436000D01*
X107119464Y-99431699D01*
X107083379Y-99420752D01*
X107050108Y-99402968D01*
X107020956Y-99379044D01*
X106997032Y-99349892D01*
X106979248Y-99316621D01*
X106968301Y-99280536D01*
X106964000Y-99236861D01*
X106964000Y-98613139D01*
X106968301Y-98569464D01*
X106979248Y-98533379D01*
X106997032Y-98500108D01*
X107020956Y-98470956D01*
X107050108Y-98447032D01*
X107083379Y-98429248D01*
X107119464Y-98418301D01*
X107163139Y-98414000D01*
X107836861Y-98414000D01*
X107880536Y-98418301D01*
X107880536Y-98418301D01*
G37*
G36*
X94701000Y-98601000D02*
X94099000Y-98601000D01*
X94099000Y-97699000D01*
X94701000Y-97699000D01*
X94701000Y-98601000D01*
X94701000Y-98601000D01*
G37*
G36*
X93701000Y-98601000D02*
X93299000Y-98601000D01*
X93299000Y-97699000D01*
X93701000Y-97699000D01*
X93701000Y-98601000D01*
X93701000Y-98601000D01*
G37*
G36*
X92901000Y-98601000D02*
X92299000Y-98601000D01*
X92299000Y-97699000D01*
X92901000Y-97699000D01*
X92901000Y-98601000D01*
X92901000Y-98601000D01*
G37*
G36*
X107899617Y-96702965D02*
X107932430Y-96712918D01*
X107962667Y-96729080D01*
X107989170Y-96750830D01*
X108010920Y-96777333D01*
X108027082Y-96807570D01*
X108037035Y-96840383D01*
X108041000Y-96880640D01*
X108041000Y-97469360D01*
X108037035Y-97509617D01*
X108027082Y-97542430D01*
X108010920Y-97572667D01*
X107989170Y-97599170D01*
X107962667Y-97620920D01*
X107932430Y-97637082D01*
X107899617Y-97647035D01*
X107859360Y-97651000D01*
X107140640Y-97651000D01*
X107100383Y-97647035D01*
X107067570Y-97637082D01*
X107037333Y-97620920D01*
X107010830Y-97599170D01*
X106989080Y-97572667D01*
X106972918Y-97542430D01*
X106962965Y-97509617D01*
X106959000Y-97469360D01*
X106959000Y-96880640D01*
X106962965Y-96840383D01*
X106972918Y-96807570D01*
X106989080Y-96777333D01*
X107010830Y-96750830D01*
X107037333Y-96729080D01*
X107067570Y-96712918D01*
X107100383Y-96702965D01*
X107140640Y-96699000D01*
X107859360Y-96699000D01*
X107899617Y-96702965D01*
X107899617Y-96702965D01*
G37*
G36*
X96130536Y-95368301D02*
X96166621Y-95379248D01*
X96199892Y-95397032D01*
X96229044Y-95420956D01*
X96252968Y-95450108D01*
X96270752Y-95483379D01*
X96281699Y-95519464D01*
X96286000Y-95563139D01*
X96286000Y-96236861D01*
X96281699Y-96280536D01*
X96270752Y-96316621D01*
X96252968Y-96349892D01*
X96229044Y-96379044D01*
X96199892Y-96402968D01*
X96166621Y-96420752D01*
X96130536Y-96431699D01*
X96086861Y-96436000D01*
X95463139Y-96436000D01*
X95419464Y-96431699D01*
X95383379Y-96420752D01*
X95350108Y-96402968D01*
X95320956Y-96379044D01*
X95297032Y-96349892D01*
X95279248Y-96316621D01*
X95268301Y-96280536D01*
X95264000Y-96236861D01*
X95264000Y-95563139D01*
X95268301Y-95519464D01*
X95279248Y-95483379D01*
X95297032Y-95450108D01*
X95320956Y-95420956D01*
X95350108Y-95397032D01*
X95383379Y-95379248D01*
X95419464Y-95368301D01*
X95463139Y-95364000D01*
X96086861Y-95364000D01*
X96130536Y-95368301D01*
X96130536Y-95368301D01*
G37*
G36*
X94580536Y-95368301D02*
X94616621Y-95379248D01*
X94649892Y-95397032D01*
X94679044Y-95420956D01*
X94702968Y-95450108D01*
X94720752Y-95483379D01*
X94731699Y-95519464D01*
X94736000Y-95563139D01*
X94736000Y-96236861D01*
X94731699Y-96280536D01*
X94720752Y-96316621D01*
X94702968Y-96349892D01*
X94679044Y-96379044D01*
X94649892Y-96402968D01*
X94616621Y-96420752D01*
X94580536Y-96431699D01*
X94536861Y-96436000D01*
X93913139Y-96436000D01*
X93869464Y-96431699D01*
X93833379Y-96420752D01*
X93800108Y-96402968D01*
X93770956Y-96379044D01*
X93747032Y-96349892D01*
X93729248Y-96316621D01*
X93718301Y-96280536D01*
X93714000Y-96236861D01*
X93714000Y-95563139D01*
X93718301Y-95519464D01*
X93729248Y-95483379D01*
X93747032Y-95450108D01*
X93770956Y-95420956D01*
X93800108Y-95397032D01*
X93833379Y-95379248D01*
X93869464Y-95368301D01*
X93913139Y-95364000D01*
X94536861Y-95364000D01*
X94580536Y-95368301D01*
X94580536Y-95368301D01*
G37*
G36*
X107899617Y-95152965D02*
X107932430Y-95162918D01*
X107962667Y-95179080D01*
X107989170Y-95200830D01*
X108010920Y-95227333D01*
X108027082Y-95257570D01*
X108037035Y-95290383D01*
X108041000Y-95330640D01*
X108041000Y-95919360D01*
X108037035Y-95959617D01*
X108027082Y-95992430D01*
X108010920Y-96022667D01*
X107989170Y-96049170D01*
X107962667Y-96070920D01*
X107932430Y-96087082D01*
X107899617Y-96097035D01*
X107859360Y-96101000D01*
X107140640Y-96101000D01*
X107100383Y-96097035D01*
X107067570Y-96087082D01*
X107037333Y-96070920D01*
X107010830Y-96049170D01*
X106989080Y-96022667D01*
X106972918Y-95992430D01*
X106962965Y-95959617D01*
X106959000Y-95919360D01*
X106959000Y-95330640D01*
X106962965Y-95290383D01*
X106972918Y-95257570D01*
X106989080Y-95227333D01*
X107010830Y-95200830D01*
X107037333Y-95179080D01*
X107067570Y-95162918D01*
X107100383Y-95152965D01*
X107140640Y-95149000D01*
X107859360Y-95149000D01*
X107899617Y-95152965D01*
X107899617Y-95152965D01*
G37*
G36*
X99027142Y-91538242D02*
X99175102Y-91599530D01*
X99308258Y-91688502D01*
X99421498Y-91801742D01*
X99510470Y-91934898D01*
X99571758Y-92082858D01*
X99603000Y-92239925D01*
X99603000Y-92400075D01*
X99571758Y-92557142D01*
X99510470Y-92705102D01*
X99421498Y-92838258D01*
X99308258Y-92951498D01*
X99175102Y-93040470D01*
X99027142Y-93101758D01*
X98870075Y-93133000D01*
X98709925Y-93133000D01*
X98552858Y-93101758D01*
X98404898Y-93040470D01*
X98271742Y-92951498D01*
X98158502Y-92838258D01*
X98069530Y-92705102D01*
X98008242Y-92557142D01*
X97977000Y-92400075D01*
X97977000Y-92239925D01*
X98008242Y-92082858D01*
X98069530Y-91934898D01*
X98158502Y-91801742D01*
X98271742Y-91688502D01*
X98404898Y-91599530D01*
X98552858Y-91538242D01*
X98709925Y-91507000D01*
X98870075Y-91507000D01*
X99027142Y-91538242D01*
X99027142Y-91538242D01*
G37*
G36*
X101457142Y-91538242D02*
X101605102Y-91599530D01*
X101738258Y-91688502D01*
X101851498Y-91801742D01*
X101940470Y-91934898D01*
X102001758Y-92082858D01*
X102033000Y-92239925D01*
X102033000Y-92400075D01*
X102001758Y-92557142D01*
X101940470Y-92705102D01*
X101851498Y-92838258D01*
X101738258Y-92951498D01*
X101605102Y-93040470D01*
X101457142Y-93101758D01*
X101300075Y-93133000D01*
X101139925Y-93133000D01*
X100982858Y-93101758D01*
X100834898Y-93040470D01*
X100701742Y-92951498D01*
X100588502Y-92838258D01*
X100499530Y-92705102D01*
X100438242Y-92557142D01*
X100407000Y-92400075D01*
X100407000Y-92239925D01*
X100438242Y-92082858D01*
X100499530Y-91934898D01*
X100588502Y-91801742D01*
X100701742Y-91688502D01*
X100834898Y-91599530D01*
X100982858Y-91538242D01*
X101139925Y-91507000D01*
X101300075Y-91507000D01*
X101457142Y-91538242D01*
X101457142Y-91538242D01*
G37*
G36*
X100598252Y-85427818D02*
X100598254Y-85427819D01*
X100598255Y-85427819D01*
X100971513Y-85582427D01*
X101302905Y-85803857D01*
X101307439Y-85806886D01*
X101593114Y-86092561D01*
X101593116Y-86092564D01*
X101817573Y-86428487D01*
X101846780Y-86499000D01*
X101972182Y-86801748D01*
X102051000Y-87197993D01*
X102051000Y-87602007D01*
X101976936Y-87974354D01*
X101972181Y-87998255D01*
X101817573Y-88371513D01*
X101817572Y-88371514D01*
X101593114Y-88707439D01*
X101307439Y-88993114D01*
X101307436Y-88993116D01*
X100971513Y-89217573D01*
X100598255Y-89372181D01*
X100598254Y-89372181D01*
X100598252Y-89372182D01*
X100202007Y-89451000D01*
X99797993Y-89451000D01*
X99401748Y-89372182D01*
X99401746Y-89372181D01*
X99401745Y-89372181D01*
X99028487Y-89217573D01*
X98692564Y-88993116D01*
X98692561Y-88993114D01*
X98406886Y-88707439D01*
X98182428Y-88371514D01*
X98182427Y-88371513D01*
X98027819Y-87998255D01*
X98023065Y-87974354D01*
X97949000Y-87602007D01*
X97949000Y-87197993D01*
X98027818Y-86801748D01*
X98153220Y-86499000D01*
X98182427Y-86428487D01*
X98406884Y-86092564D01*
X98406886Y-86092561D01*
X98692561Y-85806886D01*
X98697095Y-85803857D01*
X99028487Y-85582427D01*
X99401745Y-85427819D01*
X99401746Y-85427819D01*
X99401748Y-85427818D01*
X99797993Y-85349000D01*
X100202007Y-85349000D01*
X100598252Y-85427818D01*
X100598252Y-85427818D01*
G37*
G36*
X105342812Y-86533624D02*
X105506784Y-86601544D01*
X105654354Y-86700147D01*
X105779853Y-86825646D01*
X105878456Y-86973216D01*
X105946376Y-87137188D01*
X105981000Y-87311259D01*
X105981000Y-87488741D01*
X105946376Y-87662812D01*
X105878456Y-87826784D01*
X105779853Y-87974354D01*
X105654354Y-88099853D01*
X105506784Y-88198456D01*
X105342812Y-88266376D01*
X105168741Y-88301000D01*
X104991259Y-88301000D01*
X104817188Y-88266376D01*
X104653216Y-88198456D01*
X104505646Y-88099853D01*
X104380147Y-87974354D01*
X104281544Y-87826784D01*
X104213624Y-87662812D01*
X104179000Y-87488741D01*
X104179000Y-87311259D01*
X104213624Y-87137188D01*
X104281544Y-86973216D01*
X104380147Y-86825646D01*
X104505646Y-86700147D01*
X104653216Y-86601544D01*
X104817188Y-86533624D01*
X104991259Y-86499000D01*
X105168741Y-86499000D01*
X105342812Y-86533624D01*
X105342812Y-86533624D01*
G37*
G36*
X95182812Y-86533624D02*
X95346784Y-86601544D01*
X95494354Y-86700147D01*
X95619853Y-86825646D01*
X95718456Y-86973216D01*
X95786376Y-87137188D01*
X95821000Y-87311259D01*
X95821000Y-87488741D01*
X95786376Y-87662812D01*
X95718456Y-87826784D01*
X95619853Y-87974354D01*
X95494354Y-88099853D01*
X95346784Y-88198456D01*
X95182812Y-88266376D01*
X95008741Y-88301000D01*
X94831259Y-88301000D01*
X94657188Y-88266376D01*
X94493216Y-88198456D01*
X94345646Y-88099853D01*
X94220147Y-87974354D01*
X94121544Y-87826784D01*
X94053624Y-87662812D01*
X94019000Y-87488741D01*
X94019000Y-87311259D01*
X94053624Y-87137188D01*
X94121544Y-86973216D01*
X94220147Y-86825646D01*
X94345646Y-86700147D01*
X94493216Y-86601544D01*
X94657188Y-86533624D01*
X94831259Y-86499000D01*
X95008741Y-86499000D01*
X95182812Y-86533624D01*
X95182812Y-86533624D01*
G37*
G36*
X96525734Y-83753232D02*
X96735202Y-83839996D01*
X96923723Y-83965962D01*
X97084038Y-84126277D01*
X97210004Y-84314798D01*
X97296768Y-84524266D01*
X97341000Y-84746635D01*
X97341000Y-84973365D01*
X97296768Y-85195734D01*
X97210004Y-85405202D01*
X97084038Y-85593723D01*
X96923723Y-85754038D01*
X96735202Y-85880004D01*
X96525734Y-85966768D01*
X96303365Y-86011000D01*
X96076635Y-86011000D01*
X95854266Y-85966768D01*
X95644798Y-85880004D01*
X95456277Y-85754038D01*
X95295962Y-85593723D01*
X95169996Y-85405202D01*
X95083232Y-85195734D01*
X95039000Y-84973365D01*
X95039000Y-84746635D01*
X95083232Y-84524266D01*
X95169996Y-84314798D01*
X95295962Y-84126277D01*
X95456277Y-83965962D01*
X95644798Y-83839996D01*
X95854266Y-83753232D01*
X96076635Y-83709000D01*
X96303365Y-83709000D01*
X96525734Y-83753232D01*
X96525734Y-83753232D01*
G37*
G36*
X102875734Y-81213232D02*
X103085202Y-81299996D01*
X103273723Y-81425962D01*
X103434038Y-81586277D01*
X103560004Y-81774798D01*
X103646768Y-81984266D01*
X103691000Y-82206635D01*
X103691000Y-82433365D01*
X103646768Y-82655734D01*
X103560004Y-82865202D01*
X103434038Y-83053723D01*
X103273723Y-83214038D01*
X103085202Y-83340004D01*
X102875734Y-83426768D01*
X102653365Y-83471000D01*
X102426635Y-83471000D01*
X102204266Y-83426768D01*
X101994798Y-83340004D01*
X101806277Y-83214038D01*
X101645962Y-83053723D01*
X101519996Y-82865202D01*
X101433232Y-82655734D01*
X101389000Y-82433365D01*
X101389000Y-82206635D01*
X101433232Y-81984266D01*
X101519996Y-81774798D01*
X101645962Y-81586277D01*
X101806277Y-81425962D01*
X101994798Y-81299996D01*
X102204266Y-81213232D01*
X102426635Y-81169000D01*
X102653365Y-81169000D01*
X102875734Y-81213232D01*
X102875734Y-81213232D01*
G37*
G36*
X104180536Y-78368301D02*
X104216621Y-78379248D01*
X104249892Y-78397032D01*
X104279044Y-78420956D01*
X104302968Y-78450108D01*
X104320752Y-78483379D01*
X104331699Y-78519464D01*
X104336000Y-78563139D01*
X104336000Y-79236861D01*
X104331699Y-79280536D01*
X104320752Y-79316621D01*
X104302968Y-79349892D01*
X104279044Y-79379044D01*
X104249892Y-79402968D01*
X104216621Y-79420752D01*
X104180536Y-79431699D01*
X104136861Y-79436000D01*
X103513139Y-79436000D01*
X103469464Y-79431699D01*
X103433379Y-79420752D01*
X103400108Y-79402968D01*
X103370956Y-79379044D01*
X103347032Y-79349892D01*
X103329248Y-79316621D01*
X103318301Y-79280536D01*
X103314000Y-79236861D01*
X103314000Y-78563139D01*
X103318301Y-78519464D01*
X103329248Y-78483379D01*
X103347032Y-78450108D01*
X103370956Y-78420956D01*
X103400108Y-78397032D01*
X103433379Y-78379248D01*
X103469464Y-78368301D01*
X103513139Y-78364000D01*
X104136861Y-78364000D01*
X104180536Y-78368301D01*
X104180536Y-78368301D01*
G37*
G36*
X105730536Y-78368301D02*
X105766621Y-78379248D01*
X105799892Y-78397032D01*
X105829044Y-78420956D01*
X105852968Y-78450108D01*
X105870752Y-78483379D01*
X105881699Y-78519464D01*
X105886000Y-78563139D01*
X105886000Y-79236861D01*
X105881699Y-79280536D01*
X105870752Y-79316621D01*
X105852968Y-79349892D01*
X105829044Y-79379044D01*
X105799892Y-79402968D01*
X105766621Y-79420752D01*
X105730536Y-79431699D01*
X105686861Y-79436000D01*
X105063139Y-79436000D01*
X105019464Y-79431699D01*
X104983379Y-79420752D01*
X104950108Y-79402968D01*
X104920956Y-79379044D01*
X104897032Y-79349892D01*
X104879248Y-79316621D01*
X104868301Y-79280536D01*
X104864000Y-79236861D01*
X104864000Y-78563139D01*
X104868301Y-78519464D01*
X104879248Y-78483379D01*
X104897032Y-78450108D01*
X104920956Y-78420956D01*
X104950108Y-78397032D01*
X104983379Y-78379248D01*
X105019464Y-78368301D01*
X105063139Y-78364000D01*
X105686861Y-78364000D01*
X105730536Y-78368301D01*
X105730536Y-78368301D01*
G37*
G36*
X98959267Y-77044205D02*
X99102309Y-77103455D01*
X99102311Y-77103456D01*
X99229336Y-77188331D01*
X99231049Y-77189476D01*
X99340524Y-77298951D01*
X99426545Y-77427691D01*
X99485795Y-77570733D01*
X99516000Y-77722584D01*
X99516000Y-77877416D01*
X99485795Y-78029267D01*
X99426545Y-78172309D01*
X99340524Y-78301049D01*
X99231049Y-78410524D01*
X99231046Y-78410526D01*
X99102311Y-78496544D01*
X99102310Y-78496545D01*
X99102309Y-78496545D01*
X98959267Y-78555795D01*
X98807416Y-78586000D01*
X98652584Y-78586000D01*
X98500733Y-78555795D01*
X98357691Y-78496545D01*
X98357690Y-78496545D01*
X98357689Y-78496544D01*
X98228954Y-78410526D01*
X98228951Y-78410524D01*
X98119476Y-78301049D01*
X98033455Y-78172309D01*
X97974205Y-78029267D01*
X97944000Y-77877416D01*
X97944000Y-77722584D01*
X97974205Y-77570733D01*
X98033455Y-77427691D01*
X98119476Y-77298951D01*
X98228951Y-77189476D01*
X98230664Y-77188331D01*
X98357689Y-77103456D01*
X98357691Y-77103455D01*
X98500733Y-77044205D01*
X98652584Y-77014000D01*
X98807416Y-77014000D01*
X98959267Y-77044205D01*
X98959267Y-77044205D01*
G37*
G36*
X102056000Y-78586000D02*
X100484000Y-78586000D01*
X100484000Y-77014000D01*
X102056000Y-77014000D01*
X102056000Y-78586000D01*
X102056000Y-78586000D01*
G37*
G36*
X104159617Y-76762965D02*
X104192430Y-76772918D01*
X104222667Y-76789080D01*
X104249170Y-76810830D01*
X104270920Y-76837333D01*
X104287082Y-76867570D01*
X104297035Y-76900383D01*
X104301000Y-76940640D01*
X104301000Y-77659360D01*
X104297035Y-77699617D01*
X104287082Y-77732430D01*
X104270920Y-77762667D01*
X104249170Y-77789170D01*
X104222667Y-77810920D01*
X104192430Y-77827082D01*
X104159617Y-77837035D01*
X104119360Y-77841000D01*
X103530640Y-77841000D01*
X103490383Y-77837035D01*
X103457570Y-77827082D01*
X103427333Y-77810920D01*
X103400830Y-77789170D01*
X103379080Y-77762667D01*
X103362918Y-77732430D01*
X103352965Y-77699617D01*
X103349000Y-77659360D01*
X103349000Y-76940640D01*
X103352965Y-76900383D01*
X103362918Y-76867570D01*
X103379080Y-76837333D01*
X103400830Y-76810830D01*
X103427333Y-76789080D01*
X103457570Y-76772918D01*
X103490383Y-76762965D01*
X103530640Y-76759000D01*
X104119360Y-76759000D01*
X104159617Y-76762965D01*
X104159617Y-76762965D01*
G37*
G36*
X105709617Y-76762965D02*
X105742430Y-76772918D01*
X105772667Y-76789080D01*
X105799170Y-76810830D01*
X105820920Y-76837333D01*
X105837082Y-76867570D01*
X105847035Y-76900383D01*
X105851000Y-76940640D01*
X105851000Y-77659360D01*
X105847035Y-77699617D01*
X105837082Y-77732430D01*
X105820920Y-77762667D01*
X105799170Y-77789170D01*
X105772667Y-77810920D01*
X105742430Y-77827082D01*
X105709617Y-77837035D01*
X105669360Y-77841000D01*
X105080640Y-77841000D01*
X105040383Y-77837035D01*
X105007570Y-77827082D01*
X104977333Y-77810920D01*
X104950830Y-77789170D01*
X104929080Y-77762667D01*
X104912918Y-77732430D01*
X104902965Y-77699617D01*
X104899000Y-77659360D01*
X104899000Y-76940640D01*
X104902965Y-76900383D01*
X104912918Y-76867570D01*
X104929080Y-76837333D01*
X104950830Y-76810830D01*
X104977333Y-76789080D01*
X105007570Y-76772918D01*
X105040383Y-76762965D01*
X105080640Y-76759000D01*
X105669360Y-76759000D01*
X105709617Y-76762965D01*
X105709617Y-76762965D01*
G37*
M02*
